G04 #@! TF.GenerationSoftware,KiCad,Pcbnew,(5.1.5)-3*
G04 #@! TF.CreationDate,2020-12-06T10:33:18+05:30*
G04 #@! TF.ProjectId,PC-1100X,50432d31-3130-4305-982e-6b696361645f,4*
G04 #@! TF.SameCoordinates,Original*
G04 #@! TF.FileFunction,Other,Fab,Bot*
%FSLAX46Y46*%
G04 Gerber Fmt 4.6, Leading zero omitted, Abs format (unit mm)*
G04 Created by KiCad (PCBNEW (5.1.5)-3) date 2020-12-06 10:33:18*
%MOMM*%
%LPD*%
G04 APERTURE LIST*
%ADD10C,0.100000*%
%ADD11C,0.150000*%
%ADD12C,0.300000*%
%ADD13C,0.400000*%
G04 #@! TA.AperFunction,Profile*
%ADD14C,0.150000*%
G04 #@! TD*
G04 APERTURE END LIST*
D10*
D11*
X177002200Y-166007200D02*
X177002200Y-198007200D01*
X285002200Y-198007200D01*
X285002200Y-166007200D01*
X177002200Y-166007200D01*
D10*
D11*
X10000000Y-10000000D02*
X10000000Y-200007200D01*
X287002200Y-200007200D01*
X287002200Y-10000000D01*
X10000000Y-10000000D01*
D10*
D11*
X12000000Y-12000000D02*
X12000000Y-198007200D01*
X285002200Y-198007200D01*
X285002200Y-12000000D01*
X12000000Y-12000000D01*
D10*
D11*
X60000000Y-12000000D02*
X60000000Y-10000000D01*
D10*
D11*
X110000000Y-12000000D02*
X110000000Y-10000000D01*
D10*
D11*
X160000000Y-12000000D02*
X160000000Y-10000000D01*
D10*
D11*
X210000000Y-12000000D02*
X210000000Y-10000000D01*
D10*
D11*
X260000000Y-12000000D02*
X260000000Y-10000000D01*
D10*
D11*
X36065476Y-11588095D02*
X35322619Y-11588095D01*
X35694047Y-11588095D02*
X35694047Y-10288095D01*
X35570238Y-10473809D01*
X35446428Y-10597619D01*
X35322619Y-10659523D01*
D10*
D11*
X85322619Y-10411904D02*
X85384523Y-10350000D01*
X85508333Y-10288095D01*
X85817857Y-10288095D01*
X85941666Y-10350000D01*
X86003571Y-10411904D01*
X86065476Y-10535714D01*
X86065476Y-10659523D01*
X86003571Y-10845238D01*
X85260714Y-11588095D01*
X86065476Y-11588095D01*
D10*
D11*
X135260714Y-10288095D02*
X136065476Y-10288095D01*
X135632142Y-10783333D01*
X135817857Y-10783333D01*
X135941666Y-10845238D01*
X136003571Y-10907142D01*
X136065476Y-11030952D01*
X136065476Y-11340476D01*
X136003571Y-11464285D01*
X135941666Y-11526190D01*
X135817857Y-11588095D01*
X135446428Y-11588095D01*
X135322619Y-11526190D01*
X135260714Y-11464285D01*
D10*
D11*
X185941666Y-10721428D02*
X185941666Y-11588095D01*
X185632142Y-10226190D02*
X185322619Y-11154761D01*
X186127380Y-11154761D01*
D10*
D11*
X236003571Y-10288095D02*
X235384523Y-10288095D01*
X235322619Y-10907142D01*
X235384523Y-10845238D01*
X235508333Y-10783333D01*
X235817857Y-10783333D01*
X235941666Y-10845238D01*
X236003571Y-10907142D01*
X236065476Y-11030952D01*
X236065476Y-11340476D01*
X236003571Y-11464285D01*
X235941666Y-11526190D01*
X235817857Y-11588095D01*
X235508333Y-11588095D01*
X235384523Y-11526190D01*
X235322619Y-11464285D01*
D10*
D11*
X285941666Y-10288095D02*
X285694047Y-10288095D01*
X285570238Y-10350000D01*
X285508333Y-10411904D01*
X285384523Y-10597619D01*
X285322619Y-10845238D01*
X285322619Y-11340476D01*
X285384523Y-11464285D01*
X285446428Y-11526190D01*
X285570238Y-11588095D01*
X285817857Y-11588095D01*
X285941666Y-11526190D01*
X286003571Y-11464285D01*
X286065476Y-11340476D01*
X286065476Y-11030952D01*
X286003571Y-10907142D01*
X285941666Y-10845238D01*
X285817857Y-10783333D01*
X285570238Y-10783333D01*
X285446428Y-10845238D01*
X285384523Y-10907142D01*
X285322619Y-11030952D01*
D10*
D11*
X60000000Y-198007200D02*
X60000000Y-200007200D01*
D10*
D11*
X110000000Y-198007200D02*
X110000000Y-200007200D01*
D10*
D11*
X160000000Y-198007200D02*
X160000000Y-200007200D01*
D10*
D11*
X210000000Y-198007200D02*
X210000000Y-200007200D01*
D10*
D11*
X260000000Y-198007200D02*
X260000000Y-200007200D01*
D10*
D11*
X36065476Y-199595295D02*
X35322619Y-199595295D01*
X35694047Y-199595295D02*
X35694047Y-198295295D01*
X35570238Y-198481009D01*
X35446428Y-198604819D01*
X35322619Y-198666723D01*
D10*
D11*
X85322619Y-198419104D02*
X85384523Y-198357200D01*
X85508333Y-198295295D01*
X85817857Y-198295295D01*
X85941666Y-198357200D01*
X86003571Y-198419104D01*
X86065476Y-198542914D01*
X86065476Y-198666723D01*
X86003571Y-198852438D01*
X85260714Y-199595295D01*
X86065476Y-199595295D01*
D10*
D11*
X135260714Y-198295295D02*
X136065476Y-198295295D01*
X135632142Y-198790533D01*
X135817857Y-198790533D01*
X135941666Y-198852438D01*
X136003571Y-198914342D01*
X136065476Y-199038152D01*
X136065476Y-199347676D01*
X136003571Y-199471485D01*
X135941666Y-199533390D01*
X135817857Y-199595295D01*
X135446428Y-199595295D01*
X135322619Y-199533390D01*
X135260714Y-199471485D01*
D10*
D11*
X185941666Y-198728628D02*
X185941666Y-199595295D01*
X185632142Y-198233390D02*
X185322619Y-199161961D01*
X186127380Y-199161961D01*
D10*
D11*
X236003571Y-198295295D02*
X235384523Y-198295295D01*
X235322619Y-198914342D01*
X235384523Y-198852438D01*
X235508333Y-198790533D01*
X235817857Y-198790533D01*
X235941666Y-198852438D01*
X236003571Y-198914342D01*
X236065476Y-199038152D01*
X236065476Y-199347676D01*
X236003571Y-199471485D01*
X235941666Y-199533390D01*
X235817857Y-199595295D01*
X235508333Y-199595295D01*
X235384523Y-199533390D01*
X235322619Y-199471485D01*
D10*
D11*
X285941666Y-198295295D02*
X285694047Y-198295295D01*
X285570238Y-198357200D01*
X285508333Y-198419104D01*
X285384523Y-198604819D01*
X285322619Y-198852438D01*
X285322619Y-199347676D01*
X285384523Y-199471485D01*
X285446428Y-199533390D01*
X285570238Y-199595295D01*
X285817857Y-199595295D01*
X285941666Y-199533390D01*
X286003571Y-199471485D01*
X286065476Y-199347676D01*
X286065476Y-199038152D01*
X286003571Y-198914342D01*
X285941666Y-198852438D01*
X285817857Y-198790533D01*
X285570238Y-198790533D01*
X285446428Y-198852438D01*
X285384523Y-198914342D01*
X285322619Y-199038152D01*
D10*
D11*
X10000000Y-60000000D02*
X12000000Y-60000000D01*
D10*
D11*
X10000000Y-110000000D02*
X12000000Y-110000000D01*
D10*
D11*
X10000000Y-160000000D02*
X12000000Y-160000000D01*
D10*
D11*
X10690476Y-35216666D02*
X11309523Y-35216666D01*
X10566666Y-35588095D02*
X11000000Y-34288095D01*
X11433333Y-35588095D01*
D10*
D11*
X11092857Y-84907142D02*
X11278571Y-84969047D01*
X11340476Y-85030952D01*
X11402380Y-85154761D01*
X11402380Y-85340476D01*
X11340476Y-85464285D01*
X11278571Y-85526190D01*
X11154761Y-85588095D01*
X10659523Y-85588095D01*
X10659523Y-84288095D01*
X11092857Y-84288095D01*
X11216666Y-84350000D01*
X11278571Y-84411904D01*
X11340476Y-84535714D01*
X11340476Y-84659523D01*
X11278571Y-84783333D01*
X11216666Y-84845238D01*
X11092857Y-84907142D01*
X10659523Y-84907142D01*
D10*
D11*
X11402380Y-135464285D02*
X11340476Y-135526190D01*
X11154761Y-135588095D01*
X11030952Y-135588095D01*
X10845238Y-135526190D01*
X10721428Y-135402380D01*
X10659523Y-135278571D01*
X10597619Y-135030952D01*
X10597619Y-134845238D01*
X10659523Y-134597619D01*
X10721428Y-134473809D01*
X10845238Y-134350000D01*
X11030952Y-134288095D01*
X11154761Y-134288095D01*
X11340476Y-134350000D01*
X11402380Y-134411904D01*
D10*
D11*
X10659523Y-185588095D02*
X10659523Y-184288095D01*
X10969047Y-184288095D01*
X11154761Y-184350000D01*
X11278571Y-184473809D01*
X11340476Y-184597619D01*
X11402380Y-184845238D01*
X11402380Y-185030952D01*
X11340476Y-185278571D01*
X11278571Y-185402380D01*
X11154761Y-185526190D01*
X10969047Y-185588095D01*
X10659523Y-185588095D01*
D10*
D11*
X287002200Y-60000000D02*
X285002200Y-60000000D01*
D10*
D11*
X287002200Y-110000000D02*
X285002200Y-110000000D01*
D10*
D11*
X287002200Y-160000000D02*
X285002200Y-160000000D01*
D10*
D11*
X285692676Y-35216666D02*
X286311723Y-35216666D01*
X285568866Y-35588095D02*
X286002200Y-34288095D01*
X286435533Y-35588095D01*
D10*
D11*
X286095057Y-84907142D02*
X286280771Y-84969047D01*
X286342676Y-85030952D01*
X286404580Y-85154761D01*
X286404580Y-85340476D01*
X286342676Y-85464285D01*
X286280771Y-85526190D01*
X286156961Y-85588095D01*
X285661723Y-85588095D01*
X285661723Y-84288095D01*
X286095057Y-84288095D01*
X286218866Y-84350000D01*
X286280771Y-84411904D01*
X286342676Y-84535714D01*
X286342676Y-84659523D01*
X286280771Y-84783333D01*
X286218866Y-84845238D01*
X286095057Y-84907142D01*
X285661723Y-84907142D01*
D10*
D11*
X286404580Y-135464285D02*
X286342676Y-135526190D01*
X286156961Y-135588095D01*
X286033152Y-135588095D01*
X285847438Y-135526190D01*
X285723628Y-135402380D01*
X285661723Y-135278571D01*
X285599819Y-135030952D01*
X285599819Y-134845238D01*
X285661723Y-134597619D01*
X285723628Y-134473809D01*
X285847438Y-134350000D01*
X286033152Y-134288095D01*
X286156961Y-134288095D01*
X286342676Y-134350000D01*
X286404580Y-134411904D01*
D10*
D11*
X285661723Y-185588095D02*
X285661723Y-184288095D01*
X285971247Y-184288095D01*
X286156961Y-184350000D01*
X286280771Y-184473809D01*
X286342676Y-184597619D01*
X286404580Y-184845238D01*
X286404580Y-185030952D01*
X286342676Y-185278571D01*
X286280771Y-185402380D01*
X286156961Y-185526190D01*
X285971247Y-185588095D01*
X285661723Y-185588095D01*
D10*
D11*
X200434342Y-193785771D02*
X200434342Y-192285771D01*
X200791485Y-192285771D01*
X201005771Y-192357200D01*
X201148628Y-192500057D01*
X201220057Y-192642914D01*
X201291485Y-192928628D01*
X201291485Y-193142914D01*
X201220057Y-193428628D01*
X201148628Y-193571485D01*
X201005771Y-193714342D01*
X200791485Y-193785771D01*
X200434342Y-193785771D01*
X202577200Y-193785771D02*
X202577200Y-193000057D01*
X202505771Y-192857200D01*
X202362914Y-192785771D01*
X202077200Y-192785771D01*
X201934342Y-192857200D01*
X202577200Y-193714342D02*
X202434342Y-193785771D01*
X202077200Y-193785771D01*
X201934342Y-193714342D01*
X201862914Y-193571485D01*
X201862914Y-193428628D01*
X201934342Y-193285771D01*
X202077200Y-193214342D01*
X202434342Y-193214342D01*
X202577200Y-193142914D01*
X203077200Y-192785771D02*
X203648628Y-192785771D01*
X203291485Y-192285771D02*
X203291485Y-193571485D01*
X203362914Y-193714342D01*
X203505771Y-193785771D01*
X203648628Y-193785771D01*
X204720057Y-193714342D02*
X204577200Y-193785771D01*
X204291485Y-193785771D01*
X204148628Y-193714342D01*
X204077200Y-193571485D01*
X204077200Y-193000057D01*
X204148628Y-192857200D01*
X204291485Y-192785771D01*
X204577200Y-192785771D01*
X204720057Y-192857200D01*
X204791485Y-193000057D01*
X204791485Y-193142914D01*
X204077200Y-193285771D01*
X205434342Y-193642914D02*
X205505771Y-193714342D01*
X205434342Y-193785771D01*
X205362914Y-193714342D01*
X205434342Y-193642914D01*
X205434342Y-193785771D01*
X205434342Y-192857200D02*
X205505771Y-192928628D01*
X205434342Y-193000057D01*
X205362914Y-192928628D01*
X205434342Y-192857200D01*
X205434342Y-193000057D01*
X207220057Y-192428628D02*
X207291485Y-192357200D01*
X207434342Y-192285771D01*
X207791485Y-192285771D01*
X207934342Y-192357200D01*
X208005771Y-192428628D01*
X208077200Y-192571485D01*
X208077200Y-192714342D01*
X208005771Y-192928628D01*
X207148628Y-193785771D01*
X208077200Y-193785771D01*
X209005771Y-192285771D02*
X209148628Y-192285771D01*
X209291485Y-192357200D01*
X209362914Y-192428628D01*
X209434342Y-192571485D01*
X209505771Y-192857200D01*
X209505771Y-193214342D01*
X209434342Y-193500057D01*
X209362914Y-193642914D01*
X209291485Y-193714342D01*
X209148628Y-193785771D01*
X209005771Y-193785771D01*
X208862914Y-193714342D01*
X208791485Y-193642914D01*
X208720057Y-193500057D01*
X208648628Y-193214342D01*
X208648628Y-192857200D01*
X208720057Y-192571485D01*
X208791485Y-192428628D01*
X208862914Y-192357200D01*
X209005771Y-192285771D01*
X210077200Y-192428628D02*
X210148628Y-192357200D01*
X210291485Y-192285771D01*
X210648628Y-192285771D01*
X210791485Y-192357200D01*
X210862914Y-192428628D01*
X210934342Y-192571485D01*
X210934342Y-192714342D01*
X210862914Y-192928628D01*
X210005771Y-193785771D01*
X210934342Y-193785771D01*
X211862914Y-192285771D02*
X212005771Y-192285771D01*
X212148628Y-192357200D01*
X212220057Y-192428628D01*
X212291485Y-192571485D01*
X212362914Y-192857200D01*
X212362914Y-193214342D01*
X212291485Y-193500057D01*
X212220057Y-193642914D01*
X212148628Y-193714342D01*
X212005771Y-193785771D01*
X211862914Y-193785771D01*
X211720057Y-193714342D01*
X211648628Y-193642914D01*
X211577200Y-193500057D01*
X211505771Y-193214342D01*
X211505771Y-192857200D01*
X211577200Y-192571485D01*
X211648628Y-192428628D01*
X211720057Y-192357200D01*
X211862914Y-192285771D01*
X213005771Y-193214342D02*
X214148628Y-193214342D01*
X215148628Y-192285771D02*
X215291485Y-192285771D01*
X215434342Y-192357200D01*
X215505771Y-192428628D01*
X215577200Y-192571485D01*
X215648628Y-192857200D01*
X215648628Y-193214342D01*
X215577200Y-193500057D01*
X215505771Y-193642914D01*
X215434342Y-193714342D01*
X215291485Y-193785771D01*
X215148628Y-193785771D01*
X215005771Y-193714342D01*
X214934342Y-193642914D01*
X214862914Y-193500057D01*
X214791485Y-193214342D01*
X214791485Y-192857200D01*
X214862914Y-192571485D01*
X214934342Y-192428628D01*
X215005771Y-192357200D01*
X215148628Y-192285771D01*
X217005771Y-192285771D02*
X216291485Y-192285771D01*
X216220057Y-193000057D01*
X216291485Y-192928628D01*
X216434342Y-192857200D01*
X216791485Y-192857200D01*
X216934342Y-192928628D01*
X217005771Y-193000057D01*
X217077200Y-193142914D01*
X217077200Y-193500057D01*
X217005771Y-193642914D01*
X216934342Y-193714342D01*
X216791485Y-193785771D01*
X216434342Y-193785771D01*
X216291485Y-193714342D01*
X216220057Y-193642914D01*
X217720057Y-193214342D02*
X218862914Y-193214342D01*
X219434342Y-192285771D02*
X220362914Y-192285771D01*
X219862914Y-192857200D01*
X220077200Y-192857200D01*
X220220057Y-192928628D01*
X220291485Y-193000057D01*
X220362914Y-193142914D01*
X220362914Y-193500057D01*
X220291485Y-193642914D01*
X220220057Y-193714342D01*
X220077200Y-193785771D01*
X219648628Y-193785771D01*
X219505771Y-193714342D01*
X219434342Y-193642914D01*
X221791485Y-193785771D02*
X220934342Y-193785771D01*
X221362914Y-193785771D02*
X221362914Y-192285771D01*
X221220057Y-192500057D01*
X221077200Y-192642914D01*
X220934342Y-192714342D01*
D10*
D11*
X177002200Y-194507200D02*
X285002200Y-194507200D01*
D10*
D11*
X178434342Y-196585771D02*
X178434342Y-195085771D01*
X179291485Y-196585771D02*
X178648628Y-195728628D01*
X179291485Y-195085771D02*
X178434342Y-195942914D01*
X179934342Y-196585771D02*
X179934342Y-195585771D01*
X179934342Y-195085771D02*
X179862914Y-195157200D01*
X179934342Y-195228628D01*
X180005771Y-195157200D01*
X179934342Y-195085771D01*
X179934342Y-195228628D01*
X181505771Y-196442914D02*
X181434342Y-196514342D01*
X181220057Y-196585771D01*
X181077200Y-196585771D01*
X180862914Y-196514342D01*
X180720057Y-196371485D01*
X180648628Y-196228628D01*
X180577200Y-195942914D01*
X180577200Y-195728628D01*
X180648628Y-195442914D01*
X180720057Y-195300057D01*
X180862914Y-195157200D01*
X181077200Y-195085771D01*
X181220057Y-195085771D01*
X181434342Y-195157200D01*
X181505771Y-195228628D01*
X182791485Y-196585771D02*
X182791485Y-195800057D01*
X182720057Y-195657200D01*
X182577200Y-195585771D01*
X182291485Y-195585771D01*
X182148628Y-195657200D01*
X182791485Y-196514342D02*
X182648628Y-196585771D01*
X182291485Y-196585771D01*
X182148628Y-196514342D01*
X182077200Y-196371485D01*
X182077200Y-196228628D01*
X182148628Y-196085771D01*
X182291485Y-196014342D01*
X182648628Y-196014342D01*
X182791485Y-195942914D01*
X184148628Y-196585771D02*
X184148628Y-195085771D01*
X184148628Y-196514342D02*
X184005771Y-196585771D01*
X183720057Y-196585771D01*
X183577200Y-196514342D01*
X183505771Y-196442914D01*
X183434342Y-196300057D01*
X183434342Y-195871485D01*
X183505771Y-195728628D01*
X183577200Y-195657200D01*
X183720057Y-195585771D01*
X184005771Y-195585771D01*
X184148628Y-195657200D01*
X186005771Y-195800057D02*
X186505771Y-195800057D01*
X186720057Y-196585771D02*
X186005771Y-196585771D01*
X186005771Y-195085771D01*
X186720057Y-195085771D01*
X187362914Y-196442914D02*
X187434342Y-196514342D01*
X187362914Y-196585771D01*
X187291485Y-196514342D01*
X187362914Y-196442914D01*
X187362914Y-196585771D01*
X188077200Y-196585771D02*
X188077200Y-195085771D01*
X188434342Y-195085771D01*
X188648628Y-195157200D01*
X188791485Y-195300057D01*
X188862914Y-195442914D01*
X188934342Y-195728628D01*
X188934342Y-195942914D01*
X188862914Y-196228628D01*
X188791485Y-196371485D01*
X188648628Y-196514342D01*
X188434342Y-196585771D01*
X188077200Y-196585771D01*
X189577200Y-196442914D02*
X189648628Y-196514342D01*
X189577200Y-196585771D01*
X189505771Y-196514342D01*
X189577200Y-196442914D01*
X189577200Y-196585771D01*
X190220057Y-196157200D02*
X190934342Y-196157200D01*
X190077200Y-196585771D02*
X190577200Y-195085771D01*
X191077200Y-196585771D01*
X191577200Y-196442914D02*
X191648628Y-196514342D01*
X191577200Y-196585771D01*
X191505771Y-196514342D01*
X191577200Y-196442914D01*
X191577200Y-196585771D01*
X194577200Y-196585771D02*
X194577200Y-195085771D01*
X194720057Y-196014342D02*
X195148628Y-196585771D01*
X195148628Y-195585771D02*
X194577200Y-196157200D01*
X195791485Y-196585771D02*
X195791485Y-195585771D01*
X195791485Y-195085771D02*
X195720057Y-195157200D01*
X195791485Y-195228628D01*
X195862914Y-195157200D01*
X195791485Y-195085771D01*
X195791485Y-195228628D01*
X197148628Y-196514342D02*
X197005771Y-196585771D01*
X196720057Y-196585771D01*
X196577200Y-196514342D01*
X196505771Y-196442914D01*
X196434342Y-196300057D01*
X196434342Y-195871485D01*
X196505771Y-195728628D01*
X196577200Y-195657200D01*
X196720057Y-195585771D01*
X197005771Y-195585771D01*
X197148628Y-195657200D01*
X198434342Y-196585771D02*
X198434342Y-195800057D01*
X198362914Y-195657200D01*
X198220057Y-195585771D01*
X197934342Y-195585771D01*
X197791485Y-195657200D01*
X198434342Y-196514342D02*
X198291485Y-196585771D01*
X197934342Y-196585771D01*
X197791485Y-196514342D01*
X197720057Y-196371485D01*
X197720057Y-196228628D01*
X197791485Y-196085771D01*
X197934342Y-196014342D01*
X198291485Y-196014342D01*
X198434342Y-195942914D01*
X199791485Y-196585771D02*
X199791485Y-195085771D01*
X199791485Y-196514342D02*
X199648628Y-196585771D01*
X199362914Y-196585771D01*
X199220057Y-196514342D01*
X199148628Y-196442914D01*
X199077200Y-196300057D01*
X199077200Y-195871485D01*
X199148628Y-195728628D01*
X199220057Y-195657200D01*
X199362914Y-195585771D01*
X199648628Y-195585771D01*
X199791485Y-195657200D01*
X202077200Y-197157200D02*
X202005771Y-197085771D01*
X201862914Y-196871485D01*
X201791485Y-196728628D01*
X201720057Y-196514342D01*
X201648628Y-196157200D01*
X201648628Y-195871485D01*
X201720057Y-195514342D01*
X201791485Y-195300057D01*
X201862914Y-195157200D01*
X202005771Y-194942914D01*
X202077200Y-194871485D01*
X203362914Y-195085771D02*
X202648628Y-195085771D01*
X202577200Y-195800057D01*
X202648628Y-195728628D01*
X202791485Y-195657200D01*
X203148628Y-195657200D01*
X203291485Y-195728628D01*
X203362914Y-195800057D01*
X203434342Y-195942914D01*
X203434342Y-196300057D01*
X203362914Y-196442914D01*
X203291485Y-196514342D01*
X203148628Y-196585771D01*
X202791485Y-196585771D01*
X202648628Y-196514342D01*
X202577200Y-196442914D01*
X204077200Y-196442914D02*
X204148628Y-196514342D01*
X204077200Y-196585771D01*
X204005771Y-196514342D01*
X204077200Y-196442914D01*
X204077200Y-196585771D01*
X205577200Y-196585771D02*
X204720057Y-196585771D01*
X205148628Y-196585771D02*
X205148628Y-195085771D01*
X205005771Y-195300057D01*
X204862914Y-195442914D01*
X204720057Y-195514342D01*
X206220057Y-196442914D02*
X206291485Y-196514342D01*
X206220057Y-196585771D01*
X206148628Y-196514342D01*
X206220057Y-196442914D01*
X206220057Y-196585771D01*
X207648628Y-195085771D02*
X206934342Y-195085771D01*
X206862914Y-195800057D01*
X206934342Y-195728628D01*
X207077200Y-195657200D01*
X207434342Y-195657200D01*
X207577200Y-195728628D01*
X207648628Y-195800057D01*
X207720057Y-195942914D01*
X207720057Y-196300057D01*
X207648628Y-196442914D01*
X207577200Y-196514342D01*
X207434342Y-196585771D01*
X207077200Y-196585771D01*
X206934342Y-196514342D01*
X206862914Y-196442914D01*
X208220057Y-197157200D02*
X208291485Y-197085771D01*
X208434342Y-196871485D01*
X208505771Y-196728628D01*
X208577200Y-196514342D01*
X208648628Y-196157200D01*
X208648628Y-195871485D01*
X208577200Y-195514342D01*
X208505771Y-195300057D01*
X208434342Y-195157200D01*
X208291485Y-194942914D01*
X208220057Y-194871485D01*
X209362914Y-196014342D02*
X210505771Y-196014342D01*
X211077200Y-195085771D02*
X212005771Y-195085771D01*
X211505771Y-195657200D01*
X211720057Y-195657200D01*
X211862914Y-195728628D01*
X211934342Y-195800057D01*
X212005771Y-195942914D01*
X212005771Y-196300057D01*
X211934342Y-196442914D01*
X211862914Y-196514342D01*
X211720057Y-196585771D01*
X211291485Y-196585771D01*
X211148628Y-196514342D01*
X211077200Y-196442914D01*
D10*
D11*
X177002200Y-191507200D02*
X285002200Y-191507200D01*
D10*
D12*
X264411485Y-193785771D02*
X263911485Y-193071485D01*
X263554342Y-193785771D02*
X263554342Y-192285771D01*
X264125771Y-192285771D01*
X264268628Y-192357200D01*
X264340057Y-192428628D01*
X264411485Y-192571485D01*
X264411485Y-192785771D01*
X264340057Y-192928628D01*
X264268628Y-193000057D01*
X264125771Y-193071485D01*
X263554342Y-193071485D01*
X265625771Y-193714342D02*
X265482914Y-193785771D01*
X265197200Y-193785771D01*
X265054342Y-193714342D01*
X264982914Y-193571485D01*
X264982914Y-193000057D01*
X265054342Y-192857200D01*
X265197200Y-192785771D01*
X265482914Y-192785771D01*
X265625771Y-192857200D01*
X265697200Y-193000057D01*
X265697200Y-193142914D01*
X264982914Y-193285771D01*
X266197200Y-192785771D02*
X266554342Y-193785771D01*
X266911485Y-192785771D01*
X267482914Y-193642914D02*
X267554342Y-193714342D01*
X267482914Y-193785771D01*
X267411485Y-193714342D01*
X267482914Y-193642914D01*
X267482914Y-193785771D01*
X267482914Y-192857200D02*
X267554342Y-192928628D01*
X267482914Y-193000057D01*
X267411485Y-192928628D01*
X267482914Y-192857200D01*
X267482914Y-193000057D01*
X269982914Y-192785771D02*
X269982914Y-193785771D01*
X269625771Y-192214342D02*
X269268628Y-193285771D01*
X270197200Y-193285771D01*
D10*
D11*
X178362914Y-193714342D02*
X178577200Y-193785771D01*
X178934342Y-193785771D01*
X179077200Y-193714342D01*
X179148628Y-193642914D01*
X179220057Y-193500057D01*
X179220057Y-193357200D01*
X179148628Y-193214342D01*
X179077200Y-193142914D01*
X178934342Y-193071485D01*
X178648628Y-193000057D01*
X178505771Y-192928628D01*
X178434342Y-192857200D01*
X178362914Y-192714342D01*
X178362914Y-192571485D01*
X178434342Y-192428628D01*
X178505771Y-192357200D01*
X178648628Y-192285771D01*
X179005771Y-192285771D01*
X179220057Y-192357200D01*
X179862914Y-193785771D02*
X179862914Y-192785771D01*
X179862914Y-192285771D02*
X179791485Y-192357200D01*
X179862914Y-192428628D01*
X179934342Y-192357200D01*
X179862914Y-192285771D01*
X179862914Y-192428628D01*
X180434342Y-192785771D02*
X181220057Y-192785771D01*
X180434342Y-193785771D01*
X181220057Y-193785771D01*
X182362914Y-193714342D02*
X182220057Y-193785771D01*
X181934342Y-193785771D01*
X181791485Y-193714342D01*
X181720057Y-193571485D01*
X181720057Y-193000057D01*
X181791485Y-192857200D01*
X181934342Y-192785771D01*
X182220057Y-192785771D01*
X182362914Y-192857200D01*
X182434342Y-193000057D01*
X182434342Y-193142914D01*
X181720057Y-193285771D01*
X183077200Y-193642914D02*
X183148628Y-193714342D01*
X183077200Y-193785771D01*
X183005771Y-193714342D01*
X183077200Y-193642914D01*
X183077200Y-193785771D01*
X183077200Y-192857200D02*
X183148628Y-192928628D01*
X183077200Y-193000057D01*
X183005771Y-192928628D01*
X183077200Y-192857200D01*
X183077200Y-193000057D01*
X184862914Y-193357200D02*
X185577200Y-193357200D01*
X184720057Y-193785771D02*
X185220057Y-192285771D01*
X185720057Y-193785771D01*
X186862914Y-192785771D02*
X186862914Y-193785771D01*
X186505771Y-192214342D02*
X186148628Y-193285771D01*
X187077200Y-193285771D01*
D10*
D11*
X263434342Y-196585771D02*
X263434342Y-195085771D01*
X264791485Y-196585771D02*
X264791485Y-195085771D01*
X264791485Y-196514342D02*
X264648628Y-196585771D01*
X264362914Y-196585771D01*
X264220057Y-196514342D01*
X264148628Y-196442914D01*
X264077200Y-196300057D01*
X264077200Y-195871485D01*
X264148628Y-195728628D01*
X264220057Y-195657200D01*
X264362914Y-195585771D01*
X264648628Y-195585771D01*
X264791485Y-195657200D01*
X265505771Y-196442914D02*
X265577200Y-196514342D01*
X265505771Y-196585771D01*
X265434342Y-196514342D01*
X265505771Y-196442914D01*
X265505771Y-196585771D01*
X265505771Y-195657200D02*
X265577200Y-195728628D01*
X265505771Y-195800057D01*
X265434342Y-195728628D01*
X265505771Y-195657200D01*
X265505771Y-195800057D01*
X268148628Y-196585771D02*
X267291485Y-196585771D01*
X267720057Y-196585771D02*
X267720057Y-195085771D01*
X267577200Y-195300057D01*
X267434342Y-195442914D01*
X267291485Y-195514342D01*
X269862914Y-195014342D02*
X268577200Y-196942914D01*
X271148628Y-196585771D02*
X270291485Y-196585771D01*
X270720057Y-196585771D02*
X270720057Y-195085771D01*
X270577200Y-195300057D01*
X270434342Y-195442914D01*
X270291485Y-195514342D01*
D10*
D11*
X177002200Y-187507200D02*
X285002200Y-187507200D01*
D10*
D13*
X178714580Y-188211961D02*
X179857438Y-188211961D01*
X179036009Y-190211961D02*
X179286009Y-188211961D01*
X180274104Y-190211961D02*
X180440771Y-188878628D01*
X180524104Y-188211961D02*
X180416961Y-188307200D01*
X180500295Y-188402438D01*
X180607438Y-188307200D01*
X180524104Y-188211961D01*
X180500295Y-188402438D01*
X181107438Y-188878628D02*
X181869342Y-188878628D01*
X181476485Y-188211961D02*
X181262200Y-189926247D01*
X181333628Y-190116723D01*
X181512200Y-190211961D01*
X181702676Y-190211961D01*
X182655057Y-190211961D02*
X182476485Y-190116723D01*
X182405057Y-189926247D01*
X182619342Y-188211961D01*
X184190771Y-190116723D02*
X183988390Y-190211961D01*
X183607438Y-190211961D01*
X183428866Y-190116723D01*
X183357438Y-189926247D01*
X183452676Y-189164342D01*
X183571723Y-188973866D01*
X183774104Y-188878628D01*
X184155057Y-188878628D01*
X184333628Y-188973866D01*
X184405057Y-189164342D01*
X184381247Y-189354819D01*
X183405057Y-189545295D01*
X185155057Y-190021485D02*
X185238390Y-190116723D01*
X185131247Y-190211961D01*
X185047914Y-190116723D01*
X185155057Y-190021485D01*
X185131247Y-190211961D01*
X185286009Y-188973866D02*
X185369342Y-189069104D01*
X185262200Y-189164342D01*
X185178866Y-189069104D01*
X185286009Y-188973866D01*
X185262200Y-189164342D01*
X187607438Y-190211961D02*
X187857438Y-188211961D01*
X188619342Y-188211961D01*
X188797914Y-188307200D01*
X188881247Y-188402438D01*
X188952676Y-188592914D01*
X188916961Y-188878628D01*
X188797914Y-189069104D01*
X188690771Y-189164342D01*
X188488390Y-189259580D01*
X187726485Y-189259580D01*
X190774104Y-190021485D02*
X190666961Y-190116723D01*
X190369342Y-190211961D01*
X190178866Y-190211961D01*
X189905057Y-190116723D01*
X189738390Y-189926247D01*
X189666961Y-189735771D01*
X189619342Y-189354819D01*
X189655057Y-189069104D01*
X189797914Y-188688152D01*
X189916961Y-188497676D01*
X190131247Y-188307200D01*
X190428866Y-188211961D01*
X190619342Y-188211961D01*
X190893152Y-188307200D01*
X190976485Y-188402438D01*
X191702676Y-189450057D02*
X193226485Y-189450057D01*
X195131247Y-190211961D02*
X193988390Y-190211961D01*
X194559819Y-190211961D02*
X194809819Y-188211961D01*
X194583628Y-188497676D01*
X194369342Y-188688152D01*
X194166961Y-188783390D01*
X197036009Y-190211961D02*
X195893152Y-190211961D01*
X196464580Y-190211961D02*
X196714580Y-188211961D01*
X196488390Y-188497676D01*
X196274104Y-188688152D01*
X196071723Y-188783390D01*
X198524104Y-188211961D02*
X198714580Y-188211961D01*
X198893152Y-188307200D01*
X198976485Y-188402438D01*
X199047914Y-188592914D01*
X199095533Y-188973866D01*
X199036009Y-189450057D01*
X198893152Y-189831009D01*
X198774104Y-190021485D01*
X198666961Y-190116723D01*
X198464580Y-190211961D01*
X198274104Y-190211961D01*
X198095533Y-190116723D01*
X198012200Y-190021485D01*
X197940771Y-189831009D01*
X197893152Y-189450057D01*
X197952676Y-188973866D01*
X198095533Y-188592914D01*
X198214580Y-188402438D01*
X198321723Y-188307200D01*
X198524104Y-188211961D01*
X200428866Y-188211961D02*
X200619342Y-188211961D01*
X200797914Y-188307200D01*
X200881247Y-188402438D01*
X200952676Y-188592914D01*
X201000295Y-188973866D01*
X200940771Y-189450057D01*
X200797914Y-189831009D01*
X200678866Y-190021485D01*
X200571723Y-190116723D01*
X200369342Y-190211961D01*
X200178866Y-190211961D01*
X200000295Y-190116723D01*
X199916961Y-190021485D01*
X199845533Y-189831009D01*
X199797914Y-189450057D01*
X199857438Y-188973866D01*
X200000295Y-188592914D01*
X200119342Y-188402438D01*
X200226485Y-188307200D01*
X200428866Y-188211961D01*
X201762200Y-188211961D02*
X202845533Y-190211961D01*
X203095533Y-188211961D02*
X201512200Y-190211961D01*
X203702676Y-189450057D02*
X205226485Y-189450057D01*
X206714580Y-188211961D02*
X206905057Y-188211961D01*
X207083628Y-188307200D01*
X207166961Y-188402438D01*
X207238390Y-188592914D01*
X207286009Y-188973866D01*
X207226485Y-189450057D01*
X207083628Y-189831009D01*
X206964580Y-190021485D01*
X206857438Y-190116723D01*
X206655057Y-190211961D01*
X206464580Y-190211961D01*
X206286009Y-190116723D01*
X206202676Y-190021485D01*
X206131247Y-189831009D01*
X206083628Y-189450057D01*
X206143152Y-188973866D01*
X206286009Y-188592914D01*
X206405057Y-188402438D01*
X206512200Y-188307200D01*
X206714580Y-188211961D01*
X209012200Y-188878628D02*
X208845533Y-190211961D01*
X208631247Y-188116723D02*
X207976485Y-189545295D01*
X209214580Y-189545295D01*
D10*
D11*
X178934342Y-185600057D02*
X178434342Y-185600057D01*
X178434342Y-186385771D02*
X178434342Y-184885771D01*
X179148628Y-184885771D01*
X179720057Y-186385771D02*
X179720057Y-185385771D01*
X179720057Y-184885771D02*
X179648628Y-184957200D01*
X179720057Y-185028628D01*
X179791485Y-184957200D01*
X179720057Y-184885771D01*
X179720057Y-185028628D01*
X180648628Y-186385771D02*
X180505771Y-186314342D01*
X180434342Y-186171485D01*
X180434342Y-184885771D01*
X181791485Y-186314342D02*
X181648628Y-186385771D01*
X181362914Y-186385771D01*
X181220057Y-186314342D01*
X181148628Y-186171485D01*
X181148628Y-185600057D01*
X181220057Y-185457200D01*
X181362914Y-185385771D01*
X181648628Y-185385771D01*
X181791485Y-185457200D01*
X181862914Y-185600057D01*
X181862914Y-185742914D01*
X181148628Y-185885771D01*
X182505771Y-186242914D02*
X182577200Y-186314342D01*
X182505771Y-186385771D01*
X182434342Y-186314342D01*
X182505771Y-186242914D01*
X182505771Y-186385771D01*
X182505771Y-185457200D02*
X182577200Y-185528628D01*
X182505771Y-185600057D01*
X182434342Y-185528628D01*
X182505771Y-185457200D01*
X182505771Y-185600057D01*
X184362914Y-186385771D02*
X184362914Y-184885771D01*
X184934342Y-184885771D01*
X185077200Y-184957200D01*
X185148628Y-185028628D01*
X185220057Y-185171485D01*
X185220057Y-185385771D01*
X185148628Y-185528628D01*
X185077200Y-185600057D01*
X184934342Y-185671485D01*
X184362914Y-185671485D01*
X186720057Y-186242914D02*
X186648628Y-186314342D01*
X186434342Y-186385771D01*
X186291485Y-186385771D01*
X186077200Y-186314342D01*
X185934342Y-186171485D01*
X185862914Y-186028628D01*
X185791485Y-185742914D01*
X185791485Y-185528628D01*
X185862914Y-185242914D01*
X185934342Y-185100057D01*
X186077200Y-184957200D01*
X186291485Y-184885771D01*
X186434342Y-184885771D01*
X186648628Y-184957200D01*
X186720057Y-185028628D01*
X187362914Y-185814342D02*
X188505771Y-185814342D01*
X190005771Y-186385771D02*
X189148628Y-186385771D01*
X189577200Y-186385771D02*
X189577200Y-184885771D01*
X189434342Y-185100057D01*
X189291485Y-185242914D01*
X189148628Y-185314342D01*
X191434342Y-186385771D02*
X190577200Y-186385771D01*
X191005771Y-186385771D02*
X191005771Y-184885771D01*
X190862914Y-185100057D01*
X190720057Y-185242914D01*
X190577200Y-185314342D01*
X192362914Y-184885771D02*
X192505771Y-184885771D01*
X192648628Y-184957200D01*
X192720057Y-185028628D01*
X192791485Y-185171485D01*
X192862914Y-185457200D01*
X192862914Y-185814342D01*
X192791485Y-186100057D01*
X192720057Y-186242914D01*
X192648628Y-186314342D01*
X192505771Y-186385771D01*
X192362914Y-186385771D01*
X192220057Y-186314342D01*
X192148628Y-186242914D01*
X192077200Y-186100057D01*
X192005771Y-185814342D01*
X192005771Y-185457200D01*
X192077200Y-185171485D01*
X192148628Y-185028628D01*
X192220057Y-184957200D01*
X192362914Y-184885771D01*
X193791485Y-184885771D02*
X193934342Y-184885771D01*
X194077200Y-184957200D01*
X194148628Y-185028628D01*
X194220057Y-185171485D01*
X194291485Y-185457200D01*
X194291485Y-185814342D01*
X194220057Y-186100057D01*
X194148628Y-186242914D01*
X194077200Y-186314342D01*
X193934342Y-186385771D01*
X193791485Y-186385771D01*
X193648628Y-186314342D01*
X193577200Y-186242914D01*
X193505771Y-186100057D01*
X193434342Y-185814342D01*
X193434342Y-185457200D01*
X193505771Y-185171485D01*
X193577200Y-185028628D01*
X193648628Y-184957200D01*
X193791485Y-184885771D01*
X194791485Y-184885771D02*
X195791485Y-186385771D01*
X195791485Y-184885771D02*
X194791485Y-186385771D01*
X196362914Y-186242914D02*
X196434342Y-186314342D01*
X196362914Y-186385771D01*
X196291485Y-186314342D01*
X196362914Y-186242914D01*
X196362914Y-186385771D01*
X197077200Y-186385771D02*
X197077200Y-184885771D01*
X197220057Y-185814342D02*
X197648628Y-186385771D01*
X197648628Y-185385771D02*
X197077200Y-185957200D01*
X198291485Y-186385771D02*
X198291485Y-185385771D01*
X198291485Y-184885771D02*
X198220057Y-184957200D01*
X198291485Y-185028628D01*
X198362914Y-184957200D01*
X198291485Y-184885771D01*
X198291485Y-185028628D01*
X199648628Y-186314342D02*
X199505771Y-186385771D01*
X199220057Y-186385771D01*
X199077200Y-186314342D01*
X199005771Y-186242914D01*
X198934342Y-186100057D01*
X198934342Y-185671485D01*
X199005771Y-185528628D01*
X199077200Y-185457200D01*
X199220057Y-185385771D01*
X199505771Y-185385771D01*
X199648628Y-185457200D01*
X200934342Y-186385771D02*
X200934342Y-185600057D01*
X200862914Y-185457200D01*
X200720057Y-185385771D01*
X200434342Y-185385771D01*
X200291485Y-185457200D01*
X200934342Y-186314342D02*
X200791485Y-186385771D01*
X200434342Y-186385771D01*
X200291485Y-186314342D01*
X200220057Y-186171485D01*
X200220057Y-186028628D01*
X200291485Y-185885771D01*
X200434342Y-185814342D01*
X200791485Y-185814342D01*
X200934342Y-185742914D01*
X202291485Y-186385771D02*
X202291485Y-184885771D01*
X202291485Y-186314342D02*
X202148628Y-186385771D01*
X201862914Y-186385771D01*
X201720057Y-186314342D01*
X201648628Y-186242914D01*
X201577200Y-186100057D01*
X201577200Y-185671485D01*
X201648628Y-185528628D01*
X201720057Y-185457200D01*
X201862914Y-185385771D01*
X202148628Y-185385771D01*
X202291485Y-185457200D01*
X202648628Y-186528628D02*
X203791485Y-186528628D01*
X204148628Y-185385771D02*
X204148628Y-186885771D01*
X204148628Y-185457200D02*
X204291485Y-185385771D01*
X204577200Y-185385771D01*
X204720057Y-185457200D01*
X204791485Y-185528628D01*
X204862914Y-185671485D01*
X204862914Y-186100057D01*
X204791485Y-186242914D01*
X204720057Y-186314342D01*
X204577200Y-186385771D01*
X204291485Y-186385771D01*
X204148628Y-186314342D01*
X206148628Y-186314342D02*
X206005771Y-186385771D01*
X205720057Y-186385771D01*
X205577200Y-186314342D01*
X205505771Y-186242914D01*
X205434342Y-186100057D01*
X205434342Y-185671485D01*
X205505771Y-185528628D01*
X205577200Y-185457200D01*
X205720057Y-185385771D01*
X206005771Y-185385771D01*
X206148628Y-185457200D01*
X206791485Y-186385771D02*
X206791485Y-184885771D01*
X206791485Y-185457200D02*
X206934342Y-185385771D01*
X207220057Y-185385771D01*
X207362914Y-185457200D01*
X207434342Y-185528628D01*
X207505771Y-185671485D01*
X207505771Y-186100057D01*
X207434342Y-186242914D01*
X207362914Y-186314342D01*
X207220057Y-186385771D01*
X206934342Y-186385771D01*
X206791485Y-186314342D01*
D10*
D11*
X177002200Y-181507200D02*
X285002200Y-181507200D01*
D10*
D11*
X178362914Y-183614342D02*
X178577200Y-183685771D01*
X178934342Y-183685771D01*
X179077200Y-183614342D01*
X179148628Y-183542914D01*
X179220057Y-183400057D01*
X179220057Y-183257200D01*
X179148628Y-183114342D01*
X179077200Y-183042914D01*
X178934342Y-182971485D01*
X178648628Y-182900057D01*
X178505771Y-182828628D01*
X178434342Y-182757200D01*
X178362914Y-182614342D01*
X178362914Y-182471485D01*
X178434342Y-182328628D01*
X178505771Y-182257200D01*
X178648628Y-182185771D01*
X179005771Y-182185771D01*
X179220057Y-182257200D01*
X179862914Y-183685771D02*
X179862914Y-182185771D01*
X180505771Y-183685771D02*
X180505771Y-182900057D01*
X180434342Y-182757200D01*
X180291485Y-182685771D01*
X180077200Y-182685771D01*
X179934342Y-182757200D01*
X179862914Y-182828628D01*
X181791485Y-183614342D02*
X181648628Y-183685771D01*
X181362914Y-183685771D01*
X181220057Y-183614342D01*
X181148628Y-183471485D01*
X181148628Y-182900057D01*
X181220057Y-182757200D01*
X181362914Y-182685771D01*
X181648628Y-182685771D01*
X181791485Y-182757200D01*
X181862914Y-182900057D01*
X181862914Y-183042914D01*
X181148628Y-183185771D01*
X183077200Y-183614342D02*
X182934342Y-183685771D01*
X182648628Y-183685771D01*
X182505771Y-183614342D01*
X182434342Y-183471485D01*
X182434342Y-182900057D01*
X182505771Y-182757200D01*
X182648628Y-182685771D01*
X182934342Y-182685771D01*
X183077200Y-182757200D01*
X183148628Y-182900057D01*
X183148628Y-183042914D01*
X182434342Y-183185771D01*
X183577200Y-182685771D02*
X184148628Y-182685771D01*
X183791485Y-182185771D02*
X183791485Y-183471485D01*
X183862914Y-183614342D01*
X184005771Y-183685771D01*
X184148628Y-183685771D01*
X184648628Y-183542914D02*
X184720057Y-183614342D01*
X184648628Y-183685771D01*
X184577200Y-183614342D01*
X184648628Y-183542914D01*
X184648628Y-183685771D01*
X184648628Y-182757200D02*
X184720057Y-182828628D01*
X184648628Y-182900057D01*
X184577200Y-182828628D01*
X184648628Y-182757200D01*
X184648628Y-182900057D01*
D10*
D12*
X178411485Y-179185771D02*
X179411485Y-179185771D01*
X178411485Y-180685771D01*
X179411485Y-180685771D01*
X179911485Y-180614342D02*
X180125771Y-180685771D01*
X180482914Y-180685771D01*
X180625771Y-180614342D01*
X180697200Y-180542914D01*
X180768628Y-180400057D01*
X180768628Y-180257200D01*
X180697200Y-180114342D01*
X180625771Y-180042914D01*
X180482914Y-179971485D01*
X180197200Y-179900057D01*
X180054342Y-179828628D01*
X179982914Y-179757200D01*
X179911485Y-179614342D01*
X179911485Y-179471485D01*
X179982914Y-179328628D01*
X180054342Y-179257200D01*
X180197200Y-179185771D01*
X180554342Y-179185771D01*
X180768628Y-179257200D01*
X182268628Y-180542914D02*
X182197200Y-180614342D01*
X181982914Y-180685771D01*
X181840057Y-180685771D01*
X181625771Y-180614342D01*
X181482914Y-180471485D01*
X181411485Y-180328628D01*
X181340057Y-180042914D01*
X181340057Y-179828628D01*
X181411485Y-179542914D01*
X181482914Y-179400057D01*
X181625771Y-179257200D01*
X181840057Y-179185771D01*
X181982914Y-179185771D01*
X182197200Y-179257200D01*
X182268628Y-179328628D01*
X182911485Y-180685771D02*
X182911485Y-179685771D01*
X182911485Y-179185771D02*
X182840057Y-179257200D01*
X182911485Y-179328628D01*
X182982914Y-179257200D01*
X182911485Y-179185771D01*
X182911485Y-179328628D01*
X183625771Y-180685771D02*
X183625771Y-179685771D01*
X183625771Y-179971485D02*
X183697200Y-179828628D01*
X183768628Y-179757200D01*
X183911485Y-179685771D01*
X184054342Y-179685771D01*
X185197200Y-180614342D02*
X185054342Y-180685771D01*
X184768628Y-180685771D01*
X184625771Y-180614342D01*
X184554342Y-180542914D01*
X184482914Y-180400057D01*
X184482914Y-179971485D01*
X184554342Y-179828628D01*
X184625771Y-179757200D01*
X184768628Y-179685771D01*
X185054342Y-179685771D01*
X185197200Y-179757200D01*
X186482914Y-179685771D02*
X186482914Y-180685771D01*
X185840057Y-179685771D02*
X185840057Y-180471485D01*
X185911485Y-180614342D01*
X186054342Y-180685771D01*
X186268628Y-180685771D01*
X186411485Y-180614342D01*
X186482914Y-180542914D01*
X187197200Y-180685771D02*
X187197200Y-179685771D01*
X187197200Y-179185771D02*
X187125771Y-179257200D01*
X187197200Y-179328628D01*
X187268628Y-179257200D01*
X187197200Y-179185771D01*
X187197200Y-179328628D01*
X187697200Y-179685771D02*
X188268628Y-179685771D01*
X187911485Y-179185771D02*
X187911485Y-180471485D01*
X187982914Y-180614342D01*
X188125771Y-180685771D01*
X188268628Y-180685771D01*
X188697200Y-180614342D02*
X188840057Y-180685771D01*
X189125771Y-180685771D01*
X189268628Y-180614342D01*
X189340057Y-180471485D01*
X189340057Y-180400057D01*
X189268628Y-180257200D01*
X189125771Y-180185771D01*
X188911485Y-180185771D01*
X188768628Y-180114342D01*
X188697200Y-179971485D01*
X188697200Y-179900057D01*
X188768628Y-179757200D01*
X188911485Y-179685771D01*
X189125771Y-179685771D01*
X189268628Y-179757200D01*
D10*
D11*
X178434342Y-177685771D02*
X178434342Y-176185771D01*
X179005771Y-176185771D01*
X179148628Y-176257200D01*
X179220057Y-176328628D01*
X179291485Y-176471485D01*
X179291485Y-176685771D01*
X179220057Y-176828628D01*
X179148628Y-176900057D01*
X179005771Y-176971485D01*
X178434342Y-176971485D01*
X179934342Y-177685771D02*
X179934342Y-176685771D01*
X179934342Y-176971485D02*
X180005771Y-176828628D01*
X180077200Y-176757200D01*
X180220057Y-176685771D01*
X180362914Y-176685771D01*
X181505771Y-177685771D02*
X181505771Y-176900057D01*
X181434342Y-176757200D01*
X181291485Y-176685771D01*
X181005771Y-176685771D01*
X180862914Y-176757200D01*
X181505771Y-177614342D02*
X181362914Y-177685771D01*
X181005771Y-177685771D01*
X180862914Y-177614342D01*
X180791485Y-177471485D01*
X180791485Y-177328628D01*
X180862914Y-177185771D01*
X181005771Y-177114342D01*
X181362914Y-177114342D01*
X181505771Y-177042914D01*
X182220057Y-176685771D02*
X182220057Y-177971485D01*
X182148628Y-178114342D01*
X182005771Y-178185771D01*
X181934342Y-178185771D01*
X182220057Y-176185771D02*
X182148628Y-176257200D01*
X182220057Y-176328628D01*
X182291485Y-176257200D01*
X182220057Y-176185771D01*
X182220057Y-176328628D01*
X183577200Y-177685771D02*
X183577200Y-176900057D01*
X183505771Y-176757200D01*
X183362914Y-176685771D01*
X183077200Y-176685771D01*
X182934342Y-176757200D01*
X183577200Y-177614342D02*
X183434342Y-177685771D01*
X183077200Y-177685771D01*
X182934342Y-177614342D01*
X182862914Y-177471485D01*
X182862914Y-177328628D01*
X182934342Y-177185771D01*
X183077200Y-177114342D01*
X183434342Y-177114342D01*
X183577200Y-177042914D01*
X184148628Y-176685771D02*
X184505771Y-177685771D01*
X184862914Y-176685771D02*
X184505771Y-177685771D01*
X184362914Y-178042914D01*
X184291485Y-178114342D01*
X184148628Y-178185771D01*
X186577200Y-177685771D02*
X186577200Y-176185771D01*
X187077200Y-177257200D01*
X187577200Y-176185771D01*
X187577200Y-177685771D01*
X188934342Y-177685771D02*
X188934342Y-176900057D01*
X188862914Y-176757200D01*
X188720057Y-176685771D01*
X188434342Y-176685771D01*
X188291485Y-176757200D01*
X188934342Y-177614342D02*
X188791485Y-177685771D01*
X188434342Y-177685771D01*
X188291485Y-177614342D01*
X188220057Y-177471485D01*
X188220057Y-177328628D01*
X188291485Y-177185771D01*
X188434342Y-177114342D01*
X188791485Y-177114342D01*
X188934342Y-177042914D01*
X190291485Y-177685771D02*
X190291485Y-176185771D01*
X190291485Y-177614342D02*
X190148628Y-177685771D01*
X189862914Y-177685771D01*
X189720057Y-177614342D01*
X189648628Y-177542914D01*
X189577200Y-177400057D01*
X189577200Y-176971485D01*
X189648628Y-176828628D01*
X189720057Y-176757200D01*
X189862914Y-176685771D01*
X190148628Y-176685771D01*
X190291485Y-176757200D01*
X191005771Y-177685771D02*
X191005771Y-176185771D01*
X191648628Y-177685771D02*
X191648628Y-176900057D01*
X191577200Y-176757200D01*
X191434342Y-176685771D01*
X191220057Y-176685771D01*
X191077200Y-176757200D01*
X191005771Y-176828628D01*
X193005771Y-177685771D02*
X193005771Y-176900057D01*
X192934342Y-176757200D01*
X192791485Y-176685771D01*
X192505771Y-176685771D01*
X192362914Y-176757200D01*
X193005771Y-177614342D02*
X192862914Y-177685771D01*
X192505771Y-177685771D01*
X192362914Y-177614342D01*
X192291485Y-177471485D01*
X192291485Y-177328628D01*
X192362914Y-177185771D01*
X192505771Y-177114342D01*
X192862914Y-177114342D01*
X193005771Y-177042914D01*
X193577200Y-176685771D02*
X193934342Y-177685771D01*
X194291485Y-176685771D01*
X195505771Y-177685771D02*
X195505771Y-176900057D01*
X195434342Y-176757200D01*
X195291485Y-176685771D01*
X195005771Y-176685771D01*
X194862914Y-176757200D01*
X195505771Y-177614342D02*
X195362914Y-177685771D01*
X195005771Y-177685771D01*
X194862914Y-177614342D01*
X194791485Y-177471485D01*
X194791485Y-177328628D01*
X194862914Y-177185771D01*
X195005771Y-177114342D01*
X195362914Y-177114342D01*
X195505771Y-177042914D01*
X196220057Y-176685771D02*
X196220057Y-177685771D01*
X196220057Y-176828628D02*
X196291485Y-176757200D01*
X196434342Y-176685771D01*
X196648628Y-176685771D01*
X196791485Y-176757200D01*
X196862914Y-176900057D01*
X196862914Y-177685771D01*
D10*
D11*
X197002200Y-191507200D02*
X197002200Y-194507200D01*
D10*
D11*
X261002200Y-191507200D02*
X261002200Y-198007200D01*
D14*
X84666666Y-51600000D02*
G75*
G03X84666666Y-51600000I-1666666J0D01*
G01*
X80500000Y-51600000D02*
X85500000Y-51600000D01*
X83000000Y-49100000D02*
X83000000Y-54100000D01*
X86500000Y-92000000D02*
G75*
G02X87500000Y-93000000I0J-1000000D01*
G01*
X211000000Y-51600000D02*
G75*
G02X212000000Y-52600000I0J-1000000D01*
G01*
X212000000Y-103000000D02*
G75*
G02X211000000Y-104000000I-1000000J0D01*
G01*
X200000000Y-105000000D02*
G75*
G02X201000000Y-104000000I1000000J0D01*
G01*
X201000000Y-137300000D02*
G75*
G02X200000000Y-136300000I0J1000000D01*
G01*
X211000000Y-137300000D02*
G75*
G02X212000000Y-138300000I0J-1000000D01*
G01*
X212000000Y-155200000D02*
G75*
G02X211000000Y-156200000I-1000000J0D01*
G01*
X84000000Y-156200000D02*
G75*
G02X83000000Y-155200000I0J1000000D01*
G01*
X83000000Y-148000000D02*
G75*
G02X84000000Y-147000000I1000000J0D01*
G01*
X88000000Y-146000000D02*
G75*
G02X87000000Y-147000000I-1000000J0D01*
G01*
X87000000Y-132000000D02*
G75*
G02X88000000Y-133000000I0J-1000000D01*
G01*
X86500000Y-126000000D02*
X84000000Y-126000000D01*
X87500000Y-125000000D02*
G75*
G02X86500000Y-126000000I-1000000J0D01*
G01*
X83000000Y-127000000D02*
G75*
G02X84000000Y-126000000I1000000J0D01*
G01*
X84000000Y-132000000D02*
G75*
G02X83000000Y-131000000I0J1000000D01*
G01*
X84000000Y-92000000D02*
G75*
G02X83000000Y-91000000I0J1000000D01*
G01*
X83000000Y-52600000D02*
G75*
G02X84000000Y-51600000I1000000J0D01*
G01*
X87000000Y-132000000D02*
X84000000Y-132000000D01*
X83000000Y-127000000D02*
X83000000Y-131000000D01*
X83000000Y-148000000D02*
X83000000Y-155200000D01*
X84000000Y-147000000D02*
X87000000Y-147000000D01*
X88000000Y-146000000D02*
X88000000Y-133000000D01*
X212000000Y-138300000D02*
X212000000Y-155200000D01*
X201000000Y-104000000D02*
X211000000Y-104000000D01*
X200000000Y-136300000D02*
X200000000Y-105000000D01*
X211000000Y-137300000D02*
X201000000Y-137300000D01*
X86500000Y-92000000D02*
X84000000Y-92000000D01*
X87500000Y-125000000D02*
X87500000Y-93000000D01*
X211000000Y-51600000D02*
X84000000Y-51600000D01*
X212000000Y-103000000D02*
X212000000Y-52600000D01*
X84000000Y-156200000D02*
X211000000Y-156200000D01*
X83000000Y-52600000D02*
X83000000Y-91000000D01*
G04 #@! TO.C,P11*
D11*
X155202142Y-93332380D02*
X155202142Y-92332380D01*
X154964047Y-92332380D01*
X154821190Y-92380000D01*
X154725952Y-92475238D01*
X154678333Y-92570476D01*
X154630714Y-92760952D01*
X154630714Y-92903809D01*
X154678333Y-93094285D01*
X154725952Y-93189523D01*
X154821190Y-93284761D01*
X154964047Y-93332380D01*
X155202142Y-93332380D01*
X154202142Y-92332380D02*
X154202142Y-93141904D01*
X154154523Y-93237142D01*
X154106904Y-93284761D01*
X154011666Y-93332380D01*
X153821190Y-93332380D01*
X153725952Y-93284761D01*
X153678333Y-93237142D01*
X153630714Y-93141904D01*
X153630714Y-92332380D01*
X153154523Y-93332380D02*
X153154523Y-92332380D01*
X152821190Y-93046666D01*
X152487857Y-92332380D01*
X152487857Y-93332380D01*
X152011666Y-93332380D02*
X152011666Y-92332380D01*
X151678333Y-93046666D01*
X151345000Y-92332380D01*
X151345000Y-93332380D01*
X150678333Y-92856190D02*
X150678333Y-93332380D01*
X151011666Y-92332380D02*
X150678333Y-92856190D01*
X150345000Y-92332380D01*
G04 #@! TO.C,P10*
X159762142Y-93382380D02*
X159762142Y-92382380D01*
X159524047Y-92382380D01*
X159381190Y-92430000D01*
X159285952Y-92525238D01*
X159238333Y-92620476D01*
X159190714Y-92810952D01*
X159190714Y-92953809D01*
X159238333Y-93144285D01*
X159285952Y-93239523D01*
X159381190Y-93334761D01*
X159524047Y-93382380D01*
X159762142Y-93382380D01*
X158762142Y-92382380D02*
X158762142Y-93191904D01*
X158714523Y-93287142D01*
X158666904Y-93334761D01*
X158571666Y-93382380D01*
X158381190Y-93382380D01*
X158285952Y-93334761D01*
X158238333Y-93287142D01*
X158190714Y-93191904D01*
X158190714Y-92382380D01*
X157714523Y-93382380D02*
X157714523Y-92382380D01*
X157381190Y-93096666D01*
X157047857Y-92382380D01*
X157047857Y-93382380D01*
X156571666Y-93382380D02*
X156571666Y-92382380D01*
X156238333Y-93096666D01*
X155905000Y-92382380D01*
X155905000Y-93382380D01*
X155238333Y-92906190D02*
X155238333Y-93382380D01*
X155571666Y-92382380D02*
X155238333Y-92906190D01*
X154905000Y-92382380D01*
G04 #@! TO.C,P8*
X155202142Y-98432380D02*
X155202142Y-97432380D01*
X154964047Y-97432380D01*
X154821190Y-97480000D01*
X154725952Y-97575238D01*
X154678333Y-97670476D01*
X154630714Y-97860952D01*
X154630714Y-98003809D01*
X154678333Y-98194285D01*
X154725952Y-98289523D01*
X154821190Y-98384761D01*
X154964047Y-98432380D01*
X155202142Y-98432380D01*
X154202142Y-97432380D02*
X154202142Y-98241904D01*
X154154523Y-98337142D01*
X154106904Y-98384761D01*
X154011666Y-98432380D01*
X153821190Y-98432380D01*
X153725952Y-98384761D01*
X153678333Y-98337142D01*
X153630714Y-98241904D01*
X153630714Y-97432380D01*
X153154523Y-98432380D02*
X153154523Y-97432380D01*
X152821190Y-98146666D01*
X152487857Y-97432380D01*
X152487857Y-98432380D01*
X152011666Y-98432380D02*
X152011666Y-97432380D01*
X151678333Y-98146666D01*
X151345000Y-97432380D01*
X151345000Y-98432380D01*
X150678333Y-97956190D02*
X150678333Y-98432380D01*
X151011666Y-97432380D02*
X150678333Y-97956190D01*
X150345000Y-97432380D01*
G04 #@! TO.C,P5*
X150562142Y-93492380D02*
X150562142Y-92492380D01*
X150324047Y-92492380D01*
X150181190Y-92540000D01*
X150085952Y-92635238D01*
X150038333Y-92730476D01*
X149990714Y-92920952D01*
X149990714Y-93063809D01*
X150038333Y-93254285D01*
X150085952Y-93349523D01*
X150181190Y-93444761D01*
X150324047Y-93492380D01*
X150562142Y-93492380D01*
X149562142Y-92492380D02*
X149562142Y-93301904D01*
X149514523Y-93397142D01*
X149466904Y-93444761D01*
X149371666Y-93492380D01*
X149181190Y-93492380D01*
X149085952Y-93444761D01*
X149038333Y-93397142D01*
X148990714Y-93301904D01*
X148990714Y-92492380D01*
X148514523Y-93492380D02*
X148514523Y-92492380D01*
X148181190Y-93206666D01*
X147847857Y-92492380D01*
X147847857Y-93492380D01*
X147371666Y-93492380D02*
X147371666Y-92492380D01*
X147038333Y-93206666D01*
X146705000Y-92492380D01*
X146705000Y-93492380D01*
X146038333Y-93016190D02*
X146038333Y-93492380D01*
X146371666Y-92492380D02*
X146038333Y-93016190D01*
X145705000Y-92492380D01*
G04 #@! TO.C,P4*
X145457142Y-98177380D02*
X145457142Y-97177380D01*
X145219047Y-97177380D01*
X145076190Y-97225000D01*
X144980952Y-97320238D01*
X144933333Y-97415476D01*
X144885714Y-97605952D01*
X144885714Y-97748809D01*
X144933333Y-97939285D01*
X144980952Y-98034523D01*
X145076190Y-98129761D01*
X145219047Y-98177380D01*
X145457142Y-98177380D01*
X144457142Y-97177380D02*
X144457142Y-97986904D01*
X144409523Y-98082142D01*
X144361904Y-98129761D01*
X144266666Y-98177380D01*
X144076190Y-98177380D01*
X143980952Y-98129761D01*
X143933333Y-98082142D01*
X143885714Y-97986904D01*
X143885714Y-97177380D01*
X143409523Y-98177380D02*
X143409523Y-97177380D01*
X143076190Y-97891666D01*
X142742857Y-97177380D01*
X142742857Y-98177380D01*
X142266666Y-98177380D02*
X142266666Y-97177380D01*
X141933333Y-97891666D01*
X141600000Y-97177380D01*
X141600000Y-98177380D01*
X140933333Y-97701190D02*
X140933333Y-98177380D01*
X141266666Y-97177380D02*
X140933333Y-97701190D01*
X140600000Y-97177380D01*
G04 #@! TO.C,P3*
X159762142Y-98482380D02*
X159762142Y-97482380D01*
X159524047Y-97482380D01*
X159381190Y-97530000D01*
X159285952Y-97625238D01*
X159238333Y-97720476D01*
X159190714Y-97910952D01*
X159190714Y-98053809D01*
X159238333Y-98244285D01*
X159285952Y-98339523D01*
X159381190Y-98434761D01*
X159524047Y-98482380D01*
X159762142Y-98482380D01*
X158762142Y-97482380D02*
X158762142Y-98291904D01*
X158714523Y-98387142D01*
X158666904Y-98434761D01*
X158571666Y-98482380D01*
X158381190Y-98482380D01*
X158285952Y-98434761D01*
X158238333Y-98387142D01*
X158190714Y-98291904D01*
X158190714Y-97482380D01*
X157714523Y-98482380D02*
X157714523Y-97482380D01*
X157381190Y-98196666D01*
X157047857Y-97482380D01*
X157047857Y-98482380D01*
X156571666Y-98482380D02*
X156571666Y-97482380D01*
X156238333Y-98196666D01*
X155905000Y-97482380D01*
X155905000Y-98482380D01*
X155238333Y-98006190D02*
X155238333Y-98482380D01*
X155571666Y-97482380D02*
X155238333Y-98006190D01*
X154905000Y-97482380D01*
G04 #@! TO.C,P2*
X153933333Y-98091666D02*
X153457142Y-98091666D01*
X154028571Y-98377380D02*
X153695238Y-97377380D01*
X153361904Y-98377380D01*
X152885714Y-98377380D02*
X152980952Y-98329761D01*
X153028571Y-98234523D01*
X153028571Y-97377380D01*
X152076190Y-97710714D02*
X152076190Y-98377380D01*
X152504761Y-97710714D02*
X152504761Y-98234523D01*
X152457142Y-98329761D01*
X152361904Y-98377380D01*
X152219047Y-98377380D01*
X152123809Y-98329761D01*
X152076190Y-98282142D01*
X151600000Y-98377380D02*
X151600000Y-97710714D01*
X151600000Y-97805952D02*
X151552380Y-97758333D01*
X151457142Y-97710714D01*
X151314285Y-97710714D01*
X151219047Y-97758333D01*
X151171428Y-97853571D01*
X151171428Y-98377380D01*
X151171428Y-97853571D02*
X151123809Y-97758333D01*
X151028571Y-97710714D01*
X150885714Y-97710714D01*
X150790476Y-97758333D01*
X150742857Y-97853571D01*
X150742857Y-98377380D01*
X150266666Y-98377380D02*
X150266666Y-97710714D01*
X150266666Y-97377380D02*
X150314285Y-97425000D01*
X150266666Y-97472619D01*
X150219047Y-97425000D01*
X150266666Y-97377380D01*
X150266666Y-97472619D01*
X149790476Y-97710714D02*
X149790476Y-98377380D01*
X149790476Y-97805952D02*
X149742857Y-97758333D01*
X149647619Y-97710714D01*
X149504761Y-97710714D01*
X149409523Y-97758333D01*
X149361904Y-97853571D01*
X149361904Y-98377380D01*
X148885714Y-98377380D02*
X148885714Y-97710714D01*
X148885714Y-97377380D02*
X148933333Y-97425000D01*
X148885714Y-97472619D01*
X148838095Y-97425000D01*
X148885714Y-97377380D01*
X148885714Y-97472619D01*
X147980952Y-97710714D02*
X147980952Y-98377380D01*
X148409523Y-97710714D02*
X148409523Y-98234523D01*
X148361904Y-98329761D01*
X148266666Y-98377380D01*
X148123809Y-98377380D01*
X148028571Y-98329761D01*
X147980952Y-98282142D01*
X147504761Y-98377380D02*
X147504761Y-97710714D01*
X147504761Y-97805952D02*
X147457142Y-97758333D01*
X147361904Y-97710714D01*
X147219047Y-97710714D01*
X147123809Y-97758333D01*
X147076190Y-97853571D01*
X147076190Y-98377380D01*
X147076190Y-97853571D02*
X147028571Y-97758333D01*
X146933333Y-97710714D01*
X146790476Y-97710714D01*
X146695238Y-97758333D01*
X146647619Y-97853571D01*
X146647619Y-98377380D01*
X144838095Y-98282142D02*
X144885714Y-98329761D01*
X145028571Y-98377380D01*
X145123809Y-98377380D01*
X145266666Y-98329761D01*
X145361904Y-98234523D01*
X145409523Y-98139285D01*
X145457142Y-97948809D01*
X145457142Y-97805952D01*
X145409523Y-97615476D01*
X145361904Y-97520238D01*
X145266666Y-97425000D01*
X145123809Y-97377380D01*
X145028571Y-97377380D01*
X144885714Y-97425000D01*
X144838095Y-97472619D01*
X143980952Y-98377380D02*
X143980952Y-97853571D01*
X144028571Y-97758333D01*
X144123809Y-97710714D01*
X144314285Y-97710714D01*
X144409523Y-97758333D01*
X143980952Y-98329761D02*
X144076190Y-98377380D01*
X144314285Y-98377380D01*
X144409523Y-98329761D01*
X144457142Y-98234523D01*
X144457142Y-98139285D01*
X144409523Y-98044047D01*
X144314285Y-97996428D01*
X144076190Y-97996428D01*
X143980952Y-97948809D01*
X143552380Y-98329761D02*
X143457142Y-98377380D01*
X143266666Y-98377380D01*
X143171428Y-98329761D01*
X143123809Y-98234523D01*
X143123809Y-98186904D01*
X143171428Y-98091666D01*
X143266666Y-98044047D01*
X143409523Y-98044047D01*
X143504761Y-97996428D01*
X143552380Y-97901190D01*
X143552380Y-97853571D01*
X143504761Y-97758333D01*
X143409523Y-97710714D01*
X143266666Y-97710714D01*
X143171428Y-97758333D01*
X142314285Y-98329761D02*
X142409523Y-98377380D01*
X142600000Y-98377380D01*
X142695238Y-98329761D01*
X142742857Y-98234523D01*
X142742857Y-97853571D01*
X142695238Y-97758333D01*
X142600000Y-97710714D01*
X142409523Y-97710714D01*
X142314285Y-97758333D01*
X142266666Y-97853571D01*
X142266666Y-97948809D01*
X142742857Y-98044047D01*
G04 #@! TO.C,P1*
X145462142Y-93492380D02*
X145462142Y-92492380D01*
X145224047Y-92492380D01*
X145081190Y-92540000D01*
X144985952Y-92635238D01*
X144938333Y-92730476D01*
X144890714Y-92920952D01*
X144890714Y-93063809D01*
X144938333Y-93254285D01*
X144985952Y-93349523D01*
X145081190Y-93444761D01*
X145224047Y-93492380D01*
X145462142Y-93492380D01*
X144462142Y-92492380D02*
X144462142Y-93301904D01*
X144414523Y-93397142D01*
X144366904Y-93444761D01*
X144271666Y-93492380D01*
X144081190Y-93492380D01*
X143985952Y-93444761D01*
X143938333Y-93397142D01*
X143890714Y-93301904D01*
X143890714Y-92492380D01*
X143414523Y-93492380D02*
X143414523Y-92492380D01*
X143081190Y-93206666D01*
X142747857Y-92492380D01*
X142747857Y-93492380D01*
X142271666Y-93492380D02*
X142271666Y-92492380D01*
X141938333Y-93206666D01*
X141605000Y-92492380D01*
X141605000Y-93492380D01*
X140938333Y-93016190D02*
X140938333Y-93492380D01*
X141271666Y-92492380D02*
X140938333Y-93016190D01*
X140605000Y-92492380D01*
G04 #@! TO.C,HS1*
X156752380Y-113952380D02*
X156752380Y-112952380D01*
X156752380Y-113428571D02*
X156180952Y-113428571D01*
X156180952Y-113952380D02*
X156180952Y-112952380D01*
X155323809Y-113904761D02*
X155419047Y-113952380D01*
X155609523Y-113952380D01*
X155704761Y-113904761D01*
X155752380Y-113809523D01*
X155752380Y-113428571D01*
X155704761Y-113333333D01*
X155609523Y-113285714D01*
X155419047Y-113285714D01*
X155323809Y-113333333D01*
X155276190Y-113428571D01*
X155276190Y-113523809D01*
X155752380Y-113619047D01*
X154419047Y-113952380D02*
X154419047Y-113428571D01*
X154466666Y-113333333D01*
X154561904Y-113285714D01*
X154752380Y-113285714D01*
X154847619Y-113333333D01*
X154419047Y-113904761D02*
X154514285Y-113952380D01*
X154752380Y-113952380D01*
X154847619Y-113904761D01*
X154895238Y-113809523D01*
X154895238Y-113714285D01*
X154847619Y-113619047D01*
X154752380Y-113571428D01*
X154514285Y-113571428D01*
X154419047Y-113523809D01*
X154085714Y-113285714D02*
X153704761Y-113285714D01*
X153942857Y-112952380D02*
X153942857Y-113809523D01*
X153895238Y-113904761D01*
X153800000Y-113952380D01*
X153704761Y-113952380D01*
X153419047Y-113904761D02*
X153323809Y-113952380D01*
X153133333Y-113952380D01*
X153038095Y-113904761D01*
X152990476Y-113809523D01*
X152990476Y-113761904D01*
X153038095Y-113666666D01*
X153133333Y-113619047D01*
X153276190Y-113619047D01*
X153371428Y-113571428D01*
X153419047Y-113476190D01*
X153419047Y-113428571D01*
X153371428Y-113333333D01*
X153276190Y-113285714D01*
X153133333Y-113285714D01*
X153038095Y-113333333D01*
X152561904Y-113952380D02*
X152561904Y-113285714D01*
X152561904Y-112952380D02*
X152609523Y-113000000D01*
X152561904Y-113047619D01*
X152514285Y-113000000D01*
X152561904Y-112952380D01*
X152561904Y-113047619D01*
X152085714Y-113285714D02*
X152085714Y-113952380D01*
X152085714Y-113380952D02*
X152038095Y-113333333D01*
X151942857Y-113285714D01*
X151800000Y-113285714D01*
X151704761Y-113333333D01*
X151657142Y-113428571D01*
X151657142Y-113952380D01*
X151180952Y-113952380D02*
X151180952Y-112952380D01*
X151085714Y-113571428D02*
X150800000Y-113952380D01*
X150800000Y-113285714D02*
X151180952Y-113666666D01*
G04 #@! TO.C,TP28*
X196633333Y-123502380D02*
X196061904Y-123502380D01*
X196347619Y-124502380D02*
X196347619Y-123502380D01*
X195347619Y-124454761D02*
X195442857Y-124502380D01*
X195633333Y-124502380D01*
X195728571Y-124454761D01*
X195776190Y-124359523D01*
X195776190Y-123978571D01*
X195728571Y-123883333D01*
X195633333Y-123835714D01*
X195442857Y-123835714D01*
X195347619Y-123883333D01*
X195300000Y-123978571D01*
X195300000Y-124073809D01*
X195776190Y-124169047D01*
X194919047Y-124454761D02*
X194823809Y-124502380D01*
X194633333Y-124502380D01*
X194538095Y-124454761D01*
X194490476Y-124359523D01*
X194490476Y-124311904D01*
X194538095Y-124216666D01*
X194633333Y-124169047D01*
X194776190Y-124169047D01*
X194871428Y-124121428D01*
X194919047Y-124026190D01*
X194919047Y-123978571D01*
X194871428Y-123883333D01*
X194776190Y-123835714D01*
X194633333Y-123835714D01*
X194538095Y-123883333D01*
X194204761Y-123835714D02*
X193823809Y-123835714D01*
X194061904Y-123502380D02*
X194061904Y-124359523D01*
X194014285Y-124454761D01*
X193919047Y-124502380D01*
X193823809Y-124502380D01*
X193490476Y-124502380D02*
X193490476Y-123502380D01*
X193109523Y-123502380D01*
X193014285Y-123550000D01*
X192966666Y-123597619D01*
X192919047Y-123692857D01*
X192919047Y-123835714D01*
X192966666Y-123930952D01*
X193014285Y-123978571D01*
X193109523Y-124026190D01*
X193490476Y-124026190D01*
X192347619Y-124502380D02*
X192442857Y-124454761D01*
X192490476Y-124407142D01*
X192538095Y-124311904D01*
X192538095Y-124026190D01*
X192490476Y-123930952D01*
X192442857Y-123883333D01*
X192347619Y-123835714D01*
X192204761Y-123835714D01*
X192109523Y-123883333D01*
X192061904Y-123930952D01*
X192014285Y-124026190D01*
X192014285Y-124311904D01*
X192061904Y-124407142D01*
X192109523Y-124454761D01*
X192204761Y-124502380D01*
X192347619Y-124502380D01*
X191585714Y-124502380D02*
X191585714Y-123835714D01*
X191585714Y-123502380D02*
X191633333Y-123550000D01*
X191585714Y-123597619D01*
X191538095Y-123550000D01*
X191585714Y-123502380D01*
X191585714Y-123597619D01*
X191109523Y-123835714D02*
X191109523Y-124502380D01*
X191109523Y-123930952D02*
X191061904Y-123883333D01*
X190966666Y-123835714D01*
X190823809Y-123835714D01*
X190728571Y-123883333D01*
X190680952Y-123978571D01*
X190680952Y-124502380D01*
X190347619Y-123835714D02*
X189966666Y-123835714D01*
X190204761Y-123502380D02*
X190204761Y-124359523D01*
X190157142Y-124454761D01*
X190061904Y-124502380D01*
X189966666Y-124502380D01*
X195038095Y-126902380D02*
X194466666Y-126902380D01*
X194752380Y-127902380D02*
X194752380Y-126902380D01*
X194133333Y-127902380D02*
X194133333Y-126902380D01*
X193752380Y-126902380D01*
X193657142Y-126950000D01*
X193609523Y-126997619D01*
X193561904Y-127092857D01*
X193561904Y-127235714D01*
X193609523Y-127330952D01*
X193657142Y-127378571D01*
X193752380Y-127426190D01*
X194133333Y-127426190D01*
X193180952Y-126997619D02*
X193133333Y-126950000D01*
X193038095Y-126902380D01*
X192800000Y-126902380D01*
X192704761Y-126950000D01*
X192657142Y-126997619D01*
X192609523Y-127092857D01*
X192609523Y-127188095D01*
X192657142Y-127330952D01*
X193228571Y-127902380D01*
X192609523Y-127902380D01*
X192038095Y-127330952D02*
X192133333Y-127283333D01*
X192180952Y-127235714D01*
X192228571Y-127140476D01*
X192228571Y-127092857D01*
X192180952Y-126997619D01*
X192133333Y-126950000D01*
X192038095Y-126902380D01*
X191847619Y-126902380D01*
X191752380Y-126950000D01*
X191704761Y-126997619D01*
X191657142Y-127092857D01*
X191657142Y-127140476D01*
X191704761Y-127235714D01*
X191752380Y-127283333D01*
X191847619Y-127330952D01*
X192038095Y-127330952D01*
X192133333Y-127378571D01*
X192180952Y-127426190D01*
X192228571Y-127521428D01*
X192228571Y-127711904D01*
X192180952Y-127807142D01*
X192133333Y-127854761D01*
X192038095Y-127902380D01*
X191847619Y-127902380D01*
X191752380Y-127854761D01*
X191704761Y-127807142D01*
X191657142Y-127711904D01*
X191657142Y-127521428D01*
X191704761Y-127426190D01*
X191752380Y-127378571D01*
X191847619Y-127330952D01*
G04 #@! TO.C,P19*
X151057142Y-113877380D02*
X151057142Y-112877380D01*
X150819047Y-112877380D01*
X150676190Y-112925000D01*
X150580952Y-113020238D01*
X150533333Y-113115476D01*
X150485714Y-113305952D01*
X150485714Y-113448809D01*
X150533333Y-113639285D01*
X150580952Y-113734523D01*
X150676190Y-113829761D01*
X150819047Y-113877380D01*
X151057142Y-113877380D01*
X150057142Y-112877380D02*
X150057142Y-113686904D01*
X150009523Y-113782142D01*
X149961904Y-113829761D01*
X149866666Y-113877380D01*
X149676190Y-113877380D01*
X149580952Y-113829761D01*
X149533333Y-113782142D01*
X149485714Y-113686904D01*
X149485714Y-112877380D01*
X149009523Y-113877380D02*
X149009523Y-112877380D01*
X148676190Y-113591666D01*
X148342857Y-112877380D01*
X148342857Y-113877380D01*
X147866666Y-113877380D02*
X147866666Y-112877380D01*
X147533333Y-113591666D01*
X147200000Y-112877380D01*
X147200000Y-113877380D01*
X146533333Y-113401190D02*
X146533333Y-113877380D01*
X146866666Y-112877380D02*
X146533333Y-113401190D01*
X146200000Y-112877380D01*
G04 #@! TO.C,P18*
X145857142Y-113977380D02*
X145857142Y-112977380D01*
X145619047Y-112977380D01*
X145476190Y-113025000D01*
X145380952Y-113120238D01*
X145333333Y-113215476D01*
X145285714Y-113405952D01*
X145285714Y-113548809D01*
X145333333Y-113739285D01*
X145380952Y-113834523D01*
X145476190Y-113929761D01*
X145619047Y-113977380D01*
X145857142Y-113977380D01*
X144857142Y-112977380D02*
X144857142Y-113786904D01*
X144809523Y-113882142D01*
X144761904Y-113929761D01*
X144666666Y-113977380D01*
X144476190Y-113977380D01*
X144380952Y-113929761D01*
X144333333Y-113882142D01*
X144285714Y-113786904D01*
X144285714Y-112977380D01*
X143809523Y-113977380D02*
X143809523Y-112977380D01*
X143476190Y-113691666D01*
X143142857Y-112977380D01*
X143142857Y-113977380D01*
X142666666Y-113977380D02*
X142666666Y-112977380D01*
X142333333Y-113691666D01*
X142000000Y-112977380D01*
X142000000Y-113977380D01*
X141333333Y-113501190D02*
X141333333Y-113977380D01*
X141666666Y-112977380D02*
X141333333Y-113501190D01*
X141000000Y-112977380D01*
G04 #@! TO.C,P6*
X140757142Y-113977380D02*
X140757142Y-112977380D01*
X140519047Y-112977380D01*
X140376190Y-113025000D01*
X140280952Y-113120238D01*
X140233333Y-113215476D01*
X140185714Y-113405952D01*
X140185714Y-113548809D01*
X140233333Y-113739285D01*
X140280952Y-113834523D01*
X140376190Y-113929761D01*
X140519047Y-113977380D01*
X140757142Y-113977380D01*
X139757142Y-112977380D02*
X139757142Y-113786904D01*
X139709523Y-113882142D01*
X139661904Y-113929761D01*
X139566666Y-113977380D01*
X139376190Y-113977380D01*
X139280952Y-113929761D01*
X139233333Y-113882142D01*
X139185714Y-113786904D01*
X139185714Y-112977380D01*
X138709523Y-113977380D02*
X138709523Y-112977380D01*
X138376190Y-113691666D01*
X138042857Y-112977380D01*
X138042857Y-113977380D01*
X137566666Y-113977380D02*
X137566666Y-112977380D01*
X137233333Y-113691666D01*
X136900000Y-112977380D01*
X136900000Y-113977380D01*
X136233333Y-113501190D02*
X136233333Y-113977380D01*
X136566666Y-112977380D02*
X136233333Y-113501190D01*
X135900000Y-112977380D01*
G04 #@! TO.C,TP26*
X95833333Y-86202380D02*
X95261904Y-86202380D01*
X95547619Y-87202380D02*
X95547619Y-86202380D01*
X94547619Y-87154761D02*
X94642857Y-87202380D01*
X94833333Y-87202380D01*
X94928571Y-87154761D01*
X94976190Y-87059523D01*
X94976190Y-86678571D01*
X94928571Y-86583333D01*
X94833333Y-86535714D01*
X94642857Y-86535714D01*
X94547619Y-86583333D01*
X94500000Y-86678571D01*
X94500000Y-86773809D01*
X94976190Y-86869047D01*
X94119047Y-87154761D02*
X94023809Y-87202380D01*
X93833333Y-87202380D01*
X93738095Y-87154761D01*
X93690476Y-87059523D01*
X93690476Y-87011904D01*
X93738095Y-86916666D01*
X93833333Y-86869047D01*
X93976190Y-86869047D01*
X94071428Y-86821428D01*
X94119047Y-86726190D01*
X94119047Y-86678571D01*
X94071428Y-86583333D01*
X93976190Y-86535714D01*
X93833333Y-86535714D01*
X93738095Y-86583333D01*
X93404761Y-86535714D02*
X93023809Y-86535714D01*
X93261904Y-86202380D02*
X93261904Y-87059523D01*
X93214285Y-87154761D01*
X93119047Y-87202380D01*
X93023809Y-87202380D01*
X92690476Y-87202380D02*
X92690476Y-86202380D01*
X92309523Y-86202380D01*
X92214285Y-86250000D01*
X92166666Y-86297619D01*
X92119047Y-86392857D01*
X92119047Y-86535714D01*
X92166666Y-86630952D01*
X92214285Y-86678571D01*
X92309523Y-86726190D01*
X92690476Y-86726190D01*
X91547619Y-87202380D02*
X91642857Y-87154761D01*
X91690476Y-87107142D01*
X91738095Y-87011904D01*
X91738095Y-86726190D01*
X91690476Y-86630952D01*
X91642857Y-86583333D01*
X91547619Y-86535714D01*
X91404761Y-86535714D01*
X91309523Y-86583333D01*
X91261904Y-86630952D01*
X91214285Y-86726190D01*
X91214285Y-87011904D01*
X91261904Y-87107142D01*
X91309523Y-87154761D01*
X91404761Y-87202380D01*
X91547619Y-87202380D01*
X90785714Y-87202380D02*
X90785714Y-86535714D01*
X90785714Y-86202380D02*
X90833333Y-86250000D01*
X90785714Y-86297619D01*
X90738095Y-86250000D01*
X90785714Y-86202380D01*
X90785714Y-86297619D01*
X90309523Y-86535714D02*
X90309523Y-87202380D01*
X90309523Y-86630952D02*
X90261904Y-86583333D01*
X90166666Y-86535714D01*
X90023809Y-86535714D01*
X89928571Y-86583333D01*
X89880952Y-86678571D01*
X89880952Y-87202380D01*
X89547619Y-86535714D02*
X89166666Y-86535714D01*
X89404761Y-86202380D02*
X89404761Y-87059523D01*
X89357142Y-87154761D01*
X89261904Y-87202380D01*
X89166666Y-87202380D01*
X94238095Y-89602380D02*
X93666666Y-89602380D01*
X93952380Y-90602380D02*
X93952380Y-89602380D01*
X93333333Y-90602380D02*
X93333333Y-89602380D01*
X92952380Y-89602380D01*
X92857142Y-89650000D01*
X92809523Y-89697619D01*
X92761904Y-89792857D01*
X92761904Y-89935714D01*
X92809523Y-90030952D01*
X92857142Y-90078571D01*
X92952380Y-90126190D01*
X93333333Y-90126190D01*
X92380952Y-89697619D02*
X92333333Y-89650000D01*
X92238095Y-89602380D01*
X92000000Y-89602380D01*
X91904761Y-89650000D01*
X91857142Y-89697619D01*
X91809523Y-89792857D01*
X91809523Y-89888095D01*
X91857142Y-90030952D01*
X92428571Y-90602380D01*
X91809523Y-90602380D01*
X90952380Y-89602380D02*
X91142857Y-89602380D01*
X91238095Y-89650000D01*
X91285714Y-89697619D01*
X91380952Y-89840476D01*
X91428571Y-90030952D01*
X91428571Y-90411904D01*
X91380952Y-90507142D01*
X91333333Y-90554761D01*
X91238095Y-90602380D01*
X91047619Y-90602380D01*
X90952380Y-90554761D01*
X90904761Y-90507142D01*
X90857142Y-90411904D01*
X90857142Y-90173809D01*
X90904761Y-90078571D01*
X90952380Y-90030952D01*
X91047619Y-89983333D01*
X91238095Y-89983333D01*
X91333333Y-90030952D01*
X91380952Y-90078571D01*
X91428571Y-90173809D01*
G04 #@! TO.C,TP17*
X136933333Y-144402380D02*
X136361904Y-144402380D01*
X136647619Y-145402380D02*
X136647619Y-144402380D01*
X135647619Y-145354761D02*
X135742857Y-145402380D01*
X135933333Y-145402380D01*
X136028571Y-145354761D01*
X136076190Y-145259523D01*
X136076190Y-144878571D01*
X136028571Y-144783333D01*
X135933333Y-144735714D01*
X135742857Y-144735714D01*
X135647619Y-144783333D01*
X135600000Y-144878571D01*
X135600000Y-144973809D01*
X136076190Y-145069047D01*
X135219047Y-145354761D02*
X135123809Y-145402380D01*
X134933333Y-145402380D01*
X134838095Y-145354761D01*
X134790476Y-145259523D01*
X134790476Y-145211904D01*
X134838095Y-145116666D01*
X134933333Y-145069047D01*
X135076190Y-145069047D01*
X135171428Y-145021428D01*
X135219047Y-144926190D01*
X135219047Y-144878571D01*
X135171428Y-144783333D01*
X135076190Y-144735714D01*
X134933333Y-144735714D01*
X134838095Y-144783333D01*
X134504761Y-144735714D02*
X134123809Y-144735714D01*
X134361904Y-144402380D02*
X134361904Y-145259523D01*
X134314285Y-145354761D01*
X134219047Y-145402380D01*
X134123809Y-145402380D01*
X133790476Y-145402380D02*
X133790476Y-144402380D01*
X133409523Y-144402380D01*
X133314285Y-144450000D01*
X133266666Y-144497619D01*
X133219047Y-144592857D01*
X133219047Y-144735714D01*
X133266666Y-144830952D01*
X133314285Y-144878571D01*
X133409523Y-144926190D01*
X133790476Y-144926190D01*
X132647619Y-145402380D02*
X132742857Y-145354761D01*
X132790476Y-145307142D01*
X132838095Y-145211904D01*
X132838095Y-144926190D01*
X132790476Y-144830952D01*
X132742857Y-144783333D01*
X132647619Y-144735714D01*
X132504761Y-144735714D01*
X132409523Y-144783333D01*
X132361904Y-144830952D01*
X132314285Y-144926190D01*
X132314285Y-145211904D01*
X132361904Y-145307142D01*
X132409523Y-145354761D01*
X132504761Y-145402380D01*
X132647619Y-145402380D01*
X131885714Y-145402380D02*
X131885714Y-144735714D01*
X131885714Y-144402380D02*
X131933333Y-144450000D01*
X131885714Y-144497619D01*
X131838095Y-144450000D01*
X131885714Y-144402380D01*
X131885714Y-144497619D01*
X131409523Y-144735714D02*
X131409523Y-145402380D01*
X131409523Y-144830952D02*
X131361904Y-144783333D01*
X131266666Y-144735714D01*
X131123809Y-144735714D01*
X131028571Y-144783333D01*
X130980952Y-144878571D01*
X130980952Y-145402380D01*
X130647619Y-144735714D02*
X130266666Y-144735714D01*
X130504761Y-144402380D02*
X130504761Y-145259523D01*
X130457142Y-145354761D01*
X130361904Y-145402380D01*
X130266666Y-145402380D01*
X135338095Y-147802380D02*
X134766666Y-147802380D01*
X135052380Y-148802380D02*
X135052380Y-147802380D01*
X134433333Y-148802380D02*
X134433333Y-147802380D01*
X134052380Y-147802380D01*
X133957142Y-147850000D01*
X133909523Y-147897619D01*
X133861904Y-147992857D01*
X133861904Y-148135714D01*
X133909523Y-148230952D01*
X133957142Y-148278571D01*
X134052380Y-148326190D01*
X134433333Y-148326190D01*
X132909523Y-148802380D02*
X133480952Y-148802380D01*
X133195238Y-148802380D02*
X133195238Y-147802380D01*
X133290476Y-147945238D01*
X133385714Y-148040476D01*
X133480952Y-148088095D01*
X132576190Y-147802380D02*
X131909523Y-147802380D01*
X132338095Y-148802380D01*
G04 #@! TO.C,TP16*
X99433333Y-129402380D02*
X98861904Y-129402380D01*
X99147619Y-130402380D02*
X99147619Y-129402380D01*
X98147619Y-130354761D02*
X98242857Y-130402380D01*
X98433333Y-130402380D01*
X98528571Y-130354761D01*
X98576190Y-130259523D01*
X98576190Y-129878571D01*
X98528571Y-129783333D01*
X98433333Y-129735714D01*
X98242857Y-129735714D01*
X98147619Y-129783333D01*
X98100000Y-129878571D01*
X98100000Y-129973809D01*
X98576190Y-130069047D01*
X97719047Y-130354761D02*
X97623809Y-130402380D01*
X97433333Y-130402380D01*
X97338095Y-130354761D01*
X97290476Y-130259523D01*
X97290476Y-130211904D01*
X97338095Y-130116666D01*
X97433333Y-130069047D01*
X97576190Y-130069047D01*
X97671428Y-130021428D01*
X97719047Y-129926190D01*
X97719047Y-129878571D01*
X97671428Y-129783333D01*
X97576190Y-129735714D01*
X97433333Y-129735714D01*
X97338095Y-129783333D01*
X97004761Y-129735714D02*
X96623809Y-129735714D01*
X96861904Y-129402380D02*
X96861904Y-130259523D01*
X96814285Y-130354761D01*
X96719047Y-130402380D01*
X96623809Y-130402380D01*
X96290476Y-130402380D02*
X96290476Y-129402380D01*
X95909523Y-129402380D01*
X95814285Y-129450000D01*
X95766666Y-129497619D01*
X95719047Y-129592857D01*
X95719047Y-129735714D01*
X95766666Y-129830952D01*
X95814285Y-129878571D01*
X95909523Y-129926190D01*
X96290476Y-129926190D01*
X95147619Y-130402380D02*
X95242857Y-130354761D01*
X95290476Y-130307142D01*
X95338095Y-130211904D01*
X95338095Y-129926190D01*
X95290476Y-129830952D01*
X95242857Y-129783333D01*
X95147619Y-129735714D01*
X95004761Y-129735714D01*
X94909523Y-129783333D01*
X94861904Y-129830952D01*
X94814285Y-129926190D01*
X94814285Y-130211904D01*
X94861904Y-130307142D01*
X94909523Y-130354761D01*
X95004761Y-130402380D01*
X95147619Y-130402380D01*
X94385714Y-130402380D02*
X94385714Y-129735714D01*
X94385714Y-129402380D02*
X94433333Y-129450000D01*
X94385714Y-129497619D01*
X94338095Y-129450000D01*
X94385714Y-129402380D01*
X94385714Y-129497619D01*
X93909523Y-129735714D02*
X93909523Y-130402380D01*
X93909523Y-129830952D02*
X93861904Y-129783333D01*
X93766666Y-129735714D01*
X93623809Y-129735714D01*
X93528571Y-129783333D01*
X93480952Y-129878571D01*
X93480952Y-130402380D01*
X93147619Y-129735714D02*
X92766666Y-129735714D01*
X93004761Y-129402380D02*
X93004761Y-130259523D01*
X92957142Y-130354761D01*
X92861904Y-130402380D01*
X92766666Y-130402380D01*
X97838095Y-132802380D02*
X97266666Y-132802380D01*
X97552380Y-133802380D02*
X97552380Y-132802380D01*
X96933333Y-133802380D02*
X96933333Y-132802380D01*
X96552380Y-132802380D01*
X96457142Y-132850000D01*
X96409523Y-132897619D01*
X96361904Y-132992857D01*
X96361904Y-133135714D01*
X96409523Y-133230952D01*
X96457142Y-133278571D01*
X96552380Y-133326190D01*
X96933333Y-133326190D01*
X95409523Y-133802380D02*
X95980952Y-133802380D01*
X95695238Y-133802380D02*
X95695238Y-132802380D01*
X95790476Y-132945238D01*
X95885714Y-133040476D01*
X95980952Y-133088095D01*
X94552380Y-132802380D02*
X94742857Y-132802380D01*
X94838095Y-132850000D01*
X94885714Y-132897619D01*
X94980952Y-133040476D01*
X95028571Y-133230952D01*
X95028571Y-133611904D01*
X94980952Y-133707142D01*
X94933333Y-133754761D01*
X94838095Y-133802380D01*
X94647619Y-133802380D01*
X94552380Y-133754761D01*
X94504761Y-133707142D01*
X94457142Y-133611904D01*
X94457142Y-133373809D01*
X94504761Y-133278571D01*
X94552380Y-133230952D01*
X94647619Y-133183333D01*
X94838095Y-133183333D01*
X94933333Y-133230952D01*
X94980952Y-133278571D01*
X95028571Y-133373809D01*
G04 #@! TO.C,HS2*
X156752380Y-108877380D02*
X156752380Y-107877380D01*
X156752380Y-108353571D02*
X156180952Y-108353571D01*
X156180952Y-108877380D02*
X156180952Y-107877380D01*
X155323809Y-108829761D02*
X155419047Y-108877380D01*
X155609523Y-108877380D01*
X155704761Y-108829761D01*
X155752380Y-108734523D01*
X155752380Y-108353571D01*
X155704761Y-108258333D01*
X155609523Y-108210714D01*
X155419047Y-108210714D01*
X155323809Y-108258333D01*
X155276190Y-108353571D01*
X155276190Y-108448809D01*
X155752380Y-108544047D01*
X154419047Y-108877380D02*
X154419047Y-108353571D01*
X154466666Y-108258333D01*
X154561904Y-108210714D01*
X154752380Y-108210714D01*
X154847619Y-108258333D01*
X154419047Y-108829761D02*
X154514285Y-108877380D01*
X154752380Y-108877380D01*
X154847619Y-108829761D01*
X154895238Y-108734523D01*
X154895238Y-108639285D01*
X154847619Y-108544047D01*
X154752380Y-108496428D01*
X154514285Y-108496428D01*
X154419047Y-108448809D01*
X154085714Y-108210714D02*
X153704761Y-108210714D01*
X153942857Y-107877380D02*
X153942857Y-108734523D01*
X153895238Y-108829761D01*
X153800000Y-108877380D01*
X153704761Y-108877380D01*
X153419047Y-108829761D02*
X153323809Y-108877380D01*
X153133333Y-108877380D01*
X153038095Y-108829761D01*
X152990476Y-108734523D01*
X152990476Y-108686904D01*
X153038095Y-108591666D01*
X153133333Y-108544047D01*
X153276190Y-108544047D01*
X153371428Y-108496428D01*
X153419047Y-108401190D01*
X153419047Y-108353571D01*
X153371428Y-108258333D01*
X153276190Y-108210714D01*
X153133333Y-108210714D01*
X153038095Y-108258333D01*
X152561904Y-108877380D02*
X152561904Y-108210714D01*
X152561904Y-107877380D02*
X152609523Y-107925000D01*
X152561904Y-107972619D01*
X152514285Y-107925000D01*
X152561904Y-107877380D01*
X152561904Y-107972619D01*
X152085714Y-108210714D02*
X152085714Y-108877380D01*
X152085714Y-108305952D02*
X152038095Y-108258333D01*
X151942857Y-108210714D01*
X151800000Y-108210714D01*
X151704761Y-108258333D01*
X151657142Y-108353571D01*
X151657142Y-108877380D01*
X151180952Y-108877380D02*
X151180952Y-107877380D01*
X151085714Y-108496428D02*
X150800000Y-108877380D01*
X150800000Y-108210714D02*
X151180952Y-108591666D01*
G04 #@! TO.C,TP27*
X179733333Y-121002380D02*
X179161904Y-121002380D01*
X179447619Y-122002380D02*
X179447619Y-121002380D01*
X178447619Y-121954761D02*
X178542857Y-122002380D01*
X178733333Y-122002380D01*
X178828571Y-121954761D01*
X178876190Y-121859523D01*
X178876190Y-121478571D01*
X178828571Y-121383333D01*
X178733333Y-121335714D01*
X178542857Y-121335714D01*
X178447619Y-121383333D01*
X178400000Y-121478571D01*
X178400000Y-121573809D01*
X178876190Y-121669047D01*
X178019047Y-121954761D02*
X177923809Y-122002380D01*
X177733333Y-122002380D01*
X177638095Y-121954761D01*
X177590476Y-121859523D01*
X177590476Y-121811904D01*
X177638095Y-121716666D01*
X177733333Y-121669047D01*
X177876190Y-121669047D01*
X177971428Y-121621428D01*
X178019047Y-121526190D01*
X178019047Y-121478571D01*
X177971428Y-121383333D01*
X177876190Y-121335714D01*
X177733333Y-121335714D01*
X177638095Y-121383333D01*
X177304761Y-121335714D02*
X176923809Y-121335714D01*
X177161904Y-121002380D02*
X177161904Y-121859523D01*
X177114285Y-121954761D01*
X177019047Y-122002380D01*
X176923809Y-122002380D01*
X176590476Y-122002380D02*
X176590476Y-121002380D01*
X176209523Y-121002380D01*
X176114285Y-121050000D01*
X176066666Y-121097619D01*
X176019047Y-121192857D01*
X176019047Y-121335714D01*
X176066666Y-121430952D01*
X176114285Y-121478571D01*
X176209523Y-121526190D01*
X176590476Y-121526190D01*
X175447619Y-122002380D02*
X175542857Y-121954761D01*
X175590476Y-121907142D01*
X175638095Y-121811904D01*
X175638095Y-121526190D01*
X175590476Y-121430952D01*
X175542857Y-121383333D01*
X175447619Y-121335714D01*
X175304761Y-121335714D01*
X175209523Y-121383333D01*
X175161904Y-121430952D01*
X175114285Y-121526190D01*
X175114285Y-121811904D01*
X175161904Y-121907142D01*
X175209523Y-121954761D01*
X175304761Y-122002380D01*
X175447619Y-122002380D01*
X174685714Y-122002380D02*
X174685714Y-121335714D01*
X174685714Y-121002380D02*
X174733333Y-121050000D01*
X174685714Y-121097619D01*
X174638095Y-121050000D01*
X174685714Y-121002380D01*
X174685714Y-121097619D01*
X174209523Y-121335714D02*
X174209523Y-122002380D01*
X174209523Y-121430952D02*
X174161904Y-121383333D01*
X174066666Y-121335714D01*
X173923809Y-121335714D01*
X173828571Y-121383333D01*
X173780952Y-121478571D01*
X173780952Y-122002380D01*
X173447619Y-121335714D02*
X173066666Y-121335714D01*
X173304761Y-121002380D02*
X173304761Y-121859523D01*
X173257142Y-121954761D01*
X173161904Y-122002380D01*
X173066666Y-122002380D01*
X178138095Y-124402380D02*
X177566666Y-124402380D01*
X177852380Y-125402380D02*
X177852380Y-124402380D01*
X177233333Y-125402380D02*
X177233333Y-124402380D01*
X176852380Y-124402380D01*
X176757142Y-124450000D01*
X176709523Y-124497619D01*
X176661904Y-124592857D01*
X176661904Y-124735714D01*
X176709523Y-124830952D01*
X176757142Y-124878571D01*
X176852380Y-124926190D01*
X177233333Y-124926190D01*
X176280952Y-124497619D02*
X176233333Y-124450000D01*
X176138095Y-124402380D01*
X175900000Y-124402380D01*
X175804761Y-124450000D01*
X175757142Y-124497619D01*
X175709523Y-124592857D01*
X175709523Y-124688095D01*
X175757142Y-124830952D01*
X176328571Y-125402380D01*
X175709523Y-125402380D01*
X175376190Y-124402380D02*
X174709523Y-124402380D01*
X175138095Y-125402380D01*
G04 #@! TO.C,TP25*
X175233333Y-76802380D02*
X174661904Y-76802380D01*
X174947619Y-77802380D02*
X174947619Y-76802380D01*
X173947619Y-77754761D02*
X174042857Y-77802380D01*
X174233333Y-77802380D01*
X174328571Y-77754761D01*
X174376190Y-77659523D01*
X174376190Y-77278571D01*
X174328571Y-77183333D01*
X174233333Y-77135714D01*
X174042857Y-77135714D01*
X173947619Y-77183333D01*
X173900000Y-77278571D01*
X173900000Y-77373809D01*
X174376190Y-77469047D01*
X173519047Y-77754761D02*
X173423809Y-77802380D01*
X173233333Y-77802380D01*
X173138095Y-77754761D01*
X173090476Y-77659523D01*
X173090476Y-77611904D01*
X173138095Y-77516666D01*
X173233333Y-77469047D01*
X173376190Y-77469047D01*
X173471428Y-77421428D01*
X173519047Y-77326190D01*
X173519047Y-77278571D01*
X173471428Y-77183333D01*
X173376190Y-77135714D01*
X173233333Y-77135714D01*
X173138095Y-77183333D01*
X172804761Y-77135714D02*
X172423809Y-77135714D01*
X172661904Y-76802380D02*
X172661904Y-77659523D01*
X172614285Y-77754761D01*
X172519047Y-77802380D01*
X172423809Y-77802380D01*
X172090476Y-77802380D02*
X172090476Y-76802380D01*
X171709523Y-76802380D01*
X171614285Y-76850000D01*
X171566666Y-76897619D01*
X171519047Y-76992857D01*
X171519047Y-77135714D01*
X171566666Y-77230952D01*
X171614285Y-77278571D01*
X171709523Y-77326190D01*
X172090476Y-77326190D01*
X170947619Y-77802380D02*
X171042857Y-77754761D01*
X171090476Y-77707142D01*
X171138095Y-77611904D01*
X171138095Y-77326190D01*
X171090476Y-77230952D01*
X171042857Y-77183333D01*
X170947619Y-77135714D01*
X170804761Y-77135714D01*
X170709523Y-77183333D01*
X170661904Y-77230952D01*
X170614285Y-77326190D01*
X170614285Y-77611904D01*
X170661904Y-77707142D01*
X170709523Y-77754761D01*
X170804761Y-77802380D01*
X170947619Y-77802380D01*
X170185714Y-77802380D02*
X170185714Y-77135714D01*
X170185714Y-76802380D02*
X170233333Y-76850000D01*
X170185714Y-76897619D01*
X170138095Y-76850000D01*
X170185714Y-76802380D01*
X170185714Y-76897619D01*
X169709523Y-77135714D02*
X169709523Y-77802380D01*
X169709523Y-77230952D02*
X169661904Y-77183333D01*
X169566666Y-77135714D01*
X169423809Y-77135714D01*
X169328571Y-77183333D01*
X169280952Y-77278571D01*
X169280952Y-77802380D01*
X168947619Y-77135714D02*
X168566666Y-77135714D01*
X168804761Y-76802380D02*
X168804761Y-77659523D01*
X168757142Y-77754761D01*
X168661904Y-77802380D01*
X168566666Y-77802380D01*
X173638095Y-80202380D02*
X173066666Y-80202380D01*
X173352380Y-81202380D02*
X173352380Y-80202380D01*
X172733333Y-81202380D02*
X172733333Y-80202380D01*
X172352380Y-80202380D01*
X172257142Y-80250000D01*
X172209523Y-80297619D01*
X172161904Y-80392857D01*
X172161904Y-80535714D01*
X172209523Y-80630952D01*
X172257142Y-80678571D01*
X172352380Y-80726190D01*
X172733333Y-80726190D01*
X171780952Y-80297619D02*
X171733333Y-80250000D01*
X171638095Y-80202380D01*
X171400000Y-80202380D01*
X171304761Y-80250000D01*
X171257142Y-80297619D01*
X171209523Y-80392857D01*
X171209523Y-80488095D01*
X171257142Y-80630952D01*
X171828571Y-81202380D01*
X171209523Y-81202380D01*
X170304761Y-80202380D02*
X170780952Y-80202380D01*
X170828571Y-80678571D01*
X170780952Y-80630952D01*
X170685714Y-80583333D01*
X170447619Y-80583333D01*
X170352380Y-80630952D01*
X170304761Y-80678571D01*
X170257142Y-80773809D01*
X170257142Y-81011904D01*
X170304761Y-81107142D01*
X170352380Y-81154761D01*
X170447619Y-81202380D01*
X170685714Y-81202380D01*
X170780952Y-81154761D01*
X170828571Y-81107142D01*
G04 #@! TO.C,TP8*
X143433333Y-62902380D02*
X142861904Y-62902380D01*
X143147619Y-63902380D02*
X143147619Y-62902380D01*
X142147619Y-63854761D02*
X142242857Y-63902380D01*
X142433333Y-63902380D01*
X142528571Y-63854761D01*
X142576190Y-63759523D01*
X142576190Y-63378571D01*
X142528571Y-63283333D01*
X142433333Y-63235714D01*
X142242857Y-63235714D01*
X142147619Y-63283333D01*
X142100000Y-63378571D01*
X142100000Y-63473809D01*
X142576190Y-63569047D01*
X141719047Y-63854761D02*
X141623809Y-63902380D01*
X141433333Y-63902380D01*
X141338095Y-63854761D01*
X141290476Y-63759523D01*
X141290476Y-63711904D01*
X141338095Y-63616666D01*
X141433333Y-63569047D01*
X141576190Y-63569047D01*
X141671428Y-63521428D01*
X141719047Y-63426190D01*
X141719047Y-63378571D01*
X141671428Y-63283333D01*
X141576190Y-63235714D01*
X141433333Y-63235714D01*
X141338095Y-63283333D01*
X141004761Y-63235714D02*
X140623809Y-63235714D01*
X140861904Y-62902380D02*
X140861904Y-63759523D01*
X140814285Y-63854761D01*
X140719047Y-63902380D01*
X140623809Y-63902380D01*
X140290476Y-63902380D02*
X140290476Y-62902380D01*
X139909523Y-62902380D01*
X139814285Y-62950000D01*
X139766666Y-62997619D01*
X139719047Y-63092857D01*
X139719047Y-63235714D01*
X139766666Y-63330952D01*
X139814285Y-63378571D01*
X139909523Y-63426190D01*
X140290476Y-63426190D01*
X139147619Y-63902380D02*
X139242857Y-63854761D01*
X139290476Y-63807142D01*
X139338095Y-63711904D01*
X139338095Y-63426190D01*
X139290476Y-63330952D01*
X139242857Y-63283333D01*
X139147619Y-63235714D01*
X139004761Y-63235714D01*
X138909523Y-63283333D01*
X138861904Y-63330952D01*
X138814285Y-63426190D01*
X138814285Y-63711904D01*
X138861904Y-63807142D01*
X138909523Y-63854761D01*
X139004761Y-63902380D01*
X139147619Y-63902380D01*
X138385714Y-63902380D02*
X138385714Y-63235714D01*
X138385714Y-62902380D02*
X138433333Y-62950000D01*
X138385714Y-62997619D01*
X138338095Y-62950000D01*
X138385714Y-62902380D01*
X138385714Y-62997619D01*
X137909523Y-63235714D02*
X137909523Y-63902380D01*
X137909523Y-63330952D02*
X137861904Y-63283333D01*
X137766666Y-63235714D01*
X137623809Y-63235714D01*
X137528571Y-63283333D01*
X137480952Y-63378571D01*
X137480952Y-63902380D01*
X137147619Y-63235714D02*
X136766666Y-63235714D01*
X137004761Y-62902380D02*
X137004761Y-63759523D01*
X136957142Y-63854761D01*
X136861904Y-63902380D01*
X136766666Y-63902380D01*
X141361904Y-66302380D02*
X140790476Y-66302380D01*
X141076190Y-67302380D02*
X141076190Y-66302380D01*
X140457142Y-67302380D02*
X140457142Y-66302380D01*
X140076190Y-66302380D01*
X139980952Y-66350000D01*
X139933333Y-66397619D01*
X139885714Y-66492857D01*
X139885714Y-66635714D01*
X139933333Y-66730952D01*
X139980952Y-66778571D01*
X140076190Y-66826190D01*
X140457142Y-66826190D01*
X139314285Y-66730952D02*
X139409523Y-66683333D01*
X139457142Y-66635714D01*
X139504761Y-66540476D01*
X139504761Y-66492857D01*
X139457142Y-66397619D01*
X139409523Y-66350000D01*
X139314285Y-66302380D01*
X139123809Y-66302380D01*
X139028571Y-66350000D01*
X138980952Y-66397619D01*
X138933333Y-66492857D01*
X138933333Y-66540476D01*
X138980952Y-66635714D01*
X139028571Y-66683333D01*
X139123809Y-66730952D01*
X139314285Y-66730952D01*
X139409523Y-66778571D01*
X139457142Y-66826190D01*
X139504761Y-66921428D01*
X139504761Y-67111904D01*
X139457142Y-67207142D01*
X139409523Y-67254761D01*
X139314285Y-67302380D01*
X139123809Y-67302380D01*
X139028571Y-67254761D01*
X138980952Y-67207142D01*
X138933333Y-67111904D01*
X138933333Y-66921428D01*
X138980952Y-66826190D01*
X139028571Y-66778571D01*
X139123809Y-66730952D01*
G04 #@! TO.C,P7*
X140657142Y-98177380D02*
X140657142Y-97177380D01*
X140419047Y-97177380D01*
X140276190Y-97225000D01*
X140180952Y-97320238D01*
X140133333Y-97415476D01*
X140085714Y-97605952D01*
X140085714Y-97748809D01*
X140133333Y-97939285D01*
X140180952Y-98034523D01*
X140276190Y-98129761D01*
X140419047Y-98177380D01*
X140657142Y-98177380D01*
X139657142Y-97177380D02*
X139657142Y-97986904D01*
X139609523Y-98082142D01*
X139561904Y-98129761D01*
X139466666Y-98177380D01*
X139276190Y-98177380D01*
X139180952Y-98129761D01*
X139133333Y-98082142D01*
X139085714Y-97986904D01*
X139085714Y-97177380D01*
X138609523Y-98177380D02*
X138609523Y-97177380D01*
X138276190Y-97891666D01*
X137942857Y-97177380D01*
X137942857Y-98177380D01*
X137466666Y-98177380D02*
X137466666Y-97177380D01*
X137133333Y-97891666D01*
X136800000Y-97177380D01*
X136800000Y-98177380D01*
X136133333Y-97701190D02*
X136133333Y-98177380D01*
X136466666Y-97177380D02*
X136133333Y-97701190D01*
X135800000Y-97177380D01*
G04 #@! TO.C,J5*
X151236921Y-75235094D02*
X151236921Y-75288969D01*
X151290796Y-75396719D01*
X151344671Y-75450594D01*
X151452421Y-75504468D01*
X151560170Y-75504468D01*
X151640982Y-75477531D01*
X151775669Y-75396719D01*
X151856482Y-75315907D01*
X151937294Y-75181220D01*
X151964231Y-75100407D01*
X151964231Y-74992658D01*
X151910356Y-74884908D01*
X151856482Y-74831033D01*
X151748732Y-74777159D01*
X151694857Y-74777159D01*
X150859798Y-74965720D02*
X150940610Y-74992658D01*
X150994485Y-74992658D01*
X151075297Y-74965720D01*
X151236921Y-74804096D01*
X151263859Y-74723284D01*
X151263859Y-74669409D01*
X151236921Y-74588597D01*
X151156109Y-74507785D01*
X151075297Y-74480847D01*
X151021422Y-74480847D01*
X150940610Y-74507785D01*
X150778986Y-74669409D01*
X150752048Y-74750221D01*
X150752048Y-74804096D01*
X150778986Y-74884908D01*
X150859798Y-74965720D01*
X150805923Y-74157598D02*
X150428799Y-74534722D01*
X150752048Y-74211473D02*
X150752048Y-74157598D01*
X150725111Y-74076786D01*
X150644299Y-73995974D01*
X150563486Y-73969037D01*
X150482674Y-73995974D01*
X150186363Y-74292285D01*
X150294112Y-73645788D02*
X149916989Y-74022911D01*
X150240238Y-73699663D02*
X150240238Y-73645788D01*
X150213300Y-73564976D01*
X150132488Y-73484163D01*
X150051676Y-73457226D01*
X149970864Y-73484163D01*
X149674552Y-73780475D01*
X149485990Y-73699663D02*
X149054992Y-73268664D01*
X149432115Y-72406667D02*
X149378241Y-72352792D01*
X149297428Y-72325855D01*
X149243554Y-72325855D01*
X149162741Y-72352792D01*
X149028054Y-72433605D01*
X148893367Y-72568292D01*
X148812555Y-72702979D01*
X148785618Y-72783791D01*
X148785618Y-72837666D01*
X148812555Y-72918478D01*
X148866430Y-72972353D01*
X148947242Y-72999290D01*
X149001117Y-72999290D01*
X149081929Y-72972353D01*
X149216616Y-72891540D01*
X149351303Y-72756853D01*
X149432115Y-72622166D01*
X149459053Y-72541354D01*
X149459053Y-72487479D01*
X149432115Y-72406667D01*
X148974180Y-72056481D02*
X148974180Y-72002606D01*
X148947242Y-71921794D01*
X148812555Y-71787107D01*
X148731743Y-71760170D01*
X148677868Y-71760170D01*
X148597056Y-71787107D01*
X148543181Y-71840982D01*
X148489306Y-71948731D01*
X148489306Y-72595229D01*
X148139120Y-72245043D01*
X147950558Y-72056481D02*
X148031371Y-71383046D01*
X148327682Y-71679357D02*
X147654247Y-71760170D01*
X147896684Y-70871235D02*
X147842809Y-70817361D01*
X147761997Y-70790423D01*
X147708122Y-70790423D01*
X147627310Y-70817361D01*
X147492623Y-70898173D01*
X147357936Y-71032860D01*
X147277123Y-71167547D01*
X147250186Y-71248359D01*
X147250186Y-71302234D01*
X147277123Y-71383046D01*
X147330998Y-71436921D01*
X147411810Y-71463858D01*
X147465685Y-71463858D01*
X147546497Y-71436921D01*
X147681184Y-71356109D01*
X147815871Y-71221422D01*
X147896684Y-71086735D01*
X147923621Y-71005922D01*
X147923621Y-70952048D01*
X147896684Y-70871235D01*
X147196311Y-70170863D02*
X147465685Y-70440237D01*
X147223249Y-70736548D01*
X147223249Y-70682674D01*
X147196311Y-70601861D01*
X147061624Y-70467174D01*
X146980812Y-70440237D01*
X146926937Y-70440237D01*
X146846125Y-70467174D01*
X146711438Y-70601861D01*
X146684501Y-70682674D01*
X146684501Y-70736548D01*
X146711438Y-70817361D01*
X146846125Y-70952048D01*
X146926937Y-70978985D01*
X146980812Y-70978985D01*
X146442064Y-70655736D02*
X146011066Y-70224738D01*
X145660879Y-69659052D02*
X145660879Y-69712927D01*
X145714754Y-69820677D01*
X145768629Y-69874552D01*
X145876379Y-69928426D01*
X145984128Y-69928426D01*
X146064940Y-69901489D01*
X146199627Y-69820677D01*
X146280440Y-69739865D01*
X146361252Y-69605178D01*
X146388189Y-69524365D01*
X146388189Y-69416616D01*
X146334314Y-69308866D01*
X146280440Y-69254991D01*
X146172690Y-69201117D01*
X146118815Y-69201117D01*
X145283756Y-69389678D02*
X145364568Y-69416616D01*
X145418443Y-69416616D01*
X145499255Y-69389678D01*
X145660879Y-69228054D01*
X145687817Y-69147242D01*
X145687817Y-69093367D01*
X145660879Y-69012555D01*
X145580067Y-68931743D01*
X145499255Y-68904805D01*
X145445380Y-68904805D01*
X145364568Y-68931743D01*
X145202944Y-69093367D01*
X145176006Y-69174179D01*
X145176006Y-69228054D01*
X145202944Y-69308866D01*
X145283756Y-69389678D01*
X144987444Y-68339120D02*
X144610321Y-68716243D01*
X145229881Y-68581556D02*
X144933569Y-68877868D01*
X144852757Y-68904805D01*
X144771945Y-68877868D01*
X144691133Y-68797056D01*
X144664195Y-68716243D01*
X144664195Y-68662368D01*
X144718070Y-68069746D02*
X144340947Y-68446869D01*
X144664195Y-68123620D02*
X144664195Y-68069746D01*
X144637258Y-67988933D01*
X144556446Y-67908121D01*
X144475634Y-67881184D01*
X144394821Y-67908121D01*
X144098510Y-68204433D01*
X144287072Y-67638747D02*
X144071573Y-67423248D01*
X144394821Y-67369373D02*
X143909948Y-67854246D01*
X143829136Y-67881184D01*
X143748324Y-67854246D01*
X143694449Y-67800372D01*
X143317325Y-67369373D02*
X143344263Y-67450185D01*
X143452012Y-67557935D01*
X143532825Y-67584872D01*
X143613637Y-67557935D01*
X143829136Y-67342436D01*
X143856073Y-67261624D01*
X143829136Y-67180811D01*
X143721386Y-67073062D01*
X143640574Y-67046124D01*
X143559762Y-67073062D01*
X143505887Y-67126937D01*
X143721386Y-67450185D01*
X143021014Y-67126937D02*
X143398138Y-66749813D01*
X143290388Y-66857563D02*
X143317325Y-66776750D01*
X143317325Y-66722876D01*
X143290388Y-66642063D01*
X143236513Y-66588189D01*
X142751640Y-66965312D02*
X142320642Y-66534314D01*
X141970455Y-65968628D02*
X141970455Y-66022503D01*
X142024330Y-66130253D01*
X142078205Y-66184128D01*
X142185955Y-66238002D01*
X142293704Y-66238002D01*
X142374516Y-66211065D01*
X142509203Y-66130253D01*
X142590016Y-66049441D01*
X142670828Y-65914754D01*
X142697765Y-65833941D01*
X142697765Y-65726192D01*
X142643890Y-65618442D01*
X142590016Y-65564567D01*
X142482266Y-65510693D01*
X142428391Y-65510693D01*
X141593332Y-65699254D02*
X141674144Y-65726192D01*
X141754956Y-65699254D01*
X142239829Y-65214381D01*
X141297020Y-65402943D02*
X141377833Y-65429880D01*
X141431707Y-65429880D01*
X141512520Y-65402943D01*
X141674144Y-65241319D01*
X141701081Y-65160506D01*
X141701081Y-65106632D01*
X141674144Y-65025819D01*
X141593332Y-64945007D01*
X141512520Y-64918070D01*
X141458645Y-64918070D01*
X141377833Y-64945007D01*
X141216208Y-65106632D01*
X141189271Y-65187444D01*
X141189271Y-65241319D01*
X141216208Y-65322131D01*
X141297020Y-65402943D01*
X140650523Y-64702571D02*
X140677460Y-64783383D01*
X140785210Y-64891132D01*
X140866022Y-64918070D01*
X140919897Y-64918070D01*
X141000709Y-64891132D01*
X141162333Y-64729508D01*
X141189271Y-64648696D01*
X141189271Y-64594821D01*
X141162333Y-64514009D01*
X141054584Y-64406259D01*
X140973772Y-64379322D01*
X140381149Y-64487071D02*
X140946834Y-63921386D01*
X140542773Y-64217697D02*
X140165649Y-64271572D01*
X140542773Y-63894448D02*
X140542773Y-64325447D01*
X140354211Y-63705887D02*
X139869338Y-63975261D01*
X140030962Y-63598137D01*
X139653839Y-63759761D01*
X139923213Y-63274888D01*
X139330590Y-63436513D02*
X139707714Y-63059389D01*
X139896275Y-62870827D02*
X139896275Y-62924702D01*
X139842401Y-62924702D01*
X139842401Y-62870827D01*
X139896275Y-62870827D01*
X139842401Y-62924702D01*
X139115091Y-63167139D02*
X139034279Y-63140201D01*
X138926529Y-63032452D01*
X138899592Y-62951639D01*
X138926529Y-62870827D01*
X138953466Y-62843890D01*
X139034279Y-62816952D01*
X139115091Y-62843890D01*
X139195903Y-62924702D01*
X139276715Y-62951639D01*
X139357527Y-62924702D01*
X139384465Y-62897765D01*
X139411402Y-62816952D01*
X139384465Y-62736140D01*
X139303653Y-62655328D01*
X139222840Y-62628391D01*
X138414718Y-62466766D02*
X138441656Y-62547578D01*
X138549405Y-62655328D01*
X138630218Y-62682265D01*
X138711030Y-62655328D01*
X138926529Y-62439829D01*
X138953466Y-62359017D01*
X138926529Y-62278204D01*
X138818779Y-62170455D01*
X138737967Y-62143517D01*
X138657155Y-62170455D01*
X138603280Y-62224330D01*
X138818779Y-62547578D01*
X147398341Y-66978781D02*
X146994280Y-67382842D01*
X146940406Y-67490592D01*
X146940406Y-67598341D01*
X146994280Y-67706091D01*
X147048155Y-67759966D01*
X146859593Y-66440033D02*
X147128967Y-66709407D01*
X146886531Y-67005719D01*
X146886531Y-66951844D01*
X146859593Y-66871032D01*
X146724906Y-66736345D01*
X146644094Y-66709407D01*
X146590219Y-66709407D01*
X146509407Y-66736345D01*
X146374720Y-66871032D01*
X146347783Y-66951844D01*
X146347783Y-67005719D01*
X146374720Y-67086531D01*
X146509407Y-67221218D01*
X146590219Y-67248155D01*
X146644094Y-67248155D01*
G04 #@! TO.C,P17*
X156157142Y-103877380D02*
X156157142Y-102877380D01*
X155919047Y-102877380D01*
X155776190Y-102925000D01*
X155680952Y-103020238D01*
X155633333Y-103115476D01*
X155585714Y-103305952D01*
X155585714Y-103448809D01*
X155633333Y-103639285D01*
X155680952Y-103734523D01*
X155776190Y-103829761D01*
X155919047Y-103877380D01*
X156157142Y-103877380D01*
X155157142Y-102877380D02*
X155157142Y-103686904D01*
X155109523Y-103782142D01*
X155061904Y-103829761D01*
X154966666Y-103877380D01*
X154776190Y-103877380D01*
X154680952Y-103829761D01*
X154633333Y-103782142D01*
X154585714Y-103686904D01*
X154585714Y-102877380D01*
X154109523Y-103877380D02*
X154109523Y-102877380D01*
X153776190Y-103591666D01*
X153442857Y-102877380D01*
X153442857Y-103877380D01*
X152966666Y-103877380D02*
X152966666Y-102877380D01*
X152633333Y-103591666D01*
X152300000Y-102877380D01*
X152300000Y-103877380D01*
X151633333Y-103401190D02*
X151633333Y-103877380D01*
X151966666Y-102877380D02*
X151633333Y-103401190D01*
X151300000Y-102877380D01*
G04 #@! TO.C,P16*
X151057142Y-108977380D02*
X151057142Y-107977380D01*
X150819047Y-107977380D01*
X150676190Y-108025000D01*
X150580952Y-108120238D01*
X150533333Y-108215476D01*
X150485714Y-108405952D01*
X150485714Y-108548809D01*
X150533333Y-108739285D01*
X150580952Y-108834523D01*
X150676190Y-108929761D01*
X150819047Y-108977380D01*
X151057142Y-108977380D01*
X150057142Y-107977380D02*
X150057142Y-108786904D01*
X150009523Y-108882142D01*
X149961904Y-108929761D01*
X149866666Y-108977380D01*
X149676190Y-108977380D01*
X149580952Y-108929761D01*
X149533333Y-108882142D01*
X149485714Y-108786904D01*
X149485714Y-107977380D01*
X149009523Y-108977380D02*
X149009523Y-107977380D01*
X148676190Y-108691666D01*
X148342857Y-107977380D01*
X148342857Y-108977380D01*
X147866666Y-108977380D02*
X147866666Y-107977380D01*
X147533333Y-108691666D01*
X147200000Y-107977380D01*
X147200000Y-108977380D01*
X146533333Y-108501190D02*
X146533333Y-108977380D01*
X146866666Y-107977380D02*
X146533333Y-108501190D01*
X146200000Y-107977380D01*
G04 #@! TO.C,P15*
X151057142Y-103877380D02*
X151057142Y-102877380D01*
X150819047Y-102877380D01*
X150676190Y-102925000D01*
X150580952Y-103020238D01*
X150533333Y-103115476D01*
X150485714Y-103305952D01*
X150485714Y-103448809D01*
X150533333Y-103639285D01*
X150580952Y-103734523D01*
X150676190Y-103829761D01*
X150819047Y-103877380D01*
X151057142Y-103877380D01*
X150057142Y-102877380D02*
X150057142Y-103686904D01*
X150009523Y-103782142D01*
X149961904Y-103829761D01*
X149866666Y-103877380D01*
X149676190Y-103877380D01*
X149580952Y-103829761D01*
X149533333Y-103782142D01*
X149485714Y-103686904D01*
X149485714Y-102877380D01*
X149009523Y-103877380D02*
X149009523Y-102877380D01*
X148676190Y-103591666D01*
X148342857Y-102877380D01*
X148342857Y-103877380D01*
X147866666Y-103877380D02*
X147866666Y-102877380D01*
X147533333Y-103591666D01*
X147200000Y-102877380D01*
X147200000Y-103877380D01*
X146533333Y-103401190D02*
X146533333Y-103877380D01*
X146866666Y-102877380D02*
X146533333Y-103401190D01*
X146200000Y-102877380D01*
G04 #@! TO.C,P14*
X145957142Y-108977380D02*
X145957142Y-107977380D01*
X145719047Y-107977380D01*
X145576190Y-108025000D01*
X145480952Y-108120238D01*
X145433333Y-108215476D01*
X145385714Y-108405952D01*
X145385714Y-108548809D01*
X145433333Y-108739285D01*
X145480952Y-108834523D01*
X145576190Y-108929761D01*
X145719047Y-108977380D01*
X145957142Y-108977380D01*
X144957142Y-107977380D02*
X144957142Y-108786904D01*
X144909523Y-108882142D01*
X144861904Y-108929761D01*
X144766666Y-108977380D01*
X144576190Y-108977380D01*
X144480952Y-108929761D01*
X144433333Y-108882142D01*
X144385714Y-108786904D01*
X144385714Y-107977380D01*
X143909523Y-108977380D02*
X143909523Y-107977380D01*
X143576190Y-108691666D01*
X143242857Y-107977380D01*
X143242857Y-108977380D01*
X142766666Y-108977380D02*
X142766666Y-107977380D01*
X142433333Y-108691666D01*
X142100000Y-107977380D01*
X142100000Y-108977380D01*
X141433333Y-108501190D02*
X141433333Y-108977380D01*
X141766666Y-107977380D02*
X141433333Y-108501190D01*
X141100000Y-107977380D01*
G04 #@! TO.C,P13*
X145957142Y-103877380D02*
X145957142Y-102877380D01*
X145719047Y-102877380D01*
X145576190Y-102925000D01*
X145480952Y-103020238D01*
X145433333Y-103115476D01*
X145385714Y-103305952D01*
X145385714Y-103448809D01*
X145433333Y-103639285D01*
X145480952Y-103734523D01*
X145576190Y-103829761D01*
X145719047Y-103877380D01*
X145957142Y-103877380D01*
X144957142Y-102877380D02*
X144957142Y-103686904D01*
X144909523Y-103782142D01*
X144861904Y-103829761D01*
X144766666Y-103877380D01*
X144576190Y-103877380D01*
X144480952Y-103829761D01*
X144433333Y-103782142D01*
X144385714Y-103686904D01*
X144385714Y-102877380D01*
X143909523Y-103877380D02*
X143909523Y-102877380D01*
X143576190Y-103591666D01*
X143242857Y-102877380D01*
X143242857Y-103877380D01*
X142766666Y-103877380D02*
X142766666Y-102877380D01*
X142433333Y-103591666D01*
X142100000Y-102877380D01*
X142100000Y-103877380D01*
X141433333Y-103401190D02*
X141433333Y-103877380D01*
X141766666Y-102877380D02*
X141433333Y-103401190D01*
X141100000Y-102877380D01*
G04 #@! TO.C,P12*
X140857142Y-108977380D02*
X140857142Y-107977380D01*
X140619047Y-107977380D01*
X140476190Y-108025000D01*
X140380952Y-108120238D01*
X140333333Y-108215476D01*
X140285714Y-108405952D01*
X140285714Y-108548809D01*
X140333333Y-108739285D01*
X140380952Y-108834523D01*
X140476190Y-108929761D01*
X140619047Y-108977380D01*
X140857142Y-108977380D01*
X139857142Y-107977380D02*
X139857142Y-108786904D01*
X139809523Y-108882142D01*
X139761904Y-108929761D01*
X139666666Y-108977380D01*
X139476190Y-108977380D01*
X139380952Y-108929761D01*
X139333333Y-108882142D01*
X139285714Y-108786904D01*
X139285714Y-107977380D01*
X138809523Y-108977380D02*
X138809523Y-107977380D01*
X138476190Y-108691666D01*
X138142857Y-107977380D01*
X138142857Y-108977380D01*
X137666666Y-108977380D02*
X137666666Y-107977380D01*
X137333333Y-108691666D01*
X137000000Y-107977380D01*
X137000000Y-108977380D01*
X136333333Y-108501190D02*
X136333333Y-108977380D01*
X136666666Y-107977380D02*
X136333333Y-108501190D01*
X136000000Y-107977380D01*
G04 #@! TO.C,P9*
X140857142Y-103877380D02*
X140857142Y-102877380D01*
X140619047Y-102877380D01*
X140476190Y-102925000D01*
X140380952Y-103020238D01*
X140333333Y-103115476D01*
X140285714Y-103305952D01*
X140285714Y-103448809D01*
X140333333Y-103639285D01*
X140380952Y-103734523D01*
X140476190Y-103829761D01*
X140619047Y-103877380D01*
X140857142Y-103877380D01*
X139857142Y-102877380D02*
X139857142Y-103686904D01*
X139809523Y-103782142D01*
X139761904Y-103829761D01*
X139666666Y-103877380D01*
X139476190Y-103877380D01*
X139380952Y-103829761D01*
X139333333Y-103782142D01*
X139285714Y-103686904D01*
X139285714Y-102877380D01*
X138809523Y-103877380D02*
X138809523Y-102877380D01*
X138476190Y-103591666D01*
X138142857Y-102877380D01*
X138142857Y-103877380D01*
X137666666Y-103877380D02*
X137666666Y-102877380D01*
X137333333Y-103591666D01*
X137000000Y-102877380D01*
X137000000Y-103877380D01*
X136333333Y-103401190D02*
X136333333Y-103877380D01*
X136666666Y-102877380D02*
X136333333Y-103401190D01*
X136000000Y-102877380D01*
G04 #@! TO.C,TP19*
X158533333Y-69302380D02*
X157961904Y-69302380D01*
X158247619Y-70302380D02*
X158247619Y-69302380D01*
X157247619Y-70254761D02*
X157342857Y-70302380D01*
X157533333Y-70302380D01*
X157628571Y-70254761D01*
X157676190Y-70159523D01*
X157676190Y-69778571D01*
X157628571Y-69683333D01*
X157533333Y-69635714D01*
X157342857Y-69635714D01*
X157247619Y-69683333D01*
X157200000Y-69778571D01*
X157200000Y-69873809D01*
X157676190Y-69969047D01*
X156819047Y-70254761D02*
X156723809Y-70302380D01*
X156533333Y-70302380D01*
X156438095Y-70254761D01*
X156390476Y-70159523D01*
X156390476Y-70111904D01*
X156438095Y-70016666D01*
X156533333Y-69969047D01*
X156676190Y-69969047D01*
X156771428Y-69921428D01*
X156819047Y-69826190D01*
X156819047Y-69778571D01*
X156771428Y-69683333D01*
X156676190Y-69635714D01*
X156533333Y-69635714D01*
X156438095Y-69683333D01*
X156104761Y-69635714D02*
X155723809Y-69635714D01*
X155961904Y-69302380D02*
X155961904Y-70159523D01*
X155914285Y-70254761D01*
X155819047Y-70302380D01*
X155723809Y-70302380D01*
X155390476Y-70302380D02*
X155390476Y-69302380D01*
X155009523Y-69302380D01*
X154914285Y-69350000D01*
X154866666Y-69397619D01*
X154819047Y-69492857D01*
X154819047Y-69635714D01*
X154866666Y-69730952D01*
X154914285Y-69778571D01*
X155009523Y-69826190D01*
X155390476Y-69826190D01*
X154247619Y-70302380D02*
X154342857Y-70254761D01*
X154390476Y-70207142D01*
X154438095Y-70111904D01*
X154438095Y-69826190D01*
X154390476Y-69730952D01*
X154342857Y-69683333D01*
X154247619Y-69635714D01*
X154104761Y-69635714D01*
X154009523Y-69683333D01*
X153961904Y-69730952D01*
X153914285Y-69826190D01*
X153914285Y-70111904D01*
X153961904Y-70207142D01*
X154009523Y-70254761D01*
X154104761Y-70302380D01*
X154247619Y-70302380D01*
X153485714Y-70302380D02*
X153485714Y-69635714D01*
X153485714Y-69302380D02*
X153533333Y-69350000D01*
X153485714Y-69397619D01*
X153438095Y-69350000D01*
X153485714Y-69302380D01*
X153485714Y-69397619D01*
X153009523Y-69635714D02*
X153009523Y-70302380D01*
X153009523Y-69730952D02*
X152961904Y-69683333D01*
X152866666Y-69635714D01*
X152723809Y-69635714D01*
X152628571Y-69683333D01*
X152580952Y-69778571D01*
X152580952Y-70302380D01*
X152247619Y-69635714D02*
X151866666Y-69635714D01*
X152104761Y-69302380D02*
X152104761Y-70159523D01*
X152057142Y-70254761D01*
X151961904Y-70302380D01*
X151866666Y-70302380D01*
X156938095Y-72702380D02*
X156366666Y-72702380D01*
X156652380Y-73702380D02*
X156652380Y-72702380D01*
X156033333Y-73702380D02*
X156033333Y-72702380D01*
X155652380Y-72702380D01*
X155557142Y-72750000D01*
X155509523Y-72797619D01*
X155461904Y-72892857D01*
X155461904Y-73035714D01*
X155509523Y-73130952D01*
X155557142Y-73178571D01*
X155652380Y-73226190D01*
X156033333Y-73226190D01*
X154509523Y-73702380D02*
X155080952Y-73702380D01*
X154795238Y-73702380D02*
X154795238Y-72702380D01*
X154890476Y-72845238D01*
X154985714Y-72940476D01*
X155080952Y-72988095D01*
X154033333Y-73702380D02*
X153842857Y-73702380D01*
X153747619Y-73654761D01*
X153700000Y-73607142D01*
X153604761Y-73464285D01*
X153557142Y-73273809D01*
X153557142Y-72892857D01*
X153604761Y-72797619D01*
X153652380Y-72750000D01*
X153747619Y-72702380D01*
X153938095Y-72702380D01*
X154033333Y-72750000D01*
X154080952Y-72797619D01*
X154128571Y-72892857D01*
X154128571Y-73130952D01*
X154080952Y-73226190D01*
X154033333Y-73273809D01*
X153938095Y-73321428D01*
X153747619Y-73321428D01*
X153652380Y-73273809D01*
X153604761Y-73226190D01*
X153557142Y-73130952D01*
G04 #@! TO.C,TP13*
X140733325Y-71502388D02*
X140161896Y-71502388D01*
X140447611Y-72502388D02*
X140447611Y-71502388D01*
X139447611Y-72454769D02*
X139542849Y-72502388D01*
X139733325Y-72502388D01*
X139828563Y-72454769D01*
X139876182Y-72359531D01*
X139876182Y-71978579D01*
X139828563Y-71883341D01*
X139733325Y-71835722D01*
X139542849Y-71835722D01*
X139447611Y-71883341D01*
X139399992Y-71978579D01*
X139399992Y-72073817D01*
X139876182Y-72169055D01*
X139019039Y-72454769D02*
X138923801Y-72502388D01*
X138733325Y-72502388D01*
X138638087Y-72454769D01*
X138590468Y-72359531D01*
X138590468Y-72311912D01*
X138638087Y-72216674D01*
X138733325Y-72169055D01*
X138876182Y-72169055D01*
X138971420Y-72121436D01*
X139019039Y-72026198D01*
X139019039Y-71978579D01*
X138971420Y-71883341D01*
X138876182Y-71835722D01*
X138733325Y-71835722D01*
X138638087Y-71883341D01*
X138304753Y-71835722D02*
X137923801Y-71835722D01*
X138161896Y-71502388D02*
X138161896Y-72359531D01*
X138114277Y-72454769D01*
X138019039Y-72502388D01*
X137923801Y-72502388D01*
X137590468Y-72502388D02*
X137590468Y-71502388D01*
X137209515Y-71502388D01*
X137114277Y-71550008D01*
X137066658Y-71597627D01*
X137019039Y-71692865D01*
X137019039Y-71835722D01*
X137066658Y-71930960D01*
X137114277Y-71978579D01*
X137209515Y-72026198D01*
X137590468Y-72026198D01*
X136447611Y-72502388D02*
X136542849Y-72454769D01*
X136590468Y-72407150D01*
X136638087Y-72311912D01*
X136638087Y-72026198D01*
X136590468Y-71930960D01*
X136542849Y-71883341D01*
X136447611Y-71835722D01*
X136304753Y-71835722D01*
X136209515Y-71883341D01*
X136161896Y-71930960D01*
X136114277Y-72026198D01*
X136114277Y-72311912D01*
X136161896Y-72407150D01*
X136209515Y-72454769D01*
X136304753Y-72502388D01*
X136447611Y-72502388D01*
X135685706Y-72502388D02*
X135685706Y-71835722D01*
X135685706Y-71502388D02*
X135733325Y-71550008D01*
X135685706Y-71597627D01*
X135638087Y-71550008D01*
X135685706Y-71502388D01*
X135685706Y-71597627D01*
X135209515Y-71835722D02*
X135209515Y-72502388D01*
X135209515Y-71930960D02*
X135161896Y-71883341D01*
X135066658Y-71835722D01*
X134923801Y-71835722D01*
X134828563Y-71883341D01*
X134780944Y-71978579D01*
X134780944Y-72502388D01*
X134447611Y-71835722D02*
X134066658Y-71835722D01*
X134304753Y-71502388D02*
X134304753Y-72359531D01*
X134257134Y-72454769D01*
X134161896Y-72502388D01*
X134066658Y-72502388D01*
X139138087Y-74902388D02*
X138566658Y-74902388D01*
X138852372Y-75902388D02*
X138852372Y-74902388D01*
X138233325Y-75902388D02*
X138233325Y-74902388D01*
X137852372Y-74902388D01*
X137757134Y-74950008D01*
X137709515Y-74997627D01*
X137661896Y-75092865D01*
X137661896Y-75235722D01*
X137709515Y-75330960D01*
X137757134Y-75378579D01*
X137852372Y-75426198D01*
X138233325Y-75426198D01*
X136709515Y-75902388D02*
X137280944Y-75902388D01*
X136995230Y-75902388D02*
X136995230Y-74902388D01*
X137090468Y-75045246D01*
X137185706Y-75140484D01*
X137280944Y-75188103D01*
X136376182Y-74902388D02*
X135757134Y-74902388D01*
X136090468Y-75283341D01*
X135947611Y-75283341D01*
X135852372Y-75330960D01*
X135804753Y-75378579D01*
X135757134Y-75473817D01*
X135757134Y-75711912D01*
X135804753Y-75807150D01*
X135852372Y-75854769D01*
X135947611Y-75902388D01*
X136233325Y-75902388D01*
X136328563Y-75854769D01*
X136376182Y-75807150D01*
G04 #@! TO.C,TP18*
X123633333Y-73202380D02*
X123061904Y-73202380D01*
X123347619Y-74202380D02*
X123347619Y-73202380D01*
X122347619Y-74154761D02*
X122442857Y-74202380D01*
X122633333Y-74202380D01*
X122728571Y-74154761D01*
X122776190Y-74059523D01*
X122776190Y-73678571D01*
X122728571Y-73583333D01*
X122633333Y-73535714D01*
X122442857Y-73535714D01*
X122347619Y-73583333D01*
X122300000Y-73678571D01*
X122300000Y-73773809D01*
X122776190Y-73869047D01*
X121919047Y-74154761D02*
X121823809Y-74202380D01*
X121633333Y-74202380D01*
X121538095Y-74154761D01*
X121490476Y-74059523D01*
X121490476Y-74011904D01*
X121538095Y-73916666D01*
X121633333Y-73869047D01*
X121776190Y-73869047D01*
X121871428Y-73821428D01*
X121919047Y-73726190D01*
X121919047Y-73678571D01*
X121871428Y-73583333D01*
X121776190Y-73535714D01*
X121633333Y-73535714D01*
X121538095Y-73583333D01*
X121204761Y-73535714D02*
X120823809Y-73535714D01*
X121061904Y-73202380D02*
X121061904Y-74059523D01*
X121014285Y-74154761D01*
X120919047Y-74202380D01*
X120823809Y-74202380D01*
X120490476Y-74202380D02*
X120490476Y-73202380D01*
X120109523Y-73202380D01*
X120014285Y-73250000D01*
X119966666Y-73297619D01*
X119919047Y-73392857D01*
X119919047Y-73535714D01*
X119966666Y-73630952D01*
X120014285Y-73678571D01*
X120109523Y-73726190D01*
X120490476Y-73726190D01*
X119347619Y-74202380D02*
X119442857Y-74154761D01*
X119490476Y-74107142D01*
X119538095Y-74011904D01*
X119538095Y-73726190D01*
X119490476Y-73630952D01*
X119442857Y-73583333D01*
X119347619Y-73535714D01*
X119204761Y-73535714D01*
X119109523Y-73583333D01*
X119061904Y-73630952D01*
X119014285Y-73726190D01*
X119014285Y-74011904D01*
X119061904Y-74107142D01*
X119109523Y-74154761D01*
X119204761Y-74202380D01*
X119347619Y-74202380D01*
X118585714Y-74202380D02*
X118585714Y-73535714D01*
X118585714Y-73202380D02*
X118633333Y-73250000D01*
X118585714Y-73297619D01*
X118538095Y-73250000D01*
X118585714Y-73202380D01*
X118585714Y-73297619D01*
X118109523Y-73535714D02*
X118109523Y-74202380D01*
X118109523Y-73630952D02*
X118061904Y-73583333D01*
X117966666Y-73535714D01*
X117823809Y-73535714D01*
X117728571Y-73583333D01*
X117680952Y-73678571D01*
X117680952Y-74202380D01*
X117347619Y-73535714D02*
X116966666Y-73535714D01*
X117204761Y-73202380D02*
X117204761Y-74059523D01*
X117157142Y-74154761D01*
X117061904Y-74202380D01*
X116966666Y-74202380D01*
X122038095Y-76602380D02*
X121466666Y-76602380D01*
X121752380Y-77602380D02*
X121752380Y-76602380D01*
X121133333Y-77602380D02*
X121133333Y-76602380D01*
X120752380Y-76602380D01*
X120657142Y-76650000D01*
X120609523Y-76697619D01*
X120561904Y-76792857D01*
X120561904Y-76935714D01*
X120609523Y-77030952D01*
X120657142Y-77078571D01*
X120752380Y-77126190D01*
X121133333Y-77126190D01*
X119609523Y-77602380D02*
X120180952Y-77602380D01*
X119895238Y-77602380D02*
X119895238Y-76602380D01*
X119990476Y-76745238D01*
X120085714Y-76840476D01*
X120180952Y-76888095D01*
X119038095Y-77030952D02*
X119133333Y-76983333D01*
X119180952Y-76935714D01*
X119228571Y-76840476D01*
X119228571Y-76792857D01*
X119180952Y-76697619D01*
X119133333Y-76650000D01*
X119038095Y-76602380D01*
X118847619Y-76602380D01*
X118752380Y-76650000D01*
X118704761Y-76697619D01*
X118657142Y-76792857D01*
X118657142Y-76840476D01*
X118704761Y-76935714D01*
X118752380Y-76983333D01*
X118847619Y-77030952D01*
X119038095Y-77030952D01*
X119133333Y-77078571D01*
X119180952Y-77126190D01*
X119228571Y-77221428D01*
X119228571Y-77411904D01*
X119180952Y-77507142D01*
X119133333Y-77554761D01*
X119038095Y-77602380D01*
X118847619Y-77602380D01*
X118752380Y-77554761D01*
X118704761Y-77507142D01*
X118657142Y-77411904D01*
X118657142Y-77221428D01*
X118704761Y-77126190D01*
X118752380Y-77078571D01*
X118847619Y-77030952D01*
G04 #@! TO.C,TP21*
X164983333Y-72502380D02*
X164411904Y-72502380D01*
X164697619Y-73502380D02*
X164697619Y-72502380D01*
X163697619Y-73454761D02*
X163792857Y-73502380D01*
X163983333Y-73502380D01*
X164078571Y-73454761D01*
X164126190Y-73359523D01*
X164126190Y-72978571D01*
X164078571Y-72883333D01*
X163983333Y-72835714D01*
X163792857Y-72835714D01*
X163697619Y-72883333D01*
X163650000Y-72978571D01*
X163650000Y-73073809D01*
X164126190Y-73169047D01*
X163269047Y-73454761D02*
X163173809Y-73502380D01*
X162983333Y-73502380D01*
X162888095Y-73454761D01*
X162840476Y-73359523D01*
X162840476Y-73311904D01*
X162888095Y-73216666D01*
X162983333Y-73169047D01*
X163126190Y-73169047D01*
X163221428Y-73121428D01*
X163269047Y-73026190D01*
X163269047Y-72978571D01*
X163221428Y-72883333D01*
X163126190Y-72835714D01*
X162983333Y-72835714D01*
X162888095Y-72883333D01*
X162554761Y-72835714D02*
X162173809Y-72835714D01*
X162411904Y-72502380D02*
X162411904Y-73359523D01*
X162364285Y-73454761D01*
X162269047Y-73502380D01*
X162173809Y-73502380D01*
X161840476Y-73502380D02*
X161840476Y-72502380D01*
X161459523Y-72502380D01*
X161364285Y-72550000D01*
X161316666Y-72597619D01*
X161269047Y-72692857D01*
X161269047Y-72835714D01*
X161316666Y-72930952D01*
X161364285Y-72978571D01*
X161459523Y-73026190D01*
X161840476Y-73026190D01*
X160697619Y-73502380D02*
X160792857Y-73454761D01*
X160840476Y-73407142D01*
X160888095Y-73311904D01*
X160888095Y-73026190D01*
X160840476Y-72930952D01*
X160792857Y-72883333D01*
X160697619Y-72835714D01*
X160554761Y-72835714D01*
X160459523Y-72883333D01*
X160411904Y-72930952D01*
X160364285Y-73026190D01*
X160364285Y-73311904D01*
X160411904Y-73407142D01*
X160459523Y-73454761D01*
X160554761Y-73502380D01*
X160697619Y-73502380D01*
X159935714Y-73502380D02*
X159935714Y-72835714D01*
X159935714Y-72502380D02*
X159983333Y-72550000D01*
X159935714Y-72597619D01*
X159888095Y-72550000D01*
X159935714Y-72502380D01*
X159935714Y-72597619D01*
X159459523Y-72835714D02*
X159459523Y-73502380D01*
X159459523Y-72930952D02*
X159411904Y-72883333D01*
X159316666Y-72835714D01*
X159173809Y-72835714D01*
X159078571Y-72883333D01*
X159030952Y-72978571D01*
X159030952Y-73502380D01*
X158697619Y-72835714D02*
X158316666Y-72835714D01*
X158554761Y-72502380D02*
X158554761Y-73359523D01*
X158507142Y-73454761D01*
X158411904Y-73502380D01*
X158316666Y-73502380D01*
X163388095Y-75902380D02*
X162816666Y-75902380D01*
X163102380Y-76902380D02*
X163102380Y-75902380D01*
X162483333Y-76902380D02*
X162483333Y-75902380D01*
X162102380Y-75902380D01*
X162007142Y-75950000D01*
X161959523Y-75997619D01*
X161911904Y-76092857D01*
X161911904Y-76235714D01*
X161959523Y-76330952D01*
X162007142Y-76378571D01*
X162102380Y-76426190D01*
X162483333Y-76426190D01*
X161530952Y-75997619D02*
X161483333Y-75950000D01*
X161388095Y-75902380D01*
X161150000Y-75902380D01*
X161054761Y-75950000D01*
X161007142Y-75997619D01*
X160959523Y-76092857D01*
X160959523Y-76188095D01*
X161007142Y-76330952D01*
X161578571Y-76902380D01*
X160959523Y-76902380D01*
X160007142Y-76902380D02*
X160578571Y-76902380D01*
X160292857Y-76902380D02*
X160292857Y-75902380D01*
X160388095Y-76045238D01*
X160483333Y-76140476D01*
X160578571Y-76188095D01*
G04 #@! TO.C,TP22*
X175433333Y-71902380D02*
X174861904Y-71902380D01*
X175147619Y-72902380D02*
X175147619Y-71902380D01*
X174147619Y-72854761D02*
X174242857Y-72902380D01*
X174433333Y-72902380D01*
X174528571Y-72854761D01*
X174576190Y-72759523D01*
X174576190Y-72378571D01*
X174528571Y-72283333D01*
X174433333Y-72235714D01*
X174242857Y-72235714D01*
X174147619Y-72283333D01*
X174100000Y-72378571D01*
X174100000Y-72473809D01*
X174576190Y-72569047D01*
X173719047Y-72854761D02*
X173623809Y-72902380D01*
X173433333Y-72902380D01*
X173338095Y-72854761D01*
X173290476Y-72759523D01*
X173290476Y-72711904D01*
X173338095Y-72616666D01*
X173433333Y-72569047D01*
X173576190Y-72569047D01*
X173671428Y-72521428D01*
X173719047Y-72426190D01*
X173719047Y-72378571D01*
X173671428Y-72283333D01*
X173576190Y-72235714D01*
X173433333Y-72235714D01*
X173338095Y-72283333D01*
X173004761Y-72235714D02*
X172623809Y-72235714D01*
X172861904Y-71902380D02*
X172861904Y-72759523D01*
X172814285Y-72854761D01*
X172719047Y-72902380D01*
X172623809Y-72902380D01*
X172290476Y-72902380D02*
X172290476Y-71902380D01*
X171909523Y-71902380D01*
X171814285Y-71950000D01*
X171766666Y-71997619D01*
X171719047Y-72092857D01*
X171719047Y-72235714D01*
X171766666Y-72330952D01*
X171814285Y-72378571D01*
X171909523Y-72426190D01*
X172290476Y-72426190D01*
X171147619Y-72902380D02*
X171242857Y-72854761D01*
X171290476Y-72807142D01*
X171338095Y-72711904D01*
X171338095Y-72426190D01*
X171290476Y-72330952D01*
X171242857Y-72283333D01*
X171147619Y-72235714D01*
X171004761Y-72235714D01*
X170909523Y-72283333D01*
X170861904Y-72330952D01*
X170814285Y-72426190D01*
X170814285Y-72711904D01*
X170861904Y-72807142D01*
X170909523Y-72854761D01*
X171004761Y-72902380D01*
X171147619Y-72902380D01*
X170385714Y-72902380D02*
X170385714Y-72235714D01*
X170385714Y-71902380D02*
X170433333Y-71950000D01*
X170385714Y-71997619D01*
X170338095Y-71950000D01*
X170385714Y-71902380D01*
X170385714Y-71997619D01*
X169909523Y-72235714D02*
X169909523Y-72902380D01*
X169909523Y-72330952D02*
X169861904Y-72283333D01*
X169766666Y-72235714D01*
X169623809Y-72235714D01*
X169528571Y-72283333D01*
X169480952Y-72378571D01*
X169480952Y-72902380D01*
X169147619Y-72235714D02*
X168766666Y-72235714D01*
X169004761Y-71902380D02*
X169004761Y-72759523D01*
X168957142Y-72854761D01*
X168861904Y-72902380D01*
X168766666Y-72902380D01*
X173838095Y-75302380D02*
X173266666Y-75302380D01*
X173552380Y-76302380D02*
X173552380Y-75302380D01*
X172933333Y-76302380D02*
X172933333Y-75302380D01*
X172552380Y-75302380D01*
X172457142Y-75350000D01*
X172409523Y-75397619D01*
X172361904Y-75492857D01*
X172361904Y-75635714D01*
X172409523Y-75730952D01*
X172457142Y-75778571D01*
X172552380Y-75826190D01*
X172933333Y-75826190D01*
X171980952Y-75397619D02*
X171933333Y-75350000D01*
X171838095Y-75302380D01*
X171600000Y-75302380D01*
X171504761Y-75350000D01*
X171457142Y-75397619D01*
X171409523Y-75492857D01*
X171409523Y-75588095D01*
X171457142Y-75730952D01*
X172028571Y-76302380D01*
X171409523Y-76302380D01*
X171028571Y-75397619D02*
X170980952Y-75350000D01*
X170885714Y-75302380D01*
X170647619Y-75302380D01*
X170552380Y-75350000D01*
X170504761Y-75397619D01*
X170457142Y-75492857D01*
X170457142Y-75588095D01*
X170504761Y-75730952D01*
X171076190Y-76302380D01*
X170457142Y-76302380D01*
G04 #@! TO.C,TP24*
X179133333Y-57602380D02*
X178561904Y-57602380D01*
X178847619Y-58602380D02*
X178847619Y-57602380D01*
X177847619Y-58554761D02*
X177942857Y-58602380D01*
X178133333Y-58602380D01*
X178228571Y-58554761D01*
X178276190Y-58459523D01*
X178276190Y-58078571D01*
X178228571Y-57983333D01*
X178133333Y-57935714D01*
X177942857Y-57935714D01*
X177847619Y-57983333D01*
X177800000Y-58078571D01*
X177800000Y-58173809D01*
X178276190Y-58269047D01*
X177419047Y-58554761D02*
X177323809Y-58602380D01*
X177133333Y-58602380D01*
X177038095Y-58554761D01*
X176990476Y-58459523D01*
X176990476Y-58411904D01*
X177038095Y-58316666D01*
X177133333Y-58269047D01*
X177276190Y-58269047D01*
X177371428Y-58221428D01*
X177419047Y-58126190D01*
X177419047Y-58078571D01*
X177371428Y-57983333D01*
X177276190Y-57935714D01*
X177133333Y-57935714D01*
X177038095Y-57983333D01*
X176704761Y-57935714D02*
X176323809Y-57935714D01*
X176561904Y-57602380D02*
X176561904Y-58459523D01*
X176514285Y-58554761D01*
X176419047Y-58602380D01*
X176323809Y-58602380D01*
X175990476Y-58602380D02*
X175990476Y-57602380D01*
X175609523Y-57602380D01*
X175514285Y-57650000D01*
X175466666Y-57697619D01*
X175419047Y-57792857D01*
X175419047Y-57935714D01*
X175466666Y-58030952D01*
X175514285Y-58078571D01*
X175609523Y-58126190D01*
X175990476Y-58126190D01*
X174847619Y-58602380D02*
X174942857Y-58554761D01*
X174990476Y-58507142D01*
X175038095Y-58411904D01*
X175038095Y-58126190D01*
X174990476Y-58030952D01*
X174942857Y-57983333D01*
X174847619Y-57935714D01*
X174704761Y-57935714D01*
X174609523Y-57983333D01*
X174561904Y-58030952D01*
X174514285Y-58126190D01*
X174514285Y-58411904D01*
X174561904Y-58507142D01*
X174609523Y-58554761D01*
X174704761Y-58602380D01*
X174847619Y-58602380D01*
X174085714Y-58602380D02*
X174085714Y-57935714D01*
X174085714Y-57602380D02*
X174133333Y-57650000D01*
X174085714Y-57697619D01*
X174038095Y-57650000D01*
X174085714Y-57602380D01*
X174085714Y-57697619D01*
X173609523Y-57935714D02*
X173609523Y-58602380D01*
X173609523Y-58030952D02*
X173561904Y-57983333D01*
X173466666Y-57935714D01*
X173323809Y-57935714D01*
X173228571Y-57983333D01*
X173180952Y-58078571D01*
X173180952Y-58602380D01*
X172847619Y-57935714D02*
X172466666Y-57935714D01*
X172704761Y-57602380D02*
X172704761Y-58459523D01*
X172657142Y-58554761D01*
X172561904Y-58602380D01*
X172466666Y-58602380D01*
X177538095Y-61002380D02*
X176966666Y-61002380D01*
X177252380Y-62002380D02*
X177252380Y-61002380D01*
X176633333Y-62002380D02*
X176633333Y-61002380D01*
X176252380Y-61002380D01*
X176157142Y-61050000D01*
X176109523Y-61097619D01*
X176061904Y-61192857D01*
X176061904Y-61335714D01*
X176109523Y-61430952D01*
X176157142Y-61478571D01*
X176252380Y-61526190D01*
X176633333Y-61526190D01*
X175680952Y-61097619D02*
X175633333Y-61050000D01*
X175538095Y-61002380D01*
X175300000Y-61002380D01*
X175204761Y-61050000D01*
X175157142Y-61097619D01*
X175109523Y-61192857D01*
X175109523Y-61288095D01*
X175157142Y-61430952D01*
X175728571Y-62002380D01*
X175109523Y-62002380D01*
X174252380Y-61335714D02*
X174252380Y-62002380D01*
X174490476Y-60954761D02*
X174728571Y-61669047D01*
X174109523Y-61669047D01*
G04 #@! TO.C,TP23*
X170633333Y-107152380D02*
X170061904Y-107152380D01*
X170347619Y-108152380D02*
X170347619Y-107152380D01*
X169347619Y-108104761D02*
X169442857Y-108152380D01*
X169633333Y-108152380D01*
X169728571Y-108104761D01*
X169776190Y-108009523D01*
X169776190Y-107628571D01*
X169728571Y-107533333D01*
X169633333Y-107485714D01*
X169442857Y-107485714D01*
X169347619Y-107533333D01*
X169300000Y-107628571D01*
X169300000Y-107723809D01*
X169776190Y-107819047D01*
X168919047Y-108104761D02*
X168823809Y-108152380D01*
X168633333Y-108152380D01*
X168538095Y-108104761D01*
X168490476Y-108009523D01*
X168490476Y-107961904D01*
X168538095Y-107866666D01*
X168633333Y-107819047D01*
X168776190Y-107819047D01*
X168871428Y-107771428D01*
X168919047Y-107676190D01*
X168919047Y-107628571D01*
X168871428Y-107533333D01*
X168776190Y-107485714D01*
X168633333Y-107485714D01*
X168538095Y-107533333D01*
X168204761Y-107485714D02*
X167823809Y-107485714D01*
X168061904Y-107152380D02*
X168061904Y-108009523D01*
X168014285Y-108104761D01*
X167919047Y-108152380D01*
X167823809Y-108152380D01*
X167490476Y-108152380D02*
X167490476Y-107152380D01*
X167109523Y-107152380D01*
X167014285Y-107200000D01*
X166966666Y-107247619D01*
X166919047Y-107342857D01*
X166919047Y-107485714D01*
X166966666Y-107580952D01*
X167014285Y-107628571D01*
X167109523Y-107676190D01*
X167490476Y-107676190D01*
X166347619Y-108152380D02*
X166442857Y-108104761D01*
X166490476Y-108057142D01*
X166538095Y-107961904D01*
X166538095Y-107676190D01*
X166490476Y-107580952D01*
X166442857Y-107533333D01*
X166347619Y-107485714D01*
X166204761Y-107485714D01*
X166109523Y-107533333D01*
X166061904Y-107580952D01*
X166014285Y-107676190D01*
X166014285Y-107961904D01*
X166061904Y-108057142D01*
X166109523Y-108104761D01*
X166204761Y-108152380D01*
X166347619Y-108152380D01*
X165585714Y-108152380D02*
X165585714Y-107485714D01*
X165585714Y-107152380D02*
X165633333Y-107200000D01*
X165585714Y-107247619D01*
X165538095Y-107200000D01*
X165585714Y-107152380D01*
X165585714Y-107247619D01*
X165109523Y-107485714D02*
X165109523Y-108152380D01*
X165109523Y-107580952D02*
X165061904Y-107533333D01*
X164966666Y-107485714D01*
X164823809Y-107485714D01*
X164728571Y-107533333D01*
X164680952Y-107628571D01*
X164680952Y-108152380D01*
X164347619Y-107485714D02*
X163966666Y-107485714D01*
X164204761Y-107152380D02*
X164204761Y-108009523D01*
X164157142Y-108104761D01*
X164061904Y-108152380D01*
X163966666Y-108152380D01*
X169038095Y-110552380D02*
X168466666Y-110552380D01*
X168752380Y-111552380D02*
X168752380Y-110552380D01*
X168133333Y-111552380D02*
X168133333Y-110552380D01*
X167752380Y-110552380D01*
X167657142Y-110600000D01*
X167609523Y-110647619D01*
X167561904Y-110742857D01*
X167561904Y-110885714D01*
X167609523Y-110980952D01*
X167657142Y-111028571D01*
X167752380Y-111076190D01*
X168133333Y-111076190D01*
X167180952Y-110647619D02*
X167133333Y-110600000D01*
X167038095Y-110552380D01*
X166800000Y-110552380D01*
X166704761Y-110600000D01*
X166657142Y-110647619D01*
X166609523Y-110742857D01*
X166609523Y-110838095D01*
X166657142Y-110980952D01*
X167228571Y-111552380D01*
X166609523Y-111552380D01*
X166276190Y-110552380D02*
X165657142Y-110552380D01*
X165990476Y-110933333D01*
X165847619Y-110933333D01*
X165752380Y-110980952D01*
X165704761Y-111028571D01*
X165657142Y-111123809D01*
X165657142Y-111361904D01*
X165704761Y-111457142D01*
X165752380Y-111504761D01*
X165847619Y-111552380D01*
X166133333Y-111552380D01*
X166228571Y-111504761D01*
X166276190Y-111457142D01*
G04 #@! TO.C,TP20*
X155133333Y-77902380D02*
X154561904Y-77902380D01*
X154847619Y-78902380D02*
X154847619Y-77902380D01*
X153847619Y-78854761D02*
X153942857Y-78902380D01*
X154133333Y-78902380D01*
X154228571Y-78854761D01*
X154276190Y-78759523D01*
X154276190Y-78378571D01*
X154228571Y-78283333D01*
X154133333Y-78235714D01*
X153942857Y-78235714D01*
X153847619Y-78283333D01*
X153800000Y-78378571D01*
X153800000Y-78473809D01*
X154276190Y-78569047D01*
X153419047Y-78854761D02*
X153323809Y-78902380D01*
X153133333Y-78902380D01*
X153038095Y-78854761D01*
X152990476Y-78759523D01*
X152990476Y-78711904D01*
X153038095Y-78616666D01*
X153133333Y-78569047D01*
X153276190Y-78569047D01*
X153371428Y-78521428D01*
X153419047Y-78426190D01*
X153419047Y-78378571D01*
X153371428Y-78283333D01*
X153276190Y-78235714D01*
X153133333Y-78235714D01*
X153038095Y-78283333D01*
X152704761Y-78235714D02*
X152323809Y-78235714D01*
X152561904Y-77902380D02*
X152561904Y-78759523D01*
X152514285Y-78854761D01*
X152419047Y-78902380D01*
X152323809Y-78902380D01*
X151990476Y-78902380D02*
X151990476Y-77902380D01*
X151609523Y-77902380D01*
X151514285Y-77950000D01*
X151466666Y-77997619D01*
X151419047Y-78092857D01*
X151419047Y-78235714D01*
X151466666Y-78330952D01*
X151514285Y-78378571D01*
X151609523Y-78426190D01*
X151990476Y-78426190D01*
X150847619Y-78902380D02*
X150942857Y-78854761D01*
X150990476Y-78807142D01*
X151038095Y-78711904D01*
X151038095Y-78426190D01*
X150990476Y-78330952D01*
X150942857Y-78283333D01*
X150847619Y-78235714D01*
X150704761Y-78235714D01*
X150609523Y-78283333D01*
X150561904Y-78330952D01*
X150514285Y-78426190D01*
X150514285Y-78711904D01*
X150561904Y-78807142D01*
X150609523Y-78854761D01*
X150704761Y-78902380D01*
X150847619Y-78902380D01*
X150085714Y-78902380D02*
X150085714Y-78235714D01*
X150085714Y-77902380D02*
X150133333Y-77950000D01*
X150085714Y-77997619D01*
X150038095Y-77950000D01*
X150085714Y-77902380D01*
X150085714Y-77997619D01*
X149609523Y-78235714D02*
X149609523Y-78902380D01*
X149609523Y-78330952D02*
X149561904Y-78283333D01*
X149466666Y-78235714D01*
X149323809Y-78235714D01*
X149228571Y-78283333D01*
X149180952Y-78378571D01*
X149180952Y-78902380D01*
X148847619Y-78235714D02*
X148466666Y-78235714D01*
X148704761Y-77902380D02*
X148704761Y-78759523D01*
X148657142Y-78854761D01*
X148561904Y-78902380D01*
X148466666Y-78902380D01*
X153538095Y-81302380D02*
X152966666Y-81302380D01*
X153252380Y-82302380D02*
X153252380Y-81302380D01*
X152633333Y-82302380D02*
X152633333Y-81302380D01*
X152252380Y-81302380D01*
X152157142Y-81350000D01*
X152109523Y-81397619D01*
X152061904Y-81492857D01*
X152061904Y-81635714D01*
X152109523Y-81730952D01*
X152157142Y-81778571D01*
X152252380Y-81826190D01*
X152633333Y-81826190D01*
X151680952Y-81397619D02*
X151633333Y-81350000D01*
X151538095Y-81302380D01*
X151300000Y-81302380D01*
X151204761Y-81350000D01*
X151157142Y-81397619D01*
X151109523Y-81492857D01*
X151109523Y-81588095D01*
X151157142Y-81730952D01*
X151728571Y-82302380D01*
X151109523Y-82302380D01*
X150490476Y-81302380D02*
X150395238Y-81302380D01*
X150300000Y-81350000D01*
X150252380Y-81397619D01*
X150204761Y-81492857D01*
X150157142Y-81683333D01*
X150157142Y-81921428D01*
X150204761Y-82111904D01*
X150252380Y-82207142D01*
X150300000Y-82254761D01*
X150395238Y-82302380D01*
X150490476Y-82302380D01*
X150585714Y-82254761D01*
X150633333Y-82207142D01*
X150680952Y-82111904D01*
X150728571Y-81921428D01*
X150728571Y-81683333D01*
X150680952Y-81492857D01*
X150633333Y-81397619D01*
X150585714Y-81350000D01*
X150490476Y-81302380D01*
G04 #@! TD*
M02*
