%FSLAX45Y45*%
G04 Gerber Fmt 4.5, Leading zero omitted, Abs format (unit mm)*
G04 Created by KiCad (PCBNEW (5.1.5)-3) date 2020-12-06 10:31:18*
%MOMM*%
%LPD*%
G04 APERTURE LIST*
%TA.AperFunction,Profile*%
%ADD10C,0.150000*%
%TD*%
%ADD11C,0.200000*%
%ADD12C,0.300000*%
G04 APERTURE END LIST*
D10*
X8650000Y-9200000D02*
G75*
G02X8750000Y-9300000I0J-100000D01*
G01*
X21100000Y-5160000D02*
G75*
G02X21200000Y-5260000I0J-100000D01*
G01*
X21200000Y-10300000D02*
G75*
G02X21100000Y-10400000I-100000J0D01*
G01*
X20000000Y-10500000D02*
G75*
G02X20100000Y-10400000I100000J0D01*
G01*
X20100000Y-13730000D02*
G75*
G02X20000000Y-13630000I0J100000D01*
G01*
X21100000Y-13730000D02*
G75*
G02X21200000Y-13830000I0J-100000D01*
G01*
X21200000Y-15520000D02*
G75*
G02X21100000Y-15620000I-100000J0D01*
G01*
X8400000Y-15620000D02*
G75*
G02X8300000Y-15520000I0J100000D01*
G01*
X8300000Y-14800000D02*
G75*
G02X8400000Y-14700000I100000J0D01*
G01*
X8800000Y-14600000D02*
G75*
G02X8700000Y-14700000I-100000J0D01*
G01*
X8700000Y-13200000D02*
G75*
G02X8800000Y-13300000I0J-100000D01*
G01*
X8650000Y-12600000D02*
X8400000Y-12600000D01*
X8750000Y-12500000D02*
G75*
G02X8650000Y-12600000I-100000J0D01*
G01*
X8300000Y-12700000D02*
G75*
G02X8400000Y-12600000I100000J0D01*
G01*
X8400000Y-13200000D02*
G75*
G02X8300000Y-13100000I0J100000D01*
G01*
X8400000Y-9200000D02*
G75*
G02X8300000Y-9100000I0J100000D01*
G01*
X8300000Y-5260000D02*
G75*
G02X8400000Y-5160000I100000J0D01*
G01*
X8700000Y-13200000D02*
X8400000Y-13200000D01*
X8300000Y-12700000D02*
X8300000Y-13100000D01*
X8300000Y-14800000D02*
X8300000Y-15520000D01*
X8400000Y-14700000D02*
X8700000Y-14700000D01*
X8800000Y-14600000D02*
X8800000Y-13300000D01*
X21200000Y-13830000D02*
X21200000Y-15520000D01*
X20100000Y-10400000D02*
X21100000Y-10400000D01*
X20000000Y-13630000D02*
X20000000Y-10500000D01*
X21100000Y-13730000D02*
X20100000Y-13730000D01*
X8650000Y-9200000D02*
X8400000Y-9200000D01*
X8750000Y-12500000D02*
X8750000Y-9300000D01*
X21100000Y-5160000D02*
X8400000Y-5160000D01*
X21200000Y-10300000D02*
X21200000Y-5260000D01*
X8400000Y-15620000D02*
X21100000Y-15620000D01*
X8300000Y-5260000D02*
X8300000Y-9100000D01*
D11*
X12920000Y-9920000D02*
X12940000Y-9940000D01*
X12940000Y-9920000D02*
X12920000Y-9940000D01*
X13030000Y-9820000D02*
X13050000Y-9840000D01*
X13050000Y-9820000D02*
X13030000Y-9840000D01*
X13130000Y-9720000D02*
X13150000Y-9740000D01*
X13150000Y-9720000D02*
X13130000Y-9740000D01*
X13230000Y-9620000D02*
X13250000Y-9640000D01*
X13250000Y-9620000D02*
X13230000Y-9640000D01*
X13410000Y-9450000D02*
X13430000Y-9470000D01*
X13430000Y-9450000D02*
X13410000Y-9470000D01*
X13520000Y-9350000D02*
X13540000Y-9370000D01*
X13540000Y-9350000D02*
X13520000Y-9370000D01*
X13610000Y-9260000D02*
X13630000Y-9280000D01*
X13630000Y-9260000D02*
X13610000Y-9280000D01*
X13690000Y-8830000D02*
X13710000Y-8850000D01*
X13710000Y-8830000D02*
X13690000Y-8850000D01*
X13710000Y-9160000D02*
X13730000Y-9180000D01*
X13730000Y-9160000D02*
X13710000Y-9180000D01*
X13780000Y-9090000D02*
X13800000Y-9110000D01*
X13800000Y-9090000D02*
X13780000Y-9110000D01*
X14620000Y-8920000D02*
X14640000Y-8940000D01*
X14640000Y-8920000D02*
X14620000Y-8940000D01*
X14750000Y-9030000D02*
X14770000Y-9050000D01*
X14770000Y-9030000D02*
X14750000Y-9050000D01*
X14780000Y-8740000D02*
X14800000Y-8760000D01*
X14800000Y-8740000D02*
X14780000Y-8760000D01*
X14880000Y-8850000D02*
X14900000Y-8870000D01*
X14900000Y-8850000D02*
X14880000Y-8870000D01*
X14890000Y-8630000D02*
X14910000Y-8650000D01*
X14910000Y-8630000D02*
X14890000Y-8650000D01*
X15000000Y-8740000D02*
X15020000Y-8760000D01*
X15020000Y-8740000D02*
X15000000Y-8760000D01*
X15061070Y-8480000D02*
X15081070Y-8500000D01*
X15081070Y-8480000D02*
X15061070Y-8500000D01*
X8585000Y-5910000D02*
G75*
G03X8585000Y-5910000I-15000J0D01*
G01*
X8657500Y-6455000D02*
G75*
G03X8657500Y-6455000I-15000J0D01*
G01*
X8745000Y-6962500D02*
G75*
G03X8745000Y-6962500I-15000J0D01*
G01*
X8850000Y-6245000D02*
G75*
G03X8850000Y-6245000I-15000J0D01*
G01*
X9235000Y-5910000D02*
G75*
G03X9235000Y-5910000I-15000J0D01*
G01*
X9235000Y-6962500D02*
G75*
G03X9235000Y-6962500I-15000J0D01*
G01*
X9325000Y-7820000D02*
G75*
G03X9325000Y-7820000I-15000J0D01*
G01*
X9335000Y-6230000D02*
G75*
G03X9335000Y-6230000I-15000J0D01*
G01*
X9385000Y-5950000D02*
G75*
G03X9385000Y-5950000I-15000J0D01*
G01*
X9780001Y-5849999D02*
G75*
G03X9780001Y-5849999I-15000J0D01*
G01*
X9945000Y-14160000D02*
G75*
G03X9945000Y-14160000I-15000J0D01*
G01*
X9945000Y-14550000D02*
G75*
G03X9945000Y-14550000I-15000J0D01*
G01*
X9955000Y-13770000D02*
G75*
G03X9955000Y-13770000I-15000J0D01*
G01*
X10165000Y-8070000D02*
G75*
G03X10165000Y-8070000I-15000J0D01*
G01*
X10315000Y-6190000D02*
G75*
G03X10315000Y-6190000I-15000J0D01*
G01*
X10360475Y-8033744D02*
G75*
G03X10360475Y-8033744I-15000J0D01*
G01*
X10365000Y-5950000D02*
G75*
G03X10365000Y-5950000I-15000J0D01*
G01*
X10525000Y-7990000D02*
G75*
G03X10525000Y-7990000I-15000J0D01*
G01*
X10639999Y-8830000D02*
G75*
G03X10639999Y-8830000I-15000J0D01*
G01*
X10645000Y-12880000D02*
G75*
G03X10645000Y-12880000I-15000J0D01*
G01*
X10675000Y-13480000D02*
G75*
G03X10675000Y-13480000I-15000J0D01*
G01*
X10675000Y-13850000D02*
G75*
G03X10675000Y-13850000I-15000J0D01*
G01*
X10695000Y-14610000D02*
G75*
G03X10695000Y-14610000I-15000J0D01*
G01*
X10705000Y-14220000D02*
G75*
G03X10705000Y-14220000I-15000J0D01*
G01*
X10714000Y-6070000D02*
G75*
G03X10714000Y-6070000I-15000J0D01*
G01*
X10733750Y-7056250D02*
G75*
G03X10733750Y-7056250I-15000J0D01*
G01*
X10865000Y-6190000D02*
G75*
G03X10865000Y-6190000I-15000J0D01*
G01*
X10875000Y-6910000D02*
G75*
G03X10875000Y-6910000I-15000J0D01*
G01*
X11081000Y-7982000D02*
G75*
G03X11081000Y-7982000I-15000J0D01*
G01*
X11109000Y-8683000D02*
G75*
G03X11109000Y-8683000I-15000J0D01*
G01*
X11165000Y-11120000D02*
G75*
G03X11165000Y-11120000I-15000J0D01*
G01*
X11214999Y-9470000D02*
G75*
G03X11214999Y-9470000I-15000J0D01*
G01*
X11325000Y-6910000D02*
G75*
G03X11325000Y-6910000I-15000J0D01*
G01*
X11475000Y-9120000D02*
G75*
G03X11475000Y-9120000I-15000J0D01*
G01*
X11485000Y-6610000D02*
G75*
G03X11485000Y-6610000I-15000J0D01*
G01*
X11492452Y-12568995D02*
G75*
G03X11492452Y-12568995I-15000J0D01*
G01*
X11585000Y-8320000D02*
G75*
G03X11585000Y-8320000I-15000J0D01*
G01*
X11585000Y-6800000D02*
G75*
G03X11585000Y-6800000I-15000J0D01*
G01*
X11595491Y-10205580D02*
G75*
G03X11595491Y-10205580I-15000J0D01*
G01*
X11615000Y-10390000D02*
G75*
G03X11615000Y-10390000I-15000J0D01*
G01*
X11675000Y-5980000D02*
G75*
G03X11675000Y-5980000I-15000J0D01*
G01*
X11675000Y-9220000D02*
G75*
G03X11675000Y-9220000I-15000J0D01*
G01*
X11825000Y-11270000D02*
G75*
G03X11825000Y-11270000I-15000J0D01*
G01*
X11855000Y-7150000D02*
G75*
G03X11855000Y-7150000I-15000J0D01*
G01*
X11855000Y-9310000D02*
G75*
G03X11855000Y-9310000I-15000J0D01*
G01*
X11855000Y-9940000D02*
G75*
G03X11855000Y-9940000I-15000J0D01*
G01*
X11865000Y-8370000D02*
G75*
G03X11865000Y-8370000I-15000J0D01*
G01*
X11895000Y-12160000D02*
G75*
G03X11895000Y-12160000I-15000J0D01*
G01*
X11905000Y-6960000D02*
G75*
G03X11905000Y-6960000I-15000J0D01*
G01*
X11945000Y-9070000D02*
G75*
G03X11945000Y-9070000I-15000J0D01*
G01*
X11985000Y-6080000D02*
G75*
G03X11985000Y-6080000I-15000J0D01*
G01*
X12085000Y-11310000D02*
G75*
G03X12085000Y-11310000I-15000J0D01*
G01*
X12148311Y-10175936D02*
G75*
G03X12148311Y-10175936I-15000J0D01*
G01*
X12165000Y-9770000D02*
G75*
G03X12165000Y-9770000I-15000J0D01*
G01*
X12165000Y-9940000D02*
G75*
G03X12165000Y-9940000I-15000J0D01*
G01*
X12185000Y-6960000D02*
G75*
G03X12185000Y-6960000I-15000J0D01*
G01*
X12215000Y-7730000D02*
G75*
G03X12215000Y-7730000I-15000J0D01*
G01*
X12254999Y-7970000D02*
G75*
G03X12254999Y-7970000I-15000J0D01*
G01*
X12260580Y-8950491D02*
G75*
G03X12260580Y-8950491I-15000J0D01*
G01*
X12295001Y-11310000D02*
G75*
G03X12295001Y-11310000I-15000J0D01*
G01*
X12298253Y-7571747D02*
G75*
G03X12298253Y-7571747I-15000J0D01*
G01*
X12355000Y-10690000D02*
G75*
G03X12355000Y-10690000I-15000J0D01*
G01*
X12365001Y-8940000D02*
G75*
G03X12365001Y-8940000I-15000J0D01*
G01*
X12505000Y-9780000D02*
G75*
G03X12505000Y-9780000I-15000J0D01*
G01*
X12645000Y-12630000D02*
G75*
G03X12645000Y-12630000I-15000J0D01*
G01*
X12687462Y-12830624D02*
G75*
G03X12687462Y-12830624I-15000J0D01*
G01*
X12705000Y-9930000D02*
G75*
G03X12705000Y-9930000I-15000J0D01*
G01*
X12745000Y-6330000D02*
G75*
G03X12745000Y-6330000I-15000J0D01*
G01*
X12795000Y-7980000D02*
G75*
G03X12795000Y-7980000I-15000J0D01*
G01*
X12805000Y-5710000D02*
G75*
G03X12805000Y-5710000I-15000J0D01*
G01*
X12915000Y-8785000D02*
G75*
G03X12915000Y-8785000I-15000J0D01*
G01*
X12934999Y-12750000D02*
G75*
G03X12934999Y-12750000I-15000J0D01*
G01*
X12935000Y-8420002D02*
G75*
G03X12935000Y-8420002I-15000J0D01*
G01*
X12937739Y-8250606D02*
G75*
G03X12937739Y-8250606I-15000J0D01*
G01*
X12955000Y-8620000D02*
G75*
G03X12955000Y-8620000I-15000J0D01*
G01*
X13015000Y-9445000D02*
G75*
G03X13015000Y-9445000I-15000J0D01*
G01*
X13025000Y-6320000D02*
G75*
G03X13025000Y-6320000I-15000J0D01*
G01*
X13205000Y-14920000D02*
G75*
G03X13205000Y-14920000I-15000J0D01*
G01*
X13216250Y-14291250D02*
G75*
G03X13216250Y-14291250I-15000J0D01*
G01*
X13265000Y-6140000D02*
G75*
G03X13265000Y-6140000I-15000J0D01*
G01*
X13325000Y-7850000D02*
G75*
G03X13325000Y-7850000I-15000J0D01*
G01*
X13455000Y-5790000D02*
G75*
G03X13455000Y-5790000I-15000J0D01*
G01*
X13495000Y-6120000D02*
G75*
G03X13495000Y-6120000I-15000J0D01*
G01*
X13535000Y-8400000D02*
G75*
G03X13535000Y-8400000I-15000J0D01*
G01*
X13535000Y-8500000D02*
G75*
G03X13535000Y-8500000I-15000J0D01*
G01*
X13585000Y-7040000D02*
G75*
G03X13585000Y-7040000I-15000J0D01*
G01*
X13655000Y-8020000D02*
G75*
G03X13655000Y-8020000I-15000J0D01*
G01*
X13665000Y-12390000D02*
G75*
G03X13665000Y-12390000I-15000J0D01*
G01*
X13712500Y-14827500D02*
G75*
G03X13712500Y-14827500I-15000J0D01*
G01*
X13742097Y-6888162D02*
G75*
G03X13742097Y-6888162I-15000J0D01*
G01*
X13780000Y-7760000D02*
G75*
G03X13780000Y-7760000I-15000J0D01*
G01*
X13796674Y-11453239D02*
G75*
G03X13796674Y-11453239I-15000J0D01*
G01*
X13797500Y-6760000D02*
G75*
G03X13797500Y-6760000I-15000J0D01*
G01*
X13824999Y-11020000D02*
G75*
G03X13824999Y-11020000I-15000J0D01*
G01*
X13835000Y-6340000D02*
G75*
G03X13835000Y-6340000I-15000J0D01*
G01*
X13835000Y-11300000D02*
G75*
G03X13835000Y-11300000I-15000J0D01*
G01*
X13865000Y-8710000D02*
G75*
G03X13865000Y-8710000I-15000J0D01*
G01*
X13885000Y-6650000D02*
G75*
G03X13885000Y-6650000I-15000J0D01*
G01*
X13935000Y-7560000D02*
G75*
G03X13935000Y-7560000I-15000J0D01*
G01*
X13950000Y-6349506D02*
G75*
G03X13950000Y-6349506I-15000J0D01*
G01*
X13955000Y-11190000D02*
G75*
G03X13955000Y-11190000I-15000J0D01*
G01*
X13970000Y-5950000D02*
G75*
G03X13970000Y-5950000I-15000J0D01*
G01*
X14025000Y-8060000D02*
G75*
G03X14025000Y-8060000I-15000J0D01*
G01*
X14065000Y-7440000D02*
G75*
G03X14065000Y-7440000I-15000J0D01*
G01*
X14135000Y-7900000D02*
G75*
G03X14135000Y-7900000I-15000J0D01*
G01*
X14135000Y-11580001D02*
G75*
G03X14135000Y-11580001I-15000J0D01*
G01*
X14165000Y-6310000D02*
G75*
G03X14165000Y-6310000I-15000J0D01*
G01*
X14177500Y-5722500D02*
G75*
G03X14177500Y-5722500I-15000J0D01*
G01*
X14245000Y-11470000D02*
G75*
G03X14245000Y-11470000I-15000J0D01*
G01*
X14295000Y-6940000D02*
G75*
G03X14295000Y-6940000I-15000J0D01*
G01*
X14325000Y-14900000D02*
G75*
G03X14325000Y-14900000I-15000J0D01*
G01*
X14335000Y-5720000D02*
G75*
G03X14335000Y-5720000I-15000J0D01*
G01*
X14415000Y-11990000D02*
G75*
G03X14415000Y-11990000I-15000J0D01*
G01*
X14425000Y-12360000D02*
G75*
G03X14425000Y-12360000I-15000J0D01*
G01*
X14525000Y-6929998D02*
G75*
G03X14525000Y-6929998I-15000J0D01*
G01*
X14595000Y-9650000D02*
G75*
G03X14595000Y-9650000I-15000J0D01*
G01*
X14646596Y-7544611D02*
G75*
G03X14646596Y-7544611I-15000J0D01*
G01*
X14665000Y-12790000D02*
G75*
G03X14665000Y-12790000I-15000J0D01*
G01*
X14715000Y-12390000D02*
G75*
G03X14715000Y-12390000I-15000J0D01*
G01*
X14725000Y-5960000D02*
G75*
G03X14725000Y-5960000I-15000J0D01*
G01*
X14725000Y-6450000D02*
G75*
G03X14725000Y-6450000I-15000J0D01*
G01*
X14725000Y-12520000D02*
G75*
G03X14725000Y-12520000I-15000J0D01*
G01*
X14735000Y-12200000D02*
G75*
G03X14735000Y-12200000I-15000J0D01*
G01*
X14745000Y-6330000D02*
G75*
G03X14745000Y-6330000I-15000J0D01*
G01*
X14750298Y-7656306D02*
G75*
G03X14750298Y-7656306I-15000J0D01*
G01*
X14815000Y-6570000D02*
G75*
G03X14815000Y-6570000I-15000J0D01*
G01*
X14824999Y-8030001D02*
G75*
G03X14824999Y-8030001I-15000J0D01*
G01*
X14826751Y-7512635D02*
G75*
G03X14826751Y-7512635I-15000J0D01*
G01*
X14837620Y-9584763D02*
G75*
G03X14837620Y-9584763I-15000J0D01*
G01*
X14895000Y-11540000D02*
G75*
G03X14895000Y-11540000I-15000J0D01*
G01*
X14935000Y-6010000D02*
G75*
G03X14935000Y-6010000I-15000J0D01*
G01*
X14962000Y-12140000D02*
G75*
G03X14962000Y-12140000I-15000J0D01*
G01*
X14969973Y-6503159D02*
G75*
G03X14969973Y-6503159I-15000J0D01*
G01*
X14975000Y-7420000D02*
G75*
G03X14975000Y-7420000I-15000J0D01*
G01*
X15065000Y-12761826D02*
G75*
G03X15065000Y-12761826I-15000J0D01*
G01*
X15075001Y-12150000D02*
G75*
G03X15075001Y-12150000I-15000J0D01*
G01*
X15085000Y-11171411D02*
G75*
G03X15085000Y-11171411I-15000J0D01*
G01*
X15095126Y-7570042D02*
G75*
G03X15095126Y-7570042I-15000J0D01*
G01*
X15155000Y-12650000D02*
G75*
G03X15155000Y-12650000I-15000J0D01*
G01*
X15165000Y-10430000D02*
G75*
G03X15165000Y-10430000I-15000J0D01*
G01*
X15165000Y-11330000D02*
G75*
G03X15165000Y-11330000I-15000J0D01*
G01*
X15170000Y-7350000D02*
G75*
G03X15170000Y-7350000I-15000J0D01*
G01*
X15185000Y-7000000D02*
G75*
G03X15185000Y-7000000I-15000J0D01*
G01*
X15195000Y-12970000D02*
G75*
G03X15195000Y-12970000I-15000J0D01*
G01*
X15205000Y-10813589D02*
G75*
G03X15205000Y-10813589I-15000J0D01*
G01*
X15315000Y-11220000D02*
G75*
G03X15315000Y-11220000I-15000J0D01*
G01*
X15335000Y-7670000D02*
G75*
G03X15335000Y-7670000I-15000J0D01*
G01*
X15345000Y-7550000D02*
G75*
G03X15345000Y-7550000I-15000J0D01*
G01*
X15515000Y-7330000D02*
G75*
G03X15515000Y-7330000I-15000J0D01*
G01*
X15525000Y-10550000D02*
G75*
G03X15525000Y-10550000I-15000J0D01*
G01*
X15595000Y-10340000D02*
G75*
G03X15595000Y-10340000I-15000J0D01*
G01*
X15615000Y-12620000D02*
G75*
G03X15615000Y-12620000I-15000J0D01*
G01*
X15665000Y-7680000D02*
G75*
G03X15665000Y-7680000I-15000J0D01*
G01*
X15665000Y-10150000D02*
G75*
G03X15665000Y-10150000I-15000J0D01*
G01*
X15665000Y-11300000D02*
G75*
G03X15665000Y-11300000I-15000J0D01*
G01*
X15685165Y-7854948D02*
G75*
G03X15685165Y-7854948I-15000J0D01*
G01*
X15745000Y-10820000D02*
G75*
G03X15745000Y-10820000I-15000J0D01*
G01*
X15810000Y-10030000D02*
G75*
G03X15810000Y-10030000I-15000J0D01*
G01*
X15875000Y-12530000D02*
G75*
G03X15875000Y-12530000I-15000J0D01*
G01*
X15895000Y-11440000D02*
G75*
G03X15895000Y-11440000I-15000J0D01*
G01*
X15915000Y-11000000D02*
G75*
G03X15915000Y-11000000I-15000J0D01*
G01*
X16035000Y-9440000D02*
G75*
G03X16035000Y-9440000I-15000J0D01*
G01*
X16080000Y-9920000D02*
G75*
G03X16080000Y-9920000I-15000J0D01*
G01*
X16135000Y-10970000D02*
G75*
G03X16135000Y-10970000I-15000J0D01*
G01*
X16136000Y-10821000D02*
G75*
G03X16136000Y-10821000I-15000J0D01*
G01*
X16195000Y-11250000D02*
G75*
G03X16195000Y-11250000I-15000J0D01*
G01*
X16215000Y-10070000D02*
G75*
G03X16215000Y-10070000I-15000J0D01*
G01*
X16255000Y-10722501D02*
G75*
G03X16255000Y-10722501I-15000J0D01*
G01*
X16325000Y-8500000D02*
G75*
G03X16325000Y-8500000I-15000J0D01*
G01*
X16395000Y-11310000D02*
G75*
G03X16395000Y-11310000I-15000J0D01*
G01*
X16413966Y-9560560D02*
G75*
G03X16413966Y-9560560I-15000J0D01*
G01*
X16445000Y-10260000D02*
G75*
G03X16445000Y-10260000I-15000J0D01*
G01*
X16655000Y-11740000D02*
G75*
G03X16655000Y-11740000I-15000J0D01*
G01*
X16685000Y-11120001D02*
G75*
G03X16685000Y-11120001I-15000J0D01*
G01*
X16785000Y-10510000D02*
G75*
G03X16785000Y-10510000I-15000J0D01*
G01*
X16785460Y-9890460D02*
G75*
G03X16785460Y-9890460I-15000J0D01*
G01*
X16825000Y-10360000D02*
G75*
G03X16825000Y-10360000I-15000J0D01*
G01*
X16830000Y-7620000D02*
G75*
G03X16830000Y-7620000I-15000J0D01*
G01*
X16885000Y-9360000D02*
G75*
G03X16885000Y-9360000I-15000J0D01*
G01*
X16885000Y-11355000D02*
G75*
G03X16885000Y-11355000I-15000J0D01*
G01*
X16955000Y-7600000D02*
G75*
G03X16955000Y-7600000I-15000J0D01*
G01*
X17049172Y-10586460D02*
G75*
G03X17049172Y-10586460I-15000J0D01*
G01*
X17095000Y-11037559D02*
G75*
G03X17095000Y-11037559I-15000J0D01*
G01*
X17105000Y-11410000D02*
G75*
G03X17105000Y-11410000I-15000J0D01*
G01*
X17135000Y-10470000D02*
G75*
G03X17135000Y-10470000I-15000J0D01*
G01*
X17155000Y-9740000D02*
G75*
G03X17155000Y-9740000I-15000J0D01*
G01*
X17155000Y-11920000D02*
G75*
G03X17155000Y-11920000I-15000J0D01*
G01*
X17290000Y-12125000D02*
G75*
G03X17290000Y-12125000I-15000J0D01*
G01*
X17295000Y-9860000D02*
G75*
G03X17295000Y-9860000I-15000J0D01*
G01*
X17325000Y-10209998D02*
G75*
G03X17325000Y-10209998I-15000J0D01*
G01*
X17415000Y-6330000D02*
G75*
G03X17415000Y-6330000I-15000J0D01*
G01*
X17415000Y-6470000D02*
G75*
G03X17415000Y-6470000I-15000J0D01*
G01*
X17435000Y-12990000D02*
G75*
G03X17435000Y-12990000I-15000J0D01*
G01*
X17445001Y-9750000D02*
G75*
G03X17445001Y-9750000I-15000J0D01*
G01*
X17455000Y-8590000D02*
G75*
G03X17455000Y-8590000I-15000J0D01*
G01*
X17505000Y-6330000D02*
G75*
G03X17505000Y-6330000I-15000J0D01*
G01*
X17515000Y-6470000D02*
G75*
G03X17515000Y-6470000I-15000J0D01*
G01*
X17555000Y-14860000D02*
G75*
G03X17555000Y-14860000I-15000J0D01*
G01*
X17566706Y-10854517D02*
G75*
G03X17566706Y-10854517I-15000J0D01*
G01*
X17627998Y-9884954D02*
G75*
G03X17627998Y-9884954I-15000J0D01*
G01*
X17665000Y-14470000D02*
G75*
G03X17665000Y-14470000I-15000J0D01*
G01*
X17670000Y-10460000D02*
G75*
G03X17670000Y-10460000I-15000J0D01*
G01*
X17675000Y-9640000D02*
G75*
G03X17675000Y-9640000I-15000J0D01*
G01*
X17684445Y-11155001D02*
G75*
G03X17684445Y-11155001I-15000J0D01*
G01*
X17735000Y-10028000D02*
G75*
G03X17735000Y-10028000I-15000J0D01*
G01*
X17755000Y-11630000D02*
G75*
G03X17755000Y-11630000I-15000J0D01*
G01*
X17839948Y-10398496D02*
G75*
G03X17839948Y-10398496I-15000J0D01*
G01*
X17848155Y-12338631D02*
G75*
G03X17848155Y-12338631I-15000J0D01*
G01*
X18075000Y-11680000D02*
G75*
G03X18075000Y-11680000I-15000J0D01*
G01*
X18145000Y-9640000D02*
G75*
G03X18145000Y-9640000I-15000J0D01*
G01*
X18245000Y-9930000D02*
G75*
G03X18245000Y-9930000I-15000J0D01*
G01*
X18632500Y-13132500D02*
G75*
G03X18632500Y-13132500I-15000J0D01*
G01*
X18694424Y-13815575D02*
G75*
G03X18694424Y-13815575I-15000J0D01*
G01*
X18895000Y-6390000D02*
G75*
G03X18895000Y-6390000I-15000J0D01*
G01*
X18895000Y-6510000D02*
G75*
G03X18895000Y-6510000I-15000J0D01*
G01*
X19015000Y-6380000D02*
G75*
G03X19015000Y-6380000I-15000J0D01*
G01*
X19015000Y-6510000D02*
G75*
G03X19015000Y-6510000I-15000J0D01*
G01*
X8706250Y-8033750D02*
X8706250Y-8073750D01*
X8686250Y-8053750D02*
X8726250Y-8053750D01*
X8920000Y-7045000D02*
X8920000Y-7085000D01*
X8900000Y-7065000D02*
X8940000Y-7065000D01*
X9089044Y-8554764D02*
X9089044Y-8594764D01*
X9069044Y-8574764D02*
X9109044Y-8574764D01*
X9160000Y-9000000D02*
X9160000Y-9040000D01*
X9140000Y-9020000D02*
X9180000Y-9020000D01*
X9190000Y-8300000D02*
X9190000Y-8340000D01*
X9170000Y-8320000D02*
X9210000Y-8320000D01*
X9380000Y-6410000D02*
X9380000Y-6450000D01*
X9360000Y-6430000D02*
X9400000Y-6430000D01*
X9410000Y-7580000D02*
X9410000Y-7620000D01*
X9390000Y-7600000D02*
X9430000Y-7600000D01*
X9430000Y-6930000D02*
X9430000Y-6970000D01*
X9410000Y-6950000D02*
X9450000Y-6950000D01*
X9500000Y-8960000D02*
X9500000Y-9000000D01*
X9480000Y-8980000D02*
X9520000Y-8980000D01*
X9600000Y-8820000D02*
X9600000Y-8860000D01*
X9580000Y-8840000D02*
X9620000Y-8840000D01*
X9710000Y-7130000D02*
X9710000Y-7170000D01*
X9690000Y-7150000D02*
X9730000Y-7150000D01*
X9820000Y-7040000D02*
X9820000Y-7080000D01*
X9800000Y-7060000D02*
X9840000Y-7060000D01*
X9835000Y-8005000D02*
X9835000Y-8045000D01*
X9815000Y-8025000D02*
X9855000Y-8025000D01*
X9960000Y-6930000D02*
X9960000Y-6970000D01*
X9940000Y-6950000D02*
X9980000Y-6950000D01*
X9960000Y-7610000D02*
X9960000Y-7650000D01*
X9940000Y-7630000D02*
X9980000Y-7630000D01*
X9980000Y-9210000D02*
X9980000Y-9250000D01*
X9960000Y-9230000D02*
X10000000Y-9230000D01*
X10010000Y-11360000D02*
X10010000Y-11400000D01*
X9990000Y-11380000D02*
X10030000Y-11380000D01*
X10010000Y-11510000D02*
X10010000Y-11550000D01*
X9990000Y-11530000D02*
X10030000Y-11530000D01*
X10060000Y-11430000D02*
X10060000Y-11470000D01*
X10040000Y-11450000D02*
X10080000Y-11450000D01*
X10070000Y-11670000D02*
X10070000Y-11710000D01*
X10050000Y-11690000D02*
X10090000Y-11690000D01*
X10110000Y-11360000D02*
X10110000Y-11400000D01*
X10090000Y-11380000D02*
X10130000Y-11380000D01*
X10110000Y-11510000D02*
X10110000Y-11550000D01*
X10090000Y-11530000D02*
X10130000Y-11530000D01*
X10160000Y-11430000D02*
X10160000Y-11470000D01*
X10140000Y-11450000D02*
X10180000Y-11450000D01*
X10210000Y-11360000D02*
X10210000Y-11400000D01*
X10190000Y-11380000D02*
X10230000Y-11380000D01*
X10210000Y-11510000D02*
X10210000Y-11550000D01*
X10190000Y-11530000D02*
X10230000Y-11530000D01*
X10310000Y-13190000D02*
X10310000Y-13230000D01*
X10290000Y-13210000D02*
X10330000Y-13210000D01*
X10390000Y-9730000D02*
X10390000Y-9770000D01*
X10370000Y-9750000D02*
X10410000Y-9750000D01*
X10490000Y-11785001D02*
X10490000Y-11825001D01*
X10470000Y-11805001D02*
X10510000Y-11805001D01*
X10520000Y-11360000D02*
X10520000Y-11400000D01*
X10500000Y-11380000D02*
X10540000Y-11380000D01*
X10520000Y-11520000D02*
X10520000Y-11560000D01*
X10500000Y-11540000D02*
X10540000Y-11540000D01*
X10580000Y-11440000D02*
X10580000Y-11480000D01*
X10560000Y-11460000D02*
X10600000Y-11460000D01*
X10610000Y-9740000D02*
X10610000Y-9780000D01*
X10590000Y-9760000D02*
X10630000Y-9760000D01*
X10630000Y-11360000D02*
X10630000Y-11400000D01*
X10610000Y-11380000D02*
X10650000Y-11380000D01*
X10630000Y-11520000D02*
X10630000Y-11560000D01*
X10610000Y-11540000D02*
X10650000Y-11540000D01*
X10690000Y-11440000D02*
X10690000Y-11480000D01*
X10670000Y-11460000D02*
X10710000Y-11460000D01*
X10731500Y-11791500D02*
X10731500Y-11831500D01*
X10711500Y-11811500D02*
X10751500Y-11811500D01*
X10740000Y-11520000D02*
X10740000Y-11560000D01*
X10720000Y-11540000D02*
X10760000Y-11540000D01*
X10750000Y-7640000D02*
X10750000Y-7680000D01*
X10730000Y-7660000D02*
X10770000Y-7660000D01*
X10750000Y-11360000D02*
X10750000Y-11400000D01*
X10730000Y-11380000D02*
X10770000Y-11380000D01*
X10800000Y-11440000D02*
X10800000Y-11480000D01*
X10780000Y-11460000D02*
X10820000Y-11460000D01*
X10830000Y-12280000D02*
X10830000Y-12320000D01*
X10810000Y-12300000D02*
X10850000Y-12300000D01*
X10840001Y-5830000D02*
X10840001Y-5870000D01*
X10820001Y-5850000D02*
X10860001Y-5850000D01*
X10860000Y-11360000D02*
X10860000Y-11400000D01*
X10840000Y-11380000D02*
X10880000Y-11380000D01*
X10968000Y-8860000D02*
X10968000Y-8900000D01*
X10948000Y-8880000D02*
X10988000Y-8880000D01*
X11300000Y-7250000D02*
X11300000Y-7290000D01*
X11280000Y-7270000D02*
X11320000Y-7270000D01*
X11300000Y-11365000D02*
X11300000Y-11405000D01*
X11280000Y-11385000D02*
X11320000Y-11385000D01*
X11400000Y-11670000D02*
X11400000Y-11710000D01*
X11380000Y-11690000D02*
X11420000Y-11690000D01*
X11420000Y-14890000D02*
X11420000Y-14930000D01*
X11400000Y-14910000D02*
X11440000Y-14910000D01*
X11490000Y-11870000D02*
X11490000Y-11910000D01*
X11470000Y-11890000D02*
X11510000Y-11890000D01*
X11600000Y-8980000D02*
X11600000Y-9020000D01*
X11580000Y-9000000D02*
X11620000Y-9000000D01*
X11610000Y-14880000D02*
X11610000Y-14920000D01*
X11590000Y-14900000D02*
X11630000Y-14900000D01*
X11710000Y-9730000D02*
X11710000Y-9770000D01*
X11690000Y-9750000D02*
X11730000Y-9750000D01*
X11800000Y-14650000D02*
X11800000Y-14690000D01*
X11780000Y-14670000D02*
X11820000Y-14670000D01*
X11800000Y-14870000D02*
X11800000Y-14910000D01*
X11780000Y-14890000D02*
X11820000Y-14890000D01*
X11830000Y-7720000D02*
X11830000Y-7760000D01*
X11810000Y-7740000D02*
X11850000Y-7740000D01*
X11860000Y-9600000D02*
X11860000Y-9640000D01*
X11840000Y-9620000D02*
X11880000Y-9620000D01*
X11990000Y-14650000D02*
X11990000Y-14690000D01*
X11970000Y-14670000D02*
X12010000Y-14670000D01*
X11990000Y-14860000D02*
X11990000Y-14900000D01*
X11970000Y-14880000D02*
X12010000Y-14880000D01*
X12110000Y-14330000D02*
X12110000Y-14370000D01*
X12090000Y-14350000D02*
X12130000Y-14350000D01*
X12120000Y-10270000D02*
X12120000Y-10310000D01*
X12100000Y-10290000D02*
X12140000Y-10290000D01*
X12185000Y-13155000D02*
X12185000Y-13195000D01*
X12165000Y-13175000D02*
X12205000Y-13175000D01*
X12200000Y-14650000D02*
X12200000Y-14690000D01*
X12180000Y-14670000D02*
X12220000Y-14670000D01*
X12210000Y-13930000D02*
X12210000Y-13970000D01*
X12190000Y-13950000D02*
X12230000Y-13950000D01*
X12210000Y-14860000D02*
X12210000Y-14900000D01*
X12190000Y-14880000D02*
X12230000Y-14880000D01*
X12220000Y-14200000D02*
X12220000Y-14240000D01*
X12200000Y-14220000D02*
X12240000Y-14220000D01*
X12270000Y-9400000D02*
X12270000Y-9440000D01*
X12250000Y-9420000D02*
X12290000Y-9420000D01*
X12540000Y-5960000D02*
X12540000Y-6000000D01*
X12520000Y-5980000D02*
X12560000Y-5980000D01*
X12610000Y-14500000D02*
X12610000Y-14540000D01*
X12590000Y-14520000D02*
X12630000Y-14520000D01*
X12710000Y-11030000D02*
X12710000Y-11070000D01*
X12690000Y-11050000D02*
X12730000Y-11050000D01*
X12725000Y-13835000D02*
X12725000Y-13875000D01*
X12705000Y-13855000D02*
X12745000Y-13855000D01*
X12740000Y-14880000D02*
X12740000Y-14920000D01*
X12720000Y-14900000D02*
X12760000Y-14900000D01*
X12839997Y-8890000D02*
X12839997Y-8930000D01*
X12819997Y-8910000D02*
X12859997Y-8910000D01*
X13115000Y-8980000D02*
X13115000Y-9020000D01*
X13095000Y-9000000D02*
X13135000Y-9000000D01*
X13230000Y-7050000D02*
X13230000Y-7090000D01*
X13210000Y-7070000D02*
X13250000Y-7070000D01*
X13280000Y-7230000D02*
X13280000Y-7270000D01*
X13260000Y-7250000D02*
X13300000Y-7250000D01*
X13310000Y-13990000D02*
X13310000Y-14030000D01*
X13290000Y-14010000D02*
X13330000Y-14010000D01*
X13342500Y-5877500D02*
X13342500Y-5917500D01*
X13322500Y-5897500D02*
X13362500Y-5897500D01*
X13468611Y-7676525D02*
X13468611Y-7716525D01*
X13448611Y-7696525D02*
X13488611Y-7696525D01*
X13480000Y-14560000D02*
X13480000Y-14600000D01*
X13460000Y-14580000D02*
X13500000Y-14580000D01*
X13544466Y-13989466D02*
X13544466Y-14029466D01*
X13524466Y-14009466D02*
X13564466Y-14009466D01*
X13840000Y-14000000D02*
X13840000Y-14040000D01*
X13820000Y-14020000D02*
X13860000Y-14020000D01*
X13900001Y-14510000D02*
X13900001Y-14550000D01*
X13880001Y-14530000D02*
X13920001Y-14530000D01*
X14000000Y-8640000D02*
X14000000Y-8680000D01*
X13980000Y-8660000D02*
X14020000Y-8660000D01*
X14040000Y-14760000D02*
X14040000Y-14800000D01*
X14020000Y-14780000D02*
X14060000Y-14780000D01*
X14120000Y-14640000D02*
X14120000Y-14680000D01*
X14100000Y-14660000D02*
X14140000Y-14660000D01*
X14130000Y-13280000D02*
X14130000Y-13320000D01*
X14110000Y-13300000D02*
X14150000Y-13300000D01*
X14230000Y-8795000D02*
X14230000Y-8835000D01*
X14210000Y-8815000D02*
X14250000Y-8815000D01*
X14260000Y-12120000D02*
X14260000Y-12160000D01*
X14240000Y-12140000D02*
X14280000Y-12140000D01*
X14310001Y-12690000D02*
X14310001Y-12730000D01*
X14290001Y-12710000D02*
X14330001Y-12710000D01*
X14318071Y-8095011D02*
X14318071Y-8135011D01*
X14298071Y-8115011D02*
X14338071Y-8115011D01*
X14400000Y-7230000D02*
X14400000Y-7270000D01*
X14380000Y-7250000D02*
X14420000Y-7250000D01*
X14450000Y-8040000D02*
X14450000Y-8080000D01*
X14430000Y-8060000D02*
X14470000Y-8060000D01*
X14530000Y-10360000D02*
X14530000Y-10400000D01*
X14510000Y-10380000D02*
X14550000Y-10380000D01*
X14550000Y-11260000D02*
X14550000Y-11300000D01*
X14530000Y-11280000D02*
X14570000Y-11280000D01*
X14814142Y-7729999D02*
X14814142Y-7769999D01*
X14794142Y-7749999D02*
X14834142Y-7749999D01*
X14899999Y-9310000D02*
X14899999Y-9350000D01*
X14879999Y-9330000D02*
X14919999Y-9330000D01*
X15050000Y-14670000D02*
X15050000Y-14710000D01*
X15030000Y-14690000D02*
X15070000Y-14690000D01*
X15080000Y-10200000D02*
X15080000Y-10240000D01*
X15060000Y-10220000D02*
X15100000Y-10220000D01*
X15230000Y-11000000D02*
X15230000Y-11040000D01*
X15210000Y-11020000D02*
X15250000Y-11020000D01*
X15340000Y-14240000D02*
X15340000Y-14280000D01*
X15320000Y-14260000D02*
X15360000Y-14260000D01*
X15360000Y-12210000D02*
X15360000Y-12250000D01*
X15340000Y-12230000D02*
X15380000Y-12230000D01*
X15389999Y-9450000D02*
X15389999Y-9490000D01*
X15369999Y-9470000D02*
X15409999Y-9470000D01*
X15401250Y-14851250D02*
X15401250Y-14891250D01*
X15381250Y-14871250D02*
X15421250Y-14871250D01*
X15430000Y-11510000D02*
X15430000Y-11550000D01*
X15410000Y-11530000D02*
X15450000Y-11530000D01*
X15440000Y-14150000D02*
X15440000Y-14190000D01*
X15420000Y-14170000D02*
X15460000Y-14170000D01*
X15500000Y-12150001D02*
X15500000Y-12190001D01*
X15480000Y-12170001D02*
X15520000Y-12170001D01*
X15500000Y-14370000D02*
X15500000Y-14410000D01*
X15480000Y-14390000D02*
X15520000Y-14390000D01*
X15540000Y-14240000D02*
X15540000Y-14280000D01*
X15520000Y-14260000D02*
X15560000Y-14260000D01*
X15620000Y-9470000D02*
X15620000Y-9510000D01*
X15600000Y-9490000D02*
X15640000Y-9490000D01*
X15620000Y-13130000D02*
X15620000Y-13170000D01*
X15600000Y-13150000D02*
X15640000Y-13150000D01*
X15630000Y-8400000D02*
X15630000Y-8440000D01*
X15610000Y-8420000D02*
X15650000Y-8420000D01*
X15630000Y-13350000D02*
X15630000Y-13390000D01*
X15610000Y-13370000D02*
X15650000Y-13370000D01*
X15640000Y-14140000D02*
X15640000Y-14180000D01*
X15620000Y-14160000D02*
X15660000Y-14160000D01*
X15650000Y-14370000D02*
X15650000Y-14410000D01*
X15630000Y-14390000D02*
X15670000Y-14390000D01*
X15695000Y-12930000D02*
X15695000Y-12970000D01*
X15675000Y-12950000D02*
X15715000Y-12950000D01*
X15730000Y-14250000D02*
X15730000Y-14290000D01*
X15710000Y-14270000D02*
X15750000Y-14270000D01*
X15749999Y-8400000D02*
X15749999Y-8440000D01*
X15729999Y-8420000D02*
X15769999Y-8420000D01*
X15760000Y-8750000D02*
X15760000Y-8790000D01*
X15740000Y-8770000D02*
X15780000Y-8770000D01*
X15810000Y-14140000D02*
X15810000Y-14180000D01*
X15790000Y-14160000D02*
X15830000Y-14160000D01*
X15820000Y-14370000D02*
X15820000Y-14410000D01*
X15800000Y-14390000D02*
X15840000Y-14390000D01*
X15910000Y-14240000D02*
X15910000Y-14280000D01*
X15890000Y-14260000D02*
X15930000Y-14260000D01*
X15915000Y-9065000D02*
X15915000Y-9105000D01*
X15895000Y-9085000D02*
X15935000Y-9085000D01*
X15915000Y-8715000D02*
X15915000Y-8755000D01*
X15895000Y-8735000D02*
X15935000Y-8735000D01*
X15960000Y-12610000D02*
X15960000Y-12650000D01*
X15940000Y-12630000D02*
X15980000Y-12630000D01*
X16050000Y-10250000D02*
X16050000Y-10290000D01*
X16030000Y-10270000D02*
X16070000Y-10270000D01*
X16140000Y-12720000D02*
X16140000Y-12760000D01*
X16120000Y-12740000D02*
X16160000Y-12740000D01*
X16230000Y-14070000D02*
X16230000Y-14110000D01*
X16210000Y-14090000D02*
X16250000Y-14090000D01*
X16269000Y-12581500D02*
X16269000Y-12621500D01*
X16249000Y-12601500D02*
X16289000Y-12601500D01*
X16320000Y-9610000D02*
X16320000Y-9650000D01*
X16300000Y-9630000D02*
X16340000Y-9630000D01*
X16340000Y-14810000D02*
X16340000Y-14850000D01*
X16320000Y-14830000D02*
X16360000Y-14830000D01*
X16352500Y-12677500D02*
X16352500Y-12717500D01*
X16332500Y-12697500D02*
X16372500Y-12697500D01*
X16390000Y-14280000D02*
X16390000Y-14320000D01*
X16370000Y-14300000D02*
X16410000Y-14300000D01*
X16410000Y-10600000D02*
X16410000Y-10640000D01*
X16390000Y-10620000D02*
X16430000Y-10620000D01*
X16430000Y-14070000D02*
X16430000Y-14110000D01*
X16410000Y-14090000D02*
X16450000Y-14090000D01*
X16540000Y-14810000D02*
X16540000Y-14850000D01*
X16520000Y-14830000D02*
X16560000Y-14830000D01*
X16590001Y-10890000D02*
X16590001Y-10930000D01*
X16570001Y-10910000D02*
X16610001Y-10910000D01*
X16600000Y-14280000D02*
X16600000Y-14320000D01*
X16580000Y-14300000D02*
X16620000Y-14300000D01*
X16612500Y-12340000D02*
X16612500Y-12380000D01*
X16592500Y-12360000D02*
X16632500Y-12360000D01*
X16640000Y-14070000D02*
X16640000Y-14110000D01*
X16620000Y-14090000D02*
X16660000Y-14090000D01*
X16740000Y-14800000D02*
X16740000Y-14840000D01*
X16720000Y-14820000D02*
X16760000Y-14820000D01*
X16915000Y-12337500D02*
X16915000Y-12377500D01*
X16895000Y-12357500D02*
X16935000Y-12357500D01*
X17140000Y-13040000D02*
X17140000Y-13080000D01*
X17120000Y-13060000D02*
X17160000Y-13060000D01*
X17400000Y-14850000D02*
X17400000Y-14890000D01*
X17380000Y-14870000D02*
X17420000Y-14870000D01*
X17456967Y-12363033D02*
X17456967Y-12403033D01*
X17436967Y-12383033D02*
X17476967Y-12383033D01*
X17797500Y-14290000D02*
X17797500Y-14330000D01*
X17777500Y-14310000D02*
X17817500Y-14310000D01*
X17850000Y-11090000D02*
X17850000Y-11130000D01*
X17830000Y-11110000D02*
X17870000Y-11110000D01*
X17860000Y-13350000D02*
X17860000Y-13390000D01*
X17840000Y-13370000D02*
X17880000Y-13370000D01*
X18062500Y-13702500D02*
X18062500Y-13742500D01*
X18042500Y-13722500D02*
X18082500Y-13722500D01*
X18125000Y-13212500D02*
X18125000Y-13252500D01*
X18105000Y-13232500D02*
X18145000Y-13232500D01*
X18125000Y-13450000D02*
X18125000Y-13490000D01*
X18105000Y-13470000D02*
X18145000Y-13470000D01*
X18147500Y-13942500D02*
X18147500Y-13982500D01*
X18127500Y-13962500D02*
X18167500Y-13962500D01*
X18150000Y-7900000D02*
X18150000Y-7940000D01*
X18130000Y-7920000D02*
X18170000Y-7920000D01*
X18320000Y-7200000D02*
X18320000Y-7240000D01*
X18300000Y-7220000D02*
X18340000Y-7220000D01*
X18669999Y-12560001D02*
X18669999Y-12600001D01*
X18649999Y-12580001D02*
X18689999Y-12580001D01*
X18700000Y-12010000D02*
X18700000Y-12050000D01*
X18680000Y-12030000D02*
X18720000Y-12030000D01*
X18720000Y-9090000D02*
X18720000Y-9130000D01*
X18700000Y-9110000D02*
X18740000Y-9110000D01*
X18720000Y-10940000D02*
X18720000Y-10980000D01*
X18700000Y-10960000D02*
X18740000Y-10960000D01*
X18810000Y-13897500D02*
X18810000Y-13937500D01*
X18790000Y-13917500D02*
X18830000Y-13917500D01*
X19020000Y-10830000D02*
X19020000Y-10870000D01*
X19000000Y-10850000D02*
X19040000Y-10850000D01*
X19250000Y-11330000D02*
X19250000Y-11370000D01*
X19230000Y-11350000D02*
X19270000Y-11350000D01*
X19250000Y-11570000D02*
X19250000Y-11610000D01*
X19230000Y-11590000D02*
X19270000Y-11590000D01*
X19250000Y-11780000D02*
X19250000Y-11820000D01*
X19230000Y-11800000D02*
X19270000Y-11800000D01*
X19282176Y-10152176D02*
X19282176Y-10192176D01*
X19262176Y-10172176D02*
X19302176Y-10172176D01*
X19290000Y-12060000D02*
X19290000Y-12100000D01*
X19270000Y-12080000D02*
X19310000Y-12080000D01*
X19325000Y-12375000D02*
X19325000Y-12415000D01*
X19305000Y-12395000D02*
X19345000Y-12395000D01*
X19400000Y-11330000D02*
X19400000Y-11370000D01*
X19380000Y-11350000D02*
X19420000Y-11350000D01*
X19400000Y-11570000D02*
X19400000Y-11610000D01*
X19380000Y-11590000D02*
X19420000Y-11590000D01*
X19400000Y-11780000D02*
X19400000Y-11820000D01*
X19380000Y-11800000D02*
X19420000Y-11800000D01*
X19750000Y-11330000D02*
X19750000Y-11370000D01*
X19730000Y-11350000D02*
X19770000Y-11350000D01*
X19750000Y-11580000D02*
X19750000Y-11620000D01*
X19730000Y-11600000D02*
X19770000Y-11600000D01*
X19750000Y-11780000D02*
X19750000Y-11820000D01*
X19730000Y-11800000D02*
X19770000Y-11800000D01*
X9327678Y-13077678D02*
X9327678Y-13042322D01*
X9292322Y-13042322D01*
X9292322Y-13077678D01*
X9327678Y-13077678D01*
X9427678Y-15057678D02*
X9427678Y-15022322D01*
X9392322Y-15022322D01*
X9392322Y-15057678D01*
X9427678Y-15057678D01*
X10027678Y-13037678D02*
X10027678Y-13002322D01*
X9992322Y-13002322D01*
X9992322Y-13037678D01*
X10027678Y-13037678D01*
X11137678Y-12277678D02*
X11137678Y-12242322D01*
X11102322Y-12242322D01*
X11102322Y-12277678D01*
X11137678Y-12277678D01*
X11367678Y-10242677D02*
X11367678Y-10207322D01*
X11332322Y-10207322D01*
X11332322Y-10242677D01*
X11367678Y-10242677D01*
X11537678Y-10617678D02*
X11537678Y-10582322D01*
X11502322Y-10582322D01*
X11502322Y-10617678D01*
X11537678Y-10617678D01*
X11787678Y-13257678D02*
X11787678Y-13222322D01*
X11752322Y-13222322D01*
X11752322Y-13257678D01*
X11787678Y-13257678D01*
X12217678Y-7347678D02*
X12217678Y-7312322D01*
X12182322Y-7312322D01*
X12182322Y-7347678D01*
X12217678Y-7347678D01*
X12747678Y-7537678D02*
X12747678Y-7502322D01*
X12712322Y-7502322D01*
X12712322Y-7537678D01*
X12747678Y-7537678D01*
X12797679Y-7717678D02*
X12797679Y-7682322D01*
X12762323Y-7682322D01*
X12762323Y-7717678D01*
X12797679Y-7717678D01*
X12907678Y-13327678D02*
X12907678Y-13292322D01*
X12872322Y-13292322D01*
X12872322Y-13327678D01*
X12907678Y-13327678D01*
X13112680Y-7544334D02*
X13112680Y-7508979D01*
X13077324Y-7508979D01*
X13077324Y-7544334D01*
X13112680Y-7544334D01*
X13125178Y-14577678D02*
X13125178Y-14542322D01*
X13089822Y-14542322D01*
X13089822Y-14577678D01*
X13125178Y-14577678D01*
X13267678Y-5737678D02*
X13267678Y-5702322D01*
X13232322Y-5702322D01*
X13232322Y-5737678D01*
X13267678Y-5737678D01*
X13747678Y-6567678D02*
X13747678Y-6532322D01*
X13712322Y-6532322D01*
X13712322Y-6567678D01*
X13747678Y-6567678D01*
X14407678Y-10597678D02*
X14407678Y-10562322D01*
X14372322Y-10562322D01*
X14372322Y-10597678D01*
X14407678Y-10597678D01*
X14852678Y-10612678D02*
X14852678Y-10577322D01*
X14817322Y-10577322D01*
X14817322Y-10612678D01*
X14852678Y-10612678D01*
X15447678Y-6277678D02*
X15447678Y-6242322D01*
X15412322Y-6242322D01*
X15412322Y-6277678D01*
X15447678Y-6277678D01*
X15717677Y-7017678D02*
X15717677Y-6982322D01*
X15682322Y-6982322D01*
X15682322Y-7017678D01*
X15717677Y-7017678D01*
X15817678Y-6467678D02*
X15817678Y-6432323D01*
X15782322Y-6432323D01*
X15782322Y-6467678D01*
X15817678Y-6467678D01*
X16287678Y-6177677D02*
X16287678Y-6142322D01*
X16252322Y-6142322D01*
X16252322Y-6177677D01*
X16287678Y-6177677D01*
X16357678Y-12047678D02*
X16357678Y-12012322D01*
X16322322Y-12012322D01*
X16322322Y-12047678D01*
X16357678Y-12047678D01*
X17447678Y-7567678D02*
X17447678Y-7532322D01*
X17412322Y-7532322D01*
X17412322Y-7567678D01*
X17447678Y-7567678D01*
X17927678Y-11877678D02*
X17927678Y-11842322D01*
X17892322Y-11842322D01*
X17892322Y-11877678D01*
X17927678Y-11877678D01*
X18047678Y-12547678D02*
X18047678Y-12512322D01*
X18012322Y-12512322D01*
X18012322Y-12547678D01*
X18047678Y-12547678D01*
X18097678Y-8187678D02*
X18097678Y-8152322D01*
X18062322Y-8152322D01*
X18062322Y-8187678D01*
X18097678Y-8187678D01*
X18207677Y-13077678D02*
X18207677Y-13042322D01*
X18172322Y-13042322D01*
X18172322Y-13077678D01*
X18207677Y-13077678D01*
X18287678Y-10777678D02*
X18287678Y-10742322D01*
X18252322Y-10742322D01*
X18252322Y-10777678D01*
X18287678Y-10777678D01*
X18617678Y-10027678D02*
X18617678Y-9992322D01*
X18582322Y-9992322D01*
X18582322Y-10027678D01*
X18617678Y-10027678D01*
X19277678Y-11157678D02*
X19277678Y-11122322D01*
X19242322Y-11122322D01*
X19242322Y-11157678D01*
X19277678Y-11157678D01*
X9900000Y-12510001D02*
X9930000Y-12480001D01*
X9900000Y-12450001D01*
X9870000Y-12480001D01*
X9900000Y-12510001D01*
X10120000Y-5880000D02*
X10150000Y-5850000D01*
X10120000Y-5820000D01*
X10090000Y-5850000D01*
X10120000Y-5880000D01*
X13470753Y-7400753D02*
X13500753Y-7370753D01*
X13470753Y-7340753D01*
X13440753Y-7370753D01*
X13470753Y-7400753D01*
X13485000Y-14175000D02*
X13515000Y-14145000D01*
X13485000Y-14115000D01*
X13455000Y-14145000D01*
X13485000Y-14175000D01*
X14900000Y-13620000D02*
X14930000Y-13590000D01*
X14900000Y-13560000D01*
X14870000Y-13590000D01*
X14900000Y-13620000D01*
X14940000Y-13460000D02*
X14970000Y-13430000D01*
X14940000Y-13400000D01*
X14910000Y-13430000D01*
X14940000Y-13460000D01*
X14940000Y-13780000D02*
X14970000Y-13750000D01*
X14940000Y-13720000D01*
X14910000Y-13750000D01*
X14940000Y-13780000D01*
X15055000Y-13620000D02*
X15085000Y-13590000D01*
X15055000Y-13560000D01*
X15025000Y-13590000D01*
X15055000Y-13620000D01*
X15150000Y-13460000D02*
X15180000Y-13430000D01*
X15150000Y-13400000D01*
X15120000Y-13430000D01*
X15150000Y-13460000D01*
X15150000Y-13780000D02*
X15180000Y-13750000D01*
X15150000Y-13720000D01*
X15120000Y-13750000D01*
X15150000Y-13780000D01*
X15245000Y-13620000D02*
X15275000Y-13590000D01*
X15245000Y-13560000D01*
X15215000Y-13590000D01*
X15245000Y-13620000D01*
X15570000Y-8080000D02*
X15600000Y-8050000D01*
X15570000Y-8020000D01*
X15540000Y-8050000D01*
X15570000Y-8080000D01*
X15860000Y-8060001D02*
X15890000Y-8030001D01*
X15860000Y-8000001D01*
X15830000Y-8030001D01*
X15860000Y-8060001D01*
X15970000Y-7060000D02*
X16000000Y-7030000D01*
X15970000Y-7000000D01*
X15940000Y-7030000D01*
X15970000Y-7060000D01*
X16130000Y-10480000D02*
X16160000Y-10450000D01*
X16130000Y-10420000D01*
X16100000Y-10450000D01*
X16130000Y-10480000D01*
X16630000Y-6260000D02*
X16660000Y-6230000D01*
X16630000Y-6200000D01*
X16600000Y-6230000D01*
X16630000Y-6260000D01*
X16740000Y-9240000D02*
X16770000Y-9210000D01*
X16740000Y-9180000D01*
X16710000Y-9210000D01*
X16740000Y-9240000D01*
X16939999Y-8489999D02*
X16969999Y-8459999D01*
X16939999Y-8429999D01*
X16909999Y-8459999D01*
X16939999Y-8489999D01*
X17640000Y-7530000D02*
X17670000Y-7500000D01*
X17640000Y-7470000D01*
X17610000Y-7500000D01*
X17640000Y-7530000D01*
X18070001Y-5830000D02*
X18100001Y-5800000D01*
X18070001Y-5770000D01*
X18040001Y-5800000D01*
X18070001Y-5830000D01*
X18147500Y-8442500D02*
X18177500Y-8412500D01*
X18147500Y-8382500D01*
X18117500Y-8412500D01*
X18147500Y-8442500D01*
X18150000Y-8830000D02*
X18180000Y-8800000D01*
X18150000Y-8770000D01*
X18120000Y-8800000D01*
X18150000Y-8830000D01*
X18270000Y-10380000D02*
X18300000Y-10350000D01*
X18270000Y-10320000D01*
X18240000Y-10350000D01*
X18270000Y-10380000D01*
X18420000Y-6010000D02*
X18450000Y-5980000D01*
X18420000Y-5950000D01*
X18390000Y-5980000D01*
X18420000Y-6010000D01*
X18705000Y-7835000D02*
X18735000Y-7805000D01*
X18705000Y-7775000D01*
X18675000Y-7805000D01*
X18705000Y-7835000D01*
X18740000Y-14650000D02*
X18770000Y-14620000D01*
X18740000Y-14590000D01*
X18710000Y-14620000D01*
X18740000Y-14650000D01*
X18780000Y-15110000D02*
X18810000Y-15080000D01*
X18780000Y-15050000D01*
X18750000Y-15080000D01*
X18780000Y-15110000D01*
X18920000Y-14650000D02*
X18950000Y-14620000D01*
X18920000Y-14590000D01*
X18890000Y-14620000D01*
X18920000Y-14650000D01*
X18930000Y-12290000D02*
X18960000Y-12260000D01*
X18930000Y-12230000D01*
X18900000Y-12260000D01*
X18930000Y-12290000D01*
X18980000Y-15110000D02*
X19010000Y-15080000D01*
X18980000Y-15050000D01*
X18950000Y-15080000D01*
X18980000Y-15110000D01*
X19020000Y-13610000D02*
X19050000Y-13580000D01*
X19020000Y-13550000D01*
X18990000Y-13580000D01*
X19020000Y-13610000D01*
X19615000Y-13605000D02*
X19645000Y-13575000D01*
X19615000Y-13545000D01*
X19585000Y-13575000D01*
X19615000Y-13605000D01*
X19701890Y-7864999D02*
X19731890Y-7834999D01*
X19701890Y-7804999D01*
X19671890Y-7834999D01*
X19701890Y-7864999D01*
X19710000Y-7400000D02*
X19740000Y-7370000D01*
X19710000Y-7340000D01*
X19680000Y-7370000D01*
X19710000Y-7400000D01*
X19750000Y-8510000D02*
X19780000Y-8480000D01*
X19750000Y-8450000D01*
X19720000Y-8480000D01*
X19750000Y-8510000D01*
X13492500Y-13018500D02*
X13567500Y-13093500D01*
X13567500Y-13018500D02*
X13492500Y-13093500D01*
X13567500Y-13056000D02*
G75*
G03X13567500Y-13056000I-37500J0D01*
G01*
X13492500Y-13145500D02*
X13567500Y-13220500D01*
X13567500Y-13145500D02*
X13492500Y-13220500D01*
X13567500Y-13183000D02*
G75*
G03X13567500Y-13183000I-37500J0D01*
G01*
X13492500Y-13272500D02*
X13567500Y-13347500D01*
X13567500Y-13272500D02*
X13492500Y-13347500D01*
X13567500Y-13310000D02*
G75*
G03X13567500Y-13310000I-37500J0D01*
G01*
X14142000Y-14320000D02*
X14222000Y-14400000D01*
X14222000Y-14320000D02*
X14142000Y-14400000D01*
X14182000Y-14320000D02*
X14182000Y-14400000D01*
X14142000Y-14360000D02*
X14222000Y-14360000D01*
X14396000Y-14320000D02*
X14476000Y-14400000D01*
X14476000Y-14320000D02*
X14396000Y-14400000D01*
X14436000Y-14320000D02*
X14436000Y-14400000D01*
X14396000Y-14360000D02*
X14476000Y-14360000D01*
X14650000Y-14320000D02*
X14730000Y-14400000D01*
X14730000Y-14320000D02*
X14650000Y-14400000D01*
X14690000Y-14320000D02*
X14690000Y-14400000D01*
X14650000Y-14360000D02*
X14730000Y-14360000D01*
X8835000Y-7275000D02*
X8925000Y-7365000D01*
X8925000Y-7275000D02*
X8835000Y-7365000D01*
X8911820Y-7351820D02*
X8911820Y-7288180D01*
X8848180Y-7288180D01*
X8848180Y-7351820D01*
X8911820Y-7351820D01*
X8835000Y-7529000D02*
X8925000Y-7619000D01*
X8925000Y-7529000D02*
X8835000Y-7619000D01*
X8911820Y-7605820D02*
X8911820Y-7542180D01*
X8848180Y-7542180D01*
X8848180Y-7605820D01*
X8911820Y-7605820D01*
X19604000Y-9229000D02*
X19696000Y-9321000D01*
X19696000Y-9229000D02*
X19604000Y-9321000D01*
X19650000Y-9321000D02*
X19696000Y-9275000D01*
X19650000Y-9229000D01*
X19604000Y-9275000D01*
X19650000Y-9321000D01*
X19604000Y-9479000D02*
X19696000Y-9571000D01*
X19696000Y-9479000D02*
X19604000Y-9571000D01*
X19650000Y-9571000D02*
X19696000Y-9525000D01*
X19650000Y-9479000D01*
X19604000Y-9525000D01*
X19650000Y-9571000D01*
X19804000Y-9229000D02*
X19896000Y-9321000D01*
X19896000Y-9229000D02*
X19804000Y-9321000D01*
X19850000Y-9321000D02*
X19896000Y-9275000D01*
X19850000Y-9229000D01*
X19804000Y-9275000D01*
X19850000Y-9321000D01*
X19804000Y-9479000D02*
X19896000Y-9571000D01*
X19896000Y-9479000D02*
X19804000Y-9571000D01*
X19850000Y-9571000D02*
X19896000Y-9525000D01*
X19850000Y-9479000D01*
X19804000Y-9525000D01*
X19850000Y-9571000D01*
X19060000Y-7920000D02*
X19060000Y-8020000D01*
X19010000Y-7970000D02*
X19110000Y-7970000D01*
X19110000Y-7970000D02*
G75*
G03X19110000Y-7970000I-50000J0D01*
G01*
X9156000Y-13404000D02*
X9156000Y-13504000D01*
X9106000Y-13454000D02*
X9206000Y-13454000D01*
X9206000Y-13454000D02*
G75*
G03X9206000Y-13454000I-50000J0D01*
G01*
X9156000Y-13658000D02*
X9156000Y-13758000D01*
X9106000Y-13708000D02*
X9206000Y-13708000D01*
X9206000Y-13708000D02*
G75*
G03X9206000Y-13708000I-50000J0D01*
G01*
X9156000Y-13912000D02*
X9156000Y-14012000D01*
X9106000Y-13962000D02*
X9206000Y-13962000D01*
X9206000Y-13962000D02*
G75*
G03X9206000Y-13962000I-50000J0D01*
G01*
X9156000Y-14166000D02*
X9156000Y-14266000D01*
X9106000Y-14216000D02*
X9206000Y-14216000D01*
X9206000Y-14216000D02*
G75*
G03X9206000Y-14216000I-50000J0D01*
G01*
X9156000Y-14420000D02*
X9156000Y-14520000D01*
X9106000Y-14470000D02*
X9206000Y-14470000D01*
X9206000Y-14470000D02*
G75*
G03X9206000Y-14470000I-50000J0D01*
G01*
X9410000Y-13404000D02*
X9410000Y-13504000D01*
X9360000Y-13454000D02*
X9460000Y-13454000D01*
X9460000Y-13454000D02*
G75*
G03X9460000Y-13454000I-50000J0D01*
G01*
X9410000Y-13658000D02*
X9410000Y-13758000D01*
X9360000Y-13708000D02*
X9460000Y-13708000D01*
X9460000Y-13708000D02*
G75*
G03X9460000Y-13708000I-50000J0D01*
G01*
X9410000Y-13912000D02*
X9410000Y-14012000D01*
X9360000Y-13962000D02*
X9460000Y-13962000D01*
X9460000Y-13962000D02*
G75*
G03X9460000Y-13962000I-50000J0D01*
G01*
X9410000Y-14166000D02*
X9410000Y-14266000D01*
X9360000Y-14216000D02*
X9460000Y-14216000D01*
X9460000Y-14216000D02*
G75*
G03X9460000Y-14216000I-50000J0D01*
G01*
X9410000Y-14420000D02*
X9410000Y-14520000D01*
X9360000Y-14470000D02*
X9460000Y-14470000D01*
X9460000Y-14470000D02*
G75*
G03X9460000Y-14470000I-50000J0D01*
G01*
X14483891Y-14008891D02*
X14483891Y-13931109D01*
X14406109Y-13931109D01*
X14406109Y-14008891D01*
X14483891Y-14008891D01*
X14500000Y-13970000D02*
G75*
G03X14500000Y-13970000I-55000J0D01*
G01*
X14737891Y-14008891D02*
X14737891Y-13931109D01*
X14660109Y-13931109D01*
X14660109Y-14008891D01*
X14737891Y-14008891D01*
X14754000Y-13970000D02*
G75*
G03X14754000Y-13970000I-55000J0D01*
G01*
X14991891Y-14008891D02*
X14991891Y-13931109D01*
X14914109Y-13931109D01*
X14914109Y-14008891D01*
X14991891Y-14008891D01*
X15008000Y-13970000D02*
G75*
G03X15008000Y-13970000I-55000J0D01*
G01*
X10318891Y-10358891D02*
X10318891Y-10281109D01*
X10241109Y-10281109D01*
X10241109Y-10358891D01*
X10318891Y-10358891D01*
X10335000Y-10320000D02*
G75*
G03X10335000Y-10320000I-55000J0D01*
G01*
X10826891Y-10358891D02*
X10826891Y-10281109D01*
X10749109Y-10281109D01*
X10749109Y-10358891D01*
X10826891Y-10358891D01*
X10843000Y-10320000D02*
G75*
G03X10843000Y-10320000I-55000J0D01*
G01*
X20750000Y-8307500D02*
X20810000Y-8247500D01*
X20750000Y-8187500D01*
X20690000Y-8247500D01*
X20750000Y-8307500D01*
X20810000Y-8247500D02*
G75*
G03X20810000Y-8247500I-60000J0D01*
G01*
X13211185Y-12318815D02*
X13271185Y-12258815D01*
X13211185Y-12198815D01*
X13151185Y-12258815D01*
X13211185Y-12318815D01*
X13271185Y-12258815D02*
G75*
G03X13271185Y-12258815I-60000J0D01*
G01*
X13390790Y-12139210D02*
X13450790Y-12079210D01*
X13390790Y-12019210D01*
X13330790Y-12079210D01*
X13390790Y-12139210D01*
X13450790Y-12079210D02*
G75*
G03X13450790Y-12079210I-60000J0D01*
G01*
X13570395Y-11959605D02*
X13630395Y-11899605D01*
X13570395Y-11839605D01*
X13510395Y-11899605D01*
X13570395Y-11959605D01*
X13630395Y-11899605D02*
G75*
G03X13630395Y-11899605I-60000J0D01*
G01*
X13750000Y-11780000D02*
X13810000Y-11720000D01*
X13750000Y-11660000D01*
X13690000Y-11720000D01*
X13750000Y-11780000D01*
X13810000Y-11720000D02*
G75*
G03X13810000Y-11720000I-60000J0D01*
G01*
X9160000Y-11110000D02*
X9220000Y-11050000D01*
X9160000Y-10990000D01*
X9100000Y-11050000D01*
X9160000Y-11110000D01*
X9220000Y-11050000D02*
G75*
G03X9220000Y-11050000I-60000J0D01*
G01*
X9630000Y-9260000D02*
X9690000Y-9200000D01*
X9630000Y-9140000D01*
X9570000Y-9200000D01*
X9630000Y-9260000D01*
X9690000Y-9200000D02*
G75*
G03X9690000Y-9200000I-60000J0D01*
G01*
X9630000Y-9960000D02*
X9690000Y-9900000D01*
X9630000Y-9840000D01*
X9570000Y-9900000D01*
X9630000Y-9960000D01*
X9690000Y-9900000D02*
G75*
G03X9690000Y-9900000I-60000J0D01*
G01*
X9630000Y-11110000D02*
X9690000Y-11050000D01*
X9630000Y-10990000D01*
X9570000Y-11050000D01*
X9630000Y-11110000D01*
X9690000Y-11050000D02*
G75*
G03X9690000Y-11050000I-60000J0D01*
G01*
X19820000Y-13980000D02*
X19880000Y-13920000D01*
X19820000Y-13860000D01*
X19760000Y-13920000D01*
X19820000Y-13980000D01*
X19880000Y-13920000D02*
G75*
G03X19880000Y-13920000I-60000J0D01*
G01*
X19200000Y-13110000D02*
X19260000Y-13050000D01*
X19200000Y-12990000D01*
X19140000Y-13050000D01*
X19200000Y-13110000D01*
X19260000Y-13050000D02*
G75*
G03X19260000Y-13050000I-60000J0D01*
G01*
X19454000Y-13110000D02*
X19514000Y-13050000D01*
X19454000Y-12990000D01*
X19394000Y-13050000D01*
X19454000Y-13110000D01*
X19514000Y-13050000D02*
G75*
G03X19514000Y-13050000I-60000J0D01*
G01*
X20170000Y-8320000D02*
X20230000Y-8260000D01*
X20170000Y-8200000D01*
X20110000Y-8260000D01*
X20170000Y-8320000D01*
X20230000Y-8260000D02*
G75*
G03X20230000Y-8260000I-60000J0D01*
G01*
X18820000Y-14910000D02*
X18880000Y-14850000D01*
X18820000Y-14790000D01*
X18760000Y-14850000D01*
X18820000Y-14910000D01*
X18880000Y-14850000D02*
G75*
G03X18880000Y-14850000I-60000J0D01*
G01*
X20000000Y-14520000D02*
X20000000Y-14680000D01*
X19920000Y-14600000D02*
X20080000Y-14600000D01*
X20056569Y-14656569D02*
X20056569Y-14543431D01*
X19943431Y-14543431D01*
X19943431Y-14656569D01*
X20056569Y-14656569D01*
X20300000Y-14050000D02*
X20300000Y-14210000D01*
X20220000Y-14130000D02*
X20380000Y-14130000D01*
X20356569Y-14186569D02*
X20356569Y-14073431D01*
X20243431Y-14073431D01*
X20243431Y-14186569D01*
X20356569Y-14186569D01*
X20600000Y-14520000D02*
X20600000Y-14680000D01*
X20520000Y-14600000D02*
X20680000Y-14600000D01*
X20656569Y-14656569D02*
X20656569Y-14543431D01*
X20543431Y-14543431D01*
X20543431Y-14656569D01*
X20656569Y-14656569D01*
X9900000Y-6530000D02*
X9900000Y-6690000D01*
X9820000Y-6610000D02*
X9980000Y-6610000D01*
X9956569Y-6666569D02*
X9956569Y-6553431D01*
X9843431Y-6553431D01*
X9843431Y-6666569D01*
X9956569Y-6666569D01*
X9900000Y-8220000D02*
X9900000Y-8380000D01*
X9820000Y-8300000D02*
X9980000Y-8300000D01*
X9956569Y-8356569D02*
X9956569Y-8243431D01*
X9843431Y-8243431D01*
X9843431Y-8356569D01*
X9956569Y-8356569D01*
X20121000Y-8683000D02*
X20121000Y-8913000D01*
X20006000Y-8798000D02*
X20236000Y-8798000D01*
X20121000Y-8913000D02*
X20236000Y-8798000D01*
X20121000Y-8683000D01*
X20006000Y-8798000D01*
X20121000Y-8913000D01*
X20121000Y-9902000D02*
X20121000Y-10132000D01*
X20006000Y-10017000D02*
X20236000Y-10017000D01*
X20121000Y-10132000D02*
X20236000Y-10017000D01*
X20121000Y-9902000D01*
X20006000Y-10017000D01*
X20121000Y-10132000D01*
D12*
X8336428Y-16093214D02*
X8336428Y-15793214D01*
X8407857Y-15793214D01*
X8450714Y-15807500D01*
X8479286Y-15836071D01*
X8493571Y-15864643D01*
X8507857Y-15921786D01*
X8507857Y-15964643D01*
X8493571Y-16021786D01*
X8479286Y-16050357D01*
X8450714Y-16078929D01*
X8407857Y-16093214D01*
X8336428Y-16093214D01*
X8636429Y-16093214D02*
X8636429Y-15893214D01*
X8636429Y-15950357D02*
X8650714Y-15921786D01*
X8665000Y-15907500D01*
X8693571Y-15893214D01*
X8722143Y-15893214D01*
X8822143Y-16093214D02*
X8822143Y-15893214D01*
X8822143Y-15793214D02*
X8807857Y-15807500D01*
X8822143Y-15821786D01*
X8836429Y-15807500D01*
X8822143Y-15793214D01*
X8822143Y-15821786D01*
X9007857Y-16093214D02*
X8979286Y-16078929D01*
X8965000Y-16050357D01*
X8965000Y-15793214D01*
X9165000Y-16093214D02*
X9136429Y-16078929D01*
X9122143Y-16050357D01*
X9122143Y-15793214D01*
X9507857Y-16093214D02*
X9507857Y-15793214D01*
X9607857Y-16007500D01*
X9707857Y-15793214D01*
X9707857Y-16093214D01*
X9979286Y-16093214D02*
X9979286Y-15936071D01*
X9965000Y-15907500D01*
X9936429Y-15893214D01*
X9879286Y-15893214D01*
X9850714Y-15907500D01*
X9979286Y-16078929D02*
X9950714Y-16093214D01*
X9879286Y-16093214D01*
X9850714Y-16078929D01*
X9836429Y-16050357D01*
X9836429Y-16021786D01*
X9850714Y-15993214D01*
X9879286Y-15978929D01*
X9950714Y-15978929D01*
X9979286Y-15964643D01*
X10122143Y-15893214D02*
X10122143Y-16193214D01*
X10122143Y-15907500D02*
X10150714Y-15893214D01*
X10207857Y-15893214D01*
X10236429Y-15907500D01*
X10250714Y-15921786D01*
X10265000Y-15950357D01*
X10265000Y-16036071D01*
X10250714Y-16064643D01*
X10236429Y-16078929D01*
X10207857Y-16093214D01*
X10150714Y-16093214D01*
X10122143Y-16078929D01*
X10393571Y-16064643D02*
X10407857Y-16078929D01*
X10393571Y-16093214D01*
X10379286Y-16078929D01*
X10393571Y-16064643D01*
X10393571Y-16093214D01*
X10393571Y-15907500D02*
X10407857Y-15921786D01*
X10393571Y-15936071D01*
X10379286Y-15921786D01*
X10393571Y-15907500D01*
X10393571Y-15936071D01*
X8030000Y-16577500D02*
X8050000Y-16597500D01*
X8050000Y-16577500D02*
X8030000Y-16597500D01*
X8393571Y-16423214D02*
X8422143Y-16423214D01*
X8450714Y-16437500D01*
X8465000Y-16451786D01*
X8479286Y-16480357D01*
X8493571Y-16537500D01*
X8493571Y-16608929D01*
X8479286Y-16666071D01*
X8465000Y-16694643D01*
X8450714Y-16708929D01*
X8422143Y-16723214D01*
X8393571Y-16723214D01*
X8365000Y-16708929D01*
X8350714Y-16694643D01*
X8336428Y-16666071D01*
X8322143Y-16608929D01*
X8322143Y-16537500D01*
X8336428Y-16480357D01*
X8350714Y-16451786D01*
X8365000Y-16437500D01*
X8393571Y-16423214D01*
X8622143Y-16694643D02*
X8636429Y-16708929D01*
X8622143Y-16723214D01*
X8607857Y-16708929D01*
X8622143Y-16694643D01*
X8622143Y-16723214D01*
X8750714Y-16451786D02*
X8765000Y-16437500D01*
X8793571Y-16423214D01*
X8865000Y-16423214D01*
X8893571Y-16437500D01*
X8907857Y-16451786D01*
X8922143Y-16480357D01*
X8922143Y-16508929D01*
X8907857Y-16551786D01*
X8736429Y-16723214D01*
X8922143Y-16723214D01*
X9107857Y-16423214D02*
X9136429Y-16423214D01*
X9165000Y-16437500D01*
X9179286Y-16451786D01*
X9193571Y-16480357D01*
X9207857Y-16537500D01*
X9207857Y-16608929D01*
X9193571Y-16666071D01*
X9179286Y-16694643D01*
X9165000Y-16708929D01*
X9136429Y-16723214D01*
X9107857Y-16723214D01*
X9079286Y-16708929D01*
X9065000Y-16694643D01*
X9050714Y-16666071D01*
X9036429Y-16608929D01*
X9036429Y-16537500D01*
X9050714Y-16480357D01*
X9065000Y-16451786D01*
X9079286Y-16437500D01*
X9107857Y-16423214D01*
X9336429Y-16723214D02*
X9336429Y-16523214D01*
X9336429Y-16551786D02*
X9350714Y-16537500D01*
X9379286Y-16523214D01*
X9422143Y-16523214D01*
X9450714Y-16537500D01*
X9465000Y-16566071D01*
X9465000Y-16723214D01*
X9465000Y-16566071D02*
X9479286Y-16537500D01*
X9507857Y-16523214D01*
X9550714Y-16523214D01*
X9579286Y-16537500D01*
X9593571Y-16566071D01*
X9593571Y-16723214D01*
X9736429Y-16723214D02*
X9736429Y-16523214D01*
X9736429Y-16551786D02*
X9750714Y-16537500D01*
X9779286Y-16523214D01*
X9822143Y-16523214D01*
X9850714Y-16537500D01*
X9865000Y-16566071D01*
X9865000Y-16723214D01*
X9865000Y-16566071D02*
X9879286Y-16537500D01*
X9907857Y-16523214D01*
X9950714Y-16523214D01*
X9979286Y-16537500D01*
X9993571Y-16566071D01*
X9993571Y-16723214D01*
X10579286Y-16408929D02*
X10322143Y-16794643D01*
X10965000Y-16423214D02*
X10993571Y-16423214D01*
X11022143Y-16437500D01*
X11036429Y-16451786D01*
X11050714Y-16480357D01*
X11065000Y-16537500D01*
X11065000Y-16608929D01*
X11050714Y-16666071D01*
X11036429Y-16694643D01*
X11022143Y-16708929D01*
X10993571Y-16723214D01*
X10965000Y-16723214D01*
X10936429Y-16708929D01*
X10922143Y-16694643D01*
X10907857Y-16666071D01*
X10893571Y-16608929D01*
X10893571Y-16537500D01*
X10907857Y-16480357D01*
X10922143Y-16451786D01*
X10936429Y-16437500D01*
X10965000Y-16423214D01*
X11193571Y-16694643D02*
X11207857Y-16708929D01*
X11193571Y-16723214D01*
X11179286Y-16708929D01*
X11193571Y-16694643D01*
X11193571Y-16723214D01*
X11393571Y-16423214D02*
X11422143Y-16423214D01*
X11450714Y-16437500D01*
X11465000Y-16451786D01*
X11479286Y-16480357D01*
X11493571Y-16537500D01*
X11493571Y-16608929D01*
X11479286Y-16666071D01*
X11465000Y-16694643D01*
X11450714Y-16708929D01*
X11422143Y-16723214D01*
X11393571Y-16723214D01*
X11365000Y-16708929D01*
X11350714Y-16694643D01*
X11336428Y-16666071D01*
X11322143Y-16608929D01*
X11322143Y-16537500D01*
X11336428Y-16480357D01*
X11350714Y-16451786D01*
X11365000Y-16437500D01*
X11393571Y-16423214D01*
X11679286Y-16423214D02*
X11707857Y-16423214D01*
X11736428Y-16437500D01*
X11750714Y-16451786D01*
X11765000Y-16480357D01*
X11779286Y-16537500D01*
X11779286Y-16608929D01*
X11765000Y-16666071D01*
X11750714Y-16694643D01*
X11736428Y-16708929D01*
X11707857Y-16723214D01*
X11679286Y-16723214D01*
X11650714Y-16708929D01*
X11636428Y-16694643D01*
X11622143Y-16666071D01*
X11607857Y-16608929D01*
X11607857Y-16537500D01*
X11622143Y-16480357D01*
X11636428Y-16451786D01*
X11650714Y-16437500D01*
X11679286Y-16423214D01*
X11950714Y-16551786D02*
X11922143Y-16537500D01*
X11907857Y-16523214D01*
X11893571Y-16494643D01*
X11893571Y-16480357D01*
X11907857Y-16451786D01*
X11922143Y-16437500D01*
X11950714Y-16423214D01*
X12007857Y-16423214D01*
X12036428Y-16437500D01*
X12050714Y-16451786D01*
X12065000Y-16480357D01*
X12065000Y-16494643D01*
X12050714Y-16523214D01*
X12036428Y-16537500D01*
X12007857Y-16551786D01*
X11950714Y-16551786D01*
X11922143Y-16566071D01*
X11907857Y-16580357D01*
X11893571Y-16608929D01*
X11893571Y-16666071D01*
X11907857Y-16694643D01*
X11922143Y-16708929D01*
X11950714Y-16723214D01*
X12007857Y-16723214D01*
X12036428Y-16708929D01*
X12050714Y-16694643D01*
X12065000Y-16666071D01*
X12065000Y-16608929D01*
X12050714Y-16580357D01*
X12036428Y-16566071D01*
X12007857Y-16551786D01*
X12179286Y-16423214D02*
X12179286Y-16480357D01*
X12293571Y-16423214D02*
X12293571Y-16480357D01*
X12736428Y-16837500D02*
X12722143Y-16823214D01*
X12693571Y-16780357D01*
X12679286Y-16751786D01*
X12665000Y-16708929D01*
X12650714Y-16637500D01*
X12650714Y-16580357D01*
X12665000Y-16508929D01*
X12679286Y-16466071D01*
X12693571Y-16437500D01*
X12722143Y-16394643D01*
X12736428Y-16380357D01*
X13007857Y-16723214D02*
X12836428Y-16723214D01*
X12922143Y-16723214D02*
X12922143Y-16423214D01*
X12893571Y-16466071D01*
X12865000Y-16494643D01*
X12836428Y-16508929D01*
X13107857Y-16423214D02*
X13307857Y-16423214D01*
X13179286Y-16723214D01*
X13650714Y-16723214D02*
X13650714Y-16423214D01*
X13779286Y-16723214D02*
X13779286Y-16566071D01*
X13765000Y-16537500D01*
X13736428Y-16523214D01*
X13693571Y-16523214D01*
X13665000Y-16537500D01*
X13650714Y-16551786D01*
X13965000Y-16723214D02*
X13936428Y-16708929D01*
X13922143Y-16694643D01*
X13907857Y-16666071D01*
X13907857Y-16580357D01*
X13922143Y-16551786D01*
X13936428Y-16537500D01*
X13965000Y-16523214D01*
X14007857Y-16523214D01*
X14036428Y-16537500D01*
X14050714Y-16551786D01*
X14065000Y-16580357D01*
X14065000Y-16666071D01*
X14050714Y-16694643D01*
X14036428Y-16708929D01*
X14007857Y-16723214D01*
X13965000Y-16723214D01*
X14236428Y-16723214D02*
X14207857Y-16708929D01*
X14193571Y-16680357D01*
X14193571Y-16423214D01*
X14465000Y-16708929D02*
X14436428Y-16723214D01*
X14379286Y-16723214D01*
X14350714Y-16708929D01*
X14336428Y-16680357D01*
X14336428Y-16566071D01*
X14350714Y-16537500D01*
X14379286Y-16523214D01*
X14436428Y-16523214D01*
X14465000Y-16537500D01*
X14479286Y-16566071D01*
X14479286Y-16594643D01*
X14336428Y-16623214D01*
X14593571Y-16708929D02*
X14622143Y-16723214D01*
X14679286Y-16723214D01*
X14707857Y-16708929D01*
X14722143Y-16680357D01*
X14722143Y-16666071D01*
X14707857Y-16637500D01*
X14679286Y-16623214D01*
X14636428Y-16623214D01*
X14607857Y-16608929D01*
X14593571Y-16580357D01*
X14593571Y-16566071D01*
X14607857Y-16537500D01*
X14636428Y-16523214D01*
X14679286Y-16523214D01*
X14707857Y-16537500D01*
X14822143Y-16837500D02*
X14836428Y-16823214D01*
X14865000Y-16780357D01*
X14879286Y-16751786D01*
X14893571Y-16708929D01*
X14907857Y-16637500D01*
X14907857Y-16580357D01*
X14893571Y-16508929D01*
X14879286Y-16466071D01*
X14865000Y-16437500D01*
X14836428Y-16394643D01*
X14822143Y-16380357D01*
X8050000Y-16983500D02*
G75*
G03X8050000Y-16983500I-15000J0D01*
G01*
X8393571Y-16819214D02*
X8422143Y-16819214D01*
X8450714Y-16833500D01*
X8465000Y-16847786D01*
X8479286Y-16876357D01*
X8493571Y-16933500D01*
X8493571Y-17004929D01*
X8479286Y-17062072D01*
X8465000Y-17090643D01*
X8450714Y-17104929D01*
X8422143Y-17119214D01*
X8393571Y-17119214D01*
X8365000Y-17104929D01*
X8350714Y-17090643D01*
X8336428Y-17062072D01*
X8322143Y-17004929D01*
X8322143Y-16933500D01*
X8336428Y-16876357D01*
X8350714Y-16847786D01*
X8365000Y-16833500D01*
X8393571Y-16819214D01*
X8622143Y-17090643D02*
X8636429Y-17104929D01*
X8622143Y-17119214D01*
X8607857Y-17104929D01*
X8622143Y-17090643D01*
X8622143Y-17119214D01*
X8736429Y-16819214D02*
X8922143Y-16819214D01*
X8822143Y-16933500D01*
X8865000Y-16933500D01*
X8893571Y-16947786D01*
X8907857Y-16962072D01*
X8922143Y-16990643D01*
X8922143Y-17062072D01*
X8907857Y-17090643D01*
X8893571Y-17104929D01*
X8865000Y-17119214D01*
X8779286Y-17119214D01*
X8750714Y-17104929D01*
X8736429Y-17090643D01*
X9107857Y-16819214D02*
X9136429Y-16819214D01*
X9165000Y-16833500D01*
X9179286Y-16847786D01*
X9193571Y-16876357D01*
X9207857Y-16933500D01*
X9207857Y-17004929D01*
X9193571Y-17062072D01*
X9179286Y-17090643D01*
X9165000Y-17104929D01*
X9136429Y-17119214D01*
X9107857Y-17119214D01*
X9079286Y-17104929D01*
X9065000Y-17090643D01*
X9050714Y-17062072D01*
X9036429Y-17004929D01*
X9036429Y-16933500D01*
X9050714Y-16876357D01*
X9065000Y-16847786D01*
X9079286Y-16833500D01*
X9107857Y-16819214D01*
X9336429Y-17119214D02*
X9336429Y-16919214D01*
X9336429Y-16947786D02*
X9350714Y-16933500D01*
X9379286Y-16919214D01*
X9422143Y-16919214D01*
X9450714Y-16933500D01*
X9465000Y-16962072D01*
X9465000Y-17119214D01*
X9465000Y-16962072D02*
X9479286Y-16933500D01*
X9507857Y-16919214D01*
X9550714Y-16919214D01*
X9579286Y-16933500D01*
X9593571Y-16962072D01*
X9593571Y-17119214D01*
X9736429Y-17119214D02*
X9736429Y-16919214D01*
X9736429Y-16947786D02*
X9750714Y-16933500D01*
X9779286Y-16919214D01*
X9822143Y-16919214D01*
X9850714Y-16933500D01*
X9865000Y-16962072D01*
X9865000Y-17119214D01*
X9865000Y-16962072D02*
X9879286Y-16933500D01*
X9907857Y-16919214D01*
X9950714Y-16919214D01*
X9979286Y-16933500D01*
X9993571Y-16962072D01*
X9993571Y-17119214D01*
X10579286Y-16804929D02*
X10322143Y-17190643D01*
X10965000Y-16819214D02*
X10993571Y-16819214D01*
X11022143Y-16833500D01*
X11036429Y-16847786D01*
X11050714Y-16876357D01*
X11065000Y-16933500D01*
X11065000Y-17004929D01*
X11050714Y-17062072D01*
X11036429Y-17090643D01*
X11022143Y-17104929D01*
X10993571Y-17119214D01*
X10965000Y-17119214D01*
X10936429Y-17104929D01*
X10922143Y-17090643D01*
X10907857Y-17062072D01*
X10893571Y-17004929D01*
X10893571Y-16933500D01*
X10907857Y-16876357D01*
X10922143Y-16847786D01*
X10936429Y-16833500D01*
X10965000Y-16819214D01*
X11193571Y-17090643D02*
X11207857Y-17104929D01*
X11193571Y-17119214D01*
X11179286Y-17104929D01*
X11193571Y-17090643D01*
X11193571Y-17119214D01*
X11393571Y-16819214D02*
X11422143Y-16819214D01*
X11450714Y-16833500D01*
X11465000Y-16847786D01*
X11479286Y-16876357D01*
X11493571Y-16933500D01*
X11493571Y-17004929D01*
X11479286Y-17062072D01*
X11465000Y-17090643D01*
X11450714Y-17104929D01*
X11422143Y-17119214D01*
X11393571Y-17119214D01*
X11365000Y-17104929D01*
X11350714Y-17090643D01*
X11336428Y-17062072D01*
X11322143Y-17004929D01*
X11322143Y-16933500D01*
X11336428Y-16876357D01*
X11350714Y-16847786D01*
X11365000Y-16833500D01*
X11393571Y-16819214D01*
X11779286Y-17119214D02*
X11607857Y-17119214D01*
X11693571Y-17119214D02*
X11693571Y-16819214D01*
X11665000Y-16862072D01*
X11636428Y-16890643D01*
X11607857Y-16904929D01*
X11893571Y-16847786D02*
X11907857Y-16833500D01*
X11936428Y-16819214D01*
X12007857Y-16819214D01*
X12036428Y-16833500D01*
X12050714Y-16847786D01*
X12065000Y-16876357D01*
X12065000Y-16904929D01*
X12050714Y-16947786D01*
X11879286Y-17119214D01*
X12065000Y-17119214D01*
X12179286Y-16819214D02*
X12179286Y-16876357D01*
X12293571Y-16819214D02*
X12293571Y-16876357D01*
X12736428Y-17233500D02*
X12722143Y-17219214D01*
X12693571Y-17176357D01*
X12679286Y-17147786D01*
X12665000Y-17104929D01*
X12650714Y-17033500D01*
X12650714Y-16976357D01*
X12665000Y-16904929D01*
X12679286Y-16862072D01*
X12693571Y-16833500D01*
X12722143Y-16790643D01*
X12736428Y-16776357D01*
X12836428Y-16847786D02*
X12850714Y-16833500D01*
X12879286Y-16819214D01*
X12950714Y-16819214D01*
X12979286Y-16833500D01*
X12993571Y-16847786D01*
X13007857Y-16876357D01*
X13007857Y-16904929D01*
X12993571Y-16947786D01*
X12822143Y-17119214D01*
X13007857Y-17119214D01*
X13293571Y-17119214D02*
X13122143Y-17119214D01*
X13207857Y-17119214D02*
X13207857Y-16819214D01*
X13179286Y-16862072D01*
X13150714Y-16890643D01*
X13122143Y-16904929D01*
X13393571Y-16819214D02*
X13593571Y-16819214D01*
X13465000Y-17119214D01*
X13936428Y-17119214D02*
X13936428Y-16819214D01*
X14065000Y-17119214D02*
X14065000Y-16962072D01*
X14050714Y-16933500D01*
X14022143Y-16919214D01*
X13979286Y-16919214D01*
X13950714Y-16933500D01*
X13936428Y-16947786D01*
X14250714Y-17119214D02*
X14222143Y-17104929D01*
X14207857Y-17090643D01*
X14193571Y-17062072D01*
X14193571Y-16976357D01*
X14207857Y-16947786D01*
X14222143Y-16933500D01*
X14250714Y-16919214D01*
X14293571Y-16919214D01*
X14322143Y-16933500D01*
X14336428Y-16947786D01*
X14350714Y-16976357D01*
X14350714Y-17062072D01*
X14336428Y-17090643D01*
X14322143Y-17104929D01*
X14293571Y-17119214D01*
X14250714Y-17119214D01*
X14522143Y-17119214D02*
X14493571Y-17104929D01*
X14479286Y-17076357D01*
X14479286Y-16819214D01*
X14750714Y-17104929D02*
X14722143Y-17119214D01*
X14665000Y-17119214D01*
X14636428Y-17104929D01*
X14622143Y-17076357D01*
X14622143Y-16962072D01*
X14636428Y-16933500D01*
X14665000Y-16919214D01*
X14722143Y-16919214D01*
X14750714Y-16933500D01*
X14765000Y-16962072D01*
X14765000Y-16990643D01*
X14622143Y-17019214D01*
X14879286Y-17104929D02*
X14907857Y-17119214D01*
X14965000Y-17119214D01*
X14993571Y-17104929D01*
X15007857Y-17076357D01*
X15007857Y-17062072D01*
X14993571Y-17033500D01*
X14965000Y-17019214D01*
X14922143Y-17019214D01*
X14893571Y-17004929D01*
X14879286Y-16976357D01*
X14879286Y-16962072D01*
X14893571Y-16933500D01*
X14922143Y-16919214D01*
X14965000Y-16919214D01*
X14993571Y-16933500D01*
X15107857Y-17233500D02*
X15122143Y-17219214D01*
X15150714Y-17176357D01*
X15165000Y-17147786D01*
X15179286Y-17104929D01*
X15193571Y-17033500D01*
X15193571Y-16976357D01*
X15179286Y-16904929D01*
X15165000Y-16862072D01*
X15150714Y-16833500D01*
X15122143Y-16790643D01*
X15107857Y-16776357D01*
X8030000Y-17359500D02*
X8030000Y-17399500D01*
X8010000Y-17379500D02*
X8050000Y-17379500D01*
X8393571Y-17215214D02*
X8422143Y-17215214D01*
X8450714Y-17229500D01*
X8465000Y-17243786D01*
X8479286Y-17272357D01*
X8493571Y-17329500D01*
X8493571Y-17400929D01*
X8479286Y-17458072D01*
X8465000Y-17486643D01*
X8450714Y-17500929D01*
X8422143Y-17515214D01*
X8393571Y-17515214D01*
X8365000Y-17500929D01*
X8350714Y-17486643D01*
X8336428Y-17458072D01*
X8322143Y-17400929D01*
X8322143Y-17329500D01*
X8336428Y-17272357D01*
X8350714Y-17243786D01*
X8365000Y-17229500D01*
X8393571Y-17215214D01*
X8622143Y-17486643D02*
X8636429Y-17500929D01*
X8622143Y-17515214D01*
X8607857Y-17500929D01*
X8622143Y-17486643D01*
X8622143Y-17515214D01*
X8893571Y-17315214D02*
X8893571Y-17515214D01*
X8822143Y-17200929D02*
X8750714Y-17415214D01*
X8936429Y-17415214D01*
X9107857Y-17215214D02*
X9136429Y-17215214D01*
X9165000Y-17229500D01*
X9179286Y-17243786D01*
X9193571Y-17272357D01*
X9207857Y-17329500D01*
X9207857Y-17400929D01*
X9193571Y-17458072D01*
X9179286Y-17486643D01*
X9165000Y-17500929D01*
X9136429Y-17515214D01*
X9107857Y-17515214D01*
X9079286Y-17500929D01*
X9065000Y-17486643D01*
X9050714Y-17458072D01*
X9036429Y-17400929D01*
X9036429Y-17329500D01*
X9050714Y-17272357D01*
X9065000Y-17243786D01*
X9079286Y-17229500D01*
X9107857Y-17215214D01*
X9336429Y-17515214D02*
X9336429Y-17315214D01*
X9336429Y-17343786D02*
X9350714Y-17329500D01*
X9379286Y-17315214D01*
X9422143Y-17315214D01*
X9450714Y-17329500D01*
X9465000Y-17358072D01*
X9465000Y-17515214D01*
X9465000Y-17358072D02*
X9479286Y-17329500D01*
X9507857Y-17315214D01*
X9550714Y-17315214D01*
X9579286Y-17329500D01*
X9593571Y-17358072D01*
X9593571Y-17515214D01*
X9736429Y-17515214D02*
X9736429Y-17315214D01*
X9736429Y-17343786D02*
X9750714Y-17329500D01*
X9779286Y-17315214D01*
X9822143Y-17315214D01*
X9850714Y-17329500D01*
X9865000Y-17358072D01*
X9865000Y-17515214D01*
X9865000Y-17358072D02*
X9879286Y-17329500D01*
X9907857Y-17315214D01*
X9950714Y-17315214D01*
X9979286Y-17329500D01*
X9993571Y-17358072D01*
X9993571Y-17515214D01*
X10579286Y-17200929D02*
X10322143Y-17586643D01*
X10965000Y-17215214D02*
X10993571Y-17215214D01*
X11022143Y-17229500D01*
X11036429Y-17243786D01*
X11050714Y-17272357D01*
X11065000Y-17329500D01*
X11065000Y-17400929D01*
X11050714Y-17458072D01*
X11036429Y-17486643D01*
X11022143Y-17500929D01*
X10993571Y-17515214D01*
X10965000Y-17515214D01*
X10936429Y-17500929D01*
X10922143Y-17486643D01*
X10907857Y-17458072D01*
X10893571Y-17400929D01*
X10893571Y-17329500D01*
X10907857Y-17272357D01*
X10922143Y-17243786D01*
X10936429Y-17229500D01*
X10965000Y-17215214D01*
X11193571Y-17486643D02*
X11207857Y-17500929D01*
X11193571Y-17515214D01*
X11179286Y-17500929D01*
X11193571Y-17486643D01*
X11193571Y-17515214D01*
X11393571Y-17215214D02*
X11422143Y-17215214D01*
X11450714Y-17229500D01*
X11465000Y-17243786D01*
X11479286Y-17272357D01*
X11493571Y-17329500D01*
X11493571Y-17400929D01*
X11479286Y-17458072D01*
X11465000Y-17486643D01*
X11450714Y-17500929D01*
X11422143Y-17515214D01*
X11393571Y-17515214D01*
X11365000Y-17500929D01*
X11350714Y-17486643D01*
X11336428Y-17458072D01*
X11322143Y-17400929D01*
X11322143Y-17329500D01*
X11336428Y-17272357D01*
X11350714Y-17243786D01*
X11365000Y-17229500D01*
X11393571Y-17215214D01*
X11779286Y-17515214D02*
X11607857Y-17515214D01*
X11693571Y-17515214D02*
X11693571Y-17215214D01*
X11665000Y-17258072D01*
X11636428Y-17286643D01*
X11607857Y-17300929D01*
X12036428Y-17215214D02*
X11979286Y-17215214D01*
X11950714Y-17229500D01*
X11936428Y-17243786D01*
X11907857Y-17286643D01*
X11893571Y-17343786D01*
X11893571Y-17458072D01*
X11907857Y-17486643D01*
X11922143Y-17500929D01*
X11950714Y-17515214D01*
X12007857Y-17515214D01*
X12036428Y-17500929D01*
X12050714Y-17486643D01*
X12065000Y-17458072D01*
X12065000Y-17386643D01*
X12050714Y-17358072D01*
X12036428Y-17343786D01*
X12007857Y-17329500D01*
X11950714Y-17329500D01*
X11922143Y-17343786D01*
X11907857Y-17358072D01*
X11893571Y-17386643D01*
X12179286Y-17215214D02*
X12179286Y-17272357D01*
X12293571Y-17215214D02*
X12293571Y-17272357D01*
X12736428Y-17629500D02*
X12722143Y-17615214D01*
X12693571Y-17572357D01*
X12679286Y-17543786D01*
X12665000Y-17500929D01*
X12650714Y-17429500D01*
X12650714Y-17372357D01*
X12665000Y-17300929D01*
X12679286Y-17258072D01*
X12693571Y-17229500D01*
X12722143Y-17186643D01*
X12736428Y-17172357D01*
X13007857Y-17515214D02*
X12836428Y-17515214D01*
X12922143Y-17515214D02*
X12922143Y-17215214D01*
X12893571Y-17258072D01*
X12865000Y-17286643D01*
X12836428Y-17300929D01*
X13107857Y-17215214D02*
X13307857Y-17215214D01*
X13179286Y-17515214D01*
X13579286Y-17515214D02*
X13407857Y-17515214D01*
X13493571Y-17515214D02*
X13493571Y-17215214D01*
X13465000Y-17258072D01*
X13436428Y-17286643D01*
X13407857Y-17300929D01*
X13936428Y-17515214D02*
X13936428Y-17215214D01*
X14065000Y-17515214D02*
X14065000Y-17358072D01*
X14050714Y-17329500D01*
X14022143Y-17315214D01*
X13979286Y-17315214D01*
X13950714Y-17329500D01*
X13936428Y-17343786D01*
X14250714Y-17515214D02*
X14222143Y-17500929D01*
X14207857Y-17486643D01*
X14193571Y-17458072D01*
X14193571Y-17372357D01*
X14207857Y-17343786D01*
X14222143Y-17329500D01*
X14250714Y-17315214D01*
X14293571Y-17315214D01*
X14322143Y-17329500D01*
X14336428Y-17343786D01*
X14350714Y-17372357D01*
X14350714Y-17458072D01*
X14336428Y-17486643D01*
X14322143Y-17500929D01*
X14293571Y-17515214D01*
X14250714Y-17515214D01*
X14522143Y-17515214D02*
X14493571Y-17500929D01*
X14479286Y-17472357D01*
X14479286Y-17215214D01*
X14750714Y-17500929D02*
X14722143Y-17515214D01*
X14665000Y-17515214D01*
X14636428Y-17500929D01*
X14622143Y-17472357D01*
X14622143Y-17358072D01*
X14636428Y-17329500D01*
X14665000Y-17315214D01*
X14722143Y-17315214D01*
X14750714Y-17329500D01*
X14765000Y-17358072D01*
X14765000Y-17386643D01*
X14622143Y-17415214D01*
X14879286Y-17500929D02*
X14907857Y-17515214D01*
X14965000Y-17515214D01*
X14993571Y-17500929D01*
X15007857Y-17472357D01*
X15007857Y-17458072D01*
X14993571Y-17429500D01*
X14965000Y-17415214D01*
X14922143Y-17415214D01*
X14893571Y-17400929D01*
X14879286Y-17372357D01*
X14879286Y-17358072D01*
X14893571Y-17329500D01*
X14922143Y-17315214D01*
X14965000Y-17315214D01*
X14993571Y-17329500D01*
X15107857Y-17629500D02*
X15122143Y-17615214D01*
X15150714Y-17572357D01*
X15165000Y-17543786D01*
X15179286Y-17500929D01*
X15193571Y-17429500D01*
X15193571Y-17372357D01*
X15179286Y-17300929D01*
X15165000Y-17258072D01*
X15150714Y-17229500D01*
X15122143Y-17186643D01*
X15107857Y-17172357D01*
X8042678Y-17793178D02*
X8042678Y-17757822D01*
X8007322Y-17757822D01*
X8007322Y-17793178D01*
X8042678Y-17793178D01*
X8393571Y-17611214D02*
X8422143Y-17611214D01*
X8450714Y-17625500D01*
X8465000Y-17639786D01*
X8479286Y-17668357D01*
X8493571Y-17725500D01*
X8493571Y-17796929D01*
X8479286Y-17854072D01*
X8465000Y-17882643D01*
X8450714Y-17896929D01*
X8422143Y-17911214D01*
X8393571Y-17911214D01*
X8365000Y-17896929D01*
X8350714Y-17882643D01*
X8336428Y-17854072D01*
X8322143Y-17796929D01*
X8322143Y-17725500D01*
X8336428Y-17668357D01*
X8350714Y-17639786D01*
X8365000Y-17625500D01*
X8393571Y-17611214D01*
X8622143Y-17882643D02*
X8636429Y-17896929D01*
X8622143Y-17911214D01*
X8607857Y-17896929D01*
X8622143Y-17882643D01*
X8622143Y-17911214D01*
X8907857Y-17611214D02*
X8765000Y-17611214D01*
X8750714Y-17754072D01*
X8765000Y-17739786D01*
X8793571Y-17725500D01*
X8865000Y-17725500D01*
X8893571Y-17739786D01*
X8907857Y-17754072D01*
X8922143Y-17782643D01*
X8922143Y-17854072D01*
X8907857Y-17882643D01*
X8893571Y-17896929D01*
X8865000Y-17911214D01*
X8793571Y-17911214D01*
X8765000Y-17896929D01*
X8750714Y-17882643D01*
X9107857Y-17611214D02*
X9136429Y-17611214D01*
X9165000Y-17625500D01*
X9179286Y-17639786D01*
X9193571Y-17668357D01*
X9207857Y-17725500D01*
X9207857Y-17796929D01*
X9193571Y-17854072D01*
X9179286Y-17882643D01*
X9165000Y-17896929D01*
X9136429Y-17911214D01*
X9107857Y-17911214D01*
X9079286Y-17896929D01*
X9065000Y-17882643D01*
X9050714Y-17854072D01*
X9036429Y-17796929D01*
X9036429Y-17725500D01*
X9050714Y-17668357D01*
X9065000Y-17639786D01*
X9079286Y-17625500D01*
X9107857Y-17611214D01*
X9336429Y-17911214D02*
X9336429Y-17711214D01*
X9336429Y-17739786D02*
X9350714Y-17725500D01*
X9379286Y-17711214D01*
X9422143Y-17711214D01*
X9450714Y-17725500D01*
X9465000Y-17754072D01*
X9465000Y-17911214D01*
X9465000Y-17754072D02*
X9479286Y-17725500D01*
X9507857Y-17711214D01*
X9550714Y-17711214D01*
X9579286Y-17725500D01*
X9593571Y-17754072D01*
X9593571Y-17911214D01*
X9736429Y-17911214D02*
X9736429Y-17711214D01*
X9736429Y-17739786D02*
X9750714Y-17725500D01*
X9779286Y-17711214D01*
X9822143Y-17711214D01*
X9850714Y-17725500D01*
X9865000Y-17754072D01*
X9865000Y-17911214D01*
X9865000Y-17754072D02*
X9879286Y-17725500D01*
X9907857Y-17711214D01*
X9950714Y-17711214D01*
X9979286Y-17725500D01*
X9993571Y-17754072D01*
X9993571Y-17911214D01*
X10579286Y-17596929D02*
X10322143Y-17982643D01*
X10965000Y-17611214D02*
X10993571Y-17611214D01*
X11022143Y-17625500D01*
X11036429Y-17639786D01*
X11050714Y-17668357D01*
X11065000Y-17725500D01*
X11065000Y-17796929D01*
X11050714Y-17854072D01*
X11036429Y-17882643D01*
X11022143Y-17896929D01*
X10993571Y-17911214D01*
X10965000Y-17911214D01*
X10936429Y-17896929D01*
X10922143Y-17882643D01*
X10907857Y-17854072D01*
X10893571Y-17796929D01*
X10893571Y-17725500D01*
X10907857Y-17668357D01*
X10922143Y-17639786D01*
X10936429Y-17625500D01*
X10965000Y-17611214D01*
X11193571Y-17882643D02*
X11207857Y-17896929D01*
X11193571Y-17911214D01*
X11179286Y-17896929D01*
X11193571Y-17882643D01*
X11193571Y-17911214D01*
X11393571Y-17611214D02*
X11422143Y-17611214D01*
X11450714Y-17625500D01*
X11465000Y-17639786D01*
X11479286Y-17668357D01*
X11493571Y-17725500D01*
X11493571Y-17796929D01*
X11479286Y-17854072D01*
X11465000Y-17882643D01*
X11450714Y-17896929D01*
X11422143Y-17911214D01*
X11393571Y-17911214D01*
X11365000Y-17896929D01*
X11350714Y-17882643D01*
X11336428Y-17854072D01*
X11322143Y-17796929D01*
X11322143Y-17725500D01*
X11336428Y-17668357D01*
X11350714Y-17639786D01*
X11365000Y-17625500D01*
X11393571Y-17611214D01*
X11607857Y-17639786D02*
X11622143Y-17625500D01*
X11650714Y-17611214D01*
X11722143Y-17611214D01*
X11750714Y-17625500D01*
X11765000Y-17639786D01*
X11779286Y-17668357D01*
X11779286Y-17696929D01*
X11765000Y-17739786D01*
X11593571Y-17911214D01*
X11779286Y-17911214D01*
X11965000Y-17611214D02*
X11993571Y-17611214D01*
X12022143Y-17625500D01*
X12036428Y-17639786D01*
X12050714Y-17668357D01*
X12065000Y-17725500D01*
X12065000Y-17796929D01*
X12050714Y-17854072D01*
X12036428Y-17882643D01*
X12022143Y-17896929D01*
X11993571Y-17911214D01*
X11965000Y-17911214D01*
X11936428Y-17896929D01*
X11922143Y-17882643D01*
X11907857Y-17854072D01*
X11893571Y-17796929D01*
X11893571Y-17725500D01*
X11907857Y-17668357D01*
X11922143Y-17639786D01*
X11936428Y-17625500D01*
X11965000Y-17611214D01*
X12179286Y-17611214D02*
X12179286Y-17668357D01*
X12293571Y-17611214D02*
X12293571Y-17668357D01*
X12736428Y-18025500D02*
X12722143Y-18011214D01*
X12693571Y-17968357D01*
X12679286Y-17939786D01*
X12665000Y-17896929D01*
X12650714Y-17825500D01*
X12650714Y-17768357D01*
X12665000Y-17696929D01*
X12679286Y-17654072D01*
X12693571Y-17625500D01*
X12722143Y-17582643D01*
X12736428Y-17568357D01*
X12822143Y-17611214D02*
X13007857Y-17611214D01*
X12907857Y-17725500D01*
X12950714Y-17725500D01*
X12979286Y-17739786D01*
X12993571Y-17754072D01*
X13007857Y-17782643D01*
X13007857Y-17854072D01*
X12993571Y-17882643D01*
X12979286Y-17896929D01*
X12950714Y-17911214D01*
X12865000Y-17911214D01*
X12836428Y-17896929D01*
X12822143Y-17882643D01*
X13193571Y-17611214D02*
X13222143Y-17611214D01*
X13250714Y-17625500D01*
X13265000Y-17639786D01*
X13279286Y-17668357D01*
X13293571Y-17725500D01*
X13293571Y-17796929D01*
X13279286Y-17854072D01*
X13265000Y-17882643D01*
X13250714Y-17896929D01*
X13222143Y-17911214D01*
X13193571Y-17911214D01*
X13165000Y-17896929D01*
X13150714Y-17882643D01*
X13136428Y-17854072D01*
X13122143Y-17796929D01*
X13122143Y-17725500D01*
X13136428Y-17668357D01*
X13150714Y-17639786D01*
X13165000Y-17625500D01*
X13193571Y-17611214D01*
X13650714Y-17911214D02*
X13650714Y-17611214D01*
X13779286Y-17911214D02*
X13779286Y-17754072D01*
X13765000Y-17725500D01*
X13736428Y-17711214D01*
X13693571Y-17711214D01*
X13665000Y-17725500D01*
X13650714Y-17739786D01*
X13965000Y-17911214D02*
X13936428Y-17896929D01*
X13922143Y-17882643D01*
X13907857Y-17854072D01*
X13907857Y-17768357D01*
X13922143Y-17739786D01*
X13936428Y-17725500D01*
X13965000Y-17711214D01*
X14007857Y-17711214D01*
X14036428Y-17725500D01*
X14050714Y-17739786D01*
X14065000Y-17768357D01*
X14065000Y-17854072D01*
X14050714Y-17882643D01*
X14036428Y-17896929D01*
X14007857Y-17911214D01*
X13965000Y-17911214D01*
X14236428Y-17911214D02*
X14207857Y-17896929D01*
X14193571Y-17868357D01*
X14193571Y-17611214D01*
X14465000Y-17896929D02*
X14436428Y-17911214D01*
X14379286Y-17911214D01*
X14350714Y-17896929D01*
X14336428Y-17868357D01*
X14336428Y-17754072D01*
X14350714Y-17725500D01*
X14379286Y-17711214D01*
X14436428Y-17711214D01*
X14465000Y-17725500D01*
X14479286Y-17754072D01*
X14479286Y-17782643D01*
X14336428Y-17811214D01*
X14593571Y-17896929D02*
X14622143Y-17911214D01*
X14679286Y-17911214D01*
X14707857Y-17896929D01*
X14722143Y-17868357D01*
X14722143Y-17854072D01*
X14707857Y-17825500D01*
X14679286Y-17811214D01*
X14636428Y-17811214D01*
X14607857Y-17796929D01*
X14593571Y-17768357D01*
X14593571Y-17754072D01*
X14607857Y-17725500D01*
X14636428Y-17711214D01*
X14679286Y-17711214D01*
X14707857Y-17725500D01*
X14822143Y-18025500D02*
X14836428Y-18011214D01*
X14865000Y-17968357D01*
X14879286Y-17939786D01*
X14893571Y-17896929D01*
X14907857Y-17825500D01*
X14907857Y-17768357D01*
X14893571Y-17696929D01*
X14879286Y-17654072D01*
X14865000Y-17625500D01*
X14836428Y-17582643D01*
X14822143Y-17568357D01*
X8020000Y-18201500D02*
X8050000Y-18171500D01*
X8020000Y-18141500D01*
X7990000Y-18171500D01*
X8020000Y-18201500D01*
X8393571Y-18007214D02*
X8422143Y-18007214D01*
X8450714Y-18021500D01*
X8465000Y-18035786D01*
X8479286Y-18064357D01*
X8493571Y-18121500D01*
X8493571Y-18192929D01*
X8479286Y-18250072D01*
X8465000Y-18278643D01*
X8450714Y-18292929D01*
X8422143Y-18307214D01*
X8393571Y-18307214D01*
X8365000Y-18292929D01*
X8350714Y-18278643D01*
X8336428Y-18250072D01*
X8322143Y-18192929D01*
X8322143Y-18121500D01*
X8336428Y-18064357D01*
X8350714Y-18035786D01*
X8365000Y-18021500D01*
X8393571Y-18007214D01*
X8622143Y-18278643D02*
X8636429Y-18292929D01*
X8622143Y-18307214D01*
X8607857Y-18292929D01*
X8622143Y-18278643D01*
X8622143Y-18307214D01*
X8893571Y-18007214D02*
X8836429Y-18007214D01*
X8807857Y-18021500D01*
X8793571Y-18035786D01*
X8765000Y-18078643D01*
X8750714Y-18135786D01*
X8750714Y-18250072D01*
X8765000Y-18278643D01*
X8779286Y-18292929D01*
X8807857Y-18307214D01*
X8865000Y-18307214D01*
X8893571Y-18292929D01*
X8907857Y-18278643D01*
X8922143Y-18250072D01*
X8922143Y-18178643D01*
X8907857Y-18150072D01*
X8893571Y-18135786D01*
X8865000Y-18121500D01*
X8807857Y-18121500D01*
X8779286Y-18135786D01*
X8765000Y-18150072D01*
X8750714Y-18178643D01*
X9107857Y-18007214D02*
X9136429Y-18007214D01*
X9165000Y-18021500D01*
X9179286Y-18035786D01*
X9193571Y-18064357D01*
X9207857Y-18121500D01*
X9207857Y-18192929D01*
X9193571Y-18250072D01*
X9179286Y-18278643D01*
X9165000Y-18292929D01*
X9136429Y-18307214D01*
X9107857Y-18307214D01*
X9079286Y-18292929D01*
X9065000Y-18278643D01*
X9050714Y-18250072D01*
X9036429Y-18192929D01*
X9036429Y-18121500D01*
X9050714Y-18064357D01*
X9065000Y-18035786D01*
X9079286Y-18021500D01*
X9107857Y-18007214D01*
X9336429Y-18307214D02*
X9336429Y-18107214D01*
X9336429Y-18135786D02*
X9350714Y-18121500D01*
X9379286Y-18107214D01*
X9422143Y-18107214D01*
X9450714Y-18121500D01*
X9465000Y-18150072D01*
X9465000Y-18307214D01*
X9465000Y-18150072D02*
X9479286Y-18121500D01*
X9507857Y-18107214D01*
X9550714Y-18107214D01*
X9579286Y-18121500D01*
X9593571Y-18150072D01*
X9593571Y-18307214D01*
X9736429Y-18307214D02*
X9736429Y-18107214D01*
X9736429Y-18135786D02*
X9750714Y-18121500D01*
X9779286Y-18107214D01*
X9822143Y-18107214D01*
X9850714Y-18121500D01*
X9865000Y-18150072D01*
X9865000Y-18307214D01*
X9865000Y-18150072D02*
X9879286Y-18121500D01*
X9907857Y-18107214D01*
X9950714Y-18107214D01*
X9979286Y-18121500D01*
X9993571Y-18150072D01*
X9993571Y-18307214D01*
X10579286Y-17992929D02*
X10322143Y-18378643D01*
X10965000Y-18007214D02*
X10993571Y-18007214D01*
X11022143Y-18021500D01*
X11036429Y-18035786D01*
X11050714Y-18064357D01*
X11065000Y-18121500D01*
X11065000Y-18192929D01*
X11050714Y-18250072D01*
X11036429Y-18278643D01*
X11022143Y-18292929D01*
X10993571Y-18307214D01*
X10965000Y-18307214D01*
X10936429Y-18292929D01*
X10922143Y-18278643D01*
X10907857Y-18250072D01*
X10893571Y-18192929D01*
X10893571Y-18121500D01*
X10907857Y-18064357D01*
X10922143Y-18035786D01*
X10936429Y-18021500D01*
X10965000Y-18007214D01*
X11193571Y-18278643D02*
X11207857Y-18292929D01*
X11193571Y-18307214D01*
X11179286Y-18292929D01*
X11193571Y-18278643D01*
X11193571Y-18307214D01*
X11393571Y-18007214D02*
X11422143Y-18007214D01*
X11450714Y-18021500D01*
X11465000Y-18035786D01*
X11479286Y-18064357D01*
X11493571Y-18121500D01*
X11493571Y-18192929D01*
X11479286Y-18250072D01*
X11465000Y-18278643D01*
X11450714Y-18292929D01*
X11422143Y-18307214D01*
X11393571Y-18307214D01*
X11365000Y-18292929D01*
X11350714Y-18278643D01*
X11336428Y-18250072D01*
X11322143Y-18192929D01*
X11322143Y-18121500D01*
X11336428Y-18064357D01*
X11350714Y-18035786D01*
X11365000Y-18021500D01*
X11393571Y-18007214D01*
X11607857Y-18035786D02*
X11622143Y-18021500D01*
X11650714Y-18007214D01*
X11722143Y-18007214D01*
X11750714Y-18021500D01*
X11765000Y-18035786D01*
X11779286Y-18064357D01*
X11779286Y-18092929D01*
X11765000Y-18135786D01*
X11593571Y-18307214D01*
X11779286Y-18307214D01*
X12036428Y-18107214D02*
X12036428Y-18307214D01*
X11965000Y-17992929D02*
X11893571Y-18207214D01*
X12079286Y-18207214D01*
X12179286Y-18007214D02*
X12179286Y-18064357D01*
X12293571Y-18007214D02*
X12293571Y-18064357D01*
X12736428Y-18421500D02*
X12722143Y-18407214D01*
X12693571Y-18364357D01*
X12679286Y-18335786D01*
X12665000Y-18292929D01*
X12650714Y-18221500D01*
X12650714Y-18164357D01*
X12665000Y-18092929D01*
X12679286Y-18050072D01*
X12693571Y-18021500D01*
X12722143Y-17978643D01*
X12736428Y-17964357D01*
X12822143Y-18007214D02*
X13007857Y-18007214D01*
X12907857Y-18121500D01*
X12950714Y-18121500D01*
X12979286Y-18135786D01*
X12993571Y-18150072D01*
X13007857Y-18178643D01*
X13007857Y-18250072D01*
X12993571Y-18278643D01*
X12979286Y-18292929D01*
X12950714Y-18307214D01*
X12865000Y-18307214D01*
X12836428Y-18292929D01*
X12822143Y-18278643D01*
X13279286Y-18007214D02*
X13136428Y-18007214D01*
X13122143Y-18150072D01*
X13136428Y-18135786D01*
X13165000Y-18121500D01*
X13236428Y-18121500D01*
X13265000Y-18135786D01*
X13279286Y-18150072D01*
X13293571Y-18178643D01*
X13293571Y-18250072D01*
X13279286Y-18278643D01*
X13265000Y-18292929D01*
X13236428Y-18307214D01*
X13165000Y-18307214D01*
X13136428Y-18292929D01*
X13122143Y-18278643D01*
X13650714Y-18307214D02*
X13650714Y-18007214D01*
X13779286Y-18307214D02*
X13779286Y-18150072D01*
X13765000Y-18121500D01*
X13736428Y-18107214D01*
X13693571Y-18107214D01*
X13665000Y-18121500D01*
X13650714Y-18135786D01*
X13965000Y-18307214D02*
X13936428Y-18292929D01*
X13922143Y-18278643D01*
X13907857Y-18250072D01*
X13907857Y-18164357D01*
X13922143Y-18135786D01*
X13936428Y-18121500D01*
X13965000Y-18107214D01*
X14007857Y-18107214D01*
X14036428Y-18121500D01*
X14050714Y-18135786D01*
X14065000Y-18164357D01*
X14065000Y-18250072D01*
X14050714Y-18278643D01*
X14036428Y-18292929D01*
X14007857Y-18307214D01*
X13965000Y-18307214D01*
X14236428Y-18307214D02*
X14207857Y-18292929D01*
X14193571Y-18264357D01*
X14193571Y-18007214D01*
X14465000Y-18292929D02*
X14436428Y-18307214D01*
X14379286Y-18307214D01*
X14350714Y-18292929D01*
X14336428Y-18264357D01*
X14336428Y-18150072D01*
X14350714Y-18121500D01*
X14379286Y-18107214D01*
X14436428Y-18107214D01*
X14465000Y-18121500D01*
X14479286Y-18150072D01*
X14479286Y-18178643D01*
X14336428Y-18207214D01*
X14593571Y-18292929D02*
X14622143Y-18307214D01*
X14679286Y-18307214D01*
X14707857Y-18292929D01*
X14722143Y-18264357D01*
X14722143Y-18250072D01*
X14707857Y-18221500D01*
X14679286Y-18207214D01*
X14636428Y-18207214D01*
X14607857Y-18192929D01*
X14593571Y-18164357D01*
X14593571Y-18150072D01*
X14607857Y-18121500D01*
X14636428Y-18107214D01*
X14679286Y-18107214D01*
X14707857Y-18121500D01*
X14822143Y-18421500D02*
X14836428Y-18407214D01*
X14865000Y-18364357D01*
X14879286Y-18335786D01*
X14893571Y-18292929D01*
X14907857Y-18221500D01*
X14907857Y-18164357D01*
X14893571Y-18092929D01*
X14879286Y-18050072D01*
X14865000Y-18021500D01*
X14836428Y-17978643D01*
X14822143Y-17964357D01*
X7975000Y-18530000D02*
X8050000Y-18605000D01*
X8050000Y-18530000D02*
X7975000Y-18605000D01*
X8050000Y-18567500D02*
G75*
G03X8050000Y-18567500I-37500J0D01*
G01*
X8393571Y-18403214D02*
X8422143Y-18403214D01*
X8450714Y-18417500D01*
X8465000Y-18431786D01*
X8479286Y-18460357D01*
X8493571Y-18517500D01*
X8493571Y-18588929D01*
X8479286Y-18646072D01*
X8465000Y-18674643D01*
X8450714Y-18688929D01*
X8422143Y-18703214D01*
X8393571Y-18703214D01*
X8365000Y-18688929D01*
X8350714Y-18674643D01*
X8336428Y-18646072D01*
X8322143Y-18588929D01*
X8322143Y-18517500D01*
X8336428Y-18460357D01*
X8350714Y-18431786D01*
X8365000Y-18417500D01*
X8393571Y-18403214D01*
X8622143Y-18674643D02*
X8636429Y-18688929D01*
X8622143Y-18703214D01*
X8607857Y-18688929D01*
X8622143Y-18674643D01*
X8622143Y-18703214D01*
X8736429Y-18403214D02*
X8936429Y-18403214D01*
X8807857Y-18703214D01*
X9193571Y-18403214D02*
X9050714Y-18403214D01*
X9036429Y-18546072D01*
X9050714Y-18531786D01*
X9079286Y-18517500D01*
X9150714Y-18517500D01*
X9179286Y-18531786D01*
X9193571Y-18546072D01*
X9207857Y-18574643D01*
X9207857Y-18646072D01*
X9193571Y-18674643D01*
X9179286Y-18688929D01*
X9150714Y-18703214D01*
X9079286Y-18703214D01*
X9050714Y-18688929D01*
X9036429Y-18674643D01*
X9336429Y-18703214D02*
X9336429Y-18503214D01*
X9336429Y-18531786D02*
X9350714Y-18517500D01*
X9379286Y-18503214D01*
X9422143Y-18503214D01*
X9450714Y-18517500D01*
X9465000Y-18546072D01*
X9465000Y-18703214D01*
X9465000Y-18546072D02*
X9479286Y-18517500D01*
X9507857Y-18503214D01*
X9550714Y-18503214D01*
X9579286Y-18517500D01*
X9593571Y-18546072D01*
X9593571Y-18703214D01*
X9736429Y-18703214D02*
X9736429Y-18503214D01*
X9736429Y-18531786D02*
X9750714Y-18517500D01*
X9779286Y-18503214D01*
X9822143Y-18503214D01*
X9850714Y-18517500D01*
X9865000Y-18546072D01*
X9865000Y-18703214D01*
X9865000Y-18546072D02*
X9879286Y-18517500D01*
X9907857Y-18503214D01*
X9950714Y-18503214D01*
X9979286Y-18517500D01*
X9993571Y-18546072D01*
X9993571Y-18703214D01*
X10579286Y-18388929D02*
X10322143Y-18774643D01*
X10965000Y-18403214D02*
X10993571Y-18403214D01*
X11022143Y-18417500D01*
X11036429Y-18431786D01*
X11050714Y-18460357D01*
X11065000Y-18517500D01*
X11065000Y-18588929D01*
X11050714Y-18646072D01*
X11036429Y-18674643D01*
X11022143Y-18688929D01*
X10993571Y-18703214D01*
X10965000Y-18703214D01*
X10936429Y-18688929D01*
X10922143Y-18674643D01*
X10907857Y-18646072D01*
X10893571Y-18588929D01*
X10893571Y-18517500D01*
X10907857Y-18460357D01*
X10922143Y-18431786D01*
X10936429Y-18417500D01*
X10965000Y-18403214D01*
X11193571Y-18674643D02*
X11207857Y-18688929D01*
X11193571Y-18703214D01*
X11179286Y-18688929D01*
X11193571Y-18674643D01*
X11193571Y-18703214D01*
X11393571Y-18403214D02*
X11422143Y-18403214D01*
X11450714Y-18417500D01*
X11465000Y-18431786D01*
X11479286Y-18460357D01*
X11493571Y-18517500D01*
X11493571Y-18588929D01*
X11479286Y-18646072D01*
X11465000Y-18674643D01*
X11450714Y-18688929D01*
X11422143Y-18703214D01*
X11393571Y-18703214D01*
X11365000Y-18688929D01*
X11350714Y-18674643D01*
X11336428Y-18646072D01*
X11322143Y-18588929D01*
X11322143Y-18517500D01*
X11336428Y-18460357D01*
X11350714Y-18431786D01*
X11365000Y-18417500D01*
X11393571Y-18403214D01*
X11593571Y-18403214D02*
X11779286Y-18403214D01*
X11679286Y-18517500D01*
X11722143Y-18517500D01*
X11750714Y-18531786D01*
X11765000Y-18546072D01*
X11779286Y-18574643D01*
X11779286Y-18646072D01*
X11765000Y-18674643D01*
X11750714Y-18688929D01*
X11722143Y-18703214D01*
X11636428Y-18703214D01*
X11607857Y-18688929D01*
X11593571Y-18674643D01*
X11965000Y-18403214D02*
X11993571Y-18403214D01*
X12022143Y-18417500D01*
X12036428Y-18431786D01*
X12050714Y-18460357D01*
X12065000Y-18517500D01*
X12065000Y-18588929D01*
X12050714Y-18646072D01*
X12036428Y-18674643D01*
X12022143Y-18688929D01*
X11993571Y-18703214D01*
X11965000Y-18703214D01*
X11936428Y-18688929D01*
X11922143Y-18674643D01*
X11907857Y-18646072D01*
X11893571Y-18588929D01*
X11893571Y-18517500D01*
X11907857Y-18460357D01*
X11922143Y-18431786D01*
X11936428Y-18417500D01*
X11965000Y-18403214D01*
X12179286Y-18403214D02*
X12179286Y-18460357D01*
X12293571Y-18403214D02*
X12293571Y-18460357D01*
X12736428Y-18817500D02*
X12722143Y-18803214D01*
X12693571Y-18760357D01*
X12679286Y-18731786D01*
X12665000Y-18688929D01*
X12650714Y-18617500D01*
X12650714Y-18560357D01*
X12665000Y-18488929D01*
X12679286Y-18446072D01*
X12693571Y-18417500D01*
X12722143Y-18374643D01*
X12736428Y-18360357D01*
X12822143Y-18403214D02*
X13007857Y-18403214D01*
X12907857Y-18517500D01*
X12950714Y-18517500D01*
X12979286Y-18531786D01*
X12993571Y-18546072D01*
X13007857Y-18574643D01*
X13007857Y-18646072D01*
X12993571Y-18674643D01*
X12979286Y-18688929D01*
X12950714Y-18703214D01*
X12865000Y-18703214D01*
X12836428Y-18688929D01*
X12822143Y-18674643D01*
X13365000Y-18703214D02*
X13365000Y-18403214D01*
X13493571Y-18703214D02*
X13493571Y-18546072D01*
X13479286Y-18517500D01*
X13450714Y-18503214D01*
X13407857Y-18503214D01*
X13379286Y-18517500D01*
X13365000Y-18531786D01*
X13679286Y-18703214D02*
X13650714Y-18688929D01*
X13636428Y-18674643D01*
X13622143Y-18646072D01*
X13622143Y-18560357D01*
X13636428Y-18531786D01*
X13650714Y-18517500D01*
X13679286Y-18503214D01*
X13722143Y-18503214D01*
X13750714Y-18517500D01*
X13765000Y-18531786D01*
X13779286Y-18560357D01*
X13779286Y-18646072D01*
X13765000Y-18674643D01*
X13750714Y-18688929D01*
X13722143Y-18703214D01*
X13679286Y-18703214D01*
X13950714Y-18703214D02*
X13922143Y-18688929D01*
X13907857Y-18660357D01*
X13907857Y-18403214D01*
X14179286Y-18688929D02*
X14150714Y-18703214D01*
X14093571Y-18703214D01*
X14065000Y-18688929D01*
X14050714Y-18660357D01*
X14050714Y-18546072D01*
X14065000Y-18517500D01*
X14093571Y-18503214D01*
X14150714Y-18503214D01*
X14179286Y-18517500D01*
X14193571Y-18546072D01*
X14193571Y-18574643D01*
X14050714Y-18603214D01*
X14307857Y-18688929D02*
X14336428Y-18703214D01*
X14393571Y-18703214D01*
X14422143Y-18688929D01*
X14436428Y-18660357D01*
X14436428Y-18646072D01*
X14422143Y-18617500D01*
X14393571Y-18603214D01*
X14350714Y-18603214D01*
X14322143Y-18588929D01*
X14307857Y-18560357D01*
X14307857Y-18546072D01*
X14322143Y-18517500D01*
X14350714Y-18503214D01*
X14393571Y-18503214D01*
X14422143Y-18517500D01*
X14536428Y-18817500D02*
X14550714Y-18803214D01*
X14579286Y-18760357D01*
X14593571Y-18731786D01*
X14607857Y-18688929D01*
X14622143Y-18617500D01*
X14622143Y-18560357D01*
X14607857Y-18488929D01*
X14593571Y-18446072D01*
X14579286Y-18417500D01*
X14550714Y-18374643D01*
X14536428Y-18360357D01*
X7970000Y-18923500D02*
X8050000Y-19003500D01*
X8050000Y-18923500D02*
X7970000Y-19003500D01*
X8010000Y-18923500D02*
X8010000Y-19003500D01*
X7970000Y-18963500D02*
X8050000Y-18963500D01*
X8393571Y-18799214D02*
X8422143Y-18799214D01*
X8450714Y-18813500D01*
X8465000Y-18827786D01*
X8479286Y-18856357D01*
X8493571Y-18913500D01*
X8493571Y-18984929D01*
X8479286Y-19042072D01*
X8465000Y-19070643D01*
X8450714Y-19084929D01*
X8422143Y-19099214D01*
X8393571Y-19099214D01*
X8365000Y-19084929D01*
X8350714Y-19070643D01*
X8336428Y-19042072D01*
X8322143Y-18984929D01*
X8322143Y-18913500D01*
X8336428Y-18856357D01*
X8350714Y-18827786D01*
X8365000Y-18813500D01*
X8393571Y-18799214D01*
X8622143Y-19070643D02*
X8636429Y-19084929D01*
X8622143Y-19099214D01*
X8607857Y-19084929D01*
X8622143Y-19070643D01*
X8622143Y-19099214D01*
X8807857Y-18927786D02*
X8779286Y-18913500D01*
X8765000Y-18899214D01*
X8750714Y-18870643D01*
X8750714Y-18856357D01*
X8765000Y-18827786D01*
X8779286Y-18813500D01*
X8807857Y-18799214D01*
X8865000Y-18799214D01*
X8893571Y-18813500D01*
X8907857Y-18827786D01*
X8922143Y-18856357D01*
X8922143Y-18870643D01*
X8907857Y-18899214D01*
X8893571Y-18913500D01*
X8865000Y-18927786D01*
X8807857Y-18927786D01*
X8779286Y-18942072D01*
X8765000Y-18956357D01*
X8750714Y-18984929D01*
X8750714Y-19042072D01*
X8765000Y-19070643D01*
X8779286Y-19084929D01*
X8807857Y-19099214D01*
X8865000Y-19099214D01*
X8893571Y-19084929D01*
X8907857Y-19070643D01*
X8922143Y-19042072D01*
X8922143Y-18984929D01*
X8907857Y-18956357D01*
X8893571Y-18942072D01*
X8865000Y-18927786D01*
X9107857Y-18799214D02*
X9136429Y-18799214D01*
X9165000Y-18813500D01*
X9179286Y-18827786D01*
X9193571Y-18856357D01*
X9207857Y-18913500D01*
X9207857Y-18984929D01*
X9193571Y-19042072D01*
X9179286Y-19070643D01*
X9165000Y-19084929D01*
X9136429Y-19099214D01*
X9107857Y-19099214D01*
X9079286Y-19084929D01*
X9065000Y-19070643D01*
X9050714Y-19042072D01*
X9036429Y-18984929D01*
X9036429Y-18913500D01*
X9050714Y-18856357D01*
X9065000Y-18827786D01*
X9079286Y-18813500D01*
X9107857Y-18799214D01*
X9336429Y-19099214D02*
X9336429Y-18899214D01*
X9336429Y-18927786D02*
X9350714Y-18913500D01*
X9379286Y-18899214D01*
X9422143Y-18899214D01*
X9450714Y-18913500D01*
X9465000Y-18942072D01*
X9465000Y-19099214D01*
X9465000Y-18942072D02*
X9479286Y-18913500D01*
X9507857Y-18899214D01*
X9550714Y-18899214D01*
X9579286Y-18913500D01*
X9593571Y-18942072D01*
X9593571Y-19099214D01*
X9736429Y-19099214D02*
X9736429Y-18899214D01*
X9736429Y-18927786D02*
X9750714Y-18913500D01*
X9779286Y-18899214D01*
X9822143Y-18899214D01*
X9850714Y-18913500D01*
X9865000Y-18942072D01*
X9865000Y-19099214D01*
X9865000Y-18942072D02*
X9879286Y-18913500D01*
X9907857Y-18899214D01*
X9950714Y-18899214D01*
X9979286Y-18913500D01*
X9993571Y-18942072D01*
X9993571Y-19099214D01*
X10579286Y-18784929D02*
X10322143Y-19170643D01*
X10965000Y-18799214D02*
X10993571Y-18799214D01*
X11022143Y-18813500D01*
X11036429Y-18827786D01*
X11050714Y-18856357D01*
X11065000Y-18913500D01*
X11065000Y-18984929D01*
X11050714Y-19042072D01*
X11036429Y-19070643D01*
X11022143Y-19084929D01*
X10993571Y-19099214D01*
X10965000Y-19099214D01*
X10936429Y-19084929D01*
X10922143Y-19070643D01*
X10907857Y-19042072D01*
X10893571Y-18984929D01*
X10893571Y-18913500D01*
X10907857Y-18856357D01*
X10922143Y-18827786D01*
X10936429Y-18813500D01*
X10965000Y-18799214D01*
X11193571Y-19070643D02*
X11207857Y-19084929D01*
X11193571Y-19099214D01*
X11179286Y-19084929D01*
X11193571Y-19070643D01*
X11193571Y-19099214D01*
X11393571Y-18799214D02*
X11422143Y-18799214D01*
X11450714Y-18813500D01*
X11465000Y-18827786D01*
X11479286Y-18856357D01*
X11493571Y-18913500D01*
X11493571Y-18984929D01*
X11479286Y-19042072D01*
X11465000Y-19070643D01*
X11450714Y-19084929D01*
X11422143Y-19099214D01*
X11393571Y-19099214D01*
X11365000Y-19084929D01*
X11350714Y-19070643D01*
X11336428Y-19042072D01*
X11322143Y-18984929D01*
X11322143Y-18913500D01*
X11336428Y-18856357D01*
X11350714Y-18827786D01*
X11365000Y-18813500D01*
X11393571Y-18799214D01*
X11593571Y-18799214D02*
X11779286Y-18799214D01*
X11679286Y-18913500D01*
X11722143Y-18913500D01*
X11750714Y-18927786D01*
X11765000Y-18942072D01*
X11779286Y-18970643D01*
X11779286Y-19042072D01*
X11765000Y-19070643D01*
X11750714Y-19084929D01*
X11722143Y-19099214D01*
X11636428Y-19099214D01*
X11607857Y-19084929D01*
X11593571Y-19070643D01*
X12065000Y-19099214D02*
X11893571Y-19099214D01*
X11979286Y-19099214D02*
X11979286Y-18799214D01*
X11950714Y-18842072D01*
X11922143Y-18870643D01*
X11893571Y-18884929D01*
X12179286Y-18799214D02*
X12179286Y-18856357D01*
X12293571Y-18799214D02*
X12293571Y-18856357D01*
X12736428Y-19213500D02*
X12722143Y-19199214D01*
X12693571Y-19156357D01*
X12679286Y-19127786D01*
X12665000Y-19084929D01*
X12650714Y-19013500D01*
X12650714Y-18956357D01*
X12665000Y-18884929D01*
X12679286Y-18842072D01*
X12693571Y-18813500D01*
X12722143Y-18770643D01*
X12736428Y-18756357D01*
X12822143Y-18799214D02*
X13007857Y-18799214D01*
X12907857Y-18913500D01*
X12950714Y-18913500D01*
X12979286Y-18927786D01*
X12993571Y-18942072D01*
X13007857Y-18970643D01*
X13007857Y-19042072D01*
X12993571Y-19070643D01*
X12979286Y-19084929D01*
X12950714Y-19099214D01*
X12865000Y-19099214D01*
X12836428Y-19084929D01*
X12822143Y-19070643D01*
X13365000Y-19099214D02*
X13365000Y-18799214D01*
X13493571Y-19099214D02*
X13493571Y-18942072D01*
X13479286Y-18913500D01*
X13450714Y-18899214D01*
X13407857Y-18899214D01*
X13379286Y-18913500D01*
X13365000Y-18927786D01*
X13679286Y-19099214D02*
X13650714Y-19084929D01*
X13636428Y-19070643D01*
X13622143Y-19042072D01*
X13622143Y-18956357D01*
X13636428Y-18927786D01*
X13650714Y-18913500D01*
X13679286Y-18899214D01*
X13722143Y-18899214D01*
X13750714Y-18913500D01*
X13765000Y-18927786D01*
X13779286Y-18956357D01*
X13779286Y-19042072D01*
X13765000Y-19070643D01*
X13750714Y-19084929D01*
X13722143Y-19099214D01*
X13679286Y-19099214D01*
X13950714Y-19099214D02*
X13922143Y-19084929D01*
X13907857Y-19056357D01*
X13907857Y-18799214D01*
X14179286Y-19084929D02*
X14150714Y-19099214D01*
X14093571Y-19099214D01*
X14065000Y-19084929D01*
X14050714Y-19056357D01*
X14050714Y-18942072D01*
X14065000Y-18913500D01*
X14093571Y-18899214D01*
X14150714Y-18899214D01*
X14179286Y-18913500D01*
X14193571Y-18942072D01*
X14193571Y-18970643D01*
X14050714Y-18999214D01*
X14307857Y-19084929D02*
X14336428Y-19099214D01*
X14393571Y-19099214D01*
X14422143Y-19084929D01*
X14436428Y-19056357D01*
X14436428Y-19042072D01*
X14422143Y-19013500D01*
X14393571Y-18999214D01*
X14350714Y-18999214D01*
X14322143Y-18984929D01*
X14307857Y-18956357D01*
X14307857Y-18942072D01*
X14322143Y-18913500D01*
X14350714Y-18899214D01*
X14393571Y-18899214D01*
X14422143Y-18913500D01*
X14536428Y-19213500D02*
X14550714Y-19199214D01*
X14579286Y-19156357D01*
X14593571Y-19127786D01*
X14607857Y-19084929D01*
X14622143Y-19013500D01*
X14622143Y-18956357D01*
X14607857Y-18884929D01*
X14593571Y-18842072D01*
X14579286Y-18813500D01*
X14550714Y-18770643D01*
X14536428Y-18756357D01*
X7960000Y-19314500D02*
X8050000Y-19404500D01*
X8050000Y-19314500D02*
X7960000Y-19404500D01*
X8036820Y-19391320D02*
X8036820Y-19327680D01*
X7973180Y-19327680D01*
X7973180Y-19391320D01*
X8036820Y-19391320D01*
X8393571Y-19195214D02*
X8422143Y-19195214D01*
X8450714Y-19209500D01*
X8465000Y-19223786D01*
X8479286Y-19252357D01*
X8493571Y-19309500D01*
X8493571Y-19380929D01*
X8479286Y-19438072D01*
X8465000Y-19466643D01*
X8450714Y-19480929D01*
X8422143Y-19495214D01*
X8393571Y-19495214D01*
X8365000Y-19480929D01*
X8350714Y-19466643D01*
X8336428Y-19438072D01*
X8322143Y-19380929D01*
X8322143Y-19309500D01*
X8336428Y-19252357D01*
X8350714Y-19223786D01*
X8365000Y-19209500D01*
X8393571Y-19195214D01*
X8622143Y-19466643D02*
X8636429Y-19480929D01*
X8622143Y-19495214D01*
X8607857Y-19480929D01*
X8622143Y-19466643D01*
X8622143Y-19495214D01*
X8779286Y-19495214D02*
X8836429Y-19495214D01*
X8865000Y-19480929D01*
X8879286Y-19466643D01*
X8907857Y-19423786D01*
X8922143Y-19366643D01*
X8922143Y-19252357D01*
X8907857Y-19223786D01*
X8893571Y-19209500D01*
X8865000Y-19195214D01*
X8807857Y-19195214D01*
X8779286Y-19209500D01*
X8765000Y-19223786D01*
X8750714Y-19252357D01*
X8750714Y-19323786D01*
X8765000Y-19352357D01*
X8779286Y-19366643D01*
X8807857Y-19380929D01*
X8865000Y-19380929D01*
X8893571Y-19366643D01*
X8907857Y-19352357D01*
X8922143Y-19323786D01*
X9107857Y-19195214D02*
X9136429Y-19195214D01*
X9165000Y-19209500D01*
X9179286Y-19223786D01*
X9193571Y-19252357D01*
X9207857Y-19309500D01*
X9207857Y-19380929D01*
X9193571Y-19438072D01*
X9179286Y-19466643D01*
X9165000Y-19480929D01*
X9136429Y-19495214D01*
X9107857Y-19495214D01*
X9079286Y-19480929D01*
X9065000Y-19466643D01*
X9050714Y-19438072D01*
X9036429Y-19380929D01*
X9036429Y-19309500D01*
X9050714Y-19252357D01*
X9065000Y-19223786D01*
X9079286Y-19209500D01*
X9107857Y-19195214D01*
X9336429Y-19495214D02*
X9336429Y-19295214D01*
X9336429Y-19323786D02*
X9350714Y-19309500D01*
X9379286Y-19295214D01*
X9422143Y-19295214D01*
X9450714Y-19309500D01*
X9465000Y-19338072D01*
X9465000Y-19495214D01*
X9465000Y-19338072D02*
X9479286Y-19309500D01*
X9507857Y-19295214D01*
X9550714Y-19295214D01*
X9579286Y-19309500D01*
X9593571Y-19338072D01*
X9593571Y-19495214D01*
X9736429Y-19495214D02*
X9736429Y-19295214D01*
X9736429Y-19323786D02*
X9750714Y-19309500D01*
X9779286Y-19295214D01*
X9822143Y-19295214D01*
X9850714Y-19309500D01*
X9865000Y-19338072D01*
X9865000Y-19495214D01*
X9865000Y-19338072D02*
X9879286Y-19309500D01*
X9907857Y-19295214D01*
X9950714Y-19295214D01*
X9979286Y-19309500D01*
X9993571Y-19338072D01*
X9993571Y-19495214D01*
X10579286Y-19180929D02*
X10322143Y-19566643D01*
X10965000Y-19195214D02*
X10993571Y-19195214D01*
X11022143Y-19209500D01*
X11036429Y-19223786D01*
X11050714Y-19252357D01*
X11065000Y-19309500D01*
X11065000Y-19380929D01*
X11050714Y-19438072D01*
X11036429Y-19466643D01*
X11022143Y-19480929D01*
X10993571Y-19495214D01*
X10965000Y-19495214D01*
X10936429Y-19480929D01*
X10922143Y-19466643D01*
X10907857Y-19438072D01*
X10893571Y-19380929D01*
X10893571Y-19309500D01*
X10907857Y-19252357D01*
X10922143Y-19223786D01*
X10936429Y-19209500D01*
X10965000Y-19195214D01*
X11193571Y-19466643D02*
X11207857Y-19480929D01*
X11193571Y-19495214D01*
X11179286Y-19480929D01*
X11193571Y-19466643D01*
X11193571Y-19495214D01*
X11393571Y-19195214D02*
X11422143Y-19195214D01*
X11450714Y-19209500D01*
X11465000Y-19223786D01*
X11479286Y-19252357D01*
X11493571Y-19309500D01*
X11493571Y-19380929D01*
X11479286Y-19438072D01*
X11465000Y-19466643D01*
X11450714Y-19480929D01*
X11422143Y-19495214D01*
X11393571Y-19495214D01*
X11365000Y-19480929D01*
X11350714Y-19466643D01*
X11336428Y-19438072D01*
X11322143Y-19380929D01*
X11322143Y-19309500D01*
X11336428Y-19252357D01*
X11350714Y-19223786D01*
X11365000Y-19209500D01*
X11393571Y-19195214D01*
X11593571Y-19195214D02*
X11779286Y-19195214D01*
X11679286Y-19309500D01*
X11722143Y-19309500D01*
X11750714Y-19323786D01*
X11765000Y-19338072D01*
X11779286Y-19366643D01*
X11779286Y-19438072D01*
X11765000Y-19466643D01*
X11750714Y-19480929D01*
X11722143Y-19495214D01*
X11636428Y-19495214D01*
X11607857Y-19480929D01*
X11593571Y-19466643D01*
X12050714Y-19195214D02*
X11907857Y-19195214D01*
X11893571Y-19338072D01*
X11907857Y-19323786D01*
X11936428Y-19309500D01*
X12007857Y-19309500D01*
X12036428Y-19323786D01*
X12050714Y-19338072D01*
X12065000Y-19366643D01*
X12065000Y-19438072D01*
X12050714Y-19466643D01*
X12036428Y-19480929D01*
X12007857Y-19495214D01*
X11936428Y-19495214D01*
X11907857Y-19480929D01*
X11893571Y-19466643D01*
X12179286Y-19195214D02*
X12179286Y-19252357D01*
X12293571Y-19195214D02*
X12293571Y-19252357D01*
X12736428Y-19609500D02*
X12722143Y-19595214D01*
X12693571Y-19552357D01*
X12679286Y-19523786D01*
X12665000Y-19480929D01*
X12650714Y-19409500D01*
X12650714Y-19352357D01*
X12665000Y-19280929D01*
X12679286Y-19238072D01*
X12693571Y-19209500D01*
X12722143Y-19166643D01*
X12736428Y-19152357D01*
X12836428Y-19223786D02*
X12850714Y-19209500D01*
X12879286Y-19195214D01*
X12950714Y-19195214D01*
X12979286Y-19209500D01*
X12993571Y-19223786D01*
X13007857Y-19252357D01*
X13007857Y-19280929D01*
X12993571Y-19323786D01*
X12822143Y-19495214D01*
X13007857Y-19495214D01*
X13365000Y-19495214D02*
X13365000Y-19195214D01*
X13493571Y-19495214D02*
X13493571Y-19338072D01*
X13479286Y-19309500D01*
X13450714Y-19295214D01*
X13407857Y-19295214D01*
X13379286Y-19309500D01*
X13365000Y-19323786D01*
X13679286Y-19495214D02*
X13650714Y-19480929D01*
X13636428Y-19466643D01*
X13622143Y-19438072D01*
X13622143Y-19352357D01*
X13636428Y-19323786D01*
X13650714Y-19309500D01*
X13679286Y-19295214D01*
X13722143Y-19295214D01*
X13750714Y-19309500D01*
X13765000Y-19323786D01*
X13779286Y-19352357D01*
X13779286Y-19438072D01*
X13765000Y-19466643D01*
X13750714Y-19480929D01*
X13722143Y-19495214D01*
X13679286Y-19495214D01*
X13950714Y-19495214D02*
X13922143Y-19480929D01*
X13907857Y-19452357D01*
X13907857Y-19195214D01*
X14179286Y-19480929D02*
X14150714Y-19495214D01*
X14093571Y-19495214D01*
X14065000Y-19480929D01*
X14050714Y-19452357D01*
X14050714Y-19338072D01*
X14065000Y-19309500D01*
X14093571Y-19295214D01*
X14150714Y-19295214D01*
X14179286Y-19309500D01*
X14193571Y-19338072D01*
X14193571Y-19366643D01*
X14050714Y-19395214D01*
X14307857Y-19480929D02*
X14336428Y-19495214D01*
X14393571Y-19495214D01*
X14422143Y-19480929D01*
X14436428Y-19452357D01*
X14436428Y-19438072D01*
X14422143Y-19409500D01*
X14393571Y-19395214D01*
X14350714Y-19395214D01*
X14322143Y-19380929D01*
X14307857Y-19352357D01*
X14307857Y-19338072D01*
X14322143Y-19309500D01*
X14350714Y-19295214D01*
X14393571Y-19295214D01*
X14422143Y-19309500D01*
X14536428Y-19609500D02*
X14550714Y-19595214D01*
X14579286Y-19552357D01*
X14593571Y-19523786D01*
X14607857Y-19480929D01*
X14622143Y-19409500D01*
X14622143Y-19352357D01*
X14607857Y-19280929D01*
X14593571Y-19238072D01*
X14579286Y-19209500D01*
X14550714Y-19166643D01*
X14536428Y-19152357D01*
X7958000Y-19709500D02*
X8050000Y-19801500D01*
X8050000Y-19709500D02*
X7958000Y-19801500D01*
X8004000Y-19801500D02*
X8050000Y-19755500D01*
X8004000Y-19709500D01*
X7958000Y-19755500D01*
X8004000Y-19801500D01*
X8393571Y-19591214D02*
X8422143Y-19591214D01*
X8450714Y-19605500D01*
X8465000Y-19619786D01*
X8479286Y-19648357D01*
X8493571Y-19705500D01*
X8493571Y-19776929D01*
X8479286Y-19834072D01*
X8465000Y-19862643D01*
X8450714Y-19876929D01*
X8422143Y-19891214D01*
X8393571Y-19891214D01*
X8365000Y-19876929D01*
X8350714Y-19862643D01*
X8336428Y-19834072D01*
X8322143Y-19776929D01*
X8322143Y-19705500D01*
X8336428Y-19648357D01*
X8350714Y-19619786D01*
X8365000Y-19605500D01*
X8393571Y-19591214D01*
X8622143Y-19862643D02*
X8636429Y-19876929D01*
X8622143Y-19891214D01*
X8607857Y-19876929D01*
X8622143Y-19862643D01*
X8622143Y-19891214D01*
X8779286Y-19891214D02*
X8836429Y-19891214D01*
X8865000Y-19876929D01*
X8879286Y-19862643D01*
X8907857Y-19819786D01*
X8922143Y-19762643D01*
X8922143Y-19648357D01*
X8907857Y-19619786D01*
X8893571Y-19605500D01*
X8865000Y-19591214D01*
X8807857Y-19591214D01*
X8779286Y-19605500D01*
X8765000Y-19619786D01*
X8750714Y-19648357D01*
X8750714Y-19719786D01*
X8765000Y-19748357D01*
X8779286Y-19762643D01*
X8807857Y-19776929D01*
X8865000Y-19776929D01*
X8893571Y-19762643D01*
X8907857Y-19748357D01*
X8922143Y-19719786D01*
X9036429Y-19619786D02*
X9050714Y-19605500D01*
X9079286Y-19591214D01*
X9150714Y-19591214D01*
X9179286Y-19605500D01*
X9193571Y-19619786D01*
X9207857Y-19648357D01*
X9207857Y-19676929D01*
X9193571Y-19719786D01*
X9022143Y-19891214D01*
X9207857Y-19891214D01*
X9336429Y-19891214D02*
X9336429Y-19691214D01*
X9336429Y-19719786D02*
X9350714Y-19705500D01*
X9379286Y-19691214D01*
X9422143Y-19691214D01*
X9450714Y-19705500D01*
X9465000Y-19734072D01*
X9465000Y-19891214D01*
X9465000Y-19734072D02*
X9479286Y-19705500D01*
X9507857Y-19691214D01*
X9550714Y-19691214D01*
X9579286Y-19705500D01*
X9593571Y-19734072D01*
X9593571Y-19891214D01*
X9736429Y-19891214D02*
X9736429Y-19691214D01*
X9736429Y-19719786D02*
X9750714Y-19705500D01*
X9779286Y-19691214D01*
X9822143Y-19691214D01*
X9850714Y-19705500D01*
X9865000Y-19734072D01*
X9865000Y-19891214D01*
X9865000Y-19734072D02*
X9879286Y-19705500D01*
X9907857Y-19691214D01*
X9950714Y-19691214D01*
X9979286Y-19705500D01*
X9993571Y-19734072D01*
X9993571Y-19891214D01*
X10579286Y-19576929D02*
X10322143Y-19962643D01*
X10965000Y-19591214D02*
X10993571Y-19591214D01*
X11022143Y-19605500D01*
X11036429Y-19619786D01*
X11050714Y-19648357D01*
X11065000Y-19705500D01*
X11065000Y-19776929D01*
X11050714Y-19834072D01*
X11036429Y-19862643D01*
X11022143Y-19876929D01*
X10993571Y-19891214D01*
X10965000Y-19891214D01*
X10936429Y-19876929D01*
X10922143Y-19862643D01*
X10907857Y-19834072D01*
X10893571Y-19776929D01*
X10893571Y-19705500D01*
X10907857Y-19648357D01*
X10922143Y-19619786D01*
X10936429Y-19605500D01*
X10965000Y-19591214D01*
X11193571Y-19862643D02*
X11207857Y-19876929D01*
X11193571Y-19891214D01*
X11179286Y-19876929D01*
X11193571Y-19862643D01*
X11193571Y-19891214D01*
X11393571Y-19591214D02*
X11422143Y-19591214D01*
X11450714Y-19605500D01*
X11465000Y-19619786D01*
X11479286Y-19648357D01*
X11493571Y-19705500D01*
X11493571Y-19776929D01*
X11479286Y-19834072D01*
X11465000Y-19862643D01*
X11450714Y-19876929D01*
X11422143Y-19891214D01*
X11393571Y-19891214D01*
X11365000Y-19876929D01*
X11350714Y-19862643D01*
X11336428Y-19834072D01*
X11322143Y-19776929D01*
X11322143Y-19705500D01*
X11336428Y-19648357D01*
X11350714Y-19619786D01*
X11365000Y-19605500D01*
X11393571Y-19591214D01*
X11593571Y-19591214D02*
X11779286Y-19591214D01*
X11679286Y-19705500D01*
X11722143Y-19705500D01*
X11750714Y-19719786D01*
X11765000Y-19734072D01*
X11779286Y-19762643D01*
X11779286Y-19834072D01*
X11765000Y-19862643D01*
X11750714Y-19876929D01*
X11722143Y-19891214D01*
X11636428Y-19891214D01*
X11607857Y-19876929D01*
X11593571Y-19862643D01*
X12036428Y-19591214D02*
X11979286Y-19591214D01*
X11950714Y-19605500D01*
X11936428Y-19619786D01*
X11907857Y-19662643D01*
X11893571Y-19719786D01*
X11893571Y-19834072D01*
X11907857Y-19862643D01*
X11922143Y-19876929D01*
X11950714Y-19891214D01*
X12007857Y-19891214D01*
X12036428Y-19876929D01*
X12050714Y-19862643D01*
X12065000Y-19834072D01*
X12065000Y-19762643D01*
X12050714Y-19734072D01*
X12036428Y-19719786D01*
X12007857Y-19705500D01*
X11950714Y-19705500D01*
X11922143Y-19719786D01*
X11907857Y-19734072D01*
X11893571Y-19762643D01*
X12179286Y-19591214D02*
X12179286Y-19648357D01*
X12293571Y-19591214D02*
X12293571Y-19648357D01*
X12736428Y-20005500D02*
X12722143Y-19991214D01*
X12693571Y-19948357D01*
X12679286Y-19919786D01*
X12665000Y-19876929D01*
X12650714Y-19805500D01*
X12650714Y-19748357D01*
X12665000Y-19676929D01*
X12679286Y-19634072D01*
X12693571Y-19605500D01*
X12722143Y-19562643D01*
X12736428Y-19548357D01*
X12979286Y-19691214D02*
X12979286Y-19891214D01*
X12907857Y-19576929D02*
X12836428Y-19791214D01*
X13022143Y-19791214D01*
X13365000Y-19891214D02*
X13365000Y-19591214D01*
X13493571Y-19891214D02*
X13493571Y-19734072D01*
X13479286Y-19705500D01*
X13450714Y-19691214D01*
X13407857Y-19691214D01*
X13379286Y-19705500D01*
X13365000Y-19719786D01*
X13679286Y-19891214D02*
X13650714Y-19876929D01*
X13636428Y-19862643D01*
X13622143Y-19834072D01*
X13622143Y-19748357D01*
X13636428Y-19719786D01*
X13650714Y-19705500D01*
X13679286Y-19691214D01*
X13722143Y-19691214D01*
X13750714Y-19705500D01*
X13765000Y-19719786D01*
X13779286Y-19748357D01*
X13779286Y-19834072D01*
X13765000Y-19862643D01*
X13750714Y-19876929D01*
X13722143Y-19891214D01*
X13679286Y-19891214D01*
X13950714Y-19891214D02*
X13922143Y-19876929D01*
X13907857Y-19848357D01*
X13907857Y-19591214D01*
X14179286Y-19876929D02*
X14150714Y-19891214D01*
X14093571Y-19891214D01*
X14065000Y-19876929D01*
X14050714Y-19848357D01*
X14050714Y-19734072D01*
X14065000Y-19705500D01*
X14093571Y-19691214D01*
X14150714Y-19691214D01*
X14179286Y-19705500D01*
X14193571Y-19734072D01*
X14193571Y-19762643D01*
X14050714Y-19791214D01*
X14307857Y-19876929D02*
X14336428Y-19891214D01*
X14393571Y-19891214D01*
X14422143Y-19876929D01*
X14436428Y-19848357D01*
X14436428Y-19834072D01*
X14422143Y-19805500D01*
X14393571Y-19791214D01*
X14350714Y-19791214D01*
X14322143Y-19776929D01*
X14307857Y-19748357D01*
X14307857Y-19734072D01*
X14322143Y-19705500D01*
X14350714Y-19691214D01*
X14393571Y-19691214D01*
X14422143Y-19705500D01*
X14536428Y-20005500D02*
X14550714Y-19991214D01*
X14579286Y-19948357D01*
X14593571Y-19919786D01*
X14607857Y-19876929D01*
X14622143Y-19805500D01*
X14622143Y-19748357D01*
X14607857Y-19676929D01*
X14593571Y-19634072D01*
X14579286Y-19605500D01*
X14550714Y-19562643D01*
X14536428Y-19548357D01*
X8000000Y-20101500D02*
X8000000Y-20201500D01*
X7950000Y-20151500D02*
X8050000Y-20151500D01*
X8050000Y-20151500D02*
G75*
G03X8050000Y-20151500I-50000J0D01*
G01*
X8493571Y-20287214D02*
X8322143Y-20287214D01*
X8407857Y-20287214D02*
X8407857Y-19987214D01*
X8379286Y-20030072D01*
X8350714Y-20058643D01*
X8322143Y-20072929D01*
X8622143Y-20258643D02*
X8636429Y-20272929D01*
X8622143Y-20287214D01*
X8607857Y-20272929D01*
X8622143Y-20258643D01*
X8622143Y-20287214D01*
X8822143Y-19987214D02*
X8850714Y-19987214D01*
X8879286Y-20001500D01*
X8893571Y-20015786D01*
X8907857Y-20044357D01*
X8922143Y-20101500D01*
X8922143Y-20172929D01*
X8907857Y-20230072D01*
X8893571Y-20258643D01*
X8879286Y-20272929D01*
X8850714Y-20287214D01*
X8822143Y-20287214D01*
X8793571Y-20272929D01*
X8779286Y-20258643D01*
X8765000Y-20230072D01*
X8750714Y-20172929D01*
X8750714Y-20101500D01*
X8765000Y-20044357D01*
X8779286Y-20015786D01*
X8793571Y-20001500D01*
X8822143Y-19987214D01*
X9107857Y-19987214D02*
X9136429Y-19987214D01*
X9165000Y-20001500D01*
X9179286Y-20015786D01*
X9193571Y-20044357D01*
X9207857Y-20101500D01*
X9207857Y-20172929D01*
X9193571Y-20230072D01*
X9179286Y-20258643D01*
X9165000Y-20272929D01*
X9136429Y-20287214D01*
X9107857Y-20287214D01*
X9079286Y-20272929D01*
X9065000Y-20258643D01*
X9050714Y-20230072D01*
X9036429Y-20172929D01*
X9036429Y-20101500D01*
X9050714Y-20044357D01*
X9065000Y-20015786D01*
X9079286Y-20001500D01*
X9107857Y-19987214D01*
X9336429Y-20287214D02*
X9336429Y-20087214D01*
X9336429Y-20115786D02*
X9350714Y-20101500D01*
X9379286Y-20087214D01*
X9422143Y-20087214D01*
X9450714Y-20101500D01*
X9465000Y-20130072D01*
X9465000Y-20287214D01*
X9465000Y-20130072D02*
X9479286Y-20101500D01*
X9507857Y-20087214D01*
X9550714Y-20087214D01*
X9579286Y-20101500D01*
X9593571Y-20130072D01*
X9593571Y-20287214D01*
X9736429Y-20287214D02*
X9736429Y-20087214D01*
X9736429Y-20115786D02*
X9750714Y-20101500D01*
X9779286Y-20087214D01*
X9822143Y-20087214D01*
X9850714Y-20101500D01*
X9865000Y-20130072D01*
X9865000Y-20287214D01*
X9865000Y-20130072D02*
X9879286Y-20101500D01*
X9907857Y-20087214D01*
X9950714Y-20087214D01*
X9979286Y-20101500D01*
X9993571Y-20130072D01*
X9993571Y-20287214D01*
X10579286Y-19972929D02*
X10322143Y-20358643D01*
X10965000Y-19987214D02*
X10993571Y-19987214D01*
X11022143Y-20001500D01*
X11036429Y-20015786D01*
X11050714Y-20044357D01*
X11065000Y-20101500D01*
X11065000Y-20172929D01*
X11050714Y-20230072D01*
X11036429Y-20258643D01*
X11022143Y-20272929D01*
X10993571Y-20287214D01*
X10965000Y-20287214D01*
X10936429Y-20272929D01*
X10922143Y-20258643D01*
X10907857Y-20230072D01*
X10893571Y-20172929D01*
X10893571Y-20101500D01*
X10907857Y-20044357D01*
X10922143Y-20015786D01*
X10936429Y-20001500D01*
X10965000Y-19987214D01*
X11193571Y-20258643D02*
X11207857Y-20272929D01*
X11193571Y-20287214D01*
X11179286Y-20272929D01*
X11193571Y-20258643D01*
X11193571Y-20287214D01*
X11393571Y-19987214D02*
X11422143Y-19987214D01*
X11450714Y-20001500D01*
X11465000Y-20015786D01*
X11479286Y-20044357D01*
X11493571Y-20101500D01*
X11493571Y-20172929D01*
X11479286Y-20230072D01*
X11465000Y-20258643D01*
X11450714Y-20272929D01*
X11422143Y-20287214D01*
X11393571Y-20287214D01*
X11365000Y-20272929D01*
X11350714Y-20258643D01*
X11336428Y-20230072D01*
X11322143Y-20172929D01*
X11322143Y-20101500D01*
X11336428Y-20044357D01*
X11350714Y-20015786D01*
X11365000Y-20001500D01*
X11393571Y-19987214D01*
X11593571Y-19987214D02*
X11779286Y-19987214D01*
X11679286Y-20101500D01*
X11722143Y-20101500D01*
X11750714Y-20115786D01*
X11765000Y-20130072D01*
X11779286Y-20158643D01*
X11779286Y-20230072D01*
X11765000Y-20258643D01*
X11750714Y-20272929D01*
X11722143Y-20287214D01*
X11636428Y-20287214D01*
X11607857Y-20272929D01*
X11593571Y-20258643D01*
X11922143Y-20287214D02*
X11979286Y-20287214D01*
X12007857Y-20272929D01*
X12022143Y-20258643D01*
X12050714Y-20215786D01*
X12065000Y-20158643D01*
X12065000Y-20044357D01*
X12050714Y-20015786D01*
X12036428Y-20001500D01*
X12007857Y-19987214D01*
X11950714Y-19987214D01*
X11922143Y-20001500D01*
X11907857Y-20015786D01*
X11893571Y-20044357D01*
X11893571Y-20115786D01*
X11907857Y-20144357D01*
X11922143Y-20158643D01*
X11950714Y-20172929D01*
X12007857Y-20172929D01*
X12036428Y-20158643D01*
X12050714Y-20144357D01*
X12065000Y-20115786D01*
X12179286Y-19987214D02*
X12179286Y-20044357D01*
X12293571Y-19987214D02*
X12293571Y-20044357D01*
X12736428Y-20401500D02*
X12722143Y-20387214D01*
X12693571Y-20344357D01*
X12679286Y-20315786D01*
X12665000Y-20272929D01*
X12650714Y-20201500D01*
X12650714Y-20144357D01*
X12665000Y-20072929D01*
X12679286Y-20030072D01*
X12693571Y-20001500D01*
X12722143Y-19958643D01*
X12736428Y-19944357D01*
X13007857Y-20287214D02*
X12836428Y-20287214D01*
X12922143Y-20287214D02*
X12922143Y-19987214D01*
X12893571Y-20030072D01*
X12865000Y-20058643D01*
X12836428Y-20072929D01*
X13293571Y-20287214D02*
X13122143Y-20287214D01*
X13207857Y-20287214D02*
X13207857Y-19987214D01*
X13179286Y-20030072D01*
X13150714Y-20058643D01*
X13122143Y-20072929D01*
X13650714Y-20287214D02*
X13650714Y-19987214D01*
X13779286Y-20287214D02*
X13779286Y-20130072D01*
X13765000Y-20101500D01*
X13736428Y-20087214D01*
X13693571Y-20087214D01*
X13665000Y-20101500D01*
X13650714Y-20115786D01*
X13965000Y-20287214D02*
X13936428Y-20272929D01*
X13922143Y-20258643D01*
X13907857Y-20230072D01*
X13907857Y-20144357D01*
X13922143Y-20115786D01*
X13936428Y-20101500D01*
X13965000Y-20087214D01*
X14007857Y-20087214D01*
X14036428Y-20101500D01*
X14050714Y-20115786D01*
X14065000Y-20144357D01*
X14065000Y-20230072D01*
X14050714Y-20258643D01*
X14036428Y-20272929D01*
X14007857Y-20287214D01*
X13965000Y-20287214D01*
X14236428Y-20287214D02*
X14207857Y-20272929D01*
X14193571Y-20244357D01*
X14193571Y-19987214D01*
X14465000Y-20272929D02*
X14436428Y-20287214D01*
X14379286Y-20287214D01*
X14350714Y-20272929D01*
X14336428Y-20244357D01*
X14336428Y-20130072D01*
X14350714Y-20101500D01*
X14379286Y-20087214D01*
X14436428Y-20087214D01*
X14465000Y-20101500D01*
X14479286Y-20130072D01*
X14479286Y-20158643D01*
X14336428Y-20187214D01*
X14593571Y-20272929D02*
X14622143Y-20287214D01*
X14679286Y-20287214D01*
X14707857Y-20272929D01*
X14722143Y-20244357D01*
X14722143Y-20230072D01*
X14707857Y-20201500D01*
X14679286Y-20187214D01*
X14636428Y-20187214D01*
X14607857Y-20172929D01*
X14593571Y-20144357D01*
X14593571Y-20130072D01*
X14607857Y-20101500D01*
X14636428Y-20087214D01*
X14679286Y-20087214D01*
X14707857Y-20101500D01*
X14822143Y-20401500D02*
X14836428Y-20387214D01*
X14865000Y-20344357D01*
X14879286Y-20315786D01*
X14893571Y-20272929D01*
X14907857Y-20201500D01*
X14907857Y-20144357D01*
X14893571Y-20072929D01*
X14879286Y-20030072D01*
X14865000Y-20001500D01*
X14836428Y-19958643D01*
X14822143Y-19944357D01*
X8033891Y-20586391D02*
X8033891Y-20508609D01*
X7956109Y-20508609D01*
X7956109Y-20586391D01*
X8033891Y-20586391D01*
X8050000Y-20547500D02*
G75*
G03X8050000Y-20547500I-55000J0D01*
G01*
X8493571Y-20683214D02*
X8322143Y-20683214D01*
X8407857Y-20683214D02*
X8407857Y-20383214D01*
X8379286Y-20426072D01*
X8350714Y-20454643D01*
X8322143Y-20468929D01*
X8622143Y-20654643D02*
X8636429Y-20668929D01*
X8622143Y-20683214D01*
X8607857Y-20668929D01*
X8622143Y-20654643D01*
X8622143Y-20683214D01*
X8922143Y-20683214D02*
X8750714Y-20683214D01*
X8836429Y-20683214D02*
X8836429Y-20383214D01*
X8807857Y-20426072D01*
X8779286Y-20454643D01*
X8750714Y-20468929D01*
X9107857Y-20383214D02*
X9136429Y-20383214D01*
X9165000Y-20397500D01*
X9179286Y-20411786D01*
X9193571Y-20440357D01*
X9207857Y-20497500D01*
X9207857Y-20568929D01*
X9193571Y-20626072D01*
X9179286Y-20654643D01*
X9165000Y-20668929D01*
X9136429Y-20683214D01*
X9107857Y-20683214D01*
X9079286Y-20668929D01*
X9065000Y-20654643D01*
X9050714Y-20626072D01*
X9036429Y-20568929D01*
X9036429Y-20497500D01*
X9050714Y-20440357D01*
X9065000Y-20411786D01*
X9079286Y-20397500D01*
X9107857Y-20383214D01*
X9336429Y-20683214D02*
X9336429Y-20483214D01*
X9336429Y-20511786D02*
X9350714Y-20497500D01*
X9379286Y-20483214D01*
X9422143Y-20483214D01*
X9450714Y-20497500D01*
X9465000Y-20526072D01*
X9465000Y-20683214D01*
X9465000Y-20526072D02*
X9479286Y-20497500D01*
X9507857Y-20483214D01*
X9550714Y-20483214D01*
X9579286Y-20497500D01*
X9593571Y-20526072D01*
X9593571Y-20683214D01*
X9736429Y-20683214D02*
X9736429Y-20483214D01*
X9736429Y-20511786D02*
X9750714Y-20497500D01*
X9779286Y-20483214D01*
X9822143Y-20483214D01*
X9850714Y-20497500D01*
X9865000Y-20526072D01*
X9865000Y-20683214D01*
X9865000Y-20526072D02*
X9879286Y-20497500D01*
X9907857Y-20483214D01*
X9950714Y-20483214D01*
X9979286Y-20497500D01*
X9993571Y-20526072D01*
X9993571Y-20683214D01*
X10579286Y-20368929D02*
X10322143Y-20754643D01*
X10965000Y-20383214D02*
X10993571Y-20383214D01*
X11022143Y-20397500D01*
X11036429Y-20411786D01*
X11050714Y-20440357D01*
X11065000Y-20497500D01*
X11065000Y-20568929D01*
X11050714Y-20626072D01*
X11036429Y-20654643D01*
X11022143Y-20668929D01*
X10993571Y-20683214D01*
X10965000Y-20683214D01*
X10936429Y-20668929D01*
X10922143Y-20654643D01*
X10907857Y-20626072D01*
X10893571Y-20568929D01*
X10893571Y-20497500D01*
X10907857Y-20440357D01*
X10922143Y-20411786D01*
X10936429Y-20397500D01*
X10965000Y-20383214D01*
X11193571Y-20654643D02*
X11207857Y-20668929D01*
X11193571Y-20683214D01*
X11179286Y-20668929D01*
X11193571Y-20654643D01*
X11193571Y-20683214D01*
X11393571Y-20383214D02*
X11422143Y-20383214D01*
X11450714Y-20397500D01*
X11465000Y-20411786D01*
X11479286Y-20440357D01*
X11493571Y-20497500D01*
X11493571Y-20568929D01*
X11479286Y-20626072D01*
X11465000Y-20654643D01*
X11450714Y-20668929D01*
X11422143Y-20683214D01*
X11393571Y-20683214D01*
X11365000Y-20668929D01*
X11350714Y-20654643D01*
X11336428Y-20626072D01*
X11322143Y-20568929D01*
X11322143Y-20497500D01*
X11336428Y-20440357D01*
X11350714Y-20411786D01*
X11365000Y-20397500D01*
X11393571Y-20383214D01*
X11750714Y-20483214D02*
X11750714Y-20683214D01*
X11679286Y-20368929D02*
X11607857Y-20583214D01*
X11793571Y-20583214D01*
X11879286Y-20383214D02*
X12065000Y-20383214D01*
X11965000Y-20497500D01*
X12007857Y-20497500D01*
X12036428Y-20511786D01*
X12050714Y-20526072D01*
X12065000Y-20554643D01*
X12065000Y-20626072D01*
X12050714Y-20654643D01*
X12036428Y-20668929D01*
X12007857Y-20683214D01*
X11922143Y-20683214D01*
X11893571Y-20668929D01*
X11879286Y-20654643D01*
X12179286Y-20383214D02*
X12179286Y-20440357D01*
X12293571Y-20383214D02*
X12293571Y-20440357D01*
X12736428Y-20797500D02*
X12722143Y-20783214D01*
X12693571Y-20740357D01*
X12679286Y-20711786D01*
X12665000Y-20668929D01*
X12650714Y-20597500D01*
X12650714Y-20540357D01*
X12665000Y-20468929D01*
X12679286Y-20426072D01*
X12693571Y-20397500D01*
X12722143Y-20354643D01*
X12736428Y-20340357D01*
X12993571Y-20383214D02*
X12850714Y-20383214D01*
X12836428Y-20526072D01*
X12850714Y-20511786D01*
X12879286Y-20497500D01*
X12950714Y-20497500D01*
X12979286Y-20511786D01*
X12993571Y-20526072D01*
X13007857Y-20554643D01*
X13007857Y-20626072D01*
X12993571Y-20654643D01*
X12979286Y-20668929D01*
X12950714Y-20683214D01*
X12879286Y-20683214D01*
X12850714Y-20668929D01*
X12836428Y-20654643D01*
X13365000Y-20683214D02*
X13365000Y-20383214D01*
X13493571Y-20683214D02*
X13493571Y-20526072D01*
X13479286Y-20497500D01*
X13450714Y-20483214D01*
X13407857Y-20483214D01*
X13379286Y-20497500D01*
X13365000Y-20511786D01*
X13679286Y-20683214D02*
X13650714Y-20668929D01*
X13636428Y-20654643D01*
X13622143Y-20626072D01*
X13622143Y-20540357D01*
X13636428Y-20511786D01*
X13650714Y-20497500D01*
X13679286Y-20483214D01*
X13722143Y-20483214D01*
X13750714Y-20497500D01*
X13765000Y-20511786D01*
X13779286Y-20540357D01*
X13779286Y-20626072D01*
X13765000Y-20654643D01*
X13750714Y-20668929D01*
X13722143Y-20683214D01*
X13679286Y-20683214D01*
X13950714Y-20683214D02*
X13922143Y-20668929D01*
X13907857Y-20640357D01*
X13907857Y-20383214D01*
X14179286Y-20668929D02*
X14150714Y-20683214D01*
X14093571Y-20683214D01*
X14065000Y-20668929D01*
X14050714Y-20640357D01*
X14050714Y-20526072D01*
X14065000Y-20497500D01*
X14093571Y-20483214D01*
X14150714Y-20483214D01*
X14179286Y-20497500D01*
X14193571Y-20526072D01*
X14193571Y-20554643D01*
X14050714Y-20583214D01*
X14307857Y-20668929D02*
X14336428Y-20683214D01*
X14393571Y-20683214D01*
X14422143Y-20668929D01*
X14436428Y-20640357D01*
X14436428Y-20626072D01*
X14422143Y-20597500D01*
X14393571Y-20583214D01*
X14350714Y-20583214D01*
X14322143Y-20568929D01*
X14307857Y-20540357D01*
X14307857Y-20526072D01*
X14322143Y-20497500D01*
X14350714Y-20483214D01*
X14393571Y-20483214D01*
X14422143Y-20497500D01*
X14536428Y-20797500D02*
X14550714Y-20783214D01*
X14579286Y-20740357D01*
X14593571Y-20711786D01*
X14607857Y-20668929D01*
X14622143Y-20597500D01*
X14622143Y-20540357D01*
X14607857Y-20468929D01*
X14593571Y-20426072D01*
X14579286Y-20397500D01*
X14550714Y-20354643D01*
X14536428Y-20340357D01*
X7990000Y-21003500D02*
X8050000Y-20943500D01*
X7990000Y-20883500D01*
X7930000Y-20943500D01*
X7990000Y-21003500D01*
X8050000Y-20943500D02*
G75*
G03X8050000Y-20943500I-60000J0D01*
G01*
X8493571Y-21079214D02*
X8322143Y-21079214D01*
X8407857Y-21079214D02*
X8407857Y-20779214D01*
X8379286Y-20822072D01*
X8350714Y-20850643D01*
X8322143Y-20864929D01*
X8622143Y-21050643D02*
X8636429Y-21064929D01*
X8622143Y-21079214D01*
X8607857Y-21064929D01*
X8622143Y-21050643D01*
X8622143Y-21079214D01*
X8750714Y-20807786D02*
X8765000Y-20793500D01*
X8793571Y-20779214D01*
X8865000Y-20779214D01*
X8893571Y-20793500D01*
X8907857Y-20807786D01*
X8922143Y-20836357D01*
X8922143Y-20864929D01*
X8907857Y-20907786D01*
X8736429Y-21079214D01*
X8922143Y-21079214D01*
X9107857Y-20779214D02*
X9136429Y-20779214D01*
X9165000Y-20793500D01*
X9179286Y-20807786D01*
X9193571Y-20836357D01*
X9207857Y-20893500D01*
X9207857Y-20964929D01*
X9193571Y-21022072D01*
X9179286Y-21050643D01*
X9165000Y-21064929D01*
X9136429Y-21079214D01*
X9107857Y-21079214D01*
X9079286Y-21064929D01*
X9065000Y-21050643D01*
X9050714Y-21022072D01*
X9036429Y-20964929D01*
X9036429Y-20893500D01*
X9050714Y-20836357D01*
X9065000Y-20807786D01*
X9079286Y-20793500D01*
X9107857Y-20779214D01*
X9336429Y-21079214D02*
X9336429Y-20879214D01*
X9336429Y-20907786D02*
X9350714Y-20893500D01*
X9379286Y-20879214D01*
X9422143Y-20879214D01*
X9450714Y-20893500D01*
X9465000Y-20922072D01*
X9465000Y-21079214D01*
X9465000Y-20922072D02*
X9479286Y-20893500D01*
X9507857Y-20879214D01*
X9550714Y-20879214D01*
X9579286Y-20893500D01*
X9593571Y-20922072D01*
X9593571Y-21079214D01*
X9736429Y-21079214D02*
X9736429Y-20879214D01*
X9736429Y-20907786D02*
X9750714Y-20893500D01*
X9779286Y-20879214D01*
X9822143Y-20879214D01*
X9850714Y-20893500D01*
X9865000Y-20922072D01*
X9865000Y-21079214D01*
X9865000Y-20922072D02*
X9879286Y-20893500D01*
X9907857Y-20879214D01*
X9950714Y-20879214D01*
X9979286Y-20893500D01*
X9993571Y-20922072D01*
X9993571Y-21079214D01*
X10579286Y-20764929D02*
X10322143Y-21150643D01*
X10965000Y-20779214D02*
X10993571Y-20779214D01*
X11022143Y-20793500D01*
X11036429Y-20807786D01*
X11050714Y-20836357D01*
X11065000Y-20893500D01*
X11065000Y-20964929D01*
X11050714Y-21022072D01*
X11036429Y-21050643D01*
X11022143Y-21064929D01*
X10993571Y-21079214D01*
X10965000Y-21079214D01*
X10936429Y-21064929D01*
X10922143Y-21050643D01*
X10907857Y-21022072D01*
X10893571Y-20964929D01*
X10893571Y-20893500D01*
X10907857Y-20836357D01*
X10922143Y-20807786D01*
X10936429Y-20793500D01*
X10965000Y-20779214D01*
X11193571Y-21050643D02*
X11207857Y-21064929D01*
X11193571Y-21079214D01*
X11179286Y-21064929D01*
X11193571Y-21050643D01*
X11193571Y-21079214D01*
X11393571Y-20779214D02*
X11422143Y-20779214D01*
X11450714Y-20793500D01*
X11465000Y-20807786D01*
X11479286Y-20836357D01*
X11493571Y-20893500D01*
X11493571Y-20964929D01*
X11479286Y-21022072D01*
X11465000Y-21050643D01*
X11450714Y-21064929D01*
X11422143Y-21079214D01*
X11393571Y-21079214D01*
X11365000Y-21064929D01*
X11350714Y-21050643D01*
X11336428Y-21022072D01*
X11322143Y-20964929D01*
X11322143Y-20893500D01*
X11336428Y-20836357D01*
X11350714Y-20807786D01*
X11365000Y-20793500D01*
X11393571Y-20779214D01*
X11750714Y-20879214D02*
X11750714Y-21079214D01*
X11679286Y-20764929D02*
X11607857Y-20979214D01*
X11793571Y-20979214D01*
X11879286Y-20779214D02*
X12079286Y-20779214D01*
X11950714Y-21079214D01*
X12179286Y-20779214D02*
X12179286Y-20836357D01*
X12293571Y-20779214D02*
X12293571Y-20836357D01*
X12736428Y-21193500D02*
X12722143Y-21179214D01*
X12693571Y-21136357D01*
X12679286Y-21107786D01*
X12665000Y-21064929D01*
X12650714Y-20993500D01*
X12650714Y-20936357D01*
X12665000Y-20864929D01*
X12679286Y-20822072D01*
X12693571Y-20793500D01*
X12722143Y-20750643D01*
X12736428Y-20736357D01*
X13007857Y-21079214D02*
X12836428Y-21079214D01*
X12922143Y-21079214D02*
X12922143Y-20779214D01*
X12893571Y-20822072D01*
X12865000Y-20850643D01*
X12836428Y-20864929D01*
X13265000Y-20879214D02*
X13265000Y-21079214D01*
X13193571Y-20764929D02*
X13122143Y-20979214D01*
X13307857Y-20979214D01*
X13650714Y-21079214D02*
X13650714Y-20779214D01*
X13779286Y-21079214D02*
X13779286Y-20922072D01*
X13765000Y-20893500D01*
X13736428Y-20879214D01*
X13693571Y-20879214D01*
X13665000Y-20893500D01*
X13650714Y-20907786D01*
X13965000Y-21079214D02*
X13936428Y-21064929D01*
X13922143Y-21050643D01*
X13907857Y-21022072D01*
X13907857Y-20936357D01*
X13922143Y-20907786D01*
X13936428Y-20893500D01*
X13965000Y-20879214D01*
X14007857Y-20879214D01*
X14036428Y-20893500D01*
X14050714Y-20907786D01*
X14065000Y-20936357D01*
X14065000Y-21022072D01*
X14050714Y-21050643D01*
X14036428Y-21064929D01*
X14007857Y-21079214D01*
X13965000Y-21079214D01*
X14236428Y-21079214D02*
X14207857Y-21064929D01*
X14193571Y-21036357D01*
X14193571Y-20779214D01*
X14465000Y-21064929D02*
X14436428Y-21079214D01*
X14379286Y-21079214D01*
X14350714Y-21064929D01*
X14336428Y-21036357D01*
X14336428Y-20922072D01*
X14350714Y-20893500D01*
X14379286Y-20879214D01*
X14436428Y-20879214D01*
X14465000Y-20893500D01*
X14479286Y-20922072D01*
X14479286Y-20950643D01*
X14336428Y-20979214D01*
X14593571Y-21064929D02*
X14622143Y-21079214D01*
X14679286Y-21079214D01*
X14707857Y-21064929D01*
X14722143Y-21036357D01*
X14722143Y-21022072D01*
X14707857Y-20993500D01*
X14679286Y-20979214D01*
X14636428Y-20979214D01*
X14607857Y-20964929D01*
X14593571Y-20936357D01*
X14593571Y-20922072D01*
X14607857Y-20893500D01*
X14636428Y-20879214D01*
X14679286Y-20879214D01*
X14707857Y-20893500D01*
X14822143Y-21193500D02*
X14836428Y-21179214D01*
X14865000Y-21136357D01*
X14879286Y-21107786D01*
X14893571Y-21064929D01*
X14907857Y-20993500D01*
X14907857Y-20936357D01*
X14893571Y-20864929D01*
X14879286Y-20822072D01*
X14865000Y-20793500D01*
X14836428Y-20750643D01*
X14822143Y-20736357D01*
X7970000Y-21259500D02*
X7970000Y-21419500D01*
X7890000Y-21339500D02*
X8050000Y-21339500D01*
X8026569Y-21396069D02*
X8026569Y-21282931D01*
X7913431Y-21282931D01*
X7913431Y-21396069D01*
X8026569Y-21396069D01*
X8493571Y-21475214D02*
X8322143Y-21475214D01*
X8407857Y-21475214D02*
X8407857Y-21175214D01*
X8379286Y-21218072D01*
X8350714Y-21246643D01*
X8322143Y-21260929D01*
X8622143Y-21446643D02*
X8636429Y-21460929D01*
X8622143Y-21475214D01*
X8607857Y-21460929D01*
X8622143Y-21446643D01*
X8622143Y-21475214D01*
X8893571Y-21175214D02*
X8836429Y-21175214D01*
X8807857Y-21189500D01*
X8793571Y-21203786D01*
X8765000Y-21246643D01*
X8750714Y-21303786D01*
X8750714Y-21418072D01*
X8765000Y-21446643D01*
X8779286Y-21460929D01*
X8807857Y-21475214D01*
X8865000Y-21475214D01*
X8893571Y-21460929D01*
X8907857Y-21446643D01*
X8922143Y-21418072D01*
X8922143Y-21346643D01*
X8907857Y-21318072D01*
X8893571Y-21303786D01*
X8865000Y-21289500D01*
X8807857Y-21289500D01*
X8779286Y-21303786D01*
X8765000Y-21318072D01*
X8750714Y-21346643D01*
X9107857Y-21175214D02*
X9136429Y-21175214D01*
X9165000Y-21189500D01*
X9179286Y-21203786D01*
X9193571Y-21232357D01*
X9207857Y-21289500D01*
X9207857Y-21360929D01*
X9193571Y-21418072D01*
X9179286Y-21446643D01*
X9165000Y-21460929D01*
X9136429Y-21475214D01*
X9107857Y-21475214D01*
X9079286Y-21460929D01*
X9065000Y-21446643D01*
X9050714Y-21418072D01*
X9036429Y-21360929D01*
X9036429Y-21289500D01*
X9050714Y-21232357D01*
X9065000Y-21203786D01*
X9079286Y-21189500D01*
X9107857Y-21175214D01*
X9336429Y-21475214D02*
X9336429Y-21275214D01*
X9336429Y-21303786D02*
X9350714Y-21289500D01*
X9379286Y-21275214D01*
X9422143Y-21275214D01*
X9450714Y-21289500D01*
X9465000Y-21318072D01*
X9465000Y-21475214D01*
X9465000Y-21318072D02*
X9479286Y-21289500D01*
X9507857Y-21275214D01*
X9550714Y-21275214D01*
X9579286Y-21289500D01*
X9593571Y-21318072D01*
X9593571Y-21475214D01*
X9736429Y-21475214D02*
X9736429Y-21275214D01*
X9736429Y-21303786D02*
X9750714Y-21289500D01*
X9779286Y-21275214D01*
X9822143Y-21275214D01*
X9850714Y-21289500D01*
X9865000Y-21318072D01*
X9865000Y-21475214D01*
X9865000Y-21318072D02*
X9879286Y-21289500D01*
X9907857Y-21275214D01*
X9950714Y-21275214D01*
X9979286Y-21289500D01*
X9993571Y-21318072D01*
X9993571Y-21475214D01*
X10579286Y-21160929D02*
X10322143Y-21546643D01*
X10965000Y-21175214D02*
X10993571Y-21175214D01*
X11022143Y-21189500D01*
X11036429Y-21203786D01*
X11050714Y-21232357D01*
X11065000Y-21289500D01*
X11065000Y-21360929D01*
X11050714Y-21418072D01*
X11036429Y-21446643D01*
X11022143Y-21460929D01*
X10993571Y-21475214D01*
X10965000Y-21475214D01*
X10936429Y-21460929D01*
X10922143Y-21446643D01*
X10907857Y-21418072D01*
X10893571Y-21360929D01*
X10893571Y-21289500D01*
X10907857Y-21232357D01*
X10922143Y-21203786D01*
X10936429Y-21189500D01*
X10965000Y-21175214D01*
X11193571Y-21446643D02*
X11207857Y-21460929D01*
X11193571Y-21475214D01*
X11179286Y-21460929D01*
X11193571Y-21446643D01*
X11193571Y-21475214D01*
X11393571Y-21175214D02*
X11422143Y-21175214D01*
X11450714Y-21189500D01*
X11465000Y-21203786D01*
X11479286Y-21232357D01*
X11493571Y-21289500D01*
X11493571Y-21360929D01*
X11479286Y-21418072D01*
X11465000Y-21446643D01*
X11450714Y-21460929D01*
X11422143Y-21475214D01*
X11393571Y-21475214D01*
X11365000Y-21460929D01*
X11350714Y-21446643D01*
X11336428Y-21418072D01*
X11322143Y-21360929D01*
X11322143Y-21289500D01*
X11336428Y-21232357D01*
X11350714Y-21203786D01*
X11365000Y-21189500D01*
X11393571Y-21175214D01*
X11750714Y-21175214D02*
X11693571Y-21175214D01*
X11665000Y-21189500D01*
X11650714Y-21203786D01*
X11622143Y-21246643D01*
X11607857Y-21303786D01*
X11607857Y-21418072D01*
X11622143Y-21446643D01*
X11636428Y-21460929D01*
X11665000Y-21475214D01*
X11722143Y-21475214D01*
X11750714Y-21460929D01*
X11765000Y-21446643D01*
X11779286Y-21418072D01*
X11779286Y-21346643D01*
X11765000Y-21318072D01*
X11750714Y-21303786D01*
X11722143Y-21289500D01*
X11665000Y-21289500D01*
X11636428Y-21303786D01*
X11622143Y-21318072D01*
X11607857Y-21346643D01*
X11879286Y-21175214D02*
X12065000Y-21175214D01*
X11965000Y-21289500D01*
X12007857Y-21289500D01*
X12036428Y-21303786D01*
X12050714Y-21318072D01*
X12065000Y-21346643D01*
X12065000Y-21418072D01*
X12050714Y-21446643D01*
X12036428Y-21460929D01*
X12007857Y-21475214D01*
X11922143Y-21475214D01*
X11893571Y-21460929D01*
X11879286Y-21446643D01*
X12179286Y-21175214D02*
X12179286Y-21232357D01*
X12293571Y-21175214D02*
X12293571Y-21232357D01*
X12736428Y-21589500D02*
X12722143Y-21575214D01*
X12693571Y-21532357D01*
X12679286Y-21503786D01*
X12665000Y-21460929D01*
X12650714Y-21389500D01*
X12650714Y-21332357D01*
X12665000Y-21260929D01*
X12679286Y-21218072D01*
X12693571Y-21189500D01*
X12722143Y-21146643D01*
X12736428Y-21132357D01*
X12993571Y-21175214D02*
X12850714Y-21175214D01*
X12836428Y-21318072D01*
X12850714Y-21303786D01*
X12879286Y-21289500D01*
X12950714Y-21289500D01*
X12979286Y-21303786D01*
X12993571Y-21318072D01*
X13007857Y-21346643D01*
X13007857Y-21418072D01*
X12993571Y-21446643D01*
X12979286Y-21460929D01*
X12950714Y-21475214D01*
X12879286Y-21475214D01*
X12850714Y-21460929D01*
X12836428Y-21446643D01*
X13365000Y-21475214D02*
X13365000Y-21175214D01*
X13493571Y-21475214D02*
X13493571Y-21318072D01*
X13479286Y-21289500D01*
X13450714Y-21275214D01*
X13407857Y-21275214D01*
X13379286Y-21289500D01*
X13365000Y-21303786D01*
X13679286Y-21475214D02*
X13650714Y-21460929D01*
X13636428Y-21446643D01*
X13622143Y-21418072D01*
X13622143Y-21332357D01*
X13636428Y-21303786D01*
X13650714Y-21289500D01*
X13679286Y-21275214D01*
X13722143Y-21275214D01*
X13750714Y-21289500D01*
X13765000Y-21303786D01*
X13779286Y-21332357D01*
X13779286Y-21418072D01*
X13765000Y-21446643D01*
X13750714Y-21460929D01*
X13722143Y-21475214D01*
X13679286Y-21475214D01*
X13950714Y-21475214D02*
X13922143Y-21460929D01*
X13907857Y-21432357D01*
X13907857Y-21175214D01*
X14179286Y-21460929D02*
X14150714Y-21475214D01*
X14093571Y-21475214D01*
X14065000Y-21460929D01*
X14050714Y-21432357D01*
X14050714Y-21318072D01*
X14065000Y-21289500D01*
X14093571Y-21275214D01*
X14150714Y-21275214D01*
X14179286Y-21289500D01*
X14193571Y-21318072D01*
X14193571Y-21346643D01*
X14050714Y-21375214D01*
X14307857Y-21460929D02*
X14336428Y-21475214D01*
X14393571Y-21475214D01*
X14422143Y-21460929D01*
X14436428Y-21432357D01*
X14436428Y-21418072D01*
X14422143Y-21389500D01*
X14393571Y-21375214D01*
X14350714Y-21375214D01*
X14322143Y-21360929D01*
X14307857Y-21332357D01*
X14307857Y-21318072D01*
X14322143Y-21289500D01*
X14350714Y-21275214D01*
X14393571Y-21275214D01*
X14422143Y-21289500D01*
X14536428Y-21589500D02*
X14550714Y-21575214D01*
X14579286Y-21532357D01*
X14593571Y-21503786D01*
X14607857Y-21460929D01*
X14622143Y-21389500D01*
X14622143Y-21332357D01*
X14607857Y-21260929D01*
X14593571Y-21218072D01*
X14579286Y-21189500D01*
X14550714Y-21146643D01*
X14536428Y-21132357D01*
X7935000Y-21620500D02*
X7935000Y-21850500D01*
X7820000Y-21735500D02*
X8050000Y-21735500D01*
X7935000Y-21850500D02*
X8050000Y-21735500D01*
X7935000Y-21620500D01*
X7820000Y-21735500D01*
X7935000Y-21850500D01*
X8322143Y-21599786D02*
X8336428Y-21585500D01*
X8365000Y-21571214D01*
X8436429Y-21571214D01*
X8465000Y-21585500D01*
X8479286Y-21599786D01*
X8493571Y-21628357D01*
X8493571Y-21656929D01*
X8479286Y-21699786D01*
X8307857Y-21871214D01*
X8493571Y-21871214D01*
X8622143Y-21842643D02*
X8636429Y-21856929D01*
X8622143Y-21871214D01*
X8607857Y-21856929D01*
X8622143Y-21842643D01*
X8622143Y-21871214D01*
X8736429Y-21571214D02*
X8922143Y-21571214D01*
X8822143Y-21685500D01*
X8865000Y-21685500D01*
X8893571Y-21699786D01*
X8907857Y-21714072D01*
X8922143Y-21742643D01*
X8922143Y-21814072D01*
X8907857Y-21842643D01*
X8893571Y-21856929D01*
X8865000Y-21871214D01*
X8779286Y-21871214D01*
X8750714Y-21856929D01*
X8736429Y-21842643D01*
X9107857Y-21571214D02*
X9136429Y-21571214D01*
X9165000Y-21585500D01*
X9179286Y-21599786D01*
X9193571Y-21628357D01*
X9207857Y-21685500D01*
X9207857Y-21756929D01*
X9193571Y-21814072D01*
X9179286Y-21842643D01*
X9165000Y-21856929D01*
X9136429Y-21871214D01*
X9107857Y-21871214D01*
X9079286Y-21856929D01*
X9065000Y-21842643D01*
X9050714Y-21814072D01*
X9036429Y-21756929D01*
X9036429Y-21685500D01*
X9050714Y-21628357D01*
X9065000Y-21599786D01*
X9079286Y-21585500D01*
X9107857Y-21571214D01*
X9336429Y-21871214D02*
X9336429Y-21671214D01*
X9336429Y-21699786D02*
X9350714Y-21685500D01*
X9379286Y-21671214D01*
X9422143Y-21671214D01*
X9450714Y-21685500D01*
X9465000Y-21714072D01*
X9465000Y-21871214D01*
X9465000Y-21714072D02*
X9479286Y-21685500D01*
X9507857Y-21671214D01*
X9550714Y-21671214D01*
X9579286Y-21685500D01*
X9593571Y-21714072D01*
X9593571Y-21871214D01*
X9736429Y-21871214D02*
X9736429Y-21671214D01*
X9736429Y-21699786D02*
X9750714Y-21685500D01*
X9779286Y-21671214D01*
X9822143Y-21671214D01*
X9850714Y-21685500D01*
X9865000Y-21714072D01*
X9865000Y-21871214D01*
X9865000Y-21714072D02*
X9879286Y-21685500D01*
X9907857Y-21671214D01*
X9950714Y-21671214D01*
X9979286Y-21685500D01*
X9993571Y-21714072D01*
X9993571Y-21871214D01*
X10579286Y-21556929D02*
X10322143Y-21942643D01*
X10965000Y-21571214D02*
X10993571Y-21571214D01*
X11022143Y-21585500D01*
X11036429Y-21599786D01*
X11050714Y-21628357D01*
X11065000Y-21685500D01*
X11065000Y-21756929D01*
X11050714Y-21814072D01*
X11036429Y-21842643D01*
X11022143Y-21856929D01*
X10993571Y-21871214D01*
X10965000Y-21871214D01*
X10936429Y-21856929D01*
X10922143Y-21842643D01*
X10907857Y-21814072D01*
X10893571Y-21756929D01*
X10893571Y-21685500D01*
X10907857Y-21628357D01*
X10922143Y-21599786D01*
X10936429Y-21585500D01*
X10965000Y-21571214D01*
X11193571Y-21842643D02*
X11207857Y-21856929D01*
X11193571Y-21871214D01*
X11179286Y-21856929D01*
X11193571Y-21842643D01*
X11193571Y-21871214D01*
X11393571Y-21571214D02*
X11422143Y-21571214D01*
X11450714Y-21585500D01*
X11465000Y-21599786D01*
X11479286Y-21628357D01*
X11493571Y-21685500D01*
X11493571Y-21756929D01*
X11479286Y-21814072D01*
X11465000Y-21842643D01*
X11450714Y-21856929D01*
X11422143Y-21871214D01*
X11393571Y-21871214D01*
X11365000Y-21856929D01*
X11350714Y-21842643D01*
X11336428Y-21814072D01*
X11322143Y-21756929D01*
X11322143Y-21685500D01*
X11336428Y-21628357D01*
X11350714Y-21599786D01*
X11365000Y-21585500D01*
X11393571Y-21571214D01*
X11636428Y-21871214D02*
X11693571Y-21871214D01*
X11722143Y-21856929D01*
X11736428Y-21842643D01*
X11765000Y-21799786D01*
X11779286Y-21742643D01*
X11779286Y-21628357D01*
X11765000Y-21599786D01*
X11750714Y-21585500D01*
X11722143Y-21571214D01*
X11665000Y-21571214D01*
X11636428Y-21585500D01*
X11622143Y-21599786D01*
X11607857Y-21628357D01*
X11607857Y-21699786D01*
X11622143Y-21728357D01*
X11636428Y-21742643D01*
X11665000Y-21756929D01*
X11722143Y-21756929D01*
X11750714Y-21742643D01*
X11765000Y-21728357D01*
X11779286Y-21699786D01*
X12065000Y-21871214D02*
X11893571Y-21871214D01*
X11979286Y-21871214D02*
X11979286Y-21571214D01*
X11950714Y-21614072D01*
X11922143Y-21642643D01*
X11893571Y-21656929D01*
X12179286Y-21571214D02*
X12179286Y-21628357D01*
X12293571Y-21571214D02*
X12293571Y-21628357D01*
X12736428Y-21985500D02*
X12722143Y-21971214D01*
X12693571Y-21928357D01*
X12679286Y-21899786D01*
X12665000Y-21856929D01*
X12650714Y-21785500D01*
X12650714Y-21728357D01*
X12665000Y-21656929D01*
X12679286Y-21614072D01*
X12693571Y-21585500D01*
X12722143Y-21542643D01*
X12736428Y-21528357D01*
X12836428Y-21599786D02*
X12850714Y-21585500D01*
X12879286Y-21571214D01*
X12950714Y-21571214D01*
X12979286Y-21585500D01*
X12993571Y-21599786D01*
X13007857Y-21628357D01*
X13007857Y-21656929D01*
X12993571Y-21699786D01*
X12822143Y-21871214D01*
X13007857Y-21871214D01*
X13365000Y-21871214D02*
X13365000Y-21571214D01*
X13493571Y-21871214D02*
X13493571Y-21714072D01*
X13479286Y-21685500D01*
X13450714Y-21671214D01*
X13407857Y-21671214D01*
X13379286Y-21685500D01*
X13365000Y-21699786D01*
X13679286Y-21871214D02*
X13650714Y-21856929D01*
X13636428Y-21842643D01*
X13622143Y-21814072D01*
X13622143Y-21728357D01*
X13636428Y-21699786D01*
X13650714Y-21685500D01*
X13679286Y-21671214D01*
X13722143Y-21671214D01*
X13750714Y-21685500D01*
X13765000Y-21699786D01*
X13779286Y-21728357D01*
X13779286Y-21814072D01*
X13765000Y-21842643D01*
X13750714Y-21856929D01*
X13722143Y-21871214D01*
X13679286Y-21871214D01*
X13950714Y-21871214D02*
X13922143Y-21856929D01*
X13907857Y-21828357D01*
X13907857Y-21571214D01*
X14179286Y-21856929D02*
X14150714Y-21871214D01*
X14093571Y-21871214D01*
X14065000Y-21856929D01*
X14050714Y-21828357D01*
X14050714Y-21714072D01*
X14065000Y-21685500D01*
X14093571Y-21671214D01*
X14150714Y-21671214D01*
X14179286Y-21685500D01*
X14193571Y-21714072D01*
X14193571Y-21742643D01*
X14050714Y-21771214D01*
X14307857Y-21856929D02*
X14336428Y-21871214D01*
X14393571Y-21871214D01*
X14422143Y-21856929D01*
X14436428Y-21828357D01*
X14436428Y-21814072D01*
X14422143Y-21785500D01*
X14393571Y-21771214D01*
X14350714Y-21771214D01*
X14322143Y-21756929D01*
X14307857Y-21728357D01*
X14307857Y-21714072D01*
X14322143Y-21685500D01*
X14350714Y-21671214D01*
X14393571Y-21671214D01*
X14422143Y-21685500D01*
X14536428Y-21985500D02*
X14550714Y-21971214D01*
X14579286Y-21928357D01*
X14593571Y-21899786D01*
X14607857Y-21856929D01*
X14622143Y-21785500D01*
X14622143Y-21728357D01*
X14607857Y-21656929D01*
X14593571Y-21614072D01*
X14579286Y-21585500D01*
X14550714Y-21542643D01*
X14536428Y-21528357D01*
M02*
