M48
; DRILL file {KiCad (5.1.5)-3} date 12/6/2020 10:31:14 AM
; FORMAT={-:-/ absolute / metric / decimal}
; #@! TF.CreationDate,2020-12-06T10:31:14+05:30
; #@! TF.GenerationSoftware,Kicad,Pcbnew,(5.1.5)-3
; #@! TF.FileFunction,Plated,1,4,PTH
FMAT,2
METRIC
T1C0.200
T2C0.300
T3C0.400
T4C0.500
T5C0.600
T6C0.750
T7C0.800
T8C0.900
T9C0.920
T10C1.000
T11C1.100
T12C1.200
T13C1.600
T14C2.300
%
G90
G05
T1
X129.3Y-99.3
X130.4Y-98.3
X131.4Y-97.3
X132.4Y-96.3
X134.2Y-94.6
X135.3Y-93.6
X136.2Y-92.7
X137.0Y-88.4
X137.2Y-91.7
X137.9Y-91.0
X146.3Y-89.3
X147.6Y-90.4
X147.9Y-87.5
X148.9Y-88.6
X149.0Y-86.4
X150.1Y-87.5
X150.711Y-84.9
T2
X85.7Y-59.1
X86.425Y-64.55
X87.3Y-69.625
X88.35Y-62.45
X92.2Y-59.1
X92.2Y-69.625
X93.1Y-78.2
X93.2Y-62.3
X93.7Y-59.5
X97.65Y-58.5
X99.3Y-141.6
X99.3Y-145.5
X99.4Y-137.7
X101.5Y-80.7
X103.0Y-61.9
X103.455Y-80.337
X103.5Y-59.5
X105.1Y-79.9
X106.25Y-88.3
X106.3Y-128.8
X106.6Y-134.8
X106.6Y-138.5
X106.8Y-146.1
X106.9Y-142.2
X106.99Y-60.7
X107.188Y-70.562
X108.5Y-61.9
X108.6Y-69.1
X110.66Y-79.82
X110.94Y-86.83
X111.5Y-111.2
X112.0Y-94.7
X113.1Y-69.1
X114.6Y-91.2
X114.7Y-66.1
X114.775Y-125.69
X115.7Y-83.2
X115.7Y-68.0
X115.805Y-102.056
X116.0Y-103.9
X116.6Y-59.8
X116.6Y-92.2
X118.1Y-112.7
X118.4Y-71.5
X118.4Y-93.1
X118.4Y-99.4
X118.5Y-83.7
X118.8Y-121.6
X118.9Y-69.6
X119.3Y-90.7
X119.7Y-60.8
X120.7Y-113.1
X121.333Y-101.759
X121.5Y-97.7
X121.5Y-99.4
X121.7Y-69.6
X122.0Y-77.3
X122.4Y-79.7
X122.456Y-89.505
X122.8Y-113.1
X122.833Y-75.717
X123.4Y-106.9
X123.5Y-89.4
X124.9Y-97.8
X126.3Y-126.3
X126.725Y-128.306
X126.9Y-99.3
X127.3Y-63.3
X127.8Y-79.8
X127.9Y-57.1
X129.0Y-87.85
X129.2Y-127.5
X129.2Y-84.2
X129.227Y-82.506
X129.4Y-86.2
X130.0Y-94.45
X130.1Y-63.2
X131.9Y-149.2
X132.012Y-142.912
X132.5Y-61.4
X133.1Y-78.5
X134.4Y-57.9
X134.8Y-61.2
X135.2Y-84.0
X135.2Y-85.0
X135.7Y-70.4
X136.4Y-80.2
X136.5Y-123.9
X136.975Y-148.275
X137.271Y-68.882
X137.65Y-77.6
X137.817Y-114.532
X137.825Y-67.6
X138.1Y-110.2
X138.2Y-63.4
X138.2Y-113.0
X138.5Y-87.1
X138.7Y-66.5
X139.2Y-75.6
X139.35Y-63.495
X139.4Y-111.9
X139.55Y-59.5
X140.1Y-80.6
X140.5Y-74.4
X141.2Y-79.0
X141.2Y-115.8
X141.5Y-63.1
X141.625Y-57.225
X142.3Y-114.7
X142.8Y-69.4
X143.1Y-149.0
X143.2Y-57.2
X144.0Y-119.9
X144.1Y-123.6
X145.1Y-69.3
X145.8Y-96.5
X146.316Y-75.446
X146.5Y-127.9
X147.0Y-123.9
X147.1Y-59.6
X147.1Y-64.5
X147.1Y-125.2
X147.2Y-122.0
X147.3Y-63.3
X147.353Y-76.563
X148.0Y-65.7
X148.1Y-80.3
X148.118Y-75.126
X148.226Y-95.848
X148.8Y-115.4
X149.2Y-60.1
X149.47Y-121.4
X149.55Y-65.032
X149.6Y-74.2
X150.5Y-127.618
X150.6Y-121.5
X150.7Y-111.714
X150.801Y-75.7
X151.4Y-126.5
X151.5Y-104.3
X151.5Y-113.3
X151.55Y-73.5
X151.7Y-70.0
X151.8Y-129.7
X151.9Y-108.136
X153.0Y-112.2
X153.2Y-76.7
X153.3Y-75.5
X155.0Y-73.3
X155.1Y-105.5
X155.8Y-103.4
X156.0Y-126.2
X156.5Y-76.8
X156.5Y-101.5
X156.5Y-113.0
X156.702Y-78.549
X157.3Y-108.2
X157.95Y-100.3
X158.6Y-125.3
X158.8Y-114.4
X159.0Y-110.0
X160.2Y-94.4
X160.65Y-99.2
X161.2Y-109.7
X161.21Y-108.21
X161.8Y-112.5
X162.0Y-100.7
X162.4Y-107.225
X163.1Y-85.0
X163.8Y-113.1
X163.99Y-95.606
X164.3Y-102.6
X166.4Y-117.4
X166.7Y-111.2
X167.7Y-105.1
X167.705Y-98.905
X168.1Y-103.6
X168.15Y-76.2
X168.7Y-93.6
X168.7Y-113.55
X169.4Y-76.0
X170.342Y-105.865
X170.8Y-110.376
X170.9Y-114.1
X171.2Y-104.7
X171.4Y-97.4
X171.4Y-119.2
X172.75Y-121.25
X172.8Y-98.6
X173.1Y-102.1
X174.0Y-63.3
X174.0Y-64.7
X174.2Y-129.9
X174.3Y-97.5
X174.4Y-85.9
X174.9Y-63.3
X175.0Y-64.7
X175.4Y-148.6
X175.517Y-108.545
X176.13Y-98.85
X176.5Y-144.7
X176.55Y-104.6
X176.6Y-96.4
X176.694Y-111.55
X177.2Y-100.28
X177.4Y-116.3
X178.249Y-103.985
X178.332Y-123.386
X180.6Y-116.8
X181.3Y-96.4
X182.3Y-99.3
X186.175Y-131.325
X186.794Y-138.156
X188.8Y-63.9
X188.8Y-65.1
X190.0Y-63.8
X190.0Y-65.1
T3
X87.062Y-80.537
X89.2Y-70.65
X90.89Y-85.748
X91.6Y-90.2
X91.9Y-83.2
X93.8Y-64.3
X94.1Y-76.0
X94.3Y-69.5
X95.0Y-89.8
X96.0Y-88.4
X97.1Y-71.5
X98.2Y-70.6
X98.35Y-80.25
X99.6Y-69.5
X99.6Y-76.3
X99.8Y-92.3
X100.1Y-113.8
X100.1Y-115.3
X100.6Y-114.5
X100.7Y-116.9
X101.1Y-113.8
X101.1Y-115.3
X101.6Y-114.5
X102.1Y-113.8
X102.1Y-115.3
X103.1Y-132.1
X103.9Y-97.5
X104.9Y-118.05
X105.2Y-113.8
X105.2Y-115.4
X105.8Y-114.6
X106.1Y-97.6
X106.3Y-113.8
X106.3Y-115.4
X106.9Y-114.6
X107.315Y-118.115
X107.4Y-115.4
X107.5Y-76.6
X107.5Y-113.8
X108.0Y-114.6
X108.3Y-123.0
X108.4Y-58.5
X108.6Y-113.8
X109.68Y-88.8
X113.0Y-72.7
X113.0Y-113.85
X114.0Y-116.9
X114.2Y-149.1
X114.9Y-118.9
X116.0Y-90.0
X116.1Y-149.0
X117.1Y-97.5
X118.0Y-146.7
X118.0Y-148.9
X118.3Y-77.4
X118.6Y-96.2
X119.9Y-146.7
X119.9Y-148.8
X121.1Y-143.5
X121.2Y-102.9
X121.85Y-131.75
X122.0Y-146.7
X122.1Y-139.5
X122.1Y-148.8
X122.2Y-142.2
X122.7Y-94.2
X125.4Y-59.8
X126.1Y-145.2
X127.1Y-110.5
X127.25Y-138.55
X127.4Y-149.0
X128.4Y-89.1
X131.15Y-90.0
X132.3Y-70.7
X132.8Y-72.5
X133.1Y-140.1
X133.425Y-58.975
X134.686Y-76.965
X134.8Y-145.8
X135.445Y-140.095
X138.4Y-140.2
X139.0Y-145.3
X140.0Y-86.6
X140.4Y-147.8
X141.2Y-146.6
X141.3Y-133.0
X142.3Y-88.15
X142.6Y-121.4
X143.1Y-127.1
X143.181Y-81.15
X144.0Y-72.5
X144.5Y-80.6
X145.3Y-103.8
X145.5Y-112.8
X148.141Y-77.5
X149.0Y-93.3
X150.5Y-146.9
X150.8Y-102.2
X152.3Y-110.2
X153.4Y-142.6
X153.6Y-122.3
X153.9Y-94.7
X154.012Y-148.713
X154.3Y-115.3
X154.4Y-141.7
X155.0Y-121.7
X155.0Y-143.9
X155.4Y-142.6
X156.2Y-94.9
X156.2Y-131.5
X156.3Y-84.2
X156.3Y-133.7
X156.4Y-141.6
X156.5Y-143.9
X156.95Y-129.5
X157.3Y-142.7
X157.5Y-84.2
X157.6Y-87.7
X158.1Y-141.6
X158.2Y-143.9
X159.1Y-142.6
X159.15Y-90.85
X159.15Y-87.35
X159.6Y-126.3
X160.5Y-102.7
X161.4Y-127.4
X162.3Y-140.9
X162.69Y-126.015
X163.2Y-96.3
X163.4Y-148.3
X163.525Y-126.975
X163.9Y-143.0
X164.1Y-106.2
X164.3Y-140.9
X165.4Y-148.3
X165.9Y-109.1
X166.0Y-143.0
X166.125Y-123.6
X166.4Y-140.9
X167.4Y-148.2
X169.15Y-123.575
X171.4Y-130.6
X174.0Y-148.7
X174.57Y-123.83
X177.975Y-143.1
X178.5Y-111.1
X178.6Y-133.7
X180.625Y-137.225
X181.25Y-132.325
X181.25Y-134.7
X181.475Y-139.625
X181.5Y-79.2
X183.2Y-72.2
X186.7Y-125.8
X187.0Y-120.3
X187.2Y-91.1
X187.2Y-109.6
X188.1Y-139.175
X190.2Y-108.5
X192.5Y-113.5
X192.5Y-115.9
X192.5Y-118.0
X192.822Y-101.722
X192.9Y-120.8
X193.25Y-123.95
X194.0Y-113.5
X194.0Y-115.9
X194.0Y-118.0
X197.5Y-113.5
X197.5Y-116.0
X197.5Y-118.0
T4
X93.1Y-130.6
X94.1Y-150.4
X100.1Y-130.2
X111.2Y-122.6
X113.5Y-102.25
X115.2Y-106.0
X117.7Y-132.4
X122.0Y-73.3
X127.3Y-75.2
X127.8Y-77.0
X128.9Y-133.1
X130.95Y-75.267
X131.075Y-145.6
X132.5Y-57.2
X137.3Y-65.5
X143.9Y-105.8
X148.35Y-105.95
X154.3Y-62.6
X157.0Y-70.0
X158.0Y-64.5
X162.7Y-61.6
X163.4Y-120.3
X174.3Y-75.5
X179.1Y-118.6
X180.3Y-125.3
X180.8Y-81.7
X181.9Y-130.6
X182.7Y-107.6
X186.0Y-100.1
X192.6Y-111.4
T5
X99.0Y-124.8
X101.2Y-58.5
X134.708Y-73.708
X134.85Y-141.45
X149.0Y-135.9
X149.4Y-134.3
X149.4Y-137.5
X150.55Y-135.9
X151.5Y-134.3
X151.5Y-137.5
X152.45Y-135.9
X155.7Y-80.5
X158.6Y-80.3
X159.7Y-70.3
X161.3Y-104.5
X166.3Y-62.3
X167.4Y-92.1
X169.4Y-84.6
X176.4Y-75.0
X180.7Y-58.0
X181.475Y-84.125
X181.5Y-88.0
X182.7Y-103.5
X184.2Y-59.8
X187.05Y-78.05
X187.4Y-146.2
X187.8Y-150.8
X189.2Y-146.2
X189.3Y-122.6
X189.8Y-150.8
X190.2Y-135.8
X196.15Y-135.75
X197.019Y-78.35
X197.1Y-73.7
X197.5Y-84.8
T6
X135.3Y-130.56
X135.3Y-131.83
X135.3Y-133.1
T7
X141.82Y-143.6
X144.36Y-143.6
X146.9Y-143.6
T8
X88.8Y-73.2
X88.8Y-75.74
T9
X196.5Y-92.75
X196.5Y-95.25
X198.5Y-92.75
X198.5Y-95.25
T10
X190.6Y-79.7
X91.56Y-134.54
X91.56Y-137.08
X91.56Y-139.62
X91.56Y-142.16
X91.56Y-144.7
X94.1Y-134.54
X94.1Y-137.08
X94.1Y-139.62
X94.1Y-142.16
X94.1Y-144.7
T11
X144.45Y-139.7
X146.99Y-139.7
X149.53Y-139.7
X102.8Y-103.2
X107.88Y-103.2
T12
X207.5Y-82.475
X132.112Y-122.588
X133.908Y-120.792
X135.704Y-118.996
X137.5Y-117.2
X91.6Y-110.5
X96.3Y-92.0
X96.3Y-99.0
X96.3Y-110.5
X198.2Y-139.2
X192.0Y-130.5
X194.54Y-130.5
X201.7Y-82.6
X188.2Y-148.5
T13
X200.0Y-146.0
X203.0Y-141.3
X206.0Y-146.0
X99.0Y-66.1
X99.0Y-83.0
T14
X201.21Y-87.98
X201.21Y-100.17
T0
M30
