G04 #@! TF.GenerationSoftware,KiCad,Pcbnew,(5.1.5)-3*
G04 #@! TF.CreationDate,2020-12-06T10:31:10+05:30*
G04 #@! TF.ProjectId,PC-1100X,50432d31-3130-4305-982e-6b696361645f,4*
G04 #@! TF.SameCoordinates,Original*
G04 #@! TF.FileFunction,OtherDrawing,Comment*
%FSLAX46Y46*%
G04 Gerber Fmt 4.6, Leading zero omitted, Abs format (unit mm)*
G04 Created by KiCad (PCBNEW (5.1.5)-3) date 2020-12-06 10:31:10*
%MOMM*%
%LPD*%
G04 APERTURE LIST*
%ADD10C,0.100000*%
%ADD11C,0.150000*%
%ADD12C,0.300000*%
%ADD13C,0.400000*%
G04 #@! TA.AperFunction,Profile*
%ADD14C,0.150000*%
G04 #@! TD*
%ADD15C,0.200000*%
G04 APERTURE END LIST*
D10*
D11*
X177002200Y-166007200D02*
X177002200Y-198007200D01*
X285002200Y-198007200D01*
X285002200Y-166007200D01*
X177002200Y-166007200D01*
D10*
D11*
X10000000Y-10000000D02*
X10000000Y-200007200D01*
X287002200Y-200007200D01*
X287002200Y-10000000D01*
X10000000Y-10000000D01*
D10*
D11*
X12000000Y-12000000D02*
X12000000Y-198007200D01*
X285002200Y-198007200D01*
X285002200Y-12000000D01*
X12000000Y-12000000D01*
D10*
D11*
X60000000Y-12000000D02*
X60000000Y-10000000D01*
D10*
D11*
X110000000Y-12000000D02*
X110000000Y-10000000D01*
D10*
D11*
X160000000Y-12000000D02*
X160000000Y-10000000D01*
D10*
D11*
X210000000Y-12000000D02*
X210000000Y-10000000D01*
D10*
D11*
X260000000Y-12000000D02*
X260000000Y-10000000D01*
D10*
D11*
X36065476Y-11588095D02*
X35322619Y-11588095D01*
X35694047Y-11588095D02*
X35694047Y-10288095D01*
X35570238Y-10473809D01*
X35446428Y-10597619D01*
X35322619Y-10659523D01*
D10*
D11*
X85322619Y-10411904D02*
X85384523Y-10350000D01*
X85508333Y-10288095D01*
X85817857Y-10288095D01*
X85941666Y-10350000D01*
X86003571Y-10411904D01*
X86065476Y-10535714D01*
X86065476Y-10659523D01*
X86003571Y-10845238D01*
X85260714Y-11588095D01*
X86065476Y-11588095D01*
D10*
D11*
X135260714Y-10288095D02*
X136065476Y-10288095D01*
X135632142Y-10783333D01*
X135817857Y-10783333D01*
X135941666Y-10845238D01*
X136003571Y-10907142D01*
X136065476Y-11030952D01*
X136065476Y-11340476D01*
X136003571Y-11464285D01*
X135941666Y-11526190D01*
X135817857Y-11588095D01*
X135446428Y-11588095D01*
X135322619Y-11526190D01*
X135260714Y-11464285D01*
D10*
D11*
X185941666Y-10721428D02*
X185941666Y-11588095D01*
X185632142Y-10226190D02*
X185322619Y-11154761D01*
X186127380Y-11154761D01*
D10*
D11*
X236003571Y-10288095D02*
X235384523Y-10288095D01*
X235322619Y-10907142D01*
X235384523Y-10845238D01*
X235508333Y-10783333D01*
X235817857Y-10783333D01*
X235941666Y-10845238D01*
X236003571Y-10907142D01*
X236065476Y-11030952D01*
X236065476Y-11340476D01*
X236003571Y-11464285D01*
X235941666Y-11526190D01*
X235817857Y-11588095D01*
X235508333Y-11588095D01*
X235384523Y-11526190D01*
X235322619Y-11464285D01*
D10*
D11*
X285941666Y-10288095D02*
X285694047Y-10288095D01*
X285570238Y-10350000D01*
X285508333Y-10411904D01*
X285384523Y-10597619D01*
X285322619Y-10845238D01*
X285322619Y-11340476D01*
X285384523Y-11464285D01*
X285446428Y-11526190D01*
X285570238Y-11588095D01*
X285817857Y-11588095D01*
X285941666Y-11526190D01*
X286003571Y-11464285D01*
X286065476Y-11340476D01*
X286065476Y-11030952D01*
X286003571Y-10907142D01*
X285941666Y-10845238D01*
X285817857Y-10783333D01*
X285570238Y-10783333D01*
X285446428Y-10845238D01*
X285384523Y-10907142D01*
X285322619Y-11030952D01*
D10*
D11*
X60000000Y-198007200D02*
X60000000Y-200007200D01*
D10*
D11*
X110000000Y-198007200D02*
X110000000Y-200007200D01*
D10*
D11*
X160000000Y-198007200D02*
X160000000Y-200007200D01*
D10*
D11*
X210000000Y-198007200D02*
X210000000Y-200007200D01*
D10*
D11*
X260000000Y-198007200D02*
X260000000Y-200007200D01*
D10*
D11*
X36065476Y-199595295D02*
X35322619Y-199595295D01*
X35694047Y-199595295D02*
X35694047Y-198295295D01*
X35570238Y-198481009D01*
X35446428Y-198604819D01*
X35322619Y-198666723D01*
D10*
D11*
X85322619Y-198419104D02*
X85384523Y-198357200D01*
X85508333Y-198295295D01*
X85817857Y-198295295D01*
X85941666Y-198357200D01*
X86003571Y-198419104D01*
X86065476Y-198542914D01*
X86065476Y-198666723D01*
X86003571Y-198852438D01*
X85260714Y-199595295D01*
X86065476Y-199595295D01*
D10*
D11*
X135260714Y-198295295D02*
X136065476Y-198295295D01*
X135632142Y-198790533D01*
X135817857Y-198790533D01*
X135941666Y-198852438D01*
X136003571Y-198914342D01*
X136065476Y-199038152D01*
X136065476Y-199347676D01*
X136003571Y-199471485D01*
X135941666Y-199533390D01*
X135817857Y-199595295D01*
X135446428Y-199595295D01*
X135322619Y-199533390D01*
X135260714Y-199471485D01*
D10*
D11*
X185941666Y-198728628D02*
X185941666Y-199595295D01*
X185632142Y-198233390D02*
X185322619Y-199161961D01*
X186127380Y-199161961D01*
D10*
D11*
X236003571Y-198295295D02*
X235384523Y-198295295D01*
X235322619Y-198914342D01*
X235384523Y-198852438D01*
X235508333Y-198790533D01*
X235817857Y-198790533D01*
X235941666Y-198852438D01*
X236003571Y-198914342D01*
X236065476Y-199038152D01*
X236065476Y-199347676D01*
X236003571Y-199471485D01*
X235941666Y-199533390D01*
X235817857Y-199595295D01*
X235508333Y-199595295D01*
X235384523Y-199533390D01*
X235322619Y-199471485D01*
D10*
D11*
X285941666Y-198295295D02*
X285694047Y-198295295D01*
X285570238Y-198357200D01*
X285508333Y-198419104D01*
X285384523Y-198604819D01*
X285322619Y-198852438D01*
X285322619Y-199347676D01*
X285384523Y-199471485D01*
X285446428Y-199533390D01*
X285570238Y-199595295D01*
X285817857Y-199595295D01*
X285941666Y-199533390D01*
X286003571Y-199471485D01*
X286065476Y-199347676D01*
X286065476Y-199038152D01*
X286003571Y-198914342D01*
X285941666Y-198852438D01*
X285817857Y-198790533D01*
X285570238Y-198790533D01*
X285446428Y-198852438D01*
X285384523Y-198914342D01*
X285322619Y-199038152D01*
D10*
D11*
X10000000Y-60000000D02*
X12000000Y-60000000D01*
D10*
D11*
X10000000Y-110000000D02*
X12000000Y-110000000D01*
D10*
D11*
X10000000Y-160000000D02*
X12000000Y-160000000D01*
D10*
D11*
X10690476Y-35216666D02*
X11309523Y-35216666D01*
X10566666Y-35588095D02*
X11000000Y-34288095D01*
X11433333Y-35588095D01*
D10*
D11*
X11092857Y-84907142D02*
X11278571Y-84969047D01*
X11340476Y-85030952D01*
X11402380Y-85154761D01*
X11402380Y-85340476D01*
X11340476Y-85464285D01*
X11278571Y-85526190D01*
X11154761Y-85588095D01*
X10659523Y-85588095D01*
X10659523Y-84288095D01*
X11092857Y-84288095D01*
X11216666Y-84350000D01*
X11278571Y-84411904D01*
X11340476Y-84535714D01*
X11340476Y-84659523D01*
X11278571Y-84783333D01*
X11216666Y-84845238D01*
X11092857Y-84907142D01*
X10659523Y-84907142D01*
D10*
D11*
X11402380Y-135464285D02*
X11340476Y-135526190D01*
X11154761Y-135588095D01*
X11030952Y-135588095D01*
X10845238Y-135526190D01*
X10721428Y-135402380D01*
X10659523Y-135278571D01*
X10597619Y-135030952D01*
X10597619Y-134845238D01*
X10659523Y-134597619D01*
X10721428Y-134473809D01*
X10845238Y-134350000D01*
X11030952Y-134288095D01*
X11154761Y-134288095D01*
X11340476Y-134350000D01*
X11402380Y-134411904D01*
D10*
D11*
X10659523Y-185588095D02*
X10659523Y-184288095D01*
X10969047Y-184288095D01*
X11154761Y-184350000D01*
X11278571Y-184473809D01*
X11340476Y-184597619D01*
X11402380Y-184845238D01*
X11402380Y-185030952D01*
X11340476Y-185278571D01*
X11278571Y-185402380D01*
X11154761Y-185526190D01*
X10969047Y-185588095D01*
X10659523Y-185588095D01*
D10*
D11*
X287002200Y-60000000D02*
X285002200Y-60000000D01*
D10*
D11*
X287002200Y-110000000D02*
X285002200Y-110000000D01*
D10*
D11*
X287002200Y-160000000D02*
X285002200Y-160000000D01*
D10*
D11*
X285692676Y-35216666D02*
X286311723Y-35216666D01*
X285568866Y-35588095D02*
X286002200Y-34288095D01*
X286435533Y-35588095D01*
D10*
D11*
X286095057Y-84907142D02*
X286280771Y-84969047D01*
X286342676Y-85030952D01*
X286404580Y-85154761D01*
X286404580Y-85340476D01*
X286342676Y-85464285D01*
X286280771Y-85526190D01*
X286156961Y-85588095D01*
X285661723Y-85588095D01*
X285661723Y-84288095D01*
X286095057Y-84288095D01*
X286218866Y-84350000D01*
X286280771Y-84411904D01*
X286342676Y-84535714D01*
X286342676Y-84659523D01*
X286280771Y-84783333D01*
X286218866Y-84845238D01*
X286095057Y-84907142D01*
X285661723Y-84907142D01*
D10*
D11*
X286404580Y-135464285D02*
X286342676Y-135526190D01*
X286156961Y-135588095D01*
X286033152Y-135588095D01*
X285847438Y-135526190D01*
X285723628Y-135402380D01*
X285661723Y-135278571D01*
X285599819Y-135030952D01*
X285599819Y-134845238D01*
X285661723Y-134597619D01*
X285723628Y-134473809D01*
X285847438Y-134350000D01*
X286033152Y-134288095D01*
X286156961Y-134288095D01*
X286342676Y-134350000D01*
X286404580Y-134411904D01*
D10*
D11*
X285661723Y-185588095D02*
X285661723Y-184288095D01*
X285971247Y-184288095D01*
X286156961Y-184350000D01*
X286280771Y-184473809D01*
X286342676Y-184597619D01*
X286404580Y-184845238D01*
X286404580Y-185030952D01*
X286342676Y-185278571D01*
X286280771Y-185402380D01*
X286156961Y-185526190D01*
X285971247Y-185588095D01*
X285661723Y-185588095D01*
D10*
D11*
X200434342Y-193785771D02*
X200434342Y-192285771D01*
X200791485Y-192285771D01*
X201005771Y-192357200D01*
X201148628Y-192500057D01*
X201220057Y-192642914D01*
X201291485Y-192928628D01*
X201291485Y-193142914D01*
X201220057Y-193428628D01*
X201148628Y-193571485D01*
X201005771Y-193714342D01*
X200791485Y-193785771D01*
X200434342Y-193785771D01*
X202577200Y-193785771D02*
X202577200Y-193000057D01*
X202505771Y-192857200D01*
X202362914Y-192785771D01*
X202077200Y-192785771D01*
X201934342Y-192857200D01*
X202577200Y-193714342D02*
X202434342Y-193785771D01*
X202077200Y-193785771D01*
X201934342Y-193714342D01*
X201862914Y-193571485D01*
X201862914Y-193428628D01*
X201934342Y-193285771D01*
X202077200Y-193214342D01*
X202434342Y-193214342D01*
X202577200Y-193142914D01*
X203077200Y-192785771D02*
X203648628Y-192785771D01*
X203291485Y-192285771D02*
X203291485Y-193571485D01*
X203362914Y-193714342D01*
X203505771Y-193785771D01*
X203648628Y-193785771D01*
X204720057Y-193714342D02*
X204577200Y-193785771D01*
X204291485Y-193785771D01*
X204148628Y-193714342D01*
X204077200Y-193571485D01*
X204077200Y-193000057D01*
X204148628Y-192857200D01*
X204291485Y-192785771D01*
X204577200Y-192785771D01*
X204720057Y-192857200D01*
X204791485Y-193000057D01*
X204791485Y-193142914D01*
X204077200Y-193285771D01*
X205434342Y-193642914D02*
X205505771Y-193714342D01*
X205434342Y-193785771D01*
X205362914Y-193714342D01*
X205434342Y-193642914D01*
X205434342Y-193785771D01*
X205434342Y-192857200D02*
X205505771Y-192928628D01*
X205434342Y-193000057D01*
X205362914Y-192928628D01*
X205434342Y-192857200D01*
X205434342Y-193000057D01*
X207220057Y-192428628D02*
X207291485Y-192357200D01*
X207434342Y-192285771D01*
X207791485Y-192285771D01*
X207934342Y-192357200D01*
X208005771Y-192428628D01*
X208077200Y-192571485D01*
X208077200Y-192714342D01*
X208005771Y-192928628D01*
X207148628Y-193785771D01*
X208077200Y-193785771D01*
X209005771Y-192285771D02*
X209148628Y-192285771D01*
X209291485Y-192357200D01*
X209362914Y-192428628D01*
X209434342Y-192571485D01*
X209505771Y-192857200D01*
X209505771Y-193214342D01*
X209434342Y-193500057D01*
X209362914Y-193642914D01*
X209291485Y-193714342D01*
X209148628Y-193785771D01*
X209005771Y-193785771D01*
X208862914Y-193714342D01*
X208791485Y-193642914D01*
X208720057Y-193500057D01*
X208648628Y-193214342D01*
X208648628Y-192857200D01*
X208720057Y-192571485D01*
X208791485Y-192428628D01*
X208862914Y-192357200D01*
X209005771Y-192285771D01*
X210077200Y-192428628D02*
X210148628Y-192357200D01*
X210291485Y-192285771D01*
X210648628Y-192285771D01*
X210791485Y-192357200D01*
X210862914Y-192428628D01*
X210934342Y-192571485D01*
X210934342Y-192714342D01*
X210862914Y-192928628D01*
X210005771Y-193785771D01*
X210934342Y-193785771D01*
X211862914Y-192285771D02*
X212005771Y-192285771D01*
X212148628Y-192357200D01*
X212220057Y-192428628D01*
X212291485Y-192571485D01*
X212362914Y-192857200D01*
X212362914Y-193214342D01*
X212291485Y-193500057D01*
X212220057Y-193642914D01*
X212148628Y-193714342D01*
X212005771Y-193785771D01*
X211862914Y-193785771D01*
X211720057Y-193714342D01*
X211648628Y-193642914D01*
X211577200Y-193500057D01*
X211505771Y-193214342D01*
X211505771Y-192857200D01*
X211577200Y-192571485D01*
X211648628Y-192428628D01*
X211720057Y-192357200D01*
X211862914Y-192285771D01*
X213005771Y-193214342D02*
X214148628Y-193214342D01*
X215148628Y-192285771D02*
X215291485Y-192285771D01*
X215434342Y-192357200D01*
X215505771Y-192428628D01*
X215577200Y-192571485D01*
X215648628Y-192857200D01*
X215648628Y-193214342D01*
X215577200Y-193500057D01*
X215505771Y-193642914D01*
X215434342Y-193714342D01*
X215291485Y-193785771D01*
X215148628Y-193785771D01*
X215005771Y-193714342D01*
X214934342Y-193642914D01*
X214862914Y-193500057D01*
X214791485Y-193214342D01*
X214791485Y-192857200D01*
X214862914Y-192571485D01*
X214934342Y-192428628D01*
X215005771Y-192357200D01*
X215148628Y-192285771D01*
X217005771Y-192285771D02*
X216291485Y-192285771D01*
X216220057Y-193000057D01*
X216291485Y-192928628D01*
X216434342Y-192857200D01*
X216791485Y-192857200D01*
X216934342Y-192928628D01*
X217005771Y-193000057D01*
X217077200Y-193142914D01*
X217077200Y-193500057D01*
X217005771Y-193642914D01*
X216934342Y-193714342D01*
X216791485Y-193785771D01*
X216434342Y-193785771D01*
X216291485Y-193714342D01*
X216220057Y-193642914D01*
X217720057Y-193214342D02*
X218862914Y-193214342D01*
X219434342Y-192285771D02*
X220362914Y-192285771D01*
X219862914Y-192857200D01*
X220077200Y-192857200D01*
X220220057Y-192928628D01*
X220291485Y-193000057D01*
X220362914Y-193142914D01*
X220362914Y-193500057D01*
X220291485Y-193642914D01*
X220220057Y-193714342D01*
X220077200Y-193785771D01*
X219648628Y-193785771D01*
X219505771Y-193714342D01*
X219434342Y-193642914D01*
X221791485Y-193785771D02*
X220934342Y-193785771D01*
X221362914Y-193785771D02*
X221362914Y-192285771D01*
X221220057Y-192500057D01*
X221077200Y-192642914D01*
X220934342Y-192714342D01*
D10*
D11*
X177002200Y-194507200D02*
X285002200Y-194507200D01*
D10*
D11*
X178434342Y-196585771D02*
X178434342Y-195085771D01*
X179291485Y-196585771D02*
X178648628Y-195728628D01*
X179291485Y-195085771D02*
X178434342Y-195942914D01*
X179934342Y-196585771D02*
X179934342Y-195585771D01*
X179934342Y-195085771D02*
X179862914Y-195157200D01*
X179934342Y-195228628D01*
X180005771Y-195157200D01*
X179934342Y-195085771D01*
X179934342Y-195228628D01*
X181505771Y-196442914D02*
X181434342Y-196514342D01*
X181220057Y-196585771D01*
X181077200Y-196585771D01*
X180862914Y-196514342D01*
X180720057Y-196371485D01*
X180648628Y-196228628D01*
X180577200Y-195942914D01*
X180577200Y-195728628D01*
X180648628Y-195442914D01*
X180720057Y-195300057D01*
X180862914Y-195157200D01*
X181077200Y-195085771D01*
X181220057Y-195085771D01*
X181434342Y-195157200D01*
X181505771Y-195228628D01*
X182791485Y-196585771D02*
X182791485Y-195800057D01*
X182720057Y-195657200D01*
X182577200Y-195585771D01*
X182291485Y-195585771D01*
X182148628Y-195657200D01*
X182791485Y-196514342D02*
X182648628Y-196585771D01*
X182291485Y-196585771D01*
X182148628Y-196514342D01*
X182077200Y-196371485D01*
X182077200Y-196228628D01*
X182148628Y-196085771D01*
X182291485Y-196014342D01*
X182648628Y-196014342D01*
X182791485Y-195942914D01*
X184148628Y-196585771D02*
X184148628Y-195085771D01*
X184148628Y-196514342D02*
X184005771Y-196585771D01*
X183720057Y-196585771D01*
X183577200Y-196514342D01*
X183505771Y-196442914D01*
X183434342Y-196300057D01*
X183434342Y-195871485D01*
X183505771Y-195728628D01*
X183577200Y-195657200D01*
X183720057Y-195585771D01*
X184005771Y-195585771D01*
X184148628Y-195657200D01*
X186005771Y-195800057D02*
X186505771Y-195800057D01*
X186720057Y-196585771D02*
X186005771Y-196585771D01*
X186005771Y-195085771D01*
X186720057Y-195085771D01*
X187362914Y-196442914D02*
X187434342Y-196514342D01*
X187362914Y-196585771D01*
X187291485Y-196514342D01*
X187362914Y-196442914D01*
X187362914Y-196585771D01*
X188077200Y-196585771D02*
X188077200Y-195085771D01*
X188434342Y-195085771D01*
X188648628Y-195157200D01*
X188791485Y-195300057D01*
X188862914Y-195442914D01*
X188934342Y-195728628D01*
X188934342Y-195942914D01*
X188862914Y-196228628D01*
X188791485Y-196371485D01*
X188648628Y-196514342D01*
X188434342Y-196585771D01*
X188077200Y-196585771D01*
X189577200Y-196442914D02*
X189648628Y-196514342D01*
X189577200Y-196585771D01*
X189505771Y-196514342D01*
X189577200Y-196442914D01*
X189577200Y-196585771D01*
X190220057Y-196157200D02*
X190934342Y-196157200D01*
X190077200Y-196585771D02*
X190577200Y-195085771D01*
X191077200Y-196585771D01*
X191577200Y-196442914D02*
X191648628Y-196514342D01*
X191577200Y-196585771D01*
X191505771Y-196514342D01*
X191577200Y-196442914D01*
X191577200Y-196585771D01*
X194577200Y-196585771D02*
X194577200Y-195085771D01*
X194720057Y-196014342D02*
X195148628Y-196585771D01*
X195148628Y-195585771D02*
X194577200Y-196157200D01*
X195791485Y-196585771D02*
X195791485Y-195585771D01*
X195791485Y-195085771D02*
X195720057Y-195157200D01*
X195791485Y-195228628D01*
X195862914Y-195157200D01*
X195791485Y-195085771D01*
X195791485Y-195228628D01*
X197148628Y-196514342D02*
X197005771Y-196585771D01*
X196720057Y-196585771D01*
X196577200Y-196514342D01*
X196505771Y-196442914D01*
X196434342Y-196300057D01*
X196434342Y-195871485D01*
X196505771Y-195728628D01*
X196577200Y-195657200D01*
X196720057Y-195585771D01*
X197005771Y-195585771D01*
X197148628Y-195657200D01*
X198434342Y-196585771D02*
X198434342Y-195800057D01*
X198362914Y-195657200D01*
X198220057Y-195585771D01*
X197934342Y-195585771D01*
X197791485Y-195657200D01*
X198434342Y-196514342D02*
X198291485Y-196585771D01*
X197934342Y-196585771D01*
X197791485Y-196514342D01*
X197720057Y-196371485D01*
X197720057Y-196228628D01*
X197791485Y-196085771D01*
X197934342Y-196014342D01*
X198291485Y-196014342D01*
X198434342Y-195942914D01*
X199791485Y-196585771D02*
X199791485Y-195085771D01*
X199791485Y-196514342D02*
X199648628Y-196585771D01*
X199362914Y-196585771D01*
X199220057Y-196514342D01*
X199148628Y-196442914D01*
X199077200Y-196300057D01*
X199077200Y-195871485D01*
X199148628Y-195728628D01*
X199220057Y-195657200D01*
X199362914Y-195585771D01*
X199648628Y-195585771D01*
X199791485Y-195657200D01*
X202077200Y-197157200D02*
X202005771Y-197085771D01*
X201862914Y-196871485D01*
X201791485Y-196728628D01*
X201720057Y-196514342D01*
X201648628Y-196157200D01*
X201648628Y-195871485D01*
X201720057Y-195514342D01*
X201791485Y-195300057D01*
X201862914Y-195157200D01*
X202005771Y-194942914D01*
X202077200Y-194871485D01*
X203362914Y-195085771D02*
X202648628Y-195085771D01*
X202577200Y-195800057D01*
X202648628Y-195728628D01*
X202791485Y-195657200D01*
X203148628Y-195657200D01*
X203291485Y-195728628D01*
X203362914Y-195800057D01*
X203434342Y-195942914D01*
X203434342Y-196300057D01*
X203362914Y-196442914D01*
X203291485Y-196514342D01*
X203148628Y-196585771D01*
X202791485Y-196585771D01*
X202648628Y-196514342D01*
X202577200Y-196442914D01*
X204077200Y-196442914D02*
X204148628Y-196514342D01*
X204077200Y-196585771D01*
X204005771Y-196514342D01*
X204077200Y-196442914D01*
X204077200Y-196585771D01*
X205577200Y-196585771D02*
X204720057Y-196585771D01*
X205148628Y-196585771D02*
X205148628Y-195085771D01*
X205005771Y-195300057D01*
X204862914Y-195442914D01*
X204720057Y-195514342D01*
X206220057Y-196442914D02*
X206291485Y-196514342D01*
X206220057Y-196585771D01*
X206148628Y-196514342D01*
X206220057Y-196442914D01*
X206220057Y-196585771D01*
X207648628Y-195085771D02*
X206934342Y-195085771D01*
X206862914Y-195800057D01*
X206934342Y-195728628D01*
X207077200Y-195657200D01*
X207434342Y-195657200D01*
X207577200Y-195728628D01*
X207648628Y-195800057D01*
X207720057Y-195942914D01*
X207720057Y-196300057D01*
X207648628Y-196442914D01*
X207577200Y-196514342D01*
X207434342Y-196585771D01*
X207077200Y-196585771D01*
X206934342Y-196514342D01*
X206862914Y-196442914D01*
X208220057Y-197157200D02*
X208291485Y-197085771D01*
X208434342Y-196871485D01*
X208505771Y-196728628D01*
X208577200Y-196514342D01*
X208648628Y-196157200D01*
X208648628Y-195871485D01*
X208577200Y-195514342D01*
X208505771Y-195300057D01*
X208434342Y-195157200D01*
X208291485Y-194942914D01*
X208220057Y-194871485D01*
X209362914Y-196014342D02*
X210505771Y-196014342D01*
X211077200Y-195085771D02*
X212005771Y-195085771D01*
X211505771Y-195657200D01*
X211720057Y-195657200D01*
X211862914Y-195728628D01*
X211934342Y-195800057D01*
X212005771Y-195942914D01*
X212005771Y-196300057D01*
X211934342Y-196442914D01*
X211862914Y-196514342D01*
X211720057Y-196585771D01*
X211291485Y-196585771D01*
X211148628Y-196514342D01*
X211077200Y-196442914D01*
D10*
D11*
X177002200Y-191507200D02*
X285002200Y-191507200D01*
D10*
D12*
X264411485Y-193785771D02*
X263911485Y-193071485D01*
X263554342Y-193785771D02*
X263554342Y-192285771D01*
X264125771Y-192285771D01*
X264268628Y-192357200D01*
X264340057Y-192428628D01*
X264411485Y-192571485D01*
X264411485Y-192785771D01*
X264340057Y-192928628D01*
X264268628Y-193000057D01*
X264125771Y-193071485D01*
X263554342Y-193071485D01*
X265625771Y-193714342D02*
X265482914Y-193785771D01*
X265197200Y-193785771D01*
X265054342Y-193714342D01*
X264982914Y-193571485D01*
X264982914Y-193000057D01*
X265054342Y-192857200D01*
X265197200Y-192785771D01*
X265482914Y-192785771D01*
X265625771Y-192857200D01*
X265697200Y-193000057D01*
X265697200Y-193142914D01*
X264982914Y-193285771D01*
X266197200Y-192785771D02*
X266554342Y-193785771D01*
X266911485Y-192785771D01*
X267482914Y-193642914D02*
X267554342Y-193714342D01*
X267482914Y-193785771D01*
X267411485Y-193714342D01*
X267482914Y-193642914D01*
X267482914Y-193785771D01*
X267482914Y-192857200D02*
X267554342Y-192928628D01*
X267482914Y-193000057D01*
X267411485Y-192928628D01*
X267482914Y-192857200D01*
X267482914Y-193000057D01*
X269982914Y-192785771D02*
X269982914Y-193785771D01*
X269625771Y-192214342D02*
X269268628Y-193285771D01*
X270197200Y-193285771D01*
D10*
D11*
X178362914Y-193714342D02*
X178577200Y-193785771D01*
X178934342Y-193785771D01*
X179077200Y-193714342D01*
X179148628Y-193642914D01*
X179220057Y-193500057D01*
X179220057Y-193357200D01*
X179148628Y-193214342D01*
X179077200Y-193142914D01*
X178934342Y-193071485D01*
X178648628Y-193000057D01*
X178505771Y-192928628D01*
X178434342Y-192857200D01*
X178362914Y-192714342D01*
X178362914Y-192571485D01*
X178434342Y-192428628D01*
X178505771Y-192357200D01*
X178648628Y-192285771D01*
X179005771Y-192285771D01*
X179220057Y-192357200D01*
X179862914Y-193785771D02*
X179862914Y-192785771D01*
X179862914Y-192285771D02*
X179791485Y-192357200D01*
X179862914Y-192428628D01*
X179934342Y-192357200D01*
X179862914Y-192285771D01*
X179862914Y-192428628D01*
X180434342Y-192785771D02*
X181220057Y-192785771D01*
X180434342Y-193785771D01*
X181220057Y-193785771D01*
X182362914Y-193714342D02*
X182220057Y-193785771D01*
X181934342Y-193785771D01*
X181791485Y-193714342D01*
X181720057Y-193571485D01*
X181720057Y-193000057D01*
X181791485Y-192857200D01*
X181934342Y-192785771D01*
X182220057Y-192785771D01*
X182362914Y-192857200D01*
X182434342Y-193000057D01*
X182434342Y-193142914D01*
X181720057Y-193285771D01*
X183077200Y-193642914D02*
X183148628Y-193714342D01*
X183077200Y-193785771D01*
X183005771Y-193714342D01*
X183077200Y-193642914D01*
X183077200Y-193785771D01*
X183077200Y-192857200D02*
X183148628Y-192928628D01*
X183077200Y-193000057D01*
X183005771Y-192928628D01*
X183077200Y-192857200D01*
X183077200Y-193000057D01*
X184862914Y-193357200D02*
X185577200Y-193357200D01*
X184720057Y-193785771D02*
X185220057Y-192285771D01*
X185720057Y-193785771D01*
X186862914Y-192785771D02*
X186862914Y-193785771D01*
X186505771Y-192214342D02*
X186148628Y-193285771D01*
X187077200Y-193285771D01*
D10*
D11*
X263434342Y-196585771D02*
X263434342Y-195085771D01*
X264791485Y-196585771D02*
X264791485Y-195085771D01*
X264791485Y-196514342D02*
X264648628Y-196585771D01*
X264362914Y-196585771D01*
X264220057Y-196514342D01*
X264148628Y-196442914D01*
X264077200Y-196300057D01*
X264077200Y-195871485D01*
X264148628Y-195728628D01*
X264220057Y-195657200D01*
X264362914Y-195585771D01*
X264648628Y-195585771D01*
X264791485Y-195657200D01*
X265505771Y-196442914D02*
X265577200Y-196514342D01*
X265505771Y-196585771D01*
X265434342Y-196514342D01*
X265505771Y-196442914D01*
X265505771Y-196585771D01*
X265505771Y-195657200D02*
X265577200Y-195728628D01*
X265505771Y-195800057D01*
X265434342Y-195728628D01*
X265505771Y-195657200D01*
X265505771Y-195800057D01*
X268148628Y-196585771D02*
X267291485Y-196585771D01*
X267720057Y-196585771D02*
X267720057Y-195085771D01*
X267577200Y-195300057D01*
X267434342Y-195442914D01*
X267291485Y-195514342D01*
X269862914Y-195014342D02*
X268577200Y-196942914D01*
X271148628Y-196585771D02*
X270291485Y-196585771D01*
X270720057Y-196585771D02*
X270720057Y-195085771D01*
X270577200Y-195300057D01*
X270434342Y-195442914D01*
X270291485Y-195514342D01*
D10*
D11*
X177002200Y-187507200D02*
X285002200Y-187507200D01*
D10*
D13*
X178714580Y-188211961D02*
X179857438Y-188211961D01*
X179036009Y-190211961D02*
X179286009Y-188211961D01*
X180274104Y-190211961D02*
X180440771Y-188878628D01*
X180524104Y-188211961D02*
X180416961Y-188307200D01*
X180500295Y-188402438D01*
X180607438Y-188307200D01*
X180524104Y-188211961D01*
X180500295Y-188402438D01*
X181107438Y-188878628D02*
X181869342Y-188878628D01*
X181476485Y-188211961D02*
X181262200Y-189926247D01*
X181333628Y-190116723D01*
X181512200Y-190211961D01*
X181702676Y-190211961D01*
X182655057Y-190211961D02*
X182476485Y-190116723D01*
X182405057Y-189926247D01*
X182619342Y-188211961D01*
X184190771Y-190116723D02*
X183988390Y-190211961D01*
X183607438Y-190211961D01*
X183428866Y-190116723D01*
X183357438Y-189926247D01*
X183452676Y-189164342D01*
X183571723Y-188973866D01*
X183774104Y-188878628D01*
X184155057Y-188878628D01*
X184333628Y-188973866D01*
X184405057Y-189164342D01*
X184381247Y-189354819D01*
X183405057Y-189545295D01*
X185155057Y-190021485D02*
X185238390Y-190116723D01*
X185131247Y-190211961D01*
X185047914Y-190116723D01*
X185155057Y-190021485D01*
X185131247Y-190211961D01*
X185286009Y-188973866D02*
X185369342Y-189069104D01*
X185262200Y-189164342D01*
X185178866Y-189069104D01*
X185286009Y-188973866D01*
X185262200Y-189164342D01*
X187607438Y-190211961D02*
X187857438Y-188211961D01*
X188619342Y-188211961D01*
X188797914Y-188307200D01*
X188881247Y-188402438D01*
X188952676Y-188592914D01*
X188916961Y-188878628D01*
X188797914Y-189069104D01*
X188690771Y-189164342D01*
X188488390Y-189259580D01*
X187726485Y-189259580D01*
X190774104Y-190021485D02*
X190666961Y-190116723D01*
X190369342Y-190211961D01*
X190178866Y-190211961D01*
X189905057Y-190116723D01*
X189738390Y-189926247D01*
X189666961Y-189735771D01*
X189619342Y-189354819D01*
X189655057Y-189069104D01*
X189797914Y-188688152D01*
X189916961Y-188497676D01*
X190131247Y-188307200D01*
X190428866Y-188211961D01*
X190619342Y-188211961D01*
X190893152Y-188307200D01*
X190976485Y-188402438D01*
X191702676Y-189450057D02*
X193226485Y-189450057D01*
X195131247Y-190211961D02*
X193988390Y-190211961D01*
X194559819Y-190211961D02*
X194809819Y-188211961D01*
X194583628Y-188497676D01*
X194369342Y-188688152D01*
X194166961Y-188783390D01*
X197036009Y-190211961D02*
X195893152Y-190211961D01*
X196464580Y-190211961D02*
X196714580Y-188211961D01*
X196488390Y-188497676D01*
X196274104Y-188688152D01*
X196071723Y-188783390D01*
X198524104Y-188211961D02*
X198714580Y-188211961D01*
X198893152Y-188307200D01*
X198976485Y-188402438D01*
X199047914Y-188592914D01*
X199095533Y-188973866D01*
X199036009Y-189450057D01*
X198893152Y-189831009D01*
X198774104Y-190021485D01*
X198666961Y-190116723D01*
X198464580Y-190211961D01*
X198274104Y-190211961D01*
X198095533Y-190116723D01*
X198012200Y-190021485D01*
X197940771Y-189831009D01*
X197893152Y-189450057D01*
X197952676Y-188973866D01*
X198095533Y-188592914D01*
X198214580Y-188402438D01*
X198321723Y-188307200D01*
X198524104Y-188211961D01*
X200428866Y-188211961D02*
X200619342Y-188211961D01*
X200797914Y-188307200D01*
X200881247Y-188402438D01*
X200952676Y-188592914D01*
X201000295Y-188973866D01*
X200940771Y-189450057D01*
X200797914Y-189831009D01*
X200678866Y-190021485D01*
X200571723Y-190116723D01*
X200369342Y-190211961D01*
X200178866Y-190211961D01*
X200000295Y-190116723D01*
X199916961Y-190021485D01*
X199845533Y-189831009D01*
X199797914Y-189450057D01*
X199857438Y-188973866D01*
X200000295Y-188592914D01*
X200119342Y-188402438D01*
X200226485Y-188307200D01*
X200428866Y-188211961D01*
X201762200Y-188211961D02*
X202845533Y-190211961D01*
X203095533Y-188211961D02*
X201512200Y-190211961D01*
X203702676Y-189450057D02*
X205226485Y-189450057D01*
X206714580Y-188211961D02*
X206905057Y-188211961D01*
X207083628Y-188307200D01*
X207166961Y-188402438D01*
X207238390Y-188592914D01*
X207286009Y-188973866D01*
X207226485Y-189450057D01*
X207083628Y-189831009D01*
X206964580Y-190021485D01*
X206857438Y-190116723D01*
X206655057Y-190211961D01*
X206464580Y-190211961D01*
X206286009Y-190116723D01*
X206202676Y-190021485D01*
X206131247Y-189831009D01*
X206083628Y-189450057D01*
X206143152Y-188973866D01*
X206286009Y-188592914D01*
X206405057Y-188402438D01*
X206512200Y-188307200D01*
X206714580Y-188211961D01*
X209012200Y-188878628D02*
X208845533Y-190211961D01*
X208631247Y-188116723D02*
X207976485Y-189545295D01*
X209214580Y-189545295D01*
D10*
D11*
X178934342Y-185600057D02*
X178434342Y-185600057D01*
X178434342Y-186385771D02*
X178434342Y-184885771D01*
X179148628Y-184885771D01*
X179720057Y-186385771D02*
X179720057Y-185385771D01*
X179720057Y-184885771D02*
X179648628Y-184957200D01*
X179720057Y-185028628D01*
X179791485Y-184957200D01*
X179720057Y-184885771D01*
X179720057Y-185028628D01*
X180648628Y-186385771D02*
X180505771Y-186314342D01*
X180434342Y-186171485D01*
X180434342Y-184885771D01*
X181791485Y-186314342D02*
X181648628Y-186385771D01*
X181362914Y-186385771D01*
X181220057Y-186314342D01*
X181148628Y-186171485D01*
X181148628Y-185600057D01*
X181220057Y-185457200D01*
X181362914Y-185385771D01*
X181648628Y-185385771D01*
X181791485Y-185457200D01*
X181862914Y-185600057D01*
X181862914Y-185742914D01*
X181148628Y-185885771D01*
X182505771Y-186242914D02*
X182577200Y-186314342D01*
X182505771Y-186385771D01*
X182434342Y-186314342D01*
X182505771Y-186242914D01*
X182505771Y-186385771D01*
X182505771Y-185457200D02*
X182577200Y-185528628D01*
X182505771Y-185600057D01*
X182434342Y-185528628D01*
X182505771Y-185457200D01*
X182505771Y-185600057D01*
X184362914Y-186385771D02*
X184362914Y-184885771D01*
X184934342Y-184885771D01*
X185077200Y-184957200D01*
X185148628Y-185028628D01*
X185220057Y-185171485D01*
X185220057Y-185385771D01*
X185148628Y-185528628D01*
X185077200Y-185600057D01*
X184934342Y-185671485D01*
X184362914Y-185671485D01*
X186720057Y-186242914D02*
X186648628Y-186314342D01*
X186434342Y-186385771D01*
X186291485Y-186385771D01*
X186077200Y-186314342D01*
X185934342Y-186171485D01*
X185862914Y-186028628D01*
X185791485Y-185742914D01*
X185791485Y-185528628D01*
X185862914Y-185242914D01*
X185934342Y-185100057D01*
X186077200Y-184957200D01*
X186291485Y-184885771D01*
X186434342Y-184885771D01*
X186648628Y-184957200D01*
X186720057Y-185028628D01*
X187362914Y-185814342D02*
X188505771Y-185814342D01*
X190005771Y-186385771D02*
X189148628Y-186385771D01*
X189577200Y-186385771D02*
X189577200Y-184885771D01*
X189434342Y-185100057D01*
X189291485Y-185242914D01*
X189148628Y-185314342D01*
X191434342Y-186385771D02*
X190577200Y-186385771D01*
X191005771Y-186385771D02*
X191005771Y-184885771D01*
X190862914Y-185100057D01*
X190720057Y-185242914D01*
X190577200Y-185314342D01*
X192362914Y-184885771D02*
X192505771Y-184885771D01*
X192648628Y-184957200D01*
X192720057Y-185028628D01*
X192791485Y-185171485D01*
X192862914Y-185457200D01*
X192862914Y-185814342D01*
X192791485Y-186100057D01*
X192720057Y-186242914D01*
X192648628Y-186314342D01*
X192505771Y-186385771D01*
X192362914Y-186385771D01*
X192220057Y-186314342D01*
X192148628Y-186242914D01*
X192077200Y-186100057D01*
X192005771Y-185814342D01*
X192005771Y-185457200D01*
X192077200Y-185171485D01*
X192148628Y-185028628D01*
X192220057Y-184957200D01*
X192362914Y-184885771D01*
X193791485Y-184885771D02*
X193934342Y-184885771D01*
X194077200Y-184957200D01*
X194148628Y-185028628D01*
X194220057Y-185171485D01*
X194291485Y-185457200D01*
X194291485Y-185814342D01*
X194220057Y-186100057D01*
X194148628Y-186242914D01*
X194077200Y-186314342D01*
X193934342Y-186385771D01*
X193791485Y-186385771D01*
X193648628Y-186314342D01*
X193577200Y-186242914D01*
X193505771Y-186100057D01*
X193434342Y-185814342D01*
X193434342Y-185457200D01*
X193505771Y-185171485D01*
X193577200Y-185028628D01*
X193648628Y-184957200D01*
X193791485Y-184885771D01*
X194791485Y-184885771D02*
X195791485Y-186385771D01*
X195791485Y-184885771D02*
X194791485Y-186385771D01*
X196362914Y-186242914D02*
X196434342Y-186314342D01*
X196362914Y-186385771D01*
X196291485Y-186314342D01*
X196362914Y-186242914D01*
X196362914Y-186385771D01*
X197077200Y-186385771D02*
X197077200Y-184885771D01*
X197220057Y-185814342D02*
X197648628Y-186385771D01*
X197648628Y-185385771D02*
X197077200Y-185957200D01*
X198291485Y-186385771D02*
X198291485Y-185385771D01*
X198291485Y-184885771D02*
X198220057Y-184957200D01*
X198291485Y-185028628D01*
X198362914Y-184957200D01*
X198291485Y-184885771D01*
X198291485Y-185028628D01*
X199648628Y-186314342D02*
X199505771Y-186385771D01*
X199220057Y-186385771D01*
X199077200Y-186314342D01*
X199005771Y-186242914D01*
X198934342Y-186100057D01*
X198934342Y-185671485D01*
X199005771Y-185528628D01*
X199077200Y-185457200D01*
X199220057Y-185385771D01*
X199505771Y-185385771D01*
X199648628Y-185457200D01*
X200934342Y-186385771D02*
X200934342Y-185600057D01*
X200862914Y-185457200D01*
X200720057Y-185385771D01*
X200434342Y-185385771D01*
X200291485Y-185457200D01*
X200934342Y-186314342D02*
X200791485Y-186385771D01*
X200434342Y-186385771D01*
X200291485Y-186314342D01*
X200220057Y-186171485D01*
X200220057Y-186028628D01*
X200291485Y-185885771D01*
X200434342Y-185814342D01*
X200791485Y-185814342D01*
X200934342Y-185742914D01*
X202291485Y-186385771D02*
X202291485Y-184885771D01*
X202291485Y-186314342D02*
X202148628Y-186385771D01*
X201862914Y-186385771D01*
X201720057Y-186314342D01*
X201648628Y-186242914D01*
X201577200Y-186100057D01*
X201577200Y-185671485D01*
X201648628Y-185528628D01*
X201720057Y-185457200D01*
X201862914Y-185385771D01*
X202148628Y-185385771D01*
X202291485Y-185457200D01*
X202648628Y-186528628D02*
X203791485Y-186528628D01*
X204148628Y-185385771D02*
X204148628Y-186885771D01*
X204148628Y-185457200D02*
X204291485Y-185385771D01*
X204577200Y-185385771D01*
X204720057Y-185457200D01*
X204791485Y-185528628D01*
X204862914Y-185671485D01*
X204862914Y-186100057D01*
X204791485Y-186242914D01*
X204720057Y-186314342D01*
X204577200Y-186385771D01*
X204291485Y-186385771D01*
X204148628Y-186314342D01*
X206148628Y-186314342D02*
X206005771Y-186385771D01*
X205720057Y-186385771D01*
X205577200Y-186314342D01*
X205505771Y-186242914D01*
X205434342Y-186100057D01*
X205434342Y-185671485D01*
X205505771Y-185528628D01*
X205577200Y-185457200D01*
X205720057Y-185385771D01*
X206005771Y-185385771D01*
X206148628Y-185457200D01*
X206791485Y-186385771D02*
X206791485Y-184885771D01*
X206791485Y-185457200D02*
X206934342Y-185385771D01*
X207220057Y-185385771D01*
X207362914Y-185457200D01*
X207434342Y-185528628D01*
X207505771Y-185671485D01*
X207505771Y-186100057D01*
X207434342Y-186242914D01*
X207362914Y-186314342D01*
X207220057Y-186385771D01*
X206934342Y-186385771D01*
X206791485Y-186314342D01*
D10*
D11*
X177002200Y-181507200D02*
X285002200Y-181507200D01*
D10*
D11*
X178362914Y-183614342D02*
X178577200Y-183685771D01*
X178934342Y-183685771D01*
X179077200Y-183614342D01*
X179148628Y-183542914D01*
X179220057Y-183400057D01*
X179220057Y-183257200D01*
X179148628Y-183114342D01*
X179077200Y-183042914D01*
X178934342Y-182971485D01*
X178648628Y-182900057D01*
X178505771Y-182828628D01*
X178434342Y-182757200D01*
X178362914Y-182614342D01*
X178362914Y-182471485D01*
X178434342Y-182328628D01*
X178505771Y-182257200D01*
X178648628Y-182185771D01*
X179005771Y-182185771D01*
X179220057Y-182257200D01*
X179862914Y-183685771D02*
X179862914Y-182185771D01*
X180505771Y-183685771D02*
X180505771Y-182900057D01*
X180434342Y-182757200D01*
X180291485Y-182685771D01*
X180077200Y-182685771D01*
X179934342Y-182757200D01*
X179862914Y-182828628D01*
X181791485Y-183614342D02*
X181648628Y-183685771D01*
X181362914Y-183685771D01*
X181220057Y-183614342D01*
X181148628Y-183471485D01*
X181148628Y-182900057D01*
X181220057Y-182757200D01*
X181362914Y-182685771D01*
X181648628Y-182685771D01*
X181791485Y-182757200D01*
X181862914Y-182900057D01*
X181862914Y-183042914D01*
X181148628Y-183185771D01*
X183077200Y-183614342D02*
X182934342Y-183685771D01*
X182648628Y-183685771D01*
X182505771Y-183614342D01*
X182434342Y-183471485D01*
X182434342Y-182900057D01*
X182505771Y-182757200D01*
X182648628Y-182685771D01*
X182934342Y-182685771D01*
X183077200Y-182757200D01*
X183148628Y-182900057D01*
X183148628Y-183042914D01*
X182434342Y-183185771D01*
X183577200Y-182685771D02*
X184148628Y-182685771D01*
X183791485Y-182185771D02*
X183791485Y-183471485D01*
X183862914Y-183614342D01*
X184005771Y-183685771D01*
X184148628Y-183685771D01*
X184648628Y-183542914D02*
X184720057Y-183614342D01*
X184648628Y-183685771D01*
X184577200Y-183614342D01*
X184648628Y-183542914D01*
X184648628Y-183685771D01*
X184648628Y-182757200D02*
X184720057Y-182828628D01*
X184648628Y-182900057D01*
X184577200Y-182828628D01*
X184648628Y-182757200D01*
X184648628Y-182900057D01*
D10*
D12*
X178411485Y-179185771D02*
X179411485Y-179185771D01*
X178411485Y-180685771D01*
X179411485Y-180685771D01*
X179911485Y-180614342D02*
X180125771Y-180685771D01*
X180482914Y-180685771D01*
X180625771Y-180614342D01*
X180697200Y-180542914D01*
X180768628Y-180400057D01*
X180768628Y-180257200D01*
X180697200Y-180114342D01*
X180625771Y-180042914D01*
X180482914Y-179971485D01*
X180197200Y-179900057D01*
X180054342Y-179828628D01*
X179982914Y-179757200D01*
X179911485Y-179614342D01*
X179911485Y-179471485D01*
X179982914Y-179328628D01*
X180054342Y-179257200D01*
X180197200Y-179185771D01*
X180554342Y-179185771D01*
X180768628Y-179257200D01*
X182268628Y-180542914D02*
X182197200Y-180614342D01*
X181982914Y-180685771D01*
X181840057Y-180685771D01*
X181625771Y-180614342D01*
X181482914Y-180471485D01*
X181411485Y-180328628D01*
X181340057Y-180042914D01*
X181340057Y-179828628D01*
X181411485Y-179542914D01*
X181482914Y-179400057D01*
X181625771Y-179257200D01*
X181840057Y-179185771D01*
X181982914Y-179185771D01*
X182197200Y-179257200D01*
X182268628Y-179328628D01*
X182911485Y-180685771D02*
X182911485Y-179685771D01*
X182911485Y-179185771D02*
X182840057Y-179257200D01*
X182911485Y-179328628D01*
X182982914Y-179257200D01*
X182911485Y-179185771D01*
X182911485Y-179328628D01*
X183625771Y-180685771D02*
X183625771Y-179685771D01*
X183625771Y-179971485D02*
X183697200Y-179828628D01*
X183768628Y-179757200D01*
X183911485Y-179685771D01*
X184054342Y-179685771D01*
X185197200Y-180614342D02*
X185054342Y-180685771D01*
X184768628Y-180685771D01*
X184625771Y-180614342D01*
X184554342Y-180542914D01*
X184482914Y-180400057D01*
X184482914Y-179971485D01*
X184554342Y-179828628D01*
X184625771Y-179757200D01*
X184768628Y-179685771D01*
X185054342Y-179685771D01*
X185197200Y-179757200D01*
X186482914Y-179685771D02*
X186482914Y-180685771D01*
X185840057Y-179685771D02*
X185840057Y-180471485D01*
X185911485Y-180614342D01*
X186054342Y-180685771D01*
X186268628Y-180685771D01*
X186411485Y-180614342D01*
X186482914Y-180542914D01*
X187197200Y-180685771D02*
X187197200Y-179685771D01*
X187197200Y-179185771D02*
X187125771Y-179257200D01*
X187197200Y-179328628D01*
X187268628Y-179257200D01*
X187197200Y-179185771D01*
X187197200Y-179328628D01*
X187697200Y-179685771D02*
X188268628Y-179685771D01*
X187911485Y-179185771D02*
X187911485Y-180471485D01*
X187982914Y-180614342D01*
X188125771Y-180685771D01*
X188268628Y-180685771D01*
X188697200Y-180614342D02*
X188840057Y-180685771D01*
X189125771Y-180685771D01*
X189268628Y-180614342D01*
X189340057Y-180471485D01*
X189340057Y-180400057D01*
X189268628Y-180257200D01*
X189125771Y-180185771D01*
X188911485Y-180185771D01*
X188768628Y-180114342D01*
X188697200Y-179971485D01*
X188697200Y-179900057D01*
X188768628Y-179757200D01*
X188911485Y-179685771D01*
X189125771Y-179685771D01*
X189268628Y-179757200D01*
D10*
D11*
X178434342Y-177685771D02*
X178434342Y-176185771D01*
X179005771Y-176185771D01*
X179148628Y-176257200D01*
X179220057Y-176328628D01*
X179291485Y-176471485D01*
X179291485Y-176685771D01*
X179220057Y-176828628D01*
X179148628Y-176900057D01*
X179005771Y-176971485D01*
X178434342Y-176971485D01*
X179934342Y-177685771D02*
X179934342Y-176685771D01*
X179934342Y-176971485D02*
X180005771Y-176828628D01*
X180077200Y-176757200D01*
X180220057Y-176685771D01*
X180362914Y-176685771D01*
X181505771Y-177685771D02*
X181505771Y-176900057D01*
X181434342Y-176757200D01*
X181291485Y-176685771D01*
X181005771Y-176685771D01*
X180862914Y-176757200D01*
X181505771Y-177614342D02*
X181362914Y-177685771D01*
X181005771Y-177685771D01*
X180862914Y-177614342D01*
X180791485Y-177471485D01*
X180791485Y-177328628D01*
X180862914Y-177185771D01*
X181005771Y-177114342D01*
X181362914Y-177114342D01*
X181505771Y-177042914D01*
X182220057Y-176685771D02*
X182220057Y-177971485D01*
X182148628Y-178114342D01*
X182005771Y-178185771D01*
X181934342Y-178185771D01*
X182220057Y-176185771D02*
X182148628Y-176257200D01*
X182220057Y-176328628D01*
X182291485Y-176257200D01*
X182220057Y-176185771D01*
X182220057Y-176328628D01*
X183577200Y-177685771D02*
X183577200Y-176900057D01*
X183505771Y-176757200D01*
X183362914Y-176685771D01*
X183077200Y-176685771D01*
X182934342Y-176757200D01*
X183577200Y-177614342D02*
X183434342Y-177685771D01*
X183077200Y-177685771D01*
X182934342Y-177614342D01*
X182862914Y-177471485D01*
X182862914Y-177328628D01*
X182934342Y-177185771D01*
X183077200Y-177114342D01*
X183434342Y-177114342D01*
X183577200Y-177042914D01*
X184148628Y-176685771D02*
X184505771Y-177685771D01*
X184862914Y-176685771D02*
X184505771Y-177685771D01*
X184362914Y-178042914D01*
X184291485Y-178114342D01*
X184148628Y-178185771D01*
X186577200Y-177685771D02*
X186577200Y-176185771D01*
X187077200Y-177257200D01*
X187577200Y-176185771D01*
X187577200Y-177685771D01*
X188934342Y-177685771D02*
X188934342Y-176900057D01*
X188862914Y-176757200D01*
X188720057Y-176685771D01*
X188434342Y-176685771D01*
X188291485Y-176757200D01*
X188934342Y-177614342D02*
X188791485Y-177685771D01*
X188434342Y-177685771D01*
X188291485Y-177614342D01*
X188220057Y-177471485D01*
X188220057Y-177328628D01*
X188291485Y-177185771D01*
X188434342Y-177114342D01*
X188791485Y-177114342D01*
X188934342Y-177042914D01*
X190291485Y-177685771D02*
X190291485Y-176185771D01*
X190291485Y-177614342D02*
X190148628Y-177685771D01*
X189862914Y-177685771D01*
X189720057Y-177614342D01*
X189648628Y-177542914D01*
X189577200Y-177400057D01*
X189577200Y-176971485D01*
X189648628Y-176828628D01*
X189720057Y-176757200D01*
X189862914Y-176685771D01*
X190148628Y-176685771D01*
X190291485Y-176757200D01*
X191005771Y-177685771D02*
X191005771Y-176185771D01*
X191648628Y-177685771D02*
X191648628Y-176900057D01*
X191577200Y-176757200D01*
X191434342Y-176685771D01*
X191220057Y-176685771D01*
X191077200Y-176757200D01*
X191005771Y-176828628D01*
X193005771Y-177685771D02*
X193005771Y-176900057D01*
X192934342Y-176757200D01*
X192791485Y-176685771D01*
X192505771Y-176685771D01*
X192362914Y-176757200D01*
X193005771Y-177614342D02*
X192862914Y-177685771D01*
X192505771Y-177685771D01*
X192362914Y-177614342D01*
X192291485Y-177471485D01*
X192291485Y-177328628D01*
X192362914Y-177185771D01*
X192505771Y-177114342D01*
X192862914Y-177114342D01*
X193005771Y-177042914D01*
X193577200Y-176685771D02*
X193934342Y-177685771D01*
X194291485Y-176685771D01*
X195505771Y-177685771D02*
X195505771Y-176900057D01*
X195434342Y-176757200D01*
X195291485Y-176685771D01*
X195005771Y-176685771D01*
X194862914Y-176757200D01*
X195505771Y-177614342D02*
X195362914Y-177685771D01*
X195005771Y-177685771D01*
X194862914Y-177614342D01*
X194791485Y-177471485D01*
X194791485Y-177328628D01*
X194862914Y-177185771D01*
X195005771Y-177114342D01*
X195362914Y-177114342D01*
X195505771Y-177042914D01*
X196220057Y-176685771D02*
X196220057Y-177685771D01*
X196220057Y-176828628D02*
X196291485Y-176757200D01*
X196434342Y-176685771D01*
X196648628Y-176685771D01*
X196791485Y-176757200D01*
X196862914Y-176900057D01*
X196862914Y-177685771D01*
D10*
D11*
X197002200Y-191507200D02*
X197002200Y-194507200D01*
D10*
D11*
X261002200Y-191507200D02*
X261002200Y-198007200D01*
D14*
X84666666Y-51600000D02*
G75*
G03X84666666Y-51600000I-1666666J0D01*
G01*
X80500000Y-51600000D02*
X85500000Y-51600000D01*
X83000000Y-49100000D02*
X83000000Y-54100000D01*
D11*
X109300000Y-96800000D02*
X99300000Y-96800000D01*
X109300000Y-106800000D02*
X109300000Y-96800000D01*
X99300000Y-106800000D02*
X109300000Y-106800000D01*
X99300000Y-96800000D02*
X99300000Y-106800000D01*
X138500000Y-126500000D02*
X137500000Y-126500000D01*
X84528571Y-164552380D02*
X83957142Y-164552380D01*
X84242857Y-164552380D02*
X84242857Y-163552380D01*
X84147619Y-163695238D01*
X84052380Y-163790476D01*
X83957142Y-163838095D01*
X85147619Y-163552380D02*
X85242857Y-163552380D01*
X85338095Y-163600000D01*
X85385714Y-163647619D01*
X85433333Y-163742857D01*
X85480952Y-163933333D01*
X85480952Y-164171428D01*
X85433333Y-164361904D01*
X85385714Y-164457142D01*
X85338095Y-164504761D01*
X85242857Y-164552380D01*
X85147619Y-164552380D01*
X85052380Y-164504761D01*
X85004761Y-164457142D01*
X84957142Y-164361904D01*
X84909523Y-164171428D01*
X84909523Y-163933333D01*
X84957142Y-163742857D01*
X85004761Y-163647619D01*
X85052380Y-163600000D01*
X85147619Y-163552380D01*
X85909523Y-164457142D02*
X85957142Y-164504761D01*
X85909523Y-164552380D01*
X85861904Y-164504761D01*
X85909523Y-164457142D01*
X85909523Y-164552380D01*
X86814285Y-163885714D02*
X86814285Y-164552380D01*
X86576190Y-163504761D02*
X86338095Y-164219047D01*
X86957142Y-164219047D01*
X87528571Y-163552380D02*
X87623809Y-163552380D01*
X87719047Y-163600000D01*
X87766666Y-163647619D01*
X87814285Y-163742857D01*
X87861904Y-163933333D01*
X87861904Y-164171428D01*
X87814285Y-164361904D01*
X87766666Y-164457142D01*
X87719047Y-164504761D01*
X87623809Y-164552380D01*
X87528571Y-164552380D01*
X87433333Y-164504761D01*
X87385714Y-164457142D01*
X87338095Y-164361904D01*
X87290476Y-164171428D01*
X87290476Y-163933333D01*
X87338095Y-163742857D01*
X87385714Y-163647619D01*
X87433333Y-163600000D01*
X87528571Y-163552380D01*
X88480952Y-163552380D02*
X88576190Y-163552380D01*
X88671428Y-163600000D01*
X88719047Y-163647619D01*
X88766666Y-163742857D01*
X88814285Y-163933333D01*
X88814285Y-164171428D01*
X88766666Y-164361904D01*
X88719047Y-164457142D01*
X88671428Y-164504761D01*
X88576190Y-164552380D01*
X88480952Y-164552380D01*
X88385714Y-164504761D01*
X88338095Y-164457142D01*
X88290476Y-164361904D01*
X88242857Y-164171428D01*
X88242857Y-163933333D01*
X88290476Y-163742857D01*
X88338095Y-163647619D01*
X88385714Y-163600000D01*
X88480952Y-163552380D01*
X90004761Y-164552380D02*
X90004761Y-163885714D01*
X90004761Y-163980952D02*
X90052380Y-163933333D01*
X90147619Y-163885714D01*
X90290476Y-163885714D01*
X90385714Y-163933333D01*
X90433333Y-164028571D01*
X90433333Y-164552380D01*
X90433333Y-164028571D02*
X90480952Y-163933333D01*
X90576190Y-163885714D01*
X90719047Y-163885714D01*
X90814285Y-163933333D01*
X90861904Y-164028571D01*
X90861904Y-164552380D01*
X91338095Y-164552380D02*
X91338095Y-163885714D01*
X91338095Y-163980952D02*
X91385714Y-163933333D01*
X91480952Y-163885714D01*
X91623809Y-163885714D01*
X91719047Y-163933333D01*
X91766666Y-164028571D01*
X91766666Y-164552380D01*
X91766666Y-164028571D02*
X91814285Y-163933333D01*
X91909523Y-163885714D01*
X92052380Y-163885714D01*
X92147619Y-163933333D01*
X92195238Y-164028571D01*
X92195238Y-164552380D01*
X82900000Y-162800000D02*
X93300000Y-162800000D01*
X82900000Y-147900000D02*
X82900000Y-163386421D01*
X93300000Y-147900000D02*
X93300000Y-163386421D01*
X93300000Y-162800000D02*
X92173496Y-163386421D01*
X93300000Y-162800000D02*
X92173496Y-162213579D01*
X82900000Y-162800000D02*
X84026504Y-163386421D01*
X82900000Y-162800000D02*
X84026504Y-162213579D01*
X237452380Y-156842857D02*
X237452380Y-157319047D01*
X237928571Y-157366666D01*
X237880952Y-157319047D01*
X237833333Y-157223809D01*
X237833333Y-156985714D01*
X237880952Y-156890476D01*
X237928571Y-156842857D01*
X238023809Y-156795238D01*
X238261904Y-156795238D01*
X238357142Y-156842857D01*
X238404761Y-156890476D01*
X238452380Y-156985714D01*
X238452380Y-157223809D01*
X238404761Y-157319047D01*
X238357142Y-157366666D01*
X238357142Y-156366666D02*
X238404761Y-156319047D01*
X238452380Y-156366666D01*
X238404761Y-156414285D01*
X238357142Y-156366666D01*
X238452380Y-156366666D01*
X237452380Y-155700000D02*
X237452380Y-155604761D01*
X237500000Y-155509523D01*
X237547619Y-155461904D01*
X237642857Y-155414285D01*
X237833333Y-155366666D01*
X238071428Y-155366666D01*
X238261904Y-155414285D01*
X238357142Y-155461904D01*
X238404761Y-155509523D01*
X238452380Y-155604761D01*
X238452380Y-155700000D01*
X238404761Y-155795238D01*
X238357142Y-155842857D01*
X238261904Y-155890476D01*
X238071428Y-155938095D01*
X237833333Y-155938095D01*
X237642857Y-155890476D01*
X237547619Y-155842857D01*
X237500000Y-155795238D01*
X237452380Y-155700000D01*
X237452380Y-154747619D02*
X237452380Y-154652380D01*
X237500000Y-154557142D01*
X237547619Y-154509523D01*
X237642857Y-154461904D01*
X237833333Y-154414285D01*
X238071428Y-154414285D01*
X238261904Y-154461904D01*
X238357142Y-154509523D01*
X238404761Y-154557142D01*
X238452380Y-154652380D01*
X238452380Y-154747619D01*
X238404761Y-154842857D01*
X238357142Y-154890476D01*
X238261904Y-154938095D01*
X238071428Y-154985714D01*
X237833333Y-154985714D01*
X237642857Y-154938095D01*
X237547619Y-154890476D01*
X237500000Y-154842857D01*
X237452380Y-154747619D01*
X237452380Y-153795238D02*
X237452380Y-153700000D01*
X237500000Y-153604761D01*
X237547619Y-153557142D01*
X237642857Y-153509523D01*
X237833333Y-153461904D01*
X238071428Y-153461904D01*
X238261904Y-153509523D01*
X238357142Y-153557142D01*
X238404761Y-153604761D01*
X238452380Y-153700000D01*
X238452380Y-153795238D01*
X238404761Y-153890476D01*
X238357142Y-153938095D01*
X238261904Y-153985714D01*
X238071428Y-154033333D01*
X237833333Y-154033333D01*
X237642857Y-153985714D01*
X237547619Y-153938095D01*
X237500000Y-153890476D01*
X237452380Y-153795238D01*
X238452380Y-152271428D02*
X237785714Y-152271428D01*
X237880952Y-152271428D02*
X237833333Y-152223809D01*
X237785714Y-152128571D01*
X237785714Y-151985714D01*
X237833333Y-151890476D01*
X237928571Y-151842857D01*
X238452380Y-151842857D01*
X237928571Y-151842857D02*
X237833333Y-151795238D01*
X237785714Y-151700000D01*
X237785714Y-151557142D01*
X237833333Y-151461904D01*
X237928571Y-151414285D01*
X238452380Y-151414285D01*
X238452380Y-150938095D02*
X237785714Y-150938095D01*
X237880952Y-150938095D02*
X237833333Y-150890476D01*
X237785714Y-150795238D01*
X237785714Y-150652380D01*
X237833333Y-150557142D01*
X237928571Y-150509523D01*
X238452380Y-150509523D01*
X237928571Y-150509523D02*
X237833333Y-150461904D01*
X237785714Y-150366666D01*
X237785714Y-150223809D01*
X237833333Y-150128571D01*
X237928571Y-150080952D01*
X238452380Y-150080952D01*
X236700000Y-156200000D02*
X236700000Y-151200000D01*
X206500000Y-156200000D02*
X237286421Y-156200000D01*
X206500000Y-151200000D02*
X237286421Y-151200000D01*
X236700000Y-151200000D02*
X237286421Y-152326504D01*
X236700000Y-151200000D02*
X236113579Y-152326504D01*
X236700000Y-156200000D02*
X237286421Y-155073496D01*
X236700000Y-156200000D02*
X236113579Y-155073496D01*
X240147619Y-51057142D02*
X240147619Y-50580952D01*
X239671428Y-50533333D01*
X239719047Y-50580952D01*
X239766666Y-50676190D01*
X239766666Y-50914285D01*
X239719047Y-51009523D01*
X239671428Y-51057142D01*
X239576190Y-51104761D01*
X239338095Y-51104761D01*
X239242857Y-51057142D01*
X239195238Y-51009523D01*
X239147619Y-50914285D01*
X239147619Y-50676190D01*
X239195238Y-50580952D01*
X239242857Y-50533333D01*
X239242857Y-51533333D02*
X239195238Y-51580952D01*
X239147619Y-51533333D01*
X239195238Y-51485714D01*
X239242857Y-51533333D01*
X239147619Y-51533333D01*
X240147619Y-52200000D02*
X240147619Y-52295238D01*
X240100000Y-52390476D01*
X240052380Y-52438095D01*
X239957142Y-52485714D01*
X239766666Y-52533333D01*
X239528571Y-52533333D01*
X239338095Y-52485714D01*
X239242857Y-52438095D01*
X239195238Y-52390476D01*
X239147619Y-52295238D01*
X239147619Y-52200000D01*
X239195238Y-52104761D01*
X239242857Y-52057142D01*
X239338095Y-52009523D01*
X239528571Y-51961904D01*
X239766666Y-51961904D01*
X239957142Y-52009523D01*
X240052380Y-52057142D01*
X240100000Y-52104761D01*
X240147619Y-52200000D01*
X240147619Y-53152380D02*
X240147619Y-53247619D01*
X240100000Y-53342857D01*
X240052380Y-53390476D01*
X239957142Y-53438095D01*
X239766666Y-53485714D01*
X239528571Y-53485714D01*
X239338095Y-53438095D01*
X239242857Y-53390476D01*
X239195238Y-53342857D01*
X239147619Y-53247619D01*
X239147619Y-53152380D01*
X239195238Y-53057142D01*
X239242857Y-53009523D01*
X239338095Y-52961904D01*
X239528571Y-52914285D01*
X239766666Y-52914285D01*
X239957142Y-52961904D01*
X240052380Y-53009523D01*
X240100000Y-53057142D01*
X240147619Y-53152380D01*
X240147619Y-54104761D02*
X240147619Y-54200000D01*
X240100000Y-54295238D01*
X240052380Y-54342857D01*
X239957142Y-54390476D01*
X239766666Y-54438095D01*
X239528571Y-54438095D01*
X239338095Y-54390476D01*
X239242857Y-54342857D01*
X239195238Y-54295238D01*
X239147619Y-54200000D01*
X239147619Y-54104761D01*
X239195238Y-54009523D01*
X239242857Y-53961904D01*
X239338095Y-53914285D01*
X239528571Y-53866666D01*
X239766666Y-53866666D01*
X239957142Y-53914285D01*
X240052380Y-53961904D01*
X240100000Y-54009523D01*
X240147619Y-54104761D01*
X239147619Y-55628571D02*
X239814285Y-55628571D01*
X239719047Y-55628571D02*
X239766666Y-55676190D01*
X239814285Y-55771428D01*
X239814285Y-55914285D01*
X239766666Y-56009523D01*
X239671428Y-56057142D01*
X239147619Y-56057142D01*
X239671428Y-56057142D02*
X239766666Y-56104761D01*
X239814285Y-56200000D01*
X239814285Y-56342857D01*
X239766666Y-56438095D01*
X239671428Y-56485714D01*
X239147619Y-56485714D01*
X239147619Y-56961904D02*
X239814285Y-56961904D01*
X239719047Y-56961904D02*
X239766666Y-57009523D01*
X239814285Y-57104761D01*
X239814285Y-57247619D01*
X239766666Y-57342857D01*
X239671428Y-57390476D01*
X239147619Y-57390476D01*
X239671428Y-57390476D02*
X239766666Y-57438095D01*
X239814285Y-57533333D01*
X239814285Y-57676190D01*
X239766666Y-57771428D01*
X239671428Y-57819047D01*
X239147619Y-57819047D01*
X238300000Y-51700000D02*
X238300000Y-56700000D01*
X198400000Y-51700000D02*
X238886421Y-51700000D01*
X198400000Y-56700000D02*
X238886421Y-56700000D01*
X238300000Y-56700000D02*
X237713579Y-55573496D01*
X238300000Y-56700000D02*
X238886421Y-55573496D01*
X238300000Y-51700000D02*
X237713579Y-52826504D01*
X238300000Y-51700000D02*
X238886421Y-52826504D01*
X228347619Y-99852380D02*
X228347619Y-99280952D01*
X228347619Y-99566666D02*
X229347619Y-99566666D01*
X229204761Y-99471428D01*
X229109523Y-99376190D01*
X229061904Y-99280952D01*
X229347619Y-100471428D02*
X229347619Y-100566666D01*
X229300000Y-100661904D01*
X229252380Y-100709523D01*
X229157142Y-100757142D01*
X228966666Y-100804761D01*
X228728571Y-100804761D01*
X228538095Y-100757142D01*
X228442857Y-100709523D01*
X228395238Y-100661904D01*
X228347619Y-100566666D01*
X228347619Y-100471428D01*
X228395238Y-100376190D01*
X228442857Y-100328571D01*
X228538095Y-100280952D01*
X228728571Y-100233333D01*
X228966666Y-100233333D01*
X229157142Y-100280952D01*
X229252380Y-100328571D01*
X229300000Y-100376190D01*
X229347619Y-100471428D01*
X229014285Y-101661904D02*
X228347619Y-101661904D01*
X229395238Y-101423809D02*
X228680952Y-101185714D01*
X228680952Y-101804761D01*
X228442857Y-102185714D02*
X228395238Y-102233333D01*
X228347619Y-102185714D01*
X228395238Y-102138095D01*
X228442857Y-102185714D01*
X228347619Y-102185714D01*
X229347619Y-103090476D02*
X229347619Y-102900000D01*
X229300000Y-102804761D01*
X229252380Y-102757142D01*
X229109523Y-102661904D01*
X228919047Y-102614285D01*
X228538095Y-102614285D01*
X228442857Y-102661904D01*
X228395238Y-102709523D01*
X228347619Y-102804761D01*
X228347619Y-102995238D01*
X228395238Y-103090476D01*
X228442857Y-103138095D01*
X228538095Y-103185714D01*
X228776190Y-103185714D01*
X228871428Y-103138095D01*
X228919047Y-103090476D01*
X228966666Y-102995238D01*
X228966666Y-102804761D01*
X228919047Y-102709523D01*
X228871428Y-102661904D01*
X228776190Y-102614285D01*
X229347619Y-103804761D02*
X229347619Y-103900000D01*
X229300000Y-103995238D01*
X229252380Y-104042857D01*
X229157142Y-104090476D01*
X228966666Y-104138095D01*
X228728571Y-104138095D01*
X228538095Y-104090476D01*
X228442857Y-104042857D01*
X228395238Y-103995238D01*
X228347619Y-103900000D01*
X228347619Y-103804761D01*
X228395238Y-103709523D01*
X228442857Y-103661904D01*
X228538095Y-103614285D01*
X228728571Y-103566666D01*
X228966666Y-103566666D01*
X229157142Y-103614285D01*
X229252380Y-103661904D01*
X229300000Y-103709523D01*
X229347619Y-103804761D01*
X229347619Y-104757142D02*
X229347619Y-104852380D01*
X229300000Y-104947619D01*
X229252380Y-104995238D01*
X229157142Y-105042857D01*
X228966666Y-105090476D01*
X228728571Y-105090476D01*
X228538095Y-105042857D01*
X228442857Y-104995238D01*
X228395238Y-104947619D01*
X228347619Y-104852380D01*
X228347619Y-104757142D01*
X228395238Y-104661904D01*
X228442857Y-104614285D01*
X228538095Y-104566666D01*
X228728571Y-104519047D01*
X228966666Y-104519047D01*
X229157142Y-104566666D01*
X229252380Y-104614285D01*
X229300000Y-104661904D01*
X229347619Y-104757142D01*
X228347619Y-106280952D02*
X229014285Y-106280952D01*
X228919047Y-106280952D02*
X228966666Y-106328571D01*
X229014285Y-106423809D01*
X229014285Y-106566666D01*
X228966666Y-106661904D01*
X228871428Y-106709523D01*
X228347619Y-106709523D01*
X228871428Y-106709523D02*
X228966666Y-106757142D01*
X229014285Y-106852380D01*
X229014285Y-106995238D01*
X228966666Y-107090476D01*
X228871428Y-107138095D01*
X228347619Y-107138095D01*
X228347619Y-107614285D02*
X229014285Y-107614285D01*
X228919047Y-107614285D02*
X228966666Y-107661904D01*
X229014285Y-107757142D01*
X229014285Y-107900000D01*
X228966666Y-107995238D01*
X228871428Y-108042857D01*
X228347619Y-108042857D01*
X228871428Y-108042857D02*
X228966666Y-108090476D01*
X229014285Y-108185714D01*
X229014285Y-108328571D01*
X228966666Y-108423809D01*
X228871428Y-108471428D01*
X228347619Y-108471428D01*
X227500000Y-51600000D02*
X227500000Y-156200000D01*
X208100000Y-51600000D02*
X228086421Y-51600000D01*
X208100000Y-156200000D02*
X228086421Y-156200000D01*
X227500000Y-156200000D02*
X226913579Y-155073496D01*
X227500000Y-156200000D02*
X228086421Y-155073496D01*
X227500000Y-51600000D02*
X226913579Y-52726504D01*
X227500000Y-51600000D02*
X228086421Y-52726504D01*
X137500000Y-126500000D02*
X137500000Y-136100000D01*
X138500000Y-135300000D02*
X138500000Y-126500000D01*
X155600000Y-135300000D02*
X138500000Y-135300000D01*
X155700000Y-126800000D02*
X155600000Y-135300000D01*
X156600000Y-126800000D02*
X155700000Y-126800000D01*
X156500000Y-136200000D02*
X156600000Y-126800000D01*
X137500000Y-136100000D02*
X156500000Y-136200000D01*
D12*
X98309285Y-175603571D02*
X97809285Y-174889285D01*
X97452142Y-175603571D02*
X97452142Y-174103571D01*
X98023571Y-174103571D01*
X98166428Y-174175000D01*
X98237857Y-174246428D01*
X98309285Y-174389285D01*
X98309285Y-174603571D01*
X98237857Y-174746428D01*
X98166428Y-174817857D01*
X98023571Y-174889285D01*
X97452142Y-174889285D01*
X99523571Y-175532142D02*
X99380714Y-175603571D01*
X99095000Y-175603571D01*
X98952142Y-175532142D01*
X98880714Y-175389285D01*
X98880714Y-174817857D01*
X98952142Y-174675000D01*
X99095000Y-174603571D01*
X99380714Y-174603571D01*
X99523571Y-174675000D01*
X99595000Y-174817857D01*
X99595000Y-174960714D01*
X98880714Y-175103571D01*
X100095000Y-174603571D02*
X100452142Y-175603571D01*
X100809285Y-174603571D01*
X101380714Y-175603571D02*
X101380714Y-174603571D01*
X101380714Y-174103571D02*
X101309285Y-174175000D01*
X101380714Y-174246428D01*
X101452142Y-174175000D01*
X101380714Y-174103571D01*
X101380714Y-174246428D01*
X102023571Y-175532142D02*
X102166428Y-175603571D01*
X102452142Y-175603571D01*
X102595000Y-175532142D01*
X102666428Y-175389285D01*
X102666428Y-175317857D01*
X102595000Y-175175000D01*
X102452142Y-175103571D01*
X102237857Y-175103571D01*
X102095000Y-175032142D01*
X102023571Y-174889285D01*
X102023571Y-174817857D01*
X102095000Y-174675000D01*
X102237857Y-174603571D01*
X102452142Y-174603571D01*
X102595000Y-174675000D01*
X103309285Y-175603571D02*
X103309285Y-174603571D01*
X103309285Y-174103571D02*
X103237857Y-174175000D01*
X103309285Y-174246428D01*
X103380714Y-174175000D01*
X103309285Y-174103571D01*
X103309285Y-174246428D01*
X104237857Y-175603571D02*
X104095000Y-175532142D01*
X104023571Y-175460714D01*
X103952142Y-175317857D01*
X103952142Y-174889285D01*
X104023571Y-174746428D01*
X104095000Y-174675000D01*
X104237857Y-174603571D01*
X104452142Y-174603571D01*
X104595000Y-174675000D01*
X104666428Y-174746428D01*
X104737857Y-174889285D01*
X104737857Y-175317857D01*
X104666428Y-175460714D01*
X104595000Y-175532142D01*
X104452142Y-175603571D01*
X104237857Y-175603571D01*
X105380714Y-174603571D02*
X105380714Y-175603571D01*
X105380714Y-174746428D02*
X105452142Y-174675000D01*
X105595000Y-174603571D01*
X105809285Y-174603571D01*
X105952142Y-174675000D01*
X106023571Y-174817857D01*
X106023571Y-175603571D01*
X107880714Y-175603571D02*
X107880714Y-174103571D01*
X108523571Y-175603571D02*
X108523571Y-174817857D01*
X108452142Y-174675000D01*
X108309285Y-174603571D01*
X108095000Y-174603571D01*
X107952142Y-174675000D01*
X107880714Y-174746428D01*
X109237857Y-175603571D02*
X109237857Y-174603571D01*
X109237857Y-174103571D02*
X109166428Y-174175000D01*
X109237857Y-174246428D01*
X109309285Y-174175000D01*
X109237857Y-174103571D01*
X109237857Y-174246428D01*
X109880714Y-175532142D02*
X110023571Y-175603571D01*
X110309285Y-175603571D01*
X110452142Y-175532142D01*
X110523571Y-175389285D01*
X110523571Y-175317857D01*
X110452142Y-175175000D01*
X110309285Y-175103571D01*
X110095000Y-175103571D01*
X109952142Y-175032142D01*
X109880714Y-174889285D01*
X109880714Y-174817857D01*
X109952142Y-174675000D01*
X110095000Y-174603571D01*
X110309285Y-174603571D01*
X110452142Y-174675000D01*
X110952142Y-174603571D02*
X111523571Y-174603571D01*
X111166428Y-174103571D02*
X111166428Y-175389285D01*
X111237857Y-175532142D01*
X111380714Y-175603571D01*
X111523571Y-175603571D01*
X112237857Y-175603571D02*
X112095000Y-175532142D01*
X112023571Y-175460714D01*
X111952142Y-175317857D01*
X111952142Y-174889285D01*
X112023571Y-174746428D01*
X112095000Y-174675000D01*
X112237857Y-174603571D01*
X112452142Y-174603571D01*
X112595000Y-174675000D01*
X112666428Y-174746428D01*
X112737857Y-174889285D01*
X112737857Y-175317857D01*
X112666428Y-175460714D01*
X112595000Y-175532142D01*
X112452142Y-175603571D01*
X112237857Y-175603571D01*
X113380714Y-175603571D02*
X113380714Y-174603571D01*
X113380714Y-174889285D02*
X113452142Y-174746428D01*
X113523571Y-174675000D01*
X113666428Y-174603571D01*
X113809285Y-174603571D01*
X114166428Y-174603571D02*
X114523571Y-175603571D01*
X114880714Y-174603571D02*
X114523571Y-175603571D01*
X114380714Y-175960714D01*
X114309285Y-176032142D01*
X114166428Y-176103571D01*
X98237857Y-178153571D02*
X97380714Y-178153571D01*
X97809285Y-178153571D02*
X97809285Y-176653571D01*
X97666428Y-176867857D01*
X97523571Y-177010714D01*
X97380714Y-177082142D01*
X98880714Y-178010714D02*
X98952142Y-178082142D01*
X98880714Y-178153571D01*
X98809285Y-178082142D01*
X98880714Y-178010714D01*
X98880714Y-178153571D01*
X101595000Y-178153571D02*
X101095000Y-177439285D01*
X100737857Y-178153571D02*
X100737857Y-176653571D01*
X101309285Y-176653571D01*
X101452142Y-176725000D01*
X101523571Y-176796428D01*
X101595000Y-176939285D01*
X101595000Y-177153571D01*
X101523571Y-177296428D01*
X101452142Y-177367857D01*
X101309285Y-177439285D01*
X100737857Y-177439285D01*
X102809285Y-178082142D02*
X102666428Y-178153571D01*
X102380714Y-178153571D01*
X102237857Y-178082142D01*
X102166428Y-177939285D01*
X102166428Y-177367857D01*
X102237857Y-177225000D01*
X102380714Y-177153571D01*
X102666428Y-177153571D01*
X102809285Y-177225000D01*
X102880714Y-177367857D01*
X102880714Y-177510714D01*
X102166428Y-177653571D01*
X104166428Y-178153571D02*
X104166428Y-176653571D01*
X104166428Y-178082142D02*
X104023571Y-178153571D01*
X103737857Y-178153571D01*
X103595000Y-178082142D01*
X103523571Y-178010714D01*
X103452142Y-177867857D01*
X103452142Y-177439285D01*
X103523571Y-177296428D01*
X103595000Y-177225000D01*
X103737857Y-177153571D01*
X104023571Y-177153571D01*
X104166428Y-177225000D01*
X105523571Y-177153571D02*
X105523571Y-178153571D01*
X104880714Y-177153571D02*
X104880714Y-177939285D01*
X104952142Y-178082142D01*
X105095000Y-178153571D01*
X105309285Y-178153571D01*
X105452142Y-178082142D01*
X105523571Y-178010714D01*
X106880714Y-178082142D02*
X106737857Y-178153571D01*
X106452142Y-178153571D01*
X106309285Y-178082142D01*
X106237857Y-178010714D01*
X106166428Y-177867857D01*
X106166428Y-177439285D01*
X106237857Y-177296428D01*
X106309285Y-177225000D01*
X106452142Y-177153571D01*
X106737857Y-177153571D01*
X106880714Y-177225000D01*
X108095000Y-178082142D02*
X107952142Y-178153571D01*
X107666428Y-178153571D01*
X107523571Y-178082142D01*
X107452142Y-177939285D01*
X107452142Y-177367857D01*
X107523571Y-177225000D01*
X107666428Y-177153571D01*
X107952142Y-177153571D01*
X108095000Y-177225000D01*
X108166428Y-177367857D01*
X108166428Y-177510714D01*
X107452142Y-177653571D01*
X109452142Y-178153571D02*
X109452142Y-176653571D01*
X109452142Y-178082142D02*
X109309285Y-178153571D01*
X109023571Y-178153571D01*
X108880714Y-178082142D01*
X108809285Y-178010714D01*
X108737857Y-177867857D01*
X108737857Y-177439285D01*
X108809285Y-177296428D01*
X108880714Y-177225000D01*
X109023571Y-177153571D01*
X109309285Y-177153571D01*
X109452142Y-177225000D01*
X111595000Y-177439285D02*
X111595000Y-178153571D01*
X111095000Y-176653571D02*
X111595000Y-177439285D01*
X112095000Y-176653571D01*
X114380714Y-178153571D02*
X114380714Y-176653571D01*
X114380714Y-178082142D02*
X114237857Y-178153571D01*
X113952142Y-178153571D01*
X113809285Y-178082142D01*
X113737857Y-178010714D01*
X113666428Y-177867857D01*
X113666428Y-177439285D01*
X113737857Y-177296428D01*
X113809285Y-177225000D01*
X113952142Y-177153571D01*
X114237857Y-177153571D01*
X114380714Y-177225000D01*
X115095000Y-178153571D02*
X115095000Y-177153571D01*
X115095000Y-176653571D02*
X115023571Y-176725000D01*
X115095000Y-176796428D01*
X115166428Y-176725000D01*
X115095000Y-176653571D01*
X115095000Y-176796428D01*
X115809285Y-178153571D02*
X115809285Y-177153571D01*
X115809285Y-177296428D02*
X115880714Y-177225000D01*
X116023571Y-177153571D01*
X116237857Y-177153571D01*
X116380714Y-177225000D01*
X116452142Y-177367857D01*
X116452142Y-178153571D01*
X116452142Y-177367857D02*
X116523571Y-177225000D01*
X116666428Y-177153571D01*
X116880714Y-177153571D01*
X117023571Y-177225000D01*
X117095000Y-177367857D01*
X117095000Y-178153571D01*
X118380714Y-178082142D02*
X118237857Y-178153571D01*
X117952142Y-178153571D01*
X117809285Y-178082142D01*
X117737857Y-177939285D01*
X117737857Y-177367857D01*
X117809285Y-177225000D01*
X117952142Y-177153571D01*
X118237857Y-177153571D01*
X118380714Y-177225000D01*
X118452142Y-177367857D01*
X118452142Y-177510714D01*
X117737857Y-177653571D01*
X119095000Y-177153571D02*
X119095000Y-178153571D01*
X119095000Y-177296428D02*
X119166428Y-177225000D01*
X119309285Y-177153571D01*
X119523571Y-177153571D01*
X119666428Y-177225000D01*
X119737857Y-177367857D01*
X119737857Y-178153571D01*
X120380714Y-178082142D02*
X120523571Y-178153571D01*
X120809285Y-178153571D01*
X120952142Y-178082142D01*
X121023571Y-177939285D01*
X121023571Y-177867857D01*
X120952142Y-177725000D01*
X120809285Y-177653571D01*
X120595000Y-177653571D01*
X120452142Y-177582142D01*
X120380714Y-177439285D01*
X120380714Y-177367857D01*
X120452142Y-177225000D01*
X120595000Y-177153571D01*
X120809285Y-177153571D01*
X120952142Y-177225000D01*
X121666428Y-178153571D02*
X121666428Y-177153571D01*
X121666428Y-176653571D02*
X121595000Y-176725000D01*
X121666428Y-176796428D01*
X121737857Y-176725000D01*
X121666428Y-176653571D01*
X121666428Y-176796428D01*
X122595000Y-178153571D02*
X122452142Y-178082142D01*
X122380714Y-178010714D01*
X122309285Y-177867857D01*
X122309285Y-177439285D01*
X122380714Y-177296428D01*
X122452142Y-177225000D01*
X122595000Y-177153571D01*
X122809285Y-177153571D01*
X122952142Y-177225000D01*
X123023571Y-177296428D01*
X123095000Y-177439285D01*
X123095000Y-177867857D01*
X123023571Y-178010714D01*
X122952142Y-178082142D01*
X122809285Y-178153571D01*
X122595000Y-178153571D01*
X123737857Y-177153571D02*
X123737857Y-178153571D01*
X123737857Y-177296428D02*
X123809285Y-177225000D01*
X123952142Y-177153571D01*
X124166428Y-177153571D01*
X124309285Y-177225000D01*
X124380714Y-177367857D01*
X124380714Y-178153571D01*
X126237857Y-178153571D02*
X126237857Y-176653571D01*
X126237857Y-177225000D02*
X126380714Y-177153571D01*
X126666428Y-177153571D01*
X126809285Y-177225000D01*
X126880714Y-177296428D01*
X126952142Y-177439285D01*
X126952142Y-177867857D01*
X126880714Y-178010714D01*
X126809285Y-178082142D01*
X126666428Y-178153571D01*
X126380714Y-178153571D01*
X126237857Y-178082142D01*
X127452142Y-177153571D02*
X127809285Y-178153571D01*
X128166428Y-177153571D02*
X127809285Y-178153571D01*
X127666428Y-178510714D01*
X127595000Y-178582142D01*
X127452142Y-178653571D01*
X130666428Y-178153571D02*
X129809285Y-178153571D01*
X130237857Y-178153571D02*
X130237857Y-176653571D01*
X130095000Y-176867857D01*
X129952142Y-177010714D01*
X129809285Y-177082142D01*
X131309285Y-178153571D02*
X131309285Y-177153571D01*
X131309285Y-177296428D02*
X131380714Y-177225000D01*
X131523571Y-177153571D01*
X131737857Y-177153571D01*
X131880714Y-177225000D01*
X131952142Y-177367857D01*
X131952142Y-178153571D01*
X131952142Y-177367857D02*
X132023571Y-177225000D01*
X132166428Y-177153571D01*
X132380714Y-177153571D01*
X132523571Y-177225000D01*
X132595000Y-177367857D01*
X132595000Y-178153571D01*
X133309285Y-178153571D02*
X133309285Y-177153571D01*
X133309285Y-177296428D02*
X133380714Y-177225000D01*
X133523571Y-177153571D01*
X133737857Y-177153571D01*
X133880714Y-177225000D01*
X133952142Y-177367857D01*
X133952142Y-178153571D01*
X133952142Y-177367857D02*
X134023571Y-177225000D01*
X134166428Y-177153571D01*
X134380714Y-177153571D01*
X134523571Y-177225000D01*
X134595000Y-177367857D01*
X134595000Y-178153571D01*
X136237857Y-177153571D02*
X136809285Y-177153571D01*
X136452142Y-176653571D02*
X136452142Y-177939285D01*
X136523571Y-178082142D01*
X136666428Y-178153571D01*
X136809285Y-178153571D01*
X137523571Y-178153571D02*
X137380714Y-178082142D01*
X137309285Y-178010714D01*
X137237857Y-177867857D01*
X137237857Y-177439285D01*
X137309285Y-177296428D01*
X137380714Y-177225000D01*
X137523571Y-177153571D01*
X137737857Y-177153571D01*
X137880714Y-177225000D01*
X137952142Y-177296428D01*
X138023571Y-177439285D01*
X138023571Y-177867857D01*
X137952142Y-178010714D01*
X137880714Y-178082142D01*
X137737857Y-178153571D01*
X137523571Y-178153571D01*
X139595000Y-177153571D02*
X140166428Y-177153571D01*
X139809285Y-178153571D02*
X139809285Y-176867857D01*
X139880714Y-176725000D01*
X140023571Y-176653571D01*
X140166428Y-176653571D01*
X140666428Y-178153571D02*
X140666428Y-177153571D01*
X140666428Y-176653571D02*
X140595000Y-176725000D01*
X140666428Y-176796428D01*
X140737857Y-176725000D01*
X140666428Y-176653571D01*
X140666428Y-176796428D01*
X141166428Y-177153571D02*
X141737857Y-177153571D01*
X141380714Y-176653571D02*
X141380714Y-177939285D01*
X141452142Y-178082142D01*
X141595000Y-178153571D01*
X141737857Y-178153571D01*
X143380714Y-178153571D02*
X143380714Y-177153571D01*
X143380714Y-176653571D02*
X143309285Y-176725000D01*
X143380714Y-176796428D01*
X143452142Y-176725000D01*
X143380714Y-176653571D01*
X143380714Y-176796428D01*
X144095000Y-177153571D02*
X144095000Y-178153571D01*
X144095000Y-177296428D02*
X144166428Y-177225000D01*
X144309285Y-177153571D01*
X144523571Y-177153571D01*
X144666428Y-177225000D01*
X144737857Y-177367857D01*
X144737857Y-178153571D01*
X146380714Y-177153571D02*
X146952142Y-177153571D01*
X146595000Y-176653571D02*
X146595000Y-177939285D01*
X146666428Y-178082142D01*
X146809285Y-178153571D01*
X146952142Y-178153571D01*
X147452142Y-178153571D02*
X147452142Y-176653571D01*
X148095000Y-178153571D02*
X148095000Y-177367857D01*
X148023571Y-177225000D01*
X147880714Y-177153571D01*
X147666428Y-177153571D01*
X147523571Y-177225000D01*
X147452142Y-177296428D01*
X149380714Y-178082142D02*
X149237857Y-178153571D01*
X148952142Y-178153571D01*
X148809285Y-178082142D01*
X148737857Y-177939285D01*
X148737857Y-177367857D01*
X148809285Y-177225000D01*
X148952142Y-177153571D01*
X149237857Y-177153571D01*
X149380714Y-177225000D01*
X149452142Y-177367857D01*
X149452142Y-177510714D01*
X148737857Y-177653571D01*
X151880714Y-178082142D02*
X151737857Y-178153571D01*
X151452142Y-178153571D01*
X151309285Y-178082142D01*
X151237857Y-178010714D01*
X151166428Y-177867857D01*
X151166428Y-177439285D01*
X151237857Y-177296428D01*
X151309285Y-177225000D01*
X151452142Y-177153571D01*
X151737857Y-177153571D01*
X151880714Y-177225000D01*
X153166428Y-178153571D02*
X153166428Y-177367857D01*
X153095000Y-177225000D01*
X152952142Y-177153571D01*
X152666428Y-177153571D01*
X152523571Y-177225000D01*
X153166428Y-178082142D02*
X153023571Y-178153571D01*
X152666428Y-178153571D01*
X152523571Y-178082142D01*
X152452142Y-177939285D01*
X152452142Y-177796428D01*
X152523571Y-177653571D01*
X152666428Y-177582142D01*
X153023571Y-177582142D01*
X153166428Y-177510714D01*
X153809285Y-178082142D02*
X153952142Y-178153571D01*
X154237857Y-178153571D01*
X154380714Y-178082142D01*
X154452142Y-177939285D01*
X154452142Y-177867857D01*
X154380714Y-177725000D01*
X154237857Y-177653571D01*
X154023571Y-177653571D01*
X153880714Y-177582142D01*
X153809285Y-177439285D01*
X153809285Y-177367857D01*
X153880714Y-177225000D01*
X154023571Y-177153571D01*
X154237857Y-177153571D01*
X154380714Y-177225000D01*
X155666428Y-178082142D02*
X155523571Y-178153571D01*
X155237857Y-178153571D01*
X155095000Y-178082142D01*
X155023571Y-177939285D01*
X155023571Y-177367857D01*
X155095000Y-177225000D01*
X155237857Y-177153571D01*
X155523571Y-177153571D01*
X155666428Y-177225000D01*
X155737857Y-177367857D01*
X155737857Y-177510714D01*
X155023571Y-177653571D01*
X97380714Y-179346428D02*
X97452142Y-179275000D01*
X97595000Y-179203571D01*
X97952142Y-179203571D01*
X98095000Y-179275000D01*
X98166428Y-179346428D01*
X98237857Y-179489285D01*
X98237857Y-179632142D01*
X98166428Y-179846428D01*
X97309285Y-180703571D01*
X98237857Y-180703571D01*
X98880714Y-180560714D02*
X98952142Y-180632142D01*
X98880714Y-180703571D01*
X98809285Y-180632142D01*
X98880714Y-180560714D01*
X98880714Y-180703571D01*
X100737857Y-180703571D02*
X100737857Y-179203571D01*
X101237857Y-180275000D01*
X101737857Y-179203571D01*
X101737857Y-180703571D01*
X102666428Y-180703571D02*
X102523571Y-180632142D01*
X102452142Y-180560714D01*
X102380714Y-180417857D01*
X102380714Y-179989285D01*
X102452142Y-179846428D01*
X102523571Y-179775000D01*
X102666428Y-179703571D01*
X102880714Y-179703571D01*
X103023571Y-179775000D01*
X103095000Y-179846428D01*
X103166428Y-179989285D01*
X103166428Y-180417857D01*
X103095000Y-180560714D01*
X103023571Y-180632142D01*
X102880714Y-180703571D01*
X102666428Y-180703571D01*
X103666428Y-179703571D02*
X104023571Y-180703571D01*
X104380714Y-179703571D01*
X105523571Y-180632142D02*
X105380714Y-180703571D01*
X105095000Y-180703571D01*
X104952142Y-180632142D01*
X104880714Y-180489285D01*
X104880714Y-179917857D01*
X104952142Y-179775000D01*
X105095000Y-179703571D01*
X105380714Y-179703571D01*
X105523571Y-179775000D01*
X105595000Y-179917857D01*
X105595000Y-180060714D01*
X104880714Y-180203571D01*
X106880714Y-180703571D02*
X106880714Y-179203571D01*
X106880714Y-180632142D02*
X106737857Y-180703571D01*
X106452142Y-180703571D01*
X106309285Y-180632142D01*
X106237857Y-180560714D01*
X106166428Y-180417857D01*
X106166428Y-179989285D01*
X106237857Y-179846428D01*
X106309285Y-179775000D01*
X106452142Y-179703571D01*
X106737857Y-179703571D01*
X106880714Y-179775000D01*
X108523571Y-179703571D02*
X109095000Y-179703571D01*
X108737857Y-179203571D02*
X108737857Y-180489285D01*
X108809285Y-180632142D01*
X108952142Y-180703571D01*
X109095000Y-180703571D01*
X109595000Y-180703571D02*
X109595000Y-179203571D01*
X110237857Y-180703571D02*
X110237857Y-179917857D01*
X110166428Y-179775000D01*
X110023571Y-179703571D01*
X109809285Y-179703571D01*
X109666428Y-179775000D01*
X109595000Y-179846428D01*
X111523571Y-180632142D02*
X111380714Y-180703571D01*
X111095000Y-180703571D01*
X110952142Y-180632142D01*
X110880714Y-180489285D01*
X110880714Y-179917857D01*
X110952142Y-179775000D01*
X111095000Y-179703571D01*
X111380714Y-179703571D01*
X111523571Y-179775000D01*
X111595000Y-179917857D01*
X111595000Y-180060714D01*
X110880714Y-180203571D01*
X113380714Y-180703571D02*
X113380714Y-179203571D01*
X114023571Y-180703571D02*
X114023571Y-179917857D01*
X113952142Y-179775000D01*
X113809285Y-179703571D01*
X113595000Y-179703571D01*
X113452142Y-179775000D01*
X113380714Y-179846428D01*
X114952142Y-180703571D02*
X114809285Y-180632142D01*
X114737857Y-180560714D01*
X114666428Y-180417857D01*
X114666428Y-179989285D01*
X114737857Y-179846428D01*
X114809285Y-179775000D01*
X114952142Y-179703571D01*
X115166428Y-179703571D01*
X115309285Y-179775000D01*
X115380714Y-179846428D01*
X115452142Y-179989285D01*
X115452142Y-180417857D01*
X115380714Y-180560714D01*
X115309285Y-180632142D01*
X115166428Y-180703571D01*
X114952142Y-180703571D01*
X116309285Y-180703571D02*
X116166428Y-180632142D01*
X116095000Y-180489285D01*
X116095000Y-179203571D01*
X117452142Y-180632142D02*
X117309285Y-180703571D01*
X117023571Y-180703571D01*
X116880714Y-180632142D01*
X116809285Y-180489285D01*
X116809285Y-179917857D01*
X116880714Y-179775000D01*
X117023571Y-179703571D01*
X117309285Y-179703571D01*
X117452142Y-179775000D01*
X117523571Y-179917857D01*
X117523571Y-180060714D01*
X116809285Y-180203571D01*
X119095000Y-179703571D02*
X119666428Y-179703571D01*
X119309285Y-180703571D02*
X119309285Y-179417857D01*
X119380714Y-179275000D01*
X119523571Y-179203571D01*
X119666428Y-179203571D01*
X120380714Y-180703571D02*
X120237857Y-180632142D01*
X120166428Y-180560714D01*
X120095000Y-180417857D01*
X120095000Y-179989285D01*
X120166428Y-179846428D01*
X120237857Y-179775000D01*
X120380714Y-179703571D01*
X120595000Y-179703571D01*
X120737857Y-179775000D01*
X120809285Y-179846428D01*
X120880714Y-179989285D01*
X120880714Y-180417857D01*
X120809285Y-180560714D01*
X120737857Y-180632142D01*
X120595000Y-180703571D01*
X120380714Y-180703571D01*
X121523571Y-180703571D02*
X121523571Y-179703571D01*
X121523571Y-179989285D02*
X121595000Y-179846428D01*
X121666428Y-179775000D01*
X121809285Y-179703571D01*
X121952142Y-179703571D01*
X123380714Y-179703571D02*
X123952142Y-179703571D01*
X123595000Y-179203571D02*
X123595000Y-180489285D01*
X123666428Y-180632142D01*
X123809285Y-180703571D01*
X123952142Y-180703571D01*
X124452142Y-180703571D02*
X124452142Y-179203571D01*
X125095000Y-180703571D02*
X125095000Y-179917857D01*
X125023571Y-179775000D01*
X124880714Y-179703571D01*
X124666428Y-179703571D01*
X124523571Y-179775000D01*
X124452142Y-179846428D01*
X126380714Y-180632142D02*
X126237857Y-180703571D01*
X125952142Y-180703571D01*
X125809285Y-180632142D01*
X125737857Y-180489285D01*
X125737857Y-179917857D01*
X125809285Y-179775000D01*
X125952142Y-179703571D01*
X126237857Y-179703571D01*
X126380714Y-179775000D01*
X126452142Y-179917857D01*
X126452142Y-180060714D01*
X125737857Y-180203571D01*
X128023571Y-179703571D02*
X128595000Y-179703571D01*
X128237857Y-180703571D02*
X128237857Y-179417857D01*
X128309285Y-179275000D01*
X128452142Y-179203571D01*
X128595000Y-179203571D01*
X129737857Y-179703571D02*
X129737857Y-180703571D01*
X129095000Y-179703571D02*
X129095000Y-180489285D01*
X129166428Y-180632142D01*
X129309285Y-180703571D01*
X129523571Y-180703571D01*
X129666428Y-180632142D01*
X129737857Y-180560714D01*
X130380714Y-180632142D02*
X130523571Y-180703571D01*
X130809285Y-180703571D01*
X130952142Y-180632142D01*
X131023571Y-180489285D01*
X131023571Y-180417857D01*
X130952142Y-180275000D01*
X130809285Y-180203571D01*
X130595000Y-180203571D01*
X130452142Y-180132142D01*
X130380714Y-179989285D01*
X130380714Y-179917857D01*
X130452142Y-179775000D01*
X130595000Y-179703571D01*
X130809285Y-179703571D01*
X130952142Y-179775000D01*
X132237857Y-180632142D02*
X132095000Y-180703571D01*
X131809285Y-180703571D01*
X131666428Y-180632142D01*
X131595000Y-180489285D01*
X131595000Y-179917857D01*
X131666428Y-179775000D01*
X131809285Y-179703571D01*
X132095000Y-179703571D01*
X132237857Y-179775000D01*
X132309285Y-179917857D01*
X132309285Y-180060714D01*
X131595000Y-180203571D01*
X134095000Y-180703571D02*
X134095000Y-179203571D01*
X134737857Y-180703571D02*
X134737857Y-179917857D01*
X134666428Y-179775000D01*
X134523571Y-179703571D01*
X134309285Y-179703571D01*
X134166428Y-179775000D01*
X134095000Y-179846428D01*
X135666428Y-180703571D02*
X135523571Y-180632142D01*
X135452142Y-180560714D01*
X135380714Y-180417857D01*
X135380714Y-179989285D01*
X135452142Y-179846428D01*
X135523571Y-179775000D01*
X135666428Y-179703571D01*
X135880714Y-179703571D01*
X136023571Y-179775000D01*
X136095000Y-179846428D01*
X136166428Y-179989285D01*
X136166428Y-180417857D01*
X136095000Y-180560714D01*
X136023571Y-180632142D01*
X135880714Y-180703571D01*
X135666428Y-180703571D01*
X137023571Y-180703571D02*
X136880714Y-180632142D01*
X136809285Y-180489285D01*
X136809285Y-179203571D01*
X138237857Y-180703571D02*
X138237857Y-179203571D01*
X138237857Y-180632142D02*
X138095000Y-180703571D01*
X137809285Y-180703571D01*
X137666428Y-180632142D01*
X137595000Y-180560714D01*
X137523571Y-180417857D01*
X137523571Y-179989285D01*
X137595000Y-179846428D01*
X137666428Y-179775000D01*
X137809285Y-179703571D01*
X138095000Y-179703571D01*
X138237857Y-179775000D01*
X139523571Y-180632142D02*
X139380714Y-180703571D01*
X139095000Y-180703571D01*
X138952142Y-180632142D01*
X138880714Y-180489285D01*
X138880714Y-179917857D01*
X138952142Y-179775000D01*
X139095000Y-179703571D01*
X139380714Y-179703571D01*
X139523571Y-179775000D01*
X139595000Y-179917857D01*
X139595000Y-180060714D01*
X138880714Y-180203571D01*
X140237857Y-180703571D02*
X140237857Y-179703571D01*
X140237857Y-179989285D02*
X140309285Y-179846428D01*
X140380714Y-179775000D01*
X140523571Y-179703571D01*
X140666428Y-179703571D01*
X143095000Y-180703571D02*
X142237857Y-180703571D01*
X142666428Y-180703571D02*
X142666428Y-179203571D01*
X142523571Y-179417857D01*
X142380714Y-179560714D01*
X142237857Y-179632142D01*
X143737857Y-180703571D02*
X143737857Y-179703571D01*
X143737857Y-179846428D02*
X143809285Y-179775000D01*
X143952142Y-179703571D01*
X144166428Y-179703571D01*
X144309285Y-179775000D01*
X144380714Y-179917857D01*
X144380714Y-180703571D01*
X144380714Y-179917857D02*
X144452142Y-179775000D01*
X144595000Y-179703571D01*
X144809285Y-179703571D01*
X144952142Y-179775000D01*
X145023571Y-179917857D01*
X145023571Y-180703571D01*
X145737857Y-180703571D02*
X145737857Y-179703571D01*
X145737857Y-179846428D02*
X145809285Y-179775000D01*
X145952142Y-179703571D01*
X146166428Y-179703571D01*
X146309285Y-179775000D01*
X146380714Y-179917857D01*
X146380714Y-180703571D01*
X146380714Y-179917857D02*
X146452142Y-179775000D01*
X146595000Y-179703571D01*
X146809285Y-179703571D01*
X146952142Y-179775000D01*
X147023571Y-179917857D01*
X147023571Y-180703571D01*
X148666428Y-179703571D02*
X149237857Y-179703571D01*
X148880714Y-179203571D02*
X148880714Y-180489285D01*
X148952142Y-180632142D01*
X149095000Y-180703571D01*
X149237857Y-180703571D01*
X149952142Y-180703571D02*
X149809285Y-180632142D01*
X149737857Y-180560714D01*
X149666428Y-180417857D01*
X149666428Y-179989285D01*
X149737857Y-179846428D01*
X149809285Y-179775000D01*
X149952142Y-179703571D01*
X150166428Y-179703571D01*
X150309285Y-179775000D01*
X150380714Y-179846428D01*
X150452142Y-179989285D01*
X150452142Y-180417857D01*
X150380714Y-180560714D01*
X150309285Y-180632142D01*
X150166428Y-180703571D01*
X149952142Y-180703571D01*
X152023571Y-179703571D02*
X152595000Y-179703571D01*
X152237857Y-179203571D02*
X152237857Y-180489285D01*
X152309285Y-180632142D01*
X152452142Y-180703571D01*
X152595000Y-180703571D01*
X153095000Y-180703571D02*
X153095000Y-179203571D01*
X153737857Y-180703571D02*
X153737857Y-179917857D01*
X153666428Y-179775000D01*
X153523571Y-179703571D01*
X153309285Y-179703571D01*
X153166428Y-179775000D01*
X153095000Y-179846428D01*
X155023571Y-180632142D02*
X154880714Y-180703571D01*
X154595000Y-180703571D01*
X154452142Y-180632142D01*
X154380714Y-180489285D01*
X154380714Y-179917857D01*
X154452142Y-179775000D01*
X154595000Y-179703571D01*
X154880714Y-179703571D01*
X155023571Y-179775000D01*
X155095000Y-179917857D01*
X155095000Y-180060714D01*
X154380714Y-180203571D01*
X156880714Y-180703571D02*
X156880714Y-179203571D01*
X157737857Y-180703571D01*
X157737857Y-179203571D01*
X97309285Y-181753571D02*
X98237857Y-181753571D01*
X97737857Y-182325000D01*
X97952142Y-182325000D01*
X98095000Y-182396428D01*
X98166428Y-182467857D01*
X98237857Y-182610714D01*
X98237857Y-182967857D01*
X98166428Y-183110714D01*
X98095000Y-183182142D01*
X97952142Y-183253571D01*
X97523571Y-183253571D01*
X97380714Y-183182142D01*
X97309285Y-183110714D01*
X98880714Y-183110714D02*
X98952142Y-183182142D01*
X98880714Y-183253571D01*
X98809285Y-183182142D01*
X98880714Y-183110714D01*
X98880714Y-183253571D01*
X101595000Y-183110714D02*
X101523571Y-183182142D01*
X101309285Y-183253571D01*
X101166428Y-183253571D01*
X100952142Y-183182142D01*
X100809285Y-183039285D01*
X100737857Y-182896428D01*
X100666428Y-182610714D01*
X100666428Y-182396428D01*
X100737857Y-182110714D01*
X100809285Y-181967857D01*
X100952142Y-181825000D01*
X101166428Y-181753571D01*
X101309285Y-181753571D01*
X101523571Y-181825000D01*
X101595000Y-181896428D01*
X102237857Y-183253571D02*
X102237857Y-181753571D01*
X102880714Y-183253571D02*
X102880714Y-182467857D01*
X102809285Y-182325000D01*
X102666428Y-182253571D01*
X102452142Y-182253571D01*
X102309285Y-182325000D01*
X102237857Y-182396428D01*
X104237857Y-183253571D02*
X104237857Y-182467857D01*
X104166428Y-182325000D01*
X104023571Y-182253571D01*
X103737857Y-182253571D01*
X103595000Y-182325000D01*
X104237857Y-183182142D02*
X104095000Y-183253571D01*
X103737857Y-183253571D01*
X103595000Y-183182142D01*
X103523571Y-183039285D01*
X103523571Y-182896428D01*
X103595000Y-182753571D01*
X103737857Y-182682142D01*
X104095000Y-182682142D01*
X104237857Y-182610714D01*
X104952142Y-182253571D02*
X104952142Y-183253571D01*
X104952142Y-182396428D02*
X105023571Y-182325000D01*
X105166428Y-182253571D01*
X105380714Y-182253571D01*
X105523571Y-182325000D01*
X105595000Y-182467857D01*
X105595000Y-183253571D01*
X106952142Y-182253571D02*
X106952142Y-183467857D01*
X106880714Y-183610714D01*
X106809285Y-183682142D01*
X106666428Y-183753571D01*
X106452142Y-183753571D01*
X106309285Y-183682142D01*
X106952142Y-183182142D02*
X106809285Y-183253571D01*
X106523571Y-183253571D01*
X106380714Y-183182142D01*
X106309285Y-183110714D01*
X106237857Y-182967857D01*
X106237857Y-182539285D01*
X106309285Y-182396428D01*
X106380714Y-182325000D01*
X106523571Y-182253571D01*
X106809285Y-182253571D01*
X106952142Y-182325000D01*
X108237857Y-183182142D02*
X108095000Y-183253571D01*
X107809285Y-183253571D01*
X107666428Y-183182142D01*
X107595000Y-183039285D01*
X107595000Y-182467857D01*
X107666428Y-182325000D01*
X107809285Y-182253571D01*
X108095000Y-182253571D01*
X108237857Y-182325000D01*
X108309285Y-182467857D01*
X108309285Y-182610714D01*
X107595000Y-182753571D01*
X109595000Y-183253571D02*
X109595000Y-181753571D01*
X109595000Y-183182142D02*
X109452142Y-183253571D01*
X109166428Y-183253571D01*
X109023571Y-183182142D01*
X108952142Y-183110714D01*
X108880714Y-182967857D01*
X108880714Y-182539285D01*
X108952142Y-182396428D01*
X109023571Y-182325000D01*
X109166428Y-182253571D01*
X109452142Y-182253571D01*
X109595000Y-182325000D01*
X111237857Y-182253571D02*
X111809285Y-182253571D01*
X111452142Y-181753571D02*
X111452142Y-183039285D01*
X111523571Y-183182142D01*
X111666428Y-183253571D01*
X111809285Y-183253571D01*
X112309285Y-183253571D02*
X112309285Y-181753571D01*
X112952142Y-183253571D02*
X112952142Y-182467857D01*
X112880714Y-182325000D01*
X112737857Y-182253571D01*
X112523571Y-182253571D01*
X112380714Y-182325000D01*
X112309285Y-182396428D01*
X114237857Y-183182142D02*
X114095000Y-183253571D01*
X113809285Y-183253571D01*
X113666428Y-183182142D01*
X113595000Y-183039285D01*
X113595000Y-182467857D01*
X113666428Y-182325000D01*
X113809285Y-182253571D01*
X114095000Y-182253571D01*
X114237857Y-182325000D01*
X114309285Y-182467857D01*
X114309285Y-182610714D01*
X113595000Y-182753571D01*
X115952142Y-181753571D02*
X116880714Y-181753571D01*
X116380714Y-182325000D01*
X116595000Y-182325000D01*
X116737857Y-182396428D01*
X116809285Y-182467857D01*
X116880714Y-182610714D01*
X116880714Y-182967857D01*
X116809285Y-183110714D01*
X116737857Y-183182142D01*
X116595000Y-183253571D01*
X116166428Y-183253571D01*
X116023571Y-183182142D01*
X115952142Y-183110714D01*
X117523571Y-183253571D02*
X117523571Y-181753571D01*
X117880714Y-181753571D01*
X118095000Y-181825000D01*
X118237857Y-181967857D01*
X118309285Y-182110714D01*
X118380714Y-182396428D01*
X118380714Y-182610714D01*
X118309285Y-182896428D01*
X118237857Y-183039285D01*
X118095000Y-183182142D01*
X117880714Y-183253571D01*
X117523571Y-183253571D01*
X120023571Y-182253571D02*
X120380714Y-183253571D01*
X120737857Y-182253571D01*
X121309285Y-183253571D02*
X121309285Y-182253571D01*
X121309285Y-181753571D02*
X121237857Y-181825000D01*
X121309285Y-181896428D01*
X121380714Y-181825000D01*
X121309285Y-181753571D01*
X121309285Y-181896428D01*
X122595000Y-183182142D02*
X122452142Y-183253571D01*
X122166428Y-183253571D01*
X122023571Y-183182142D01*
X121952142Y-183039285D01*
X121952142Y-182467857D01*
X122023571Y-182325000D01*
X122166428Y-182253571D01*
X122452142Y-182253571D01*
X122595000Y-182325000D01*
X122666428Y-182467857D01*
X122666428Y-182610714D01*
X121952142Y-182753571D01*
X123166428Y-182253571D02*
X123452142Y-183253571D01*
X123737857Y-182539285D01*
X124023571Y-183253571D01*
X124309285Y-182253571D01*
X126237857Y-183253571D02*
X126095000Y-183182142D01*
X126023571Y-183110714D01*
X125952142Y-182967857D01*
X125952142Y-182539285D01*
X126023571Y-182396428D01*
X126095000Y-182325000D01*
X126237857Y-182253571D01*
X126452142Y-182253571D01*
X126595000Y-182325000D01*
X126666428Y-182396428D01*
X126737857Y-182539285D01*
X126737857Y-182967857D01*
X126666428Y-183110714D01*
X126595000Y-183182142D01*
X126452142Y-183253571D01*
X126237857Y-183253571D01*
X127166428Y-182253571D02*
X127737857Y-182253571D01*
X127380714Y-183253571D02*
X127380714Y-181967857D01*
X127452142Y-181825000D01*
X127595000Y-181753571D01*
X127737857Y-181753571D01*
X129166428Y-182253571D02*
X129737857Y-182253571D01*
X129380714Y-181753571D02*
X129380714Y-183039285D01*
X129452142Y-183182142D01*
X129595000Y-183253571D01*
X129737857Y-183253571D01*
X130237857Y-183253571D02*
X130237857Y-181753571D01*
X130880714Y-183253571D02*
X130880714Y-182467857D01*
X130809285Y-182325000D01*
X130666428Y-182253571D01*
X130452142Y-182253571D01*
X130309285Y-182325000D01*
X130237857Y-182396428D01*
X132166428Y-183182142D02*
X132023571Y-183253571D01*
X131737857Y-183253571D01*
X131595000Y-183182142D01*
X131523571Y-183039285D01*
X131523571Y-182467857D01*
X131595000Y-182325000D01*
X131737857Y-182253571D01*
X132023571Y-182253571D01*
X132166428Y-182325000D01*
X132237857Y-182467857D01*
X132237857Y-182610714D01*
X131523571Y-182753571D01*
X134809285Y-183253571D02*
X133952142Y-183253571D01*
X134380714Y-183253571D02*
X134380714Y-181753571D01*
X134237857Y-181967857D01*
X134094999Y-182110714D01*
X133952142Y-182182142D01*
X135737857Y-181753571D02*
X135880714Y-181753571D01*
X136023571Y-181825000D01*
X136095000Y-181896428D01*
X136166428Y-182039285D01*
X136237857Y-182325000D01*
X136237857Y-182682142D01*
X136166428Y-182967857D01*
X136095000Y-183110714D01*
X136023571Y-183182142D01*
X135880714Y-183253571D01*
X135737857Y-183253571D01*
X135595000Y-183182142D01*
X135523571Y-183110714D01*
X135452142Y-182967857D01*
X135380714Y-182682142D01*
X135380714Y-182325000D01*
X135452142Y-182039285D01*
X135523571Y-181896428D01*
X135595000Y-181825000D01*
X135737857Y-181753571D01*
X138023571Y-182253571D02*
X138023571Y-183753571D01*
X138023571Y-182325000D02*
X138166428Y-182253571D01*
X138452142Y-182253571D01*
X138594999Y-182325000D01*
X138666428Y-182396428D01*
X138737857Y-182539285D01*
X138737857Y-182967857D01*
X138666428Y-183110714D01*
X138594999Y-183182142D01*
X138452142Y-183253571D01*
X138166428Y-183253571D01*
X138023571Y-183182142D01*
X139380714Y-183253571D02*
X139380714Y-182253571D01*
X139380714Y-181753571D02*
X139309285Y-181825000D01*
X139380714Y-181896428D01*
X139452142Y-181825000D01*
X139380714Y-181753571D01*
X139380714Y-181896428D01*
X140095000Y-182253571D02*
X140095000Y-183253571D01*
X140095000Y-182396428D02*
X140166428Y-182325000D01*
X140309285Y-182253571D01*
X140523571Y-182253571D01*
X140666428Y-182325000D01*
X140737857Y-182467857D01*
X140737857Y-183253571D01*
X143380714Y-181825000D02*
X143237857Y-181753571D01*
X143023571Y-181753571D01*
X142809285Y-181825000D01*
X142666428Y-181967857D01*
X142595000Y-182110714D01*
X142523571Y-182396428D01*
X142523571Y-182610714D01*
X142595000Y-182896428D01*
X142666428Y-183039285D01*
X142809285Y-183182142D01*
X143023571Y-183253571D01*
X143166428Y-183253571D01*
X143380714Y-183182142D01*
X143452142Y-183110714D01*
X143452142Y-182610714D01*
X143166428Y-182610714D01*
X144095000Y-183253571D02*
X144095000Y-181753571D01*
X144666428Y-181753571D01*
X144809285Y-181825000D01*
X144880714Y-181896428D01*
X144952142Y-182039285D01*
X144952142Y-182253571D01*
X144880714Y-182396428D01*
X144809285Y-182467857D01*
X144666428Y-182539285D01*
X144095000Y-182539285D01*
X145595000Y-183253571D02*
X145595000Y-181753571D01*
X146595000Y-181753571D02*
X146880714Y-181753571D01*
X147023571Y-181825000D01*
X147166428Y-181967857D01*
X147237857Y-182253571D01*
X147237857Y-182753571D01*
X147166428Y-183039285D01*
X147023571Y-183182142D01*
X146880714Y-183253571D01*
X146595000Y-183253571D01*
X146452142Y-183182142D01*
X146309285Y-183039285D01*
X146237857Y-182753571D01*
X146237857Y-182253571D01*
X146309285Y-181967857D01*
X146452142Y-181825000D01*
X146595000Y-181753571D01*
X149666428Y-183182142D02*
X149523571Y-183253571D01*
X149237857Y-183253571D01*
X149095000Y-183182142D01*
X149023571Y-183110714D01*
X148952142Y-182967857D01*
X148952142Y-182539285D01*
X149023571Y-182396428D01*
X149095000Y-182325000D01*
X149237857Y-182253571D01*
X149523571Y-182253571D01*
X149666428Y-182325000D01*
X150523571Y-183253571D02*
X150380714Y-183182142D01*
X150309285Y-183110714D01*
X150237857Y-182967857D01*
X150237857Y-182539285D01*
X150309285Y-182396428D01*
X150380714Y-182325000D01*
X150523571Y-182253571D01*
X150737857Y-182253571D01*
X150880714Y-182325000D01*
X150952142Y-182396428D01*
X151023571Y-182539285D01*
X151023571Y-182967857D01*
X150952142Y-183110714D01*
X150880714Y-183182142D01*
X150737857Y-183253571D01*
X150523571Y-183253571D01*
X151666428Y-182253571D02*
X151666428Y-183253571D01*
X151666428Y-182396428D02*
X151737857Y-182325000D01*
X151880714Y-182253571D01*
X152095000Y-182253571D01*
X152237857Y-182325000D01*
X152309285Y-182467857D01*
X152309285Y-183253571D01*
X153023571Y-182253571D02*
X153023571Y-183253571D01*
X153023571Y-182396428D02*
X153095000Y-182325000D01*
X153237857Y-182253571D01*
X153452142Y-182253571D01*
X153595000Y-182325000D01*
X153666428Y-182467857D01*
X153666428Y-183253571D01*
X154952142Y-183182142D02*
X154809285Y-183253571D01*
X154523571Y-183253571D01*
X154380714Y-183182142D01*
X154309285Y-183039285D01*
X154309285Y-182467857D01*
X154380714Y-182325000D01*
X154523571Y-182253571D01*
X154809285Y-182253571D01*
X154952142Y-182325000D01*
X155023571Y-182467857D01*
X155023571Y-182610714D01*
X154309285Y-182753571D01*
X156309285Y-183182142D02*
X156166428Y-183253571D01*
X155880714Y-183253571D01*
X155737857Y-183182142D01*
X155666428Y-183110714D01*
X155595000Y-182967857D01*
X155595000Y-182539285D01*
X155666428Y-182396428D01*
X155737857Y-182325000D01*
X155880714Y-182253571D01*
X156166428Y-182253571D01*
X156309285Y-182325000D01*
X156737857Y-182253571D02*
X157309285Y-182253571D01*
X156952142Y-181753571D02*
X156952142Y-183039285D01*
X157023571Y-183182142D01*
X157166428Y-183253571D01*
X157309285Y-183253571D01*
X158023571Y-183253571D02*
X157880714Y-183182142D01*
X157809285Y-183110714D01*
X157737857Y-182967857D01*
X157737857Y-182539285D01*
X157809285Y-182396428D01*
X157880714Y-182325000D01*
X158023571Y-182253571D01*
X158237857Y-182253571D01*
X158380714Y-182325000D01*
X158452142Y-182396428D01*
X158523571Y-182539285D01*
X158523571Y-182967857D01*
X158452142Y-183110714D01*
X158380714Y-183182142D01*
X158237857Y-183253571D01*
X158023571Y-183253571D01*
X159166428Y-183253571D02*
X159166428Y-182253571D01*
X159166428Y-182539285D02*
X159237857Y-182396428D01*
X159309285Y-182325000D01*
X159452142Y-182253571D01*
X159595000Y-182253571D01*
X98095000Y-184803571D02*
X98095000Y-185803571D01*
X97737857Y-184232142D02*
X97380714Y-185303571D01*
X98309285Y-185303571D01*
X98880714Y-185660714D02*
X98952142Y-185732142D01*
X98880714Y-185803571D01*
X98809285Y-185732142D01*
X98880714Y-185660714D01*
X98880714Y-185803571D01*
X100737857Y-185803571D02*
X100737857Y-184303571D01*
X101237857Y-185375000D01*
X101737857Y-184303571D01*
X101737857Y-185803571D01*
X102666428Y-185803571D02*
X102523571Y-185732142D01*
X102452142Y-185660714D01*
X102380714Y-185517857D01*
X102380714Y-185089285D01*
X102452142Y-184946428D01*
X102523571Y-184875000D01*
X102666428Y-184803571D01*
X102880714Y-184803571D01*
X103023571Y-184875000D01*
X103095000Y-184946428D01*
X103166428Y-185089285D01*
X103166428Y-185517857D01*
X103095000Y-185660714D01*
X103023571Y-185732142D01*
X102880714Y-185803571D01*
X102666428Y-185803571D01*
X103666428Y-184803571D02*
X104023571Y-185803571D01*
X104380714Y-184803571D01*
X105523571Y-185732142D02*
X105380714Y-185803571D01*
X105095000Y-185803571D01*
X104952142Y-185732142D01*
X104880714Y-185589285D01*
X104880714Y-185017857D01*
X104952142Y-184875000D01*
X105095000Y-184803571D01*
X105380714Y-184803571D01*
X105523571Y-184875000D01*
X105595000Y-185017857D01*
X105595000Y-185160714D01*
X104880714Y-185303571D01*
X106880714Y-185803571D02*
X106880714Y-184303571D01*
X106880714Y-185732142D02*
X106737857Y-185803571D01*
X106452142Y-185803571D01*
X106309285Y-185732142D01*
X106237857Y-185660714D01*
X106166428Y-185517857D01*
X106166428Y-185089285D01*
X106237857Y-184946428D01*
X106309285Y-184875000D01*
X106452142Y-184803571D01*
X106737857Y-184803571D01*
X106880714Y-184875000D01*
X108737857Y-185803571D02*
X108737857Y-184803571D01*
X108737857Y-184303571D02*
X108666428Y-184375000D01*
X108737857Y-184446428D01*
X108809285Y-184375000D01*
X108737857Y-184303571D01*
X108737857Y-184446428D01*
X109452142Y-184803571D02*
X109452142Y-185803571D01*
X109452142Y-184946428D02*
X109523571Y-184875000D01*
X109666428Y-184803571D01*
X109880714Y-184803571D01*
X110023571Y-184875000D01*
X110095000Y-185017857D01*
X110095000Y-185803571D01*
X111737857Y-184803571D02*
X112309285Y-184803571D01*
X111952142Y-184303571D02*
X111952142Y-185589285D01*
X112023571Y-185732142D01*
X112166428Y-185803571D01*
X112309285Y-185803571D01*
X112809285Y-185803571D02*
X112809285Y-184303571D01*
X113452142Y-185803571D02*
X113452142Y-185017857D01*
X113380714Y-184875000D01*
X113237857Y-184803571D01*
X113023571Y-184803571D01*
X112880714Y-184875000D01*
X112809285Y-184946428D01*
X114737857Y-185732142D02*
X114595000Y-185803571D01*
X114309285Y-185803571D01*
X114166428Y-185732142D01*
X114095000Y-185589285D01*
X114095000Y-185017857D01*
X114166428Y-184875000D01*
X114309285Y-184803571D01*
X114595000Y-184803571D01*
X114737857Y-184875000D01*
X114809285Y-185017857D01*
X114809285Y-185160714D01*
X114095000Y-185303571D01*
X117309285Y-185803571D02*
X116595000Y-185803571D01*
X116595000Y-184303571D01*
X117809285Y-185803571D02*
X117809285Y-184303571D01*
X118309285Y-185375000D01*
X118809285Y-184303571D01*
X118809285Y-185803571D01*
X119380714Y-184303571D02*
X120309285Y-184303571D01*
X119809285Y-184875000D01*
X120023571Y-184875000D01*
X120166428Y-184946428D01*
X120237857Y-185017857D01*
X120309285Y-185160714D01*
X120309285Y-185517857D01*
X120237857Y-185660714D01*
X120166428Y-185732142D01*
X120023571Y-185803571D01*
X119595000Y-185803571D01*
X119452142Y-185732142D01*
X119380714Y-185660714D01*
X121666428Y-184303571D02*
X120952142Y-184303571D01*
X120880714Y-185017857D01*
X120952142Y-184946428D01*
X121095000Y-184875000D01*
X121452142Y-184875000D01*
X121595000Y-184946428D01*
X121666428Y-185017857D01*
X121737857Y-185160714D01*
X121737857Y-185517857D01*
X121666428Y-185660714D01*
X121595000Y-185732142D01*
X121452142Y-185803571D01*
X121095000Y-185803571D01*
X120952142Y-185732142D01*
X120880714Y-185660714D01*
X124166428Y-185732142D02*
X124023571Y-185803571D01*
X123737857Y-185803571D01*
X123595000Y-185732142D01*
X123523571Y-185660714D01*
X123452142Y-185517857D01*
X123452142Y-185089285D01*
X123523571Y-184946428D01*
X123595000Y-184875000D01*
X123737857Y-184803571D01*
X124023571Y-184803571D01*
X124166428Y-184875000D01*
X125023571Y-185803571D02*
X124880714Y-185732142D01*
X124809285Y-185589285D01*
X124809285Y-184303571D01*
X125809285Y-185803571D02*
X125666428Y-185732142D01*
X125595000Y-185660714D01*
X125523571Y-185517857D01*
X125523571Y-185089285D01*
X125595000Y-184946428D01*
X125666428Y-184875000D01*
X125809285Y-184803571D01*
X126023571Y-184803571D01*
X126166428Y-184875000D01*
X126237857Y-184946428D01*
X126309285Y-185089285D01*
X126309285Y-185517857D01*
X126237857Y-185660714D01*
X126166428Y-185732142D01*
X126023571Y-185803571D01*
X125809285Y-185803571D01*
X126880714Y-185732142D02*
X127023571Y-185803571D01*
X127309285Y-185803571D01*
X127452142Y-185732142D01*
X127523571Y-185589285D01*
X127523571Y-185517857D01*
X127452142Y-185375000D01*
X127309285Y-185303571D01*
X127095000Y-185303571D01*
X126952142Y-185232142D01*
X126880714Y-185089285D01*
X126880714Y-185017857D01*
X126952142Y-184875000D01*
X127095000Y-184803571D01*
X127309285Y-184803571D01*
X127452142Y-184875000D01*
X128737857Y-185732142D02*
X128595000Y-185803571D01*
X128309285Y-185803571D01*
X128166428Y-185732142D01*
X128095000Y-185589285D01*
X128095000Y-185017857D01*
X128166428Y-184875000D01*
X128309285Y-184803571D01*
X128595000Y-184803571D01*
X128737857Y-184875000D01*
X128809285Y-185017857D01*
X128809285Y-185160714D01*
X128095000Y-185303571D01*
X129452142Y-185803571D02*
X129452142Y-184803571D01*
X129452142Y-185089285D02*
X129523571Y-184946428D01*
X129595000Y-184875000D01*
X129737857Y-184803571D01*
X129880714Y-184803571D01*
X131309285Y-184803571D02*
X131880714Y-184803571D01*
X131523571Y-184303571D02*
X131523571Y-185589285D01*
X131595000Y-185732142D01*
X131737857Y-185803571D01*
X131880714Y-185803571D01*
X132595000Y-185803571D02*
X132452142Y-185732142D01*
X132380714Y-185660714D01*
X132309285Y-185517857D01*
X132309285Y-185089285D01*
X132380714Y-184946428D01*
X132452142Y-184875000D01*
X132595000Y-184803571D01*
X132809285Y-184803571D01*
X132952142Y-184875000D01*
X133023571Y-184946428D01*
X133095000Y-185089285D01*
X133095000Y-185517857D01*
X133023571Y-185660714D01*
X132952142Y-185732142D01*
X132809285Y-185803571D01*
X132595000Y-185803571D01*
X134666428Y-184803571D02*
X135237857Y-184803571D01*
X134880714Y-184303571D02*
X134880714Y-185589285D01*
X134952142Y-185732142D01*
X135095000Y-185803571D01*
X135237857Y-185803571D01*
X135737857Y-185803571D02*
X135737857Y-184303571D01*
X136380714Y-185803571D02*
X136380714Y-185017857D01*
X136309285Y-184875000D01*
X136166428Y-184803571D01*
X135952142Y-184803571D01*
X135809285Y-184875000D01*
X135737857Y-184946428D01*
X137666428Y-185732142D02*
X137523571Y-185803571D01*
X137237857Y-185803571D01*
X137095000Y-185732142D01*
X137023571Y-185589285D01*
X137023571Y-185017857D01*
X137095000Y-184875000D01*
X137237857Y-184803571D01*
X137523571Y-184803571D01*
X137666428Y-184875000D01*
X137737857Y-185017857D01*
X137737857Y-185160714D01*
X137023571Y-185303571D01*
X139523571Y-185803571D02*
X139523571Y-184303571D01*
X140380714Y-185803571D01*
X140380714Y-184303571D01*
X141095000Y-185803571D02*
X141095000Y-184303571D01*
X141666428Y-184303571D01*
X141809285Y-184375000D01*
X141880714Y-184446428D01*
X141952142Y-184589285D01*
X141952142Y-184803571D01*
X141880714Y-184946428D01*
X141809285Y-185017857D01*
X141666428Y-185089285D01*
X141095000Y-185089285D01*
X142595000Y-185803571D02*
X142595000Y-184303571D01*
X143452142Y-185803571D01*
X143452142Y-184303571D01*
X145952142Y-185803571D02*
X145952142Y-184303571D01*
X145952142Y-185732142D02*
X145809285Y-185803571D01*
X145523571Y-185803571D01*
X145380714Y-185732142D01*
X145309285Y-185660714D01*
X145237857Y-185517857D01*
X145237857Y-185089285D01*
X145309285Y-184946428D01*
X145380714Y-184875000D01*
X145523571Y-184803571D01*
X145809285Y-184803571D01*
X145952142Y-184875000D01*
X146666428Y-185803571D02*
X146666428Y-184803571D01*
X146666428Y-185089285D02*
X146737857Y-184946428D01*
X146809285Y-184875000D01*
X146952142Y-184803571D01*
X147095000Y-184803571D01*
X147595000Y-185803571D02*
X147595000Y-184803571D01*
X147595000Y-184303571D02*
X147523571Y-184375000D01*
X147595000Y-184446428D01*
X147666428Y-184375000D01*
X147595000Y-184303571D01*
X147595000Y-184446428D01*
X148166428Y-184803571D02*
X148523571Y-185803571D01*
X148880714Y-184803571D01*
X150023571Y-185732142D02*
X149880714Y-185803571D01*
X149595000Y-185803571D01*
X149452142Y-185732142D01*
X149380714Y-185589285D01*
X149380714Y-185017857D01*
X149452142Y-184875000D01*
X149595000Y-184803571D01*
X149880714Y-184803571D01*
X150023571Y-184875000D01*
X150095000Y-185017857D01*
X150095000Y-185160714D01*
X149380714Y-185303571D01*
X150737857Y-185803571D02*
X150737857Y-184803571D01*
X150737857Y-185089285D02*
X150809285Y-184946428D01*
X150880714Y-184875000D01*
X151023571Y-184803571D01*
X151166428Y-184803571D01*
X98166428Y-186853571D02*
X97452142Y-186853571D01*
X97380714Y-187567857D01*
X97452142Y-187496428D01*
X97595000Y-187425000D01*
X97952142Y-187425000D01*
X98095000Y-187496428D01*
X98166428Y-187567857D01*
X98237857Y-187710714D01*
X98237857Y-188067857D01*
X98166428Y-188210714D01*
X98095000Y-188282142D01*
X97952142Y-188353571D01*
X97595000Y-188353571D01*
X97452142Y-188282142D01*
X97380714Y-188210714D01*
X98880714Y-188210714D02*
X98952142Y-188282142D01*
X98880714Y-188353571D01*
X98809285Y-188282142D01*
X98880714Y-188210714D01*
X98880714Y-188353571D01*
X100737857Y-188353571D02*
X100737857Y-186853571D01*
X101237857Y-187925000D01*
X101737857Y-186853571D01*
X101737857Y-188353571D01*
X102452142Y-188353571D02*
X102452142Y-187353571D01*
X102452142Y-186853571D02*
X102380714Y-186925000D01*
X102452142Y-186996428D01*
X102523571Y-186925000D01*
X102452142Y-186853571D01*
X102452142Y-186996428D01*
X103095000Y-188282142D02*
X103237857Y-188353571D01*
X103523571Y-188353571D01*
X103666428Y-188282142D01*
X103737857Y-188139285D01*
X103737857Y-188067857D01*
X103666428Y-187925000D01*
X103523571Y-187853571D01*
X103309285Y-187853571D01*
X103166428Y-187782142D01*
X103095000Y-187639285D01*
X103095000Y-187567857D01*
X103166428Y-187425000D01*
X103309285Y-187353571D01*
X103523571Y-187353571D01*
X103666428Y-187425000D01*
X105023571Y-188282142D02*
X104880714Y-188353571D01*
X104595000Y-188353571D01*
X104452142Y-188282142D01*
X104380714Y-188210714D01*
X104309285Y-188067857D01*
X104309285Y-187639285D01*
X104380714Y-187496428D01*
X104452142Y-187425000D01*
X104595000Y-187353571D01*
X104880714Y-187353571D01*
X105023571Y-187425000D01*
X106737857Y-188282142D02*
X106880714Y-188353571D01*
X107166428Y-188353571D01*
X107309285Y-188282142D01*
X107380714Y-188139285D01*
X107380714Y-188067857D01*
X107309285Y-187925000D01*
X107166428Y-187853571D01*
X106952142Y-187853571D01*
X106809285Y-187782142D01*
X106737857Y-187639285D01*
X106737857Y-187567857D01*
X106809285Y-187425000D01*
X106952142Y-187353571D01*
X107166428Y-187353571D01*
X107309285Y-187425000D01*
X108666428Y-188282142D02*
X108523571Y-188353571D01*
X108237857Y-188353571D01*
X108095000Y-188282142D01*
X108023571Y-188210714D01*
X107952142Y-188067857D01*
X107952142Y-187639285D01*
X108023571Y-187496428D01*
X108095000Y-187425000D01*
X108237857Y-187353571D01*
X108523571Y-187353571D01*
X108666428Y-187425000D01*
X109309285Y-188353571D02*
X109309285Y-186853571D01*
X109952142Y-188353571D02*
X109952142Y-187567857D01*
X109880714Y-187425000D01*
X109737857Y-187353571D01*
X109523571Y-187353571D01*
X109380714Y-187425000D01*
X109309285Y-187496428D01*
X111237857Y-188282142D02*
X111095000Y-188353571D01*
X110809285Y-188353571D01*
X110666428Y-188282142D01*
X110595000Y-188139285D01*
X110595000Y-187567857D01*
X110666428Y-187425000D01*
X110809285Y-187353571D01*
X111095000Y-187353571D01*
X111237857Y-187425000D01*
X111309285Y-187567857D01*
X111309285Y-187710714D01*
X110595000Y-187853571D01*
X111952142Y-188353571D02*
X111952142Y-187353571D01*
X111952142Y-187496428D02*
X112023571Y-187425000D01*
X112166428Y-187353571D01*
X112380714Y-187353571D01*
X112523571Y-187425000D01*
X112595000Y-187567857D01*
X112595000Y-188353571D01*
X112595000Y-187567857D02*
X112666428Y-187425000D01*
X112809285Y-187353571D01*
X113023571Y-187353571D01*
X113166428Y-187425000D01*
X113237857Y-187567857D01*
X113237857Y-188353571D01*
X114595000Y-188353571D02*
X114595000Y-187567857D01*
X114523571Y-187425000D01*
X114380714Y-187353571D01*
X114095000Y-187353571D01*
X113952142Y-187425000D01*
X114595000Y-188282142D02*
X114452142Y-188353571D01*
X114095000Y-188353571D01*
X113952142Y-188282142D01*
X113880714Y-188139285D01*
X113880714Y-187996428D01*
X113952142Y-187853571D01*
X114095000Y-187782142D01*
X114452142Y-187782142D01*
X114595000Y-187710714D01*
X115095000Y-187353571D02*
X115666428Y-187353571D01*
X115309285Y-186853571D02*
X115309285Y-188139285D01*
X115380714Y-188282142D01*
X115523571Y-188353571D01*
X115666428Y-188353571D01*
X116166428Y-188353571D02*
X116166428Y-187353571D01*
X116166428Y-186853571D02*
X116095000Y-186925000D01*
X116166428Y-186996428D01*
X116237857Y-186925000D01*
X116166428Y-186853571D01*
X116166428Y-186996428D01*
X117523571Y-188282142D02*
X117380714Y-188353571D01*
X117095000Y-188353571D01*
X116952142Y-188282142D01*
X116880714Y-188210714D01*
X116809285Y-188067857D01*
X116809285Y-187639285D01*
X116880714Y-187496428D01*
X116952142Y-187425000D01*
X117095000Y-187353571D01*
X117380714Y-187353571D01*
X117523571Y-187425000D01*
X119952142Y-188282142D02*
X119809285Y-188353571D01*
X119523571Y-188353571D01*
X119380714Y-188282142D01*
X119309285Y-188210714D01*
X119237857Y-188067857D01*
X119237857Y-187639285D01*
X119309285Y-187496428D01*
X119380714Y-187425000D01*
X119523571Y-187353571D01*
X119809285Y-187353571D01*
X119952142Y-187425000D01*
X120595000Y-188353571D02*
X120595000Y-186853571D01*
X121237857Y-188353571D02*
X121237857Y-187567857D01*
X121166428Y-187425000D01*
X121023571Y-187353571D01*
X120809285Y-187353571D01*
X120666428Y-187425000D01*
X120595000Y-187496428D01*
X122595000Y-188353571D02*
X122595000Y-187567857D01*
X122523571Y-187425000D01*
X122380714Y-187353571D01*
X122095000Y-187353571D01*
X121952142Y-187425000D01*
X122595000Y-188282142D02*
X122452142Y-188353571D01*
X122095000Y-188353571D01*
X121952142Y-188282142D01*
X121880714Y-188139285D01*
X121880714Y-187996428D01*
X121952142Y-187853571D01*
X122095000Y-187782142D01*
X122452142Y-187782142D01*
X122595000Y-187710714D01*
X123309285Y-187353571D02*
X123309285Y-188353571D01*
X123309285Y-187496428D02*
X123380714Y-187425000D01*
X123523571Y-187353571D01*
X123737857Y-187353571D01*
X123880714Y-187425000D01*
X123952142Y-187567857D01*
X123952142Y-188353571D01*
X125309285Y-187353571D02*
X125309285Y-188567857D01*
X125237857Y-188710714D01*
X125166428Y-188782142D01*
X125023571Y-188853571D01*
X124809285Y-188853571D01*
X124666428Y-188782142D01*
X125309285Y-188282142D02*
X125166428Y-188353571D01*
X124880714Y-188353571D01*
X124737857Y-188282142D01*
X124666428Y-188210714D01*
X124595000Y-188067857D01*
X124595000Y-187639285D01*
X124666428Y-187496428D01*
X124737857Y-187425000D01*
X124880714Y-187353571D01*
X125166428Y-187353571D01*
X125309285Y-187425000D01*
X126595000Y-188282142D02*
X126452142Y-188353571D01*
X126166428Y-188353571D01*
X126023571Y-188282142D01*
X125952142Y-188139285D01*
X125952142Y-187567857D01*
X126023571Y-187425000D01*
X126166428Y-187353571D01*
X126452142Y-187353571D01*
X126595000Y-187425000D01*
X126666428Y-187567857D01*
X126666428Y-187710714D01*
X125952142Y-187853571D01*
X127237857Y-188282142D02*
X127380714Y-188353571D01*
X127666428Y-188353571D01*
X127809285Y-188282142D01*
X127880714Y-188139285D01*
X127880714Y-188067857D01*
X127809285Y-187925000D01*
X127666428Y-187853571D01*
X127452142Y-187853571D01*
X127309285Y-187782142D01*
X127237857Y-187639285D01*
X127237857Y-187567857D01*
X127309285Y-187425000D01*
X127452142Y-187353571D01*
X127666428Y-187353571D01*
X127809285Y-187425000D01*
D11*
X79352380Y-155171428D02*
X79352380Y-154980952D01*
X79304761Y-154885714D01*
X79257142Y-154838095D01*
X79114285Y-154742857D01*
X78923809Y-154695238D01*
X78542857Y-154695238D01*
X78447619Y-154742857D01*
X78400000Y-154790476D01*
X78352380Y-154885714D01*
X78352380Y-155076190D01*
X78400000Y-155171428D01*
X78447619Y-155219047D01*
X78542857Y-155266666D01*
X78780952Y-155266666D01*
X78876190Y-155219047D01*
X78923809Y-155171428D01*
X78971428Y-155076190D01*
X78971428Y-154885714D01*
X78923809Y-154790476D01*
X78876190Y-154742857D01*
X78780952Y-154695238D01*
X79257142Y-154266666D02*
X79304761Y-154219047D01*
X79352380Y-154266666D01*
X79304761Y-154314285D01*
X79257142Y-154266666D01*
X79352380Y-154266666D01*
X78447619Y-153838095D02*
X78400000Y-153790476D01*
X78352380Y-153695238D01*
X78352380Y-153457142D01*
X78400000Y-153361904D01*
X78447619Y-153314285D01*
X78542857Y-153266666D01*
X78638095Y-153266666D01*
X78780952Y-153314285D01*
X79352380Y-153885714D01*
X79352380Y-153266666D01*
X78352380Y-152647619D02*
X78352380Y-152552380D01*
X78400000Y-152457142D01*
X78447619Y-152409523D01*
X78542857Y-152361904D01*
X78733333Y-152314285D01*
X78971428Y-152314285D01*
X79161904Y-152361904D01*
X79257142Y-152409523D01*
X79304761Y-152457142D01*
X79352380Y-152552380D01*
X79352380Y-152647619D01*
X79304761Y-152742857D01*
X79257142Y-152790476D01*
X79161904Y-152838095D01*
X78971428Y-152885714D01*
X78733333Y-152885714D01*
X78542857Y-152838095D01*
X78447619Y-152790476D01*
X78400000Y-152742857D01*
X78352380Y-152647619D01*
X78352380Y-151695238D02*
X78352380Y-151600000D01*
X78400000Y-151504761D01*
X78447619Y-151457142D01*
X78542857Y-151409523D01*
X78733333Y-151361904D01*
X78971428Y-151361904D01*
X79161904Y-151409523D01*
X79257142Y-151457142D01*
X79304761Y-151504761D01*
X79352380Y-151600000D01*
X79352380Y-151695238D01*
X79304761Y-151790476D01*
X79257142Y-151838095D01*
X79161904Y-151885714D01*
X78971428Y-151933333D01*
X78733333Y-151933333D01*
X78542857Y-151885714D01*
X78447619Y-151838095D01*
X78400000Y-151790476D01*
X78352380Y-151695238D01*
X79352380Y-150171428D02*
X78685714Y-150171428D01*
X78780952Y-150171428D02*
X78733333Y-150123809D01*
X78685714Y-150028571D01*
X78685714Y-149885714D01*
X78733333Y-149790476D01*
X78828571Y-149742857D01*
X79352380Y-149742857D01*
X78828571Y-149742857D02*
X78733333Y-149695238D01*
X78685714Y-149600000D01*
X78685714Y-149457142D01*
X78733333Y-149361904D01*
X78828571Y-149314285D01*
X79352380Y-149314285D01*
X79352380Y-148838095D02*
X78685714Y-148838095D01*
X78780952Y-148838095D02*
X78733333Y-148790476D01*
X78685714Y-148695238D01*
X78685714Y-148552380D01*
X78733333Y-148457142D01*
X78828571Y-148409523D01*
X79352380Y-148409523D01*
X78828571Y-148409523D02*
X78733333Y-148361904D01*
X78685714Y-148266666D01*
X78685714Y-148123809D01*
X78733333Y-148028571D01*
X78828571Y-147980952D01*
X79352380Y-147980952D01*
X80200000Y-156200000D02*
X80200000Y-147000000D01*
X84100000Y-156200000D02*
X79613579Y-156200000D01*
X84100000Y-147000000D02*
X79613579Y-147000000D01*
X80200000Y-147000000D02*
X80786421Y-148126504D01*
X80200000Y-147000000D02*
X79613579Y-148126504D01*
X80200000Y-156200000D02*
X80786421Y-155073496D01*
X80200000Y-156200000D02*
X79613579Y-155073496D01*
X219447619Y-65509523D02*
X219447619Y-66128571D01*
X219066666Y-65795238D01*
X219066666Y-65938095D01*
X219019047Y-66033333D01*
X218971428Y-66080952D01*
X218876190Y-66128571D01*
X218638095Y-66128571D01*
X218542857Y-66080952D01*
X218495238Y-66033333D01*
X218447619Y-65938095D01*
X218447619Y-65652380D01*
X218495238Y-65557142D01*
X218542857Y-65509523D01*
X219447619Y-66985714D02*
X219447619Y-66795238D01*
X219400000Y-66700000D01*
X219352380Y-66652380D01*
X219209523Y-66557142D01*
X219019047Y-66509523D01*
X218638095Y-66509523D01*
X218542857Y-66557142D01*
X218495238Y-66604761D01*
X218447619Y-66700000D01*
X218447619Y-66890476D01*
X218495238Y-66985714D01*
X218542857Y-67033333D01*
X218638095Y-67080952D01*
X218876190Y-67080952D01*
X218971428Y-67033333D01*
X219019047Y-66985714D01*
X219066666Y-66890476D01*
X219066666Y-66700000D01*
X219019047Y-66604761D01*
X218971428Y-66557142D01*
X218876190Y-66509523D01*
X218542857Y-67509523D02*
X218495238Y-67557142D01*
X218447619Y-67509523D01*
X218495238Y-67461904D01*
X218542857Y-67509523D01*
X218447619Y-67509523D01*
X219352380Y-67938095D02*
X219400000Y-67985714D01*
X219447619Y-68080952D01*
X219447619Y-68319047D01*
X219400000Y-68414285D01*
X219352380Y-68461904D01*
X219257142Y-68509523D01*
X219161904Y-68509523D01*
X219019047Y-68461904D01*
X218447619Y-67890476D01*
X218447619Y-68509523D01*
X219447619Y-69128571D02*
X219447619Y-69223809D01*
X219400000Y-69319047D01*
X219352380Y-69366666D01*
X219257142Y-69414285D01*
X219066666Y-69461904D01*
X218828571Y-69461904D01*
X218638095Y-69414285D01*
X218542857Y-69366666D01*
X218495238Y-69319047D01*
X218447619Y-69223809D01*
X218447619Y-69128571D01*
X218495238Y-69033333D01*
X218542857Y-68985714D01*
X218638095Y-68938095D01*
X218828571Y-68890476D01*
X219066666Y-68890476D01*
X219257142Y-68938095D01*
X219352380Y-68985714D01*
X219400000Y-69033333D01*
X219447619Y-69128571D01*
X219447619Y-70080952D02*
X219447619Y-70176190D01*
X219400000Y-70271428D01*
X219352380Y-70319047D01*
X219257142Y-70366666D01*
X219066666Y-70414285D01*
X218828571Y-70414285D01*
X218638095Y-70366666D01*
X218542857Y-70319047D01*
X218495238Y-70271428D01*
X218447619Y-70176190D01*
X218447619Y-70080952D01*
X218495238Y-69985714D01*
X218542857Y-69938095D01*
X218638095Y-69890476D01*
X218828571Y-69842857D01*
X219066666Y-69842857D01*
X219257142Y-69890476D01*
X219352380Y-69938095D01*
X219400000Y-69985714D01*
X219447619Y-70080952D01*
X218447619Y-71604761D02*
X219114285Y-71604761D01*
X219019047Y-71604761D02*
X219066666Y-71652380D01*
X219114285Y-71747619D01*
X219114285Y-71890476D01*
X219066666Y-71985714D01*
X218971428Y-72033333D01*
X218447619Y-72033333D01*
X218971428Y-72033333D02*
X219066666Y-72080952D01*
X219114285Y-72176190D01*
X219114285Y-72319047D01*
X219066666Y-72414285D01*
X218971428Y-72461904D01*
X218447619Y-72461904D01*
X218447619Y-72938095D02*
X219114285Y-72938095D01*
X219019047Y-72938095D02*
X219066666Y-72985714D01*
X219114285Y-73080952D01*
X219114285Y-73223809D01*
X219066666Y-73319047D01*
X218971428Y-73366666D01*
X218447619Y-73366666D01*
X218971428Y-73366666D02*
X219066666Y-73414285D01*
X219114285Y-73509523D01*
X219114285Y-73652380D01*
X219066666Y-73747619D01*
X218971428Y-73795238D01*
X218447619Y-73795238D01*
X217600000Y-51600000D02*
X217600000Y-87800000D01*
X210100000Y-51600000D02*
X218186421Y-51600000D01*
X210100000Y-87800000D02*
X218186421Y-87800000D01*
X217600000Y-87800000D02*
X217013579Y-86673496D01*
X217600000Y-87800000D02*
X218186421Y-86673496D01*
X217600000Y-51600000D02*
X217013579Y-52726504D01*
X217600000Y-51600000D02*
X218186421Y-52726504D01*
X220447619Y-150207142D02*
X220447619Y-149730952D01*
X219971428Y-149683333D01*
X220019047Y-149730952D01*
X220066666Y-149826190D01*
X220066666Y-150064285D01*
X220019047Y-150159523D01*
X219971428Y-150207142D01*
X219876190Y-150254761D01*
X219638095Y-150254761D01*
X219542857Y-150207142D01*
X219495238Y-150159523D01*
X219447619Y-150064285D01*
X219447619Y-149826190D01*
X219495238Y-149730952D01*
X219542857Y-149683333D01*
X219542857Y-150683333D02*
X219495238Y-150730952D01*
X219447619Y-150683333D01*
X219495238Y-150635714D01*
X219542857Y-150683333D01*
X219447619Y-150683333D01*
X220447619Y-151064285D02*
X220447619Y-151730952D01*
X219447619Y-151302380D01*
X220447619Y-152302380D02*
X220447619Y-152397619D01*
X220400000Y-152492857D01*
X220352380Y-152540476D01*
X220257142Y-152588095D01*
X220066666Y-152635714D01*
X219828571Y-152635714D01*
X219638095Y-152588095D01*
X219542857Y-152540476D01*
X219495238Y-152492857D01*
X219447619Y-152397619D01*
X219447619Y-152302380D01*
X219495238Y-152207142D01*
X219542857Y-152159523D01*
X219638095Y-152111904D01*
X219828571Y-152064285D01*
X220066666Y-152064285D01*
X220257142Y-152111904D01*
X220352380Y-152159523D01*
X220400000Y-152207142D01*
X220447619Y-152302380D01*
X220447619Y-153254761D02*
X220447619Y-153350000D01*
X220400000Y-153445238D01*
X220352380Y-153492857D01*
X220257142Y-153540476D01*
X220066666Y-153588095D01*
X219828571Y-153588095D01*
X219638095Y-153540476D01*
X219542857Y-153492857D01*
X219495238Y-153445238D01*
X219447619Y-153350000D01*
X219447619Y-153254761D01*
X219495238Y-153159523D01*
X219542857Y-153111904D01*
X219638095Y-153064285D01*
X219828571Y-153016666D01*
X220066666Y-153016666D01*
X220257142Y-153064285D01*
X220352380Y-153111904D01*
X220400000Y-153159523D01*
X220447619Y-153254761D01*
X219447619Y-154778571D02*
X220114285Y-154778571D01*
X220019047Y-154778571D02*
X220066666Y-154826190D01*
X220114285Y-154921428D01*
X220114285Y-155064285D01*
X220066666Y-155159523D01*
X219971428Y-155207142D01*
X219447619Y-155207142D01*
X219971428Y-155207142D02*
X220066666Y-155254761D01*
X220114285Y-155350000D01*
X220114285Y-155492857D01*
X220066666Y-155588095D01*
X219971428Y-155635714D01*
X219447619Y-155635714D01*
X219447619Y-156111904D02*
X220114285Y-156111904D01*
X220019047Y-156111904D02*
X220066666Y-156159523D01*
X220114285Y-156254761D01*
X220114285Y-156397619D01*
X220066666Y-156492857D01*
X219971428Y-156540476D01*
X219447619Y-156540476D01*
X219971428Y-156540476D02*
X220066666Y-156588095D01*
X220114285Y-156683333D01*
X220114285Y-156826190D01*
X220066666Y-156921428D01*
X219971428Y-156969047D01*
X219447619Y-156969047D01*
X218600000Y-150500000D02*
X218600000Y-156200000D01*
X212100000Y-150500000D02*
X219186421Y-150500000D01*
X212100000Y-156200000D02*
X219186421Y-156200000D01*
X218600000Y-156200000D02*
X218013579Y-155073496D01*
X218600000Y-156200000D02*
X219186421Y-155073496D01*
X218600000Y-150500000D02*
X218013579Y-151626504D01*
X218600000Y-150500000D02*
X219186421Y-151626504D01*
X73247619Y-66892857D02*
X73200000Y-66845238D01*
X73152380Y-66750000D01*
X73152380Y-66511904D01*
X73200000Y-66416666D01*
X73247619Y-66369047D01*
X73342857Y-66321428D01*
X73438095Y-66321428D01*
X73580952Y-66369047D01*
X74152380Y-66940476D01*
X74152380Y-66321428D01*
X73152380Y-65988095D02*
X73152380Y-65369047D01*
X73533333Y-65702380D01*
X73533333Y-65559523D01*
X73580952Y-65464285D01*
X73628571Y-65416666D01*
X73723809Y-65369047D01*
X73961904Y-65369047D01*
X74057142Y-65416666D01*
X74104761Y-65464285D01*
X74152380Y-65559523D01*
X74152380Y-65845238D01*
X74104761Y-65940476D01*
X74057142Y-65988095D01*
X74057142Y-64940476D02*
X74104761Y-64892857D01*
X74152380Y-64940476D01*
X74104761Y-64988095D01*
X74057142Y-64940476D01*
X74152380Y-64940476D01*
X73152380Y-63988095D02*
X73152380Y-64464285D01*
X73628571Y-64511904D01*
X73580952Y-64464285D01*
X73533333Y-64369047D01*
X73533333Y-64130952D01*
X73580952Y-64035714D01*
X73628571Y-63988095D01*
X73723809Y-63940476D01*
X73961904Y-63940476D01*
X74057142Y-63988095D01*
X74104761Y-64035714D01*
X74152380Y-64130952D01*
X74152380Y-64369047D01*
X74104761Y-64464285D01*
X74057142Y-64511904D01*
X73152380Y-63321428D02*
X73152380Y-63226190D01*
X73200000Y-63130952D01*
X73247619Y-63083333D01*
X73342857Y-63035714D01*
X73533333Y-62988095D01*
X73771428Y-62988095D01*
X73961904Y-63035714D01*
X74057142Y-63083333D01*
X74104761Y-63130952D01*
X74152380Y-63226190D01*
X74152380Y-63321428D01*
X74104761Y-63416666D01*
X74057142Y-63464285D01*
X73961904Y-63511904D01*
X73771428Y-63559523D01*
X73533333Y-63559523D01*
X73342857Y-63511904D01*
X73247619Y-63464285D01*
X73200000Y-63416666D01*
X73152380Y-63321428D01*
X73152380Y-62369047D02*
X73152380Y-62273809D01*
X73200000Y-62178571D01*
X73247619Y-62130952D01*
X73342857Y-62083333D01*
X73533333Y-62035714D01*
X73771428Y-62035714D01*
X73961904Y-62083333D01*
X74057142Y-62130952D01*
X74104761Y-62178571D01*
X74152380Y-62273809D01*
X74152380Y-62369047D01*
X74104761Y-62464285D01*
X74057142Y-62511904D01*
X73961904Y-62559523D01*
X73771428Y-62607142D01*
X73533333Y-62607142D01*
X73342857Y-62559523D01*
X73247619Y-62511904D01*
X73200000Y-62464285D01*
X73152380Y-62369047D01*
X74152380Y-60845238D02*
X73485714Y-60845238D01*
X73580952Y-60845238D02*
X73533333Y-60797619D01*
X73485714Y-60702380D01*
X73485714Y-60559523D01*
X73533333Y-60464285D01*
X73628571Y-60416666D01*
X74152380Y-60416666D01*
X73628571Y-60416666D02*
X73533333Y-60369047D01*
X73485714Y-60273809D01*
X73485714Y-60130952D01*
X73533333Y-60035714D01*
X73628571Y-59988095D01*
X74152380Y-59988095D01*
X74152380Y-59511904D02*
X73485714Y-59511904D01*
X73580952Y-59511904D02*
X73533333Y-59464285D01*
X73485714Y-59369047D01*
X73485714Y-59226190D01*
X73533333Y-59130952D01*
X73628571Y-59083333D01*
X74152380Y-59083333D01*
X73628571Y-59083333D02*
X73533333Y-59035714D01*
X73485714Y-58940476D01*
X73485714Y-58797619D01*
X73533333Y-58702380D01*
X73628571Y-58654761D01*
X74152380Y-58654761D01*
X75000000Y-74500000D02*
X75000000Y-51000000D01*
X88800000Y-74500000D02*
X74413579Y-74500000D01*
X88800000Y-51000000D02*
X74413579Y-51000000D01*
X75000000Y-51000000D02*
X75586421Y-52126504D01*
X75000000Y-51000000D02*
X74413579Y-52126504D01*
X75000000Y-74500000D02*
X75586421Y-73373496D01*
X75000000Y-74500000D02*
X74413579Y-73373496D01*
X223952380Y-149571428D02*
X223952380Y-149380952D01*
X223904761Y-149285714D01*
X223857142Y-149238095D01*
X223714285Y-149142857D01*
X223523809Y-149095238D01*
X223142857Y-149095238D01*
X223047619Y-149142857D01*
X223000000Y-149190476D01*
X222952380Y-149285714D01*
X222952380Y-149476190D01*
X223000000Y-149571428D01*
X223047619Y-149619047D01*
X223142857Y-149666666D01*
X223380952Y-149666666D01*
X223476190Y-149619047D01*
X223523809Y-149571428D01*
X223571428Y-149476190D01*
X223571428Y-149285714D01*
X223523809Y-149190476D01*
X223476190Y-149142857D01*
X223380952Y-149095238D01*
X223857142Y-148666666D02*
X223904761Y-148619047D01*
X223952380Y-148666666D01*
X223904761Y-148714285D01*
X223857142Y-148666666D01*
X223952380Y-148666666D01*
X222952380Y-148000000D02*
X222952380Y-147904761D01*
X223000000Y-147809523D01*
X223047619Y-147761904D01*
X223142857Y-147714285D01*
X223333333Y-147666666D01*
X223571428Y-147666666D01*
X223761904Y-147714285D01*
X223857142Y-147761904D01*
X223904761Y-147809523D01*
X223952380Y-147904761D01*
X223952380Y-148000000D01*
X223904761Y-148095238D01*
X223857142Y-148142857D01*
X223761904Y-148190476D01*
X223571428Y-148238095D01*
X223333333Y-148238095D01*
X223142857Y-148190476D01*
X223047619Y-148142857D01*
X223000000Y-148095238D01*
X222952380Y-148000000D01*
X222952380Y-147047619D02*
X222952380Y-146952380D01*
X223000000Y-146857142D01*
X223047619Y-146809523D01*
X223142857Y-146761904D01*
X223333333Y-146714285D01*
X223571428Y-146714285D01*
X223761904Y-146761904D01*
X223857142Y-146809523D01*
X223904761Y-146857142D01*
X223952380Y-146952380D01*
X223952380Y-147047619D01*
X223904761Y-147142857D01*
X223857142Y-147190476D01*
X223761904Y-147238095D01*
X223571428Y-147285714D01*
X223333333Y-147285714D01*
X223142857Y-147238095D01*
X223047619Y-147190476D01*
X223000000Y-147142857D01*
X222952380Y-147047619D01*
X222952380Y-146095238D02*
X222952380Y-146000000D01*
X223000000Y-145904761D01*
X223047619Y-145857142D01*
X223142857Y-145809523D01*
X223333333Y-145761904D01*
X223571428Y-145761904D01*
X223761904Y-145809523D01*
X223857142Y-145857142D01*
X223904761Y-145904761D01*
X223952380Y-146000000D01*
X223952380Y-146095238D01*
X223904761Y-146190476D01*
X223857142Y-146238095D01*
X223761904Y-146285714D01*
X223571428Y-146333333D01*
X223333333Y-146333333D01*
X223142857Y-146285714D01*
X223047619Y-146238095D01*
X223000000Y-146190476D01*
X222952380Y-146095238D01*
X223952380Y-144571428D02*
X223285714Y-144571428D01*
X223380952Y-144571428D02*
X223333333Y-144523809D01*
X223285714Y-144428571D01*
X223285714Y-144285714D01*
X223333333Y-144190476D01*
X223428571Y-144142857D01*
X223952380Y-144142857D01*
X223428571Y-144142857D02*
X223333333Y-144095238D01*
X223285714Y-144000000D01*
X223285714Y-143857142D01*
X223333333Y-143761904D01*
X223428571Y-143714285D01*
X223952380Y-143714285D01*
X223952380Y-143238095D02*
X223285714Y-143238095D01*
X223380952Y-143238095D02*
X223333333Y-143190476D01*
X223285714Y-143095238D01*
X223285714Y-142952380D01*
X223333333Y-142857142D01*
X223428571Y-142809523D01*
X223952380Y-142809523D01*
X223428571Y-142809523D02*
X223333333Y-142761904D01*
X223285714Y-142666666D01*
X223285714Y-142523809D01*
X223333333Y-142428571D01*
X223428571Y-142380952D01*
X223952380Y-142380952D01*
X222200000Y-150500000D02*
X222200000Y-141500000D01*
X212000000Y-150500000D02*
X222786421Y-150500000D01*
X212000000Y-141500000D02*
X222786421Y-141500000D01*
X222200000Y-141500000D02*
X222786421Y-142626504D01*
X222200000Y-141500000D02*
X221613579Y-142626504D01*
X222200000Y-150500000D02*
X222786421Y-149373496D01*
X222200000Y-150500000D02*
X221613579Y-149373496D01*
X209754761Y-161252380D02*
X209183333Y-161252380D01*
X209469047Y-161252380D02*
X209469047Y-160252380D01*
X209373809Y-160395238D01*
X209278571Y-160490476D01*
X209183333Y-160538095D01*
X210183333Y-161157142D02*
X210230952Y-161204761D01*
X210183333Y-161252380D01*
X210135714Y-161204761D01*
X210183333Y-161157142D01*
X210183333Y-161252380D01*
X210564285Y-160252380D02*
X211230952Y-160252380D01*
X210802380Y-161252380D01*
X211802380Y-160252380D02*
X211897619Y-160252380D01*
X211992857Y-160300000D01*
X212040476Y-160347619D01*
X212088095Y-160442857D01*
X212135714Y-160633333D01*
X212135714Y-160871428D01*
X212088095Y-161061904D01*
X212040476Y-161157142D01*
X211992857Y-161204761D01*
X211897619Y-161252380D01*
X211802380Y-161252380D01*
X211707142Y-161204761D01*
X211659523Y-161157142D01*
X211611904Y-161061904D01*
X211564285Y-160871428D01*
X211564285Y-160633333D01*
X211611904Y-160442857D01*
X211659523Y-160347619D01*
X211707142Y-160300000D01*
X211802380Y-160252380D01*
X212754761Y-160252380D02*
X212850000Y-160252380D01*
X212945238Y-160300000D01*
X212992857Y-160347619D01*
X213040476Y-160442857D01*
X213088095Y-160633333D01*
X213088095Y-160871428D01*
X213040476Y-161061904D01*
X212992857Y-161157142D01*
X212945238Y-161204761D01*
X212850000Y-161252380D01*
X212754761Y-161252380D01*
X212659523Y-161204761D01*
X212611904Y-161157142D01*
X212564285Y-161061904D01*
X212516666Y-160871428D01*
X212516666Y-160633333D01*
X212564285Y-160442857D01*
X212611904Y-160347619D01*
X212659523Y-160300000D01*
X212754761Y-160252380D01*
X214278571Y-161252380D02*
X214278571Y-160585714D01*
X214278571Y-160680952D02*
X214326190Y-160633333D01*
X214421428Y-160585714D01*
X214564285Y-160585714D01*
X214659523Y-160633333D01*
X214707142Y-160728571D01*
X214707142Y-161252380D01*
X214707142Y-160728571D02*
X214754761Y-160633333D01*
X214850000Y-160585714D01*
X214992857Y-160585714D01*
X215088095Y-160633333D01*
X215135714Y-160728571D01*
X215135714Y-161252380D01*
X215611904Y-161252380D02*
X215611904Y-160585714D01*
X215611904Y-160680952D02*
X215659523Y-160633333D01*
X215754761Y-160585714D01*
X215897619Y-160585714D01*
X215992857Y-160633333D01*
X216040476Y-160728571D01*
X216040476Y-161252380D01*
X216040476Y-160728571D02*
X216088095Y-160633333D01*
X216183333Y-160585714D01*
X216326190Y-160585714D01*
X216421428Y-160633333D01*
X216469047Y-160728571D01*
X216469047Y-161252380D01*
X212000000Y-159500000D02*
X213700000Y-159500000D01*
X212000000Y-150500000D02*
X212000000Y-160086421D01*
X213700000Y-150500000D02*
X213700000Y-160086421D01*
X213700000Y-159500000D02*
X212573496Y-160086421D01*
X213700000Y-159500000D02*
X212573496Y-158913579D01*
X212000000Y-159500000D02*
X213126504Y-160086421D01*
X212000000Y-159500000D02*
X213126504Y-158913579D01*
X218447619Y-90478571D02*
X218447619Y-89907142D01*
X218447619Y-90192857D02*
X219447619Y-90192857D01*
X219304761Y-90097619D01*
X219209523Y-90002380D01*
X219161904Y-89907142D01*
X219352380Y-90859523D02*
X219400000Y-90907142D01*
X219447619Y-91002380D01*
X219447619Y-91240476D01*
X219400000Y-91335714D01*
X219352380Y-91383333D01*
X219257142Y-91430952D01*
X219161904Y-91430952D01*
X219019047Y-91383333D01*
X218447619Y-90811904D01*
X218447619Y-91430952D01*
X218542857Y-91859523D02*
X218495238Y-91907142D01*
X218447619Y-91859523D01*
X218495238Y-91811904D01*
X218542857Y-91859523D01*
X218447619Y-91859523D01*
X218447619Y-92859523D02*
X218447619Y-92288095D01*
X218447619Y-92573809D02*
X219447619Y-92573809D01*
X219304761Y-92478571D01*
X219209523Y-92383333D01*
X219161904Y-92288095D01*
X219447619Y-93478571D02*
X219447619Y-93573809D01*
X219400000Y-93669047D01*
X219352380Y-93716666D01*
X219257142Y-93764285D01*
X219066666Y-93811904D01*
X218828571Y-93811904D01*
X218638095Y-93764285D01*
X218542857Y-93716666D01*
X218495238Y-93669047D01*
X218447619Y-93573809D01*
X218447619Y-93478571D01*
X218495238Y-93383333D01*
X218542857Y-93335714D01*
X218638095Y-93288095D01*
X218828571Y-93240476D01*
X219066666Y-93240476D01*
X219257142Y-93288095D01*
X219352380Y-93335714D01*
X219400000Y-93383333D01*
X219447619Y-93478571D01*
X219447619Y-94430952D02*
X219447619Y-94526190D01*
X219400000Y-94621428D01*
X219352380Y-94669047D01*
X219257142Y-94716666D01*
X219066666Y-94764285D01*
X218828571Y-94764285D01*
X218638095Y-94716666D01*
X218542857Y-94669047D01*
X218495238Y-94621428D01*
X218447619Y-94526190D01*
X218447619Y-94430952D01*
X218495238Y-94335714D01*
X218542857Y-94288095D01*
X218638095Y-94240476D01*
X218828571Y-94192857D01*
X219066666Y-94192857D01*
X219257142Y-94240476D01*
X219352380Y-94288095D01*
X219400000Y-94335714D01*
X219447619Y-94430952D01*
X218447619Y-95954761D02*
X219114285Y-95954761D01*
X219019047Y-95954761D02*
X219066666Y-96002380D01*
X219114285Y-96097619D01*
X219114285Y-96240476D01*
X219066666Y-96335714D01*
X218971428Y-96383333D01*
X218447619Y-96383333D01*
X218971428Y-96383333D02*
X219066666Y-96430952D01*
X219114285Y-96526190D01*
X219114285Y-96669047D01*
X219066666Y-96764285D01*
X218971428Y-96811904D01*
X218447619Y-96811904D01*
X218447619Y-97288095D02*
X219114285Y-97288095D01*
X219019047Y-97288095D02*
X219066666Y-97335714D01*
X219114285Y-97430952D01*
X219114285Y-97573809D01*
X219066666Y-97669047D01*
X218971428Y-97716666D01*
X218447619Y-97716666D01*
X218971428Y-97716666D02*
X219066666Y-97764285D01*
X219114285Y-97859523D01*
X219114285Y-98002380D01*
X219066666Y-98097619D01*
X218971428Y-98145238D01*
X218447619Y-98145238D01*
X217600000Y-88000000D02*
X217600000Y-100100000D01*
X209900000Y-88000000D02*
X218186421Y-88000000D01*
X209900000Y-100100000D02*
X218186421Y-100100000D01*
X217600000Y-100100000D02*
X217013579Y-98973496D01*
X217600000Y-100100000D02*
X218186421Y-98973496D01*
X217600000Y-88000000D02*
X217013579Y-89126504D01*
X217600000Y-88000000D02*
X218186421Y-89126504D01*
X66652380Y-144075956D02*
X66652380Y-143456908D01*
X67033333Y-143790241D01*
X67033333Y-143647384D01*
X67080952Y-143552146D01*
X67128571Y-143504527D01*
X67223809Y-143456908D01*
X67461904Y-143456908D01*
X67557142Y-143504527D01*
X67604761Y-143552146D01*
X67652380Y-143647384D01*
X67652380Y-143933099D01*
X67604761Y-144028337D01*
X67557142Y-144075956D01*
X66652380Y-143123575D02*
X66652380Y-142504527D01*
X67033333Y-142837860D01*
X67033333Y-142695003D01*
X67080952Y-142599765D01*
X67128571Y-142552146D01*
X67223809Y-142504527D01*
X67461904Y-142504527D01*
X67557142Y-142552146D01*
X67604761Y-142599765D01*
X67652380Y-142695003D01*
X67652380Y-142980718D01*
X67604761Y-143075956D01*
X67557142Y-143123575D01*
X67557142Y-142075956D02*
X67604761Y-142028337D01*
X67652380Y-142075956D01*
X67604761Y-142123575D01*
X67557142Y-142075956D01*
X67652380Y-142075956D01*
X67652380Y-141552146D02*
X67652380Y-141361670D01*
X67604761Y-141266432D01*
X67557142Y-141218813D01*
X67414285Y-141123575D01*
X67223809Y-141075956D01*
X66842857Y-141075956D01*
X66747619Y-141123575D01*
X66700000Y-141171194D01*
X66652380Y-141266432D01*
X66652380Y-141456908D01*
X66700000Y-141552146D01*
X66747619Y-141599765D01*
X66842857Y-141647384D01*
X67080952Y-141647384D01*
X67176190Y-141599765D01*
X67223809Y-141552146D01*
X67271428Y-141456908D01*
X67271428Y-141266432D01*
X67223809Y-141171194D01*
X67176190Y-141123575D01*
X67080952Y-141075956D01*
X66652380Y-140742622D02*
X66652380Y-140075956D01*
X67652380Y-140504527D01*
X67652380Y-139171194D02*
X67652380Y-139742622D01*
X67652380Y-139456908D02*
X66652380Y-139456908D01*
X66795238Y-139552146D01*
X66890476Y-139647384D01*
X66938095Y-139742622D01*
X67652380Y-137980718D02*
X66985714Y-137980718D01*
X67080952Y-137980718D02*
X67033333Y-137933099D01*
X66985714Y-137837860D01*
X66985714Y-137695003D01*
X67033333Y-137599765D01*
X67128571Y-137552146D01*
X67652380Y-137552146D01*
X67128571Y-137552146D02*
X67033333Y-137504527D01*
X66985714Y-137409289D01*
X66985714Y-137266432D01*
X67033333Y-137171194D01*
X67128571Y-137123575D01*
X67652380Y-137123575D01*
X67652380Y-136647384D02*
X66985714Y-136647384D01*
X67080952Y-136647384D02*
X67033333Y-136599765D01*
X66985714Y-136504527D01*
X66985714Y-136361670D01*
X67033333Y-136266432D01*
X67128571Y-136218813D01*
X67652380Y-136218813D01*
X67128571Y-136218813D02*
X67033333Y-136171194D01*
X66985714Y-136075956D01*
X66985714Y-135933099D01*
X67033333Y-135837860D01*
X67128571Y-135790241D01*
X67652380Y-135790241D01*
X68500000Y-156870960D02*
X68500000Y-122900000D01*
X81404448Y-156870960D02*
X67913579Y-156870960D01*
X81404448Y-122900000D02*
X67913579Y-122900000D01*
X68500000Y-122900000D02*
X69086421Y-124026504D01*
X68500000Y-122900000D02*
X67913579Y-124026504D01*
X68500000Y-156870960D02*
X69086421Y-155744456D01*
X68500000Y-156870960D02*
X67913579Y-155744456D01*
X77152380Y-131396428D02*
X77152380Y-131205952D01*
X77104761Y-131110714D01*
X77057142Y-131063095D01*
X76914285Y-130967857D01*
X76723809Y-130920238D01*
X76342857Y-130920238D01*
X76247619Y-130967857D01*
X76200000Y-131015476D01*
X76152380Y-131110714D01*
X76152380Y-131301190D01*
X76200000Y-131396428D01*
X76247619Y-131444047D01*
X76342857Y-131491666D01*
X76580952Y-131491666D01*
X76676190Y-131444047D01*
X76723809Y-131396428D01*
X76771428Y-131301190D01*
X76771428Y-131110714D01*
X76723809Y-131015476D01*
X76676190Y-130967857D01*
X76580952Y-130920238D01*
X77057142Y-130491666D02*
X77104761Y-130444047D01*
X77152380Y-130491666D01*
X77104761Y-130539285D01*
X77057142Y-130491666D01*
X77152380Y-130491666D01*
X76580952Y-129872619D02*
X76533333Y-129967857D01*
X76485714Y-130015476D01*
X76390476Y-130063095D01*
X76342857Y-130063095D01*
X76247619Y-130015476D01*
X76200000Y-129967857D01*
X76152380Y-129872619D01*
X76152380Y-129682142D01*
X76200000Y-129586904D01*
X76247619Y-129539285D01*
X76342857Y-129491666D01*
X76390476Y-129491666D01*
X76485714Y-129539285D01*
X76533333Y-129586904D01*
X76580952Y-129682142D01*
X76580952Y-129872619D01*
X76628571Y-129967857D01*
X76676190Y-130015476D01*
X76771428Y-130063095D01*
X76961904Y-130063095D01*
X77057142Y-130015476D01*
X77104761Y-129967857D01*
X77152380Y-129872619D01*
X77152380Y-129682142D01*
X77104761Y-129586904D01*
X77057142Y-129539285D01*
X76961904Y-129491666D01*
X76771428Y-129491666D01*
X76676190Y-129539285D01*
X76628571Y-129586904D01*
X76580952Y-129682142D01*
X76152380Y-128586904D02*
X76152380Y-129063095D01*
X76628571Y-129110714D01*
X76580952Y-129063095D01*
X76533333Y-128967857D01*
X76533333Y-128729761D01*
X76580952Y-128634523D01*
X76628571Y-128586904D01*
X76723809Y-128539285D01*
X76961904Y-128539285D01*
X77057142Y-128586904D01*
X77104761Y-128634523D01*
X77152380Y-128729761D01*
X77152380Y-128967857D01*
X77104761Y-129063095D01*
X77057142Y-129110714D01*
X76152380Y-127920238D02*
X76152380Y-127825000D01*
X76200000Y-127729761D01*
X76247619Y-127682142D01*
X76342857Y-127634523D01*
X76533333Y-127586904D01*
X76771428Y-127586904D01*
X76961904Y-127634523D01*
X77057142Y-127682142D01*
X77104761Y-127729761D01*
X77152380Y-127825000D01*
X77152380Y-127920238D01*
X77104761Y-128015476D01*
X77057142Y-128063095D01*
X76961904Y-128110714D01*
X76771428Y-128158333D01*
X76533333Y-128158333D01*
X76342857Y-128110714D01*
X76247619Y-128063095D01*
X76200000Y-128015476D01*
X76152380Y-127920238D01*
X77152380Y-126396428D02*
X76485714Y-126396428D01*
X76580952Y-126396428D02*
X76533333Y-126348809D01*
X76485714Y-126253571D01*
X76485714Y-126110714D01*
X76533333Y-126015476D01*
X76628571Y-125967857D01*
X77152380Y-125967857D01*
X76628571Y-125967857D02*
X76533333Y-125920238D01*
X76485714Y-125825000D01*
X76485714Y-125682142D01*
X76533333Y-125586904D01*
X76628571Y-125539285D01*
X77152380Y-125539285D01*
X77152380Y-125063095D02*
X76485714Y-125063095D01*
X76580952Y-125063095D02*
X76533333Y-125015476D01*
X76485714Y-124920238D01*
X76485714Y-124777380D01*
X76533333Y-124682142D01*
X76628571Y-124634523D01*
X77152380Y-124634523D01*
X76628571Y-124634523D02*
X76533333Y-124586904D01*
X76485714Y-124491666D01*
X76485714Y-124348809D01*
X76533333Y-124253571D01*
X76628571Y-124205952D01*
X77152380Y-124205952D01*
X78000000Y-132750000D02*
X78000000Y-122900000D01*
X81600000Y-132750000D02*
X77413579Y-132750000D01*
X81600000Y-122900000D02*
X77413579Y-122900000D01*
X78000000Y-122900000D02*
X78586421Y-124026504D01*
X78000000Y-122900000D02*
X77413579Y-124026504D01*
X78000000Y-132750000D02*
X78586421Y-131623496D01*
X78000000Y-132750000D02*
X77413579Y-131623496D01*
X78664141Y-136110304D02*
X78658594Y-135538902D01*
X78661368Y-135824603D02*
X79661321Y-135814895D01*
X79517546Y-135721048D01*
X79421387Y-135626739D01*
X79372846Y-135531968D01*
X79670104Y-136719614D02*
X79671029Y-136814848D01*
X79624337Y-136910544D01*
X79577182Y-136958623D01*
X79482411Y-137007164D01*
X79292406Y-137056630D01*
X79054322Y-137058942D01*
X78863392Y-137013174D01*
X78767696Y-136966482D01*
X78719617Y-136919327D01*
X78671076Y-136824556D01*
X78670151Y-136729323D01*
X78716844Y-136633627D01*
X78763998Y-136585548D01*
X78858769Y-136537006D01*
X79048774Y-136487540D01*
X79286858Y-136485229D01*
X79477788Y-136530996D01*
X79573484Y-136577688D01*
X79621563Y-136624843D01*
X79670104Y-136719614D01*
X78772782Y-137490267D02*
X78725627Y-137538346D01*
X78677548Y-137491191D01*
X78724703Y-137443112D01*
X78772782Y-137490267D01*
X78677548Y-137491191D01*
X79681199Y-137862418D02*
X79687209Y-138481436D01*
X79303039Y-138151817D01*
X79304426Y-138294667D01*
X79257733Y-138390363D01*
X79210579Y-138438442D01*
X79115808Y-138486984D01*
X78877724Y-138489295D01*
X78782028Y-138442603D01*
X78733949Y-138395448D01*
X78685407Y-138300677D01*
X78682633Y-138014976D01*
X78729326Y-137919280D01*
X78776480Y-137871201D01*
X79693219Y-139100454D02*
X79694144Y-139195688D01*
X79647452Y-139291384D01*
X79600297Y-139339463D01*
X79505526Y-139388004D01*
X79315521Y-139437470D01*
X79077437Y-139439782D01*
X78886507Y-139394014D01*
X78790811Y-139347322D01*
X78742732Y-139300168D01*
X78694191Y-139205396D01*
X78693266Y-139110163D01*
X78739958Y-139014467D01*
X78787113Y-138966388D01*
X78881884Y-138917846D01*
X79071889Y-138868380D01*
X79309973Y-138866069D01*
X79500903Y-138911836D01*
X79596599Y-138958529D01*
X79644678Y-139005683D01*
X79693219Y-139100454D01*
X79702465Y-140052790D02*
X79703390Y-140148024D01*
X79656698Y-140243720D01*
X79609543Y-140291799D01*
X79514772Y-140340341D01*
X79324767Y-140389807D01*
X79086683Y-140392118D01*
X78895753Y-140346350D01*
X78800057Y-140299658D01*
X78751978Y-140252504D01*
X78703437Y-140157732D01*
X78702512Y-140062499D01*
X78749204Y-139966803D01*
X78796359Y-139918724D01*
X78891130Y-139870182D01*
X79081135Y-139820716D01*
X79319219Y-139818405D01*
X79510149Y-139864172D01*
X79605845Y-139910865D01*
X79653924Y-139958019D01*
X79702465Y-140052790D01*
X78717306Y-141586236D02*
X79383941Y-141579764D01*
X79288707Y-141580689D02*
X79336787Y-141627843D01*
X79385328Y-141722615D01*
X79386715Y-141865465D01*
X79340023Y-141961161D01*
X79245251Y-142009702D01*
X78721467Y-142014788D01*
X79245251Y-142009702D02*
X79340947Y-142056395D01*
X79389489Y-142151166D01*
X79390876Y-142294016D01*
X79344183Y-142389712D01*
X79249412Y-142438254D01*
X78725627Y-142443339D01*
X78730250Y-142919507D02*
X79396885Y-142913035D01*
X79301652Y-142913959D02*
X79349731Y-142961114D01*
X79398272Y-143055885D01*
X79399659Y-143198736D01*
X79352967Y-143294432D01*
X79258196Y-143342973D01*
X78734411Y-143348058D01*
X79258196Y-143342973D02*
X79353892Y-143389665D01*
X79402433Y-143484436D01*
X79403820Y-143627287D01*
X79357128Y-143722983D01*
X79262356Y-143771524D01*
X78738572Y-143776609D01*
X80401113Y-134514552D02*
X80501113Y-144814552D01*
X81900000Y-134500000D02*
X79814720Y-134520245D01*
X82000000Y-144800000D02*
X79914720Y-144820245D01*
X80501113Y-144814552D02*
X79903783Y-143693794D01*
X80501113Y-144814552D02*
X81076570Y-143682408D01*
X80401113Y-134514552D02*
X79825656Y-135646696D01*
X80401113Y-134514552D02*
X80998443Y-135635310D01*
X76144301Y-136090807D02*
X76144117Y-135519378D01*
X76144209Y-135805092D02*
X77144209Y-135804771D01*
X77001321Y-135709578D01*
X76906053Y-135614371D01*
X76858403Y-135519148D01*
X77144408Y-136423818D02*
X77144608Y-137042866D01*
X76763548Y-136709655D01*
X76763594Y-136852512D01*
X76716006Y-136947766D01*
X76668402Y-136995400D01*
X76573179Y-137043050D01*
X76335084Y-137043126D01*
X76239830Y-136995538D01*
X76192196Y-136947934D01*
X76144546Y-136852711D01*
X76144454Y-136566997D01*
X76192043Y-136471744D01*
X76239647Y-136424109D01*
X76239984Y-137471728D02*
X76192380Y-137519363D01*
X76144746Y-137471759D01*
X76192349Y-137424125D01*
X76239984Y-137471728D01*
X76144746Y-137471759D01*
X76716373Y-138090623D02*
X76763962Y-137995369D01*
X76811565Y-137947735D01*
X76906788Y-137900085D01*
X76954407Y-137900070D01*
X77049661Y-137947658D01*
X77097295Y-137995262D01*
X77144945Y-138090485D01*
X77145006Y-138280961D01*
X77097418Y-138376214D01*
X77049814Y-138423849D01*
X76954591Y-138471498D01*
X76906972Y-138471514D01*
X76811719Y-138423925D01*
X76764084Y-138376322D01*
X76716435Y-138281099D01*
X76716373Y-138090623D01*
X76668724Y-137995400D01*
X76621089Y-137947796D01*
X76525836Y-137900208D01*
X76335360Y-137900269D01*
X76240137Y-137947919D01*
X76192533Y-137995553D01*
X76144945Y-138090807D01*
X76145006Y-138281283D01*
X76192656Y-138376506D01*
X76240290Y-138424109D01*
X76335544Y-138471698D01*
X76526020Y-138471636D01*
X76621243Y-138423987D01*
X76668846Y-138376352D01*
X76716435Y-138281099D01*
X77049952Y-138852420D02*
X77097586Y-138900024D01*
X77145236Y-138995247D01*
X77145313Y-139233342D01*
X77097724Y-139328595D01*
X77050120Y-139376230D01*
X76954898Y-139423879D01*
X76859660Y-139423910D01*
X76716787Y-139376337D01*
X76145175Y-138805092D01*
X76145374Y-139424140D01*
X76145680Y-140376521D02*
X76145497Y-139805092D01*
X76145588Y-140090806D02*
X77145588Y-140090485D01*
X77002701Y-139995293D01*
X76907432Y-139900085D01*
X76859782Y-139804862D01*
X76146064Y-141566997D02*
X76812730Y-141566782D01*
X76717492Y-141566813D02*
X76765126Y-141614417D01*
X76812776Y-141709639D01*
X76812822Y-141852497D01*
X76765234Y-141947750D01*
X76670011Y-141995400D01*
X76146202Y-141995568D01*
X76670011Y-141995400D02*
X76765264Y-142042988D01*
X76812914Y-142138211D01*
X76812960Y-142281068D01*
X76765372Y-142376321D01*
X76670149Y-142423971D01*
X76146339Y-142424140D01*
X76146493Y-142900330D02*
X76813159Y-142900116D01*
X76717921Y-142900146D02*
X76765556Y-142947750D01*
X76813205Y-143042973D01*
X76813251Y-143185830D01*
X76765663Y-143281083D01*
X76670440Y-143328733D01*
X76146631Y-143328902D01*
X76670440Y-143328733D02*
X76765694Y-143376321D01*
X76813343Y-143471544D01*
X76813389Y-143614401D01*
X76765801Y-143709655D01*
X76670578Y-143757304D01*
X76146769Y-143757473D01*
X77895608Y-132751192D02*
X77900056Y-146572152D01*
X81600000Y-132750000D02*
X77309187Y-132751381D01*
X81604448Y-146570960D02*
X77313635Y-146572341D01*
X77900056Y-146572152D02*
X77313273Y-145445837D01*
X77900056Y-146572152D02*
X78486114Y-145445460D01*
X77895608Y-132751192D02*
X77309550Y-133877884D01*
X77895608Y-132751192D02*
X78482391Y-133877507D01*
D14*
X86500000Y-92000000D02*
G75*
G02X87500000Y-93000000I0J-1000000D01*
G01*
X211000000Y-51600000D02*
G75*
G02X212000000Y-52600000I0J-1000000D01*
G01*
X212000000Y-103000000D02*
G75*
G02X211000000Y-104000000I-1000000J0D01*
G01*
X200000000Y-105000000D02*
G75*
G02X201000000Y-104000000I1000000J0D01*
G01*
X201000000Y-137300000D02*
G75*
G02X200000000Y-136300000I0J1000000D01*
G01*
X211000000Y-137300000D02*
G75*
G02X212000000Y-138300000I0J-1000000D01*
G01*
X212000000Y-155200000D02*
G75*
G02X211000000Y-156200000I-1000000J0D01*
G01*
X84000000Y-156200000D02*
G75*
G02X83000000Y-155200000I0J1000000D01*
G01*
X83000000Y-148000000D02*
G75*
G02X84000000Y-147000000I1000000J0D01*
G01*
X88000000Y-146000000D02*
G75*
G02X87000000Y-147000000I-1000000J0D01*
G01*
X87000000Y-132000000D02*
G75*
G02X88000000Y-133000000I0J-1000000D01*
G01*
X86500000Y-126000000D02*
X84000000Y-126000000D01*
X87500000Y-125000000D02*
G75*
G02X86500000Y-126000000I-1000000J0D01*
G01*
X83000000Y-127000000D02*
G75*
G02X84000000Y-126000000I1000000J0D01*
G01*
X84000000Y-132000000D02*
G75*
G02X83000000Y-131000000I0J1000000D01*
G01*
X84000000Y-92000000D02*
G75*
G02X83000000Y-91000000I0J1000000D01*
G01*
X83000000Y-52600000D02*
G75*
G02X84000000Y-51600000I1000000J0D01*
G01*
D15*
X200601690Y-105997001D02*
X202101690Y-105997001D01*
X213201690Y-110697002D02*
X213201691Y-105897002D01*
X202001690Y-110797001D02*
X200601690Y-110797002D01*
X214601691Y-110697002D02*
X213201690Y-110697002D01*
X199301690Y-108397001D02*
X199701690Y-109297002D01*
X213201691Y-105897002D02*
X214601690Y-105897002D01*
X213201691Y-109297002D02*
X213201690Y-107297002D01*
X213201691Y-109297002D02*
X213201690Y-107297002D01*
X200601690Y-110797002D02*
X200601690Y-105997001D01*
X213100000Y-107297002D02*
X199700000Y-107300000D01*
X213200000Y-109300000D02*
X199700000Y-109300000D01*
X202001690Y-110797001D02*
X200601690Y-110797002D01*
X200601690Y-105997001D02*
X202101690Y-105997001D01*
X214601691Y-110697002D02*
X214601690Y-105897002D01*
X200601690Y-110797002D02*
X200601690Y-105997001D01*
X199701691Y-107297002D02*
X199301690Y-108397001D01*
X202101690Y-110797002D02*
X202101690Y-105997001D01*
X202101690Y-135897002D02*
X202101690Y-131097001D01*
X214401691Y-135797002D02*
X214401690Y-130997002D01*
X199701691Y-132397002D02*
X199301690Y-133497001D01*
X200601690Y-135897002D02*
X200601690Y-131097001D01*
X199301690Y-133497001D02*
X199701690Y-134397002D01*
X213001691Y-130997002D02*
X214401690Y-130997002D01*
X213001691Y-134397002D02*
X213001690Y-132397002D01*
X212900000Y-132397002D02*
X199700000Y-132397002D01*
X202001690Y-135897001D02*
X200601690Y-135897002D01*
X214401691Y-135797002D02*
X213001690Y-135797002D01*
X213001691Y-134397002D02*
X213001690Y-132397002D01*
X213001690Y-135797002D02*
X213001691Y-130997002D01*
X200601690Y-135897002D02*
X200601690Y-131097001D01*
X213000000Y-134400000D02*
X199700000Y-134400000D01*
X200601690Y-131097001D02*
X202101690Y-131097001D01*
X202001690Y-135897001D02*
X200601690Y-135897002D01*
X200601690Y-131097001D02*
X202101690Y-131097001D01*
X225300000Y-121400000D02*
X221300000Y-117400000D01*
X215457142Y-121700000D02*
X216028571Y-121700000D01*
X215342857Y-122042857D02*
X215742857Y-120842857D01*
X216142857Y-122042857D01*
X216542857Y-122042857D02*
X216542857Y-120842857D01*
X217800000Y-122042857D02*
X217400000Y-121471428D01*
X217114285Y-122042857D02*
X217114285Y-120842857D01*
X217571428Y-120842857D01*
X217685714Y-120900000D01*
X217742857Y-120957142D01*
X217800000Y-121071428D01*
X217800000Y-121242857D01*
X217742857Y-121357142D01*
X217685714Y-121414285D01*
X217571428Y-121471428D01*
X217114285Y-121471428D01*
X219628571Y-121414285D02*
X219228571Y-121414285D01*
X219228571Y-122042857D02*
X219228571Y-120842857D01*
X219800000Y-120842857D01*
X220828571Y-122042857D02*
X220257142Y-122042857D01*
X220257142Y-120842857D01*
X221457142Y-120842857D02*
X221685714Y-120842857D01*
X221800000Y-120900000D01*
X221914285Y-121014285D01*
X221971428Y-121242857D01*
X221971428Y-121642857D01*
X221914285Y-121871428D01*
X221800000Y-121985714D01*
X221685714Y-122042857D01*
X221457142Y-122042857D01*
X221342857Y-121985714D01*
X221228571Y-121871428D01*
X221171428Y-121642857D01*
X221171428Y-121242857D01*
X221228571Y-121014285D01*
X221342857Y-120900000D01*
X221457142Y-120842857D01*
X222371428Y-120842857D02*
X222657142Y-122042857D01*
X222885714Y-121185714D01*
X223114285Y-122042857D01*
X223400000Y-120842857D01*
X221300000Y-119400000D02*
X214300000Y-119400000D01*
X221300000Y-117400000D02*
X221300000Y-119400000D01*
X221300001Y-125400000D02*
X225300000Y-121400000D01*
X221300000Y-123400000D02*
X221300001Y-125400000D01*
X214300001Y-123400000D02*
X221300000Y-123400000D01*
X214300000Y-119400000D02*
X214300001Y-123400000D01*
D14*
X87000000Y-132000000D02*
X84000000Y-132000000D01*
X83000000Y-127000000D02*
X83000000Y-131000000D01*
X83000000Y-148000000D02*
X83000000Y-155200000D01*
X84000000Y-147000000D02*
X87000000Y-147000000D01*
X88000000Y-146000000D02*
X88000000Y-133000000D01*
X212000000Y-138300000D02*
X212000000Y-155200000D01*
X201000000Y-104000000D02*
X211000000Y-104000000D01*
X200000000Y-136300000D02*
X200000000Y-105000000D01*
X211000000Y-137300000D02*
X201000000Y-137300000D01*
D11*
X212100000Y-105800000D02*
X202100000Y-105800000D01*
X212100000Y-135800000D02*
X212100000Y-105800000D01*
X202100000Y-135800000D02*
X212100000Y-135800000D01*
X202100000Y-105800000D02*
X202100000Y-135800000D01*
D14*
X86500000Y-92000000D02*
X84000000Y-92000000D01*
X87500000Y-125000000D02*
X87500000Y-93000000D01*
X211000000Y-51600000D02*
X84000000Y-51600000D01*
X212000000Y-103000000D02*
X212000000Y-52600000D01*
X84000000Y-156200000D02*
X211000000Y-156200000D01*
X83000000Y-52600000D02*
X83000000Y-91000000D01*
D15*
X81800000Y-118500000D02*
X81800000Y-120500000D01*
X81800000Y-117100000D02*
X81800000Y-121900000D01*
X81800000Y-121900000D02*
X80400000Y-121900000D01*
X80400000Y-117100000D02*
X80400000Y-121900000D01*
X80400000Y-117100000D02*
X81800000Y-117100000D01*
X80400000Y-96200000D02*
X80400000Y-101000000D01*
X80400000Y-96200000D02*
X81800000Y-96200000D01*
X81800000Y-96200000D02*
X81800000Y-101000000D01*
X81800000Y-101000000D02*
X80400000Y-101000000D01*
X87900000Y-120500000D02*
X88300000Y-119400000D01*
X85600000Y-117000000D02*
X87000000Y-117000000D01*
X81800000Y-120500000D02*
X87900000Y-120500000D01*
X81800000Y-118500000D02*
X81800000Y-120500000D01*
X88300000Y-119400000D02*
X87900000Y-118500000D01*
X87000000Y-117000000D02*
X87000000Y-121800000D01*
X87000000Y-121800000D02*
X85500000Y-121800000D01*
X81800000Y-118500000D02*
X87900000Y-118500000D01*
X88300000Y-98500000D02*
X87900000Y-97600000D01*
X87900000Y-99600000D02*
X88300000Y-98500000D01*
X81800000Y-99600000D02*
X87900000Y-99600000D01*
X81800000Y-97600000D02*
X81800000Y-99600000D01*
X81800000Y-97600000D02*
X87900000Y-97600000D01*
X85600000Y-117000000D02*
X87000000Y-117000000D01*
X87000000Y-117000000D02*
X87000000Y-121800000D01*
X87000000Y-121800000D02*
X85500000Y-121800000D01*
X87000000Y-100900000D02*
X85500000Y-100900000D01*
X87000000Y-96100000D02*
X87000000Y-100900000D01*
X85600000Y-96100000D02*
X87000000Y-96100000D01*
X83500000Y-94600000D02*
X83500000Y-123200000D01*
X85500000Y-123200000D02*
X83500000Y-123200000D01*
X85500000Y-94600000D02*
X85500000Y-123200000D01*
X83500000Y-94600000D02*
X85500000Y-94600000D01*
X82500000Y-71900000D02*
X83500000Y-71900000D01*
X83500000Y-71900000D02*
X83500000Y-59900000D01*
X82500000Y-59900000D02*
X82500000Y-71900000D01*
X83500000Y-59900000D02*
X82500000Y-59900000D01*
X82600000Y-77000000D02*
X82600000Y-89000000D01*
X82600000Y-89000000D02*
X83600000Y-89000000D01*
X83600000Y-77000000D02*
X82600000Y-77000000D01*
X83600000Y-89000000D02*
X83600000Y-77000000D01*
X99900000Y-66100000D02*
X78999044Y-66100000D01*
X99800000Y-83100000D02*
X79699752Y-83100000D01*
X230000000Y-151400000D02*
X71000000Y-151400000D01*
X78000000Y-56700000D02*
X222000000Y-56700000D01*
D10*
G04 #@! TO.C,J5*
X145552962Y-64854936D02*
X144654936Y-65752962D01*
X149145064Y-68447038D02*
X145552962Y-64854936D01*
X148247038Y-69345064D02*
X149145064Y-68447038D01*
X144654936Y-65752962D02*
X148247038Y-69345064D01*
X145552962Y-64854936D02*
X145552962Y-66650987D01*
X145103949Y-65303949D02*
X145103949Y-66201974D01*
X146001974Y-65303949D02*
X146001974Y-67100000D01*
X146450987Y-65752962D02*
X146450987Y-67549013D01*
X148696051Y-67998026D02*
X148696051Y-68896051D01*
X146900000Y-66201974D02*
X146900000Y-67998026D01*
X147349013Y-66650987D02*
X147349013Y-68447038D01*
X147798026Y-67100000D02*
X147798026Y-68896051D01*
X148247038Y-67549013D02*
X148247038Y-69345064D01*
G04 #@! TD*
M02*
